<?xml version="1.0" encoding="UTF-8"?>
<svg xmlns="http://www.w3.org/2000/svg" viewBox="0 0 256 256" shape-rendering="geometricPrecision">
  <defs>
    <linearGradient id="bg-mountain-ridge" x1="0%" y1="0%" x2="100%" y2="100%">
      <stop offset="0%" stop-color="#8C765F" />
      <stop offset="52%" stop-color="#887158" />
      <stop offset="100%" stop-color="#C5B092" />
    </linearGradient>
  </defs>
  <rect width="256" height="256" fill="url(#bg-mountain-ridge)" />
  <path d="M -2.3 192.4 l 40.6 -19.2 l 49.7 19.2 z" fill="#6A5746" opacity="0.25" />
  <path d="M 207.8 222.0 l 34.7 -19.4 l 42.4 19.4 z" fill="#9A8368" opacity="0.24" />
  <path d="M 49.0 158.1 l 30.8 -28.7 l 37.7 28.7 z" fill="#9A8368" opacity="0.13" />
  <path d="M 269.8 259.2 l 20.9 -37.1 l 25.5 37.1 z" fill="#7C6751" opacity="0.22" />
  <path d="M 16.4 75.5 l 34.6 -27.9 l 42.3 27.9 z" fill="#9A8368" opacity="0.14" />
  <path d="M 17.4 178.7 l 13.1 -36.4 l 16.0 36.4 z" fill="#6A5746" opacity="0.23" />
  <path d="M 234.0 234.8 l 13.0 -22.5 l 15.9 22.5 z" fill="#C7B49A" opacity="0.24" />
  <path d="M 126.7 229.8 l 36.9 -34.8 l 45.1 34.8 z" fill="#9A8368" opacity="0.18" />
  <path d="M -18.6 144.7 l 25.9 -37.8 l 31.6 37.8 z" fill="#7C6751" opacity="0.13" />
  <path d="M 105.6 204.4 l 16.9 -34.4 l 20.7 34.4 z" fill="#C7B49A" opacity="0.23" />
  <path d="M 205.8 131.4 l 18.7 -34.8 l 22.9 34.8 z" fill="#9A8368" opacity="0.18" />
  <path d="M 128.6 232.2 l 39.5 -36.8 l 48.3 36.8 z" fill="#9A8368" opacity="0.25" />
  <path d="M 202.9 45.4 l 13.2 -31.3 l 16.2 31.3 z" fill="#9A8368" opacity="0.16" />
  <path d="M 207.4 261.4 l 24.0 -14.6 l 29.4 14.6 z" fill="#6A5746" opacity="0.14" />
  <path d="M 210.8 224.8 l 13.9 -32.7 l 17.0 32.7 z" fill="#6A5746" opacity="0.24" />
  <path d="M 214.6 275.2 l 18.0 -29.0 l 22.0 29.0 z" fill="#6A5746" opacity="0.13" />
  <path d="M 89.3 212.7 l 40.7 -26.1 l 49.8 26.1 z" fill="#C7B49A" opacity="0.14" />
  <path d="M 87.2 22.4 l 17.3 -31.4 l 21.1 31.4 z" fill="#C7B49A" opacity="0.24" />
  <line x1="247.3" y1="131.8" x2="245.2" y2="107.3" stroke="#5B4A3A" stroke-width="1.00" opacity="0.27" stroke-linecap="round" />
  <line x1="205.4" y1="0.5" x2="205.6" y2="-25.2" stroke="#A08A72" stroke-width="1.68" opacity="0.42" stroke-linecap="round" />
  <line x1="150.2" y1="44.6" x2="152.5" y2="32.4" stroke="#7C6650" stroke-width="1.14" opacity="0.19" stroke-linecap="round" />
  <line x1="213.0" y1="149.4" x2="215.3" y2="141.4" stroke="#A08A72" stroke-width="1.05" opacity="0.49" stroke-linecap="round" />
  <line x1="139.4" y1="85.6" x2="135.3" y2="68.7" stroke="#A08A72" stroke-width="1.37" opacity="0.45" stroke-linecap="round" />
  <line x1="215.0" y1="188.8" x2="213.9" y2="171.7" stroke="#5B4A3A" stroke-width="1.07" opacity="0.46" stroke-linecap="round" />
  <line x1="133.2" y1="228.5" x2="132.2" y2="210.7" stroke="#5B4A3A" stroke-width="0.90" opacity="0.49" stroke-linecap="round" />
  <line x1="2.4" y1="198.8" x2="1.6" y2="177.0" stroke="#5B4A3A" stroke-width="1.58" opacity="0.38" stroke-linecap="round" />
  <line x1="231.8" y1="207.5" x2="234.7" y2="196.0" stroke="#7C6650" stroke-width="1.60" opacity="0.52" stroke-linecap="round" />
  <line x1="86.0" y1="68.1" x2="82.5" y2="47.4" stroke="#7C6650" stroke-width="1.00" opacity="0.39" stroke-linecap="round" />
  <line x1="157.6" y1="245.1" x2="152.5" y2="232.9" stroke="#5B4A3A" stroke-width="1.55" opacity="0.44" stroke-linecap="round" />
  <line x1="196.4" y1="81.8" x2="197.4" y2="66.9" stroke="#7C6650" stroke-width="0.83" opacity="0.53" stroke-linecap="round" />
  <line x1="135.1" y1="101.1" x2="132.8" y2="77.2" stroke="#7C6650" stroke-width="0.84" opacity="0.23" stroke-linecap="round" />
  <line x1="11.5" y1="215.6" x2="6.4" y2="202.4" stroke="#A08A72" stroke-width="1.52" opacity="0.31" stroke-linecap="round" />
  <line x1="34.5" y1="118.6" x2="35.8" y2="91.9" stroke="#7C6650" stroke-width="1.08" opacity="0.49" stroke-linecap="round" />
  <line x1="43.5" y1="170.7" x2="49.0" y2="143.8" stroke="#5B4A3A" stroke-width="1.12" opacity="0.28" stroke-linecap="round" />
  <line x1="209.0" y1="27.7" x2="211.4" y2="3.3" stroke="#7C6650" stroke-width="0.91" opacity="0.18" stroke-linecap="round" />
  <line x1="203.7" y1="239.7" x2="202.2" y2="225.6" stroke="#A08A72" stroke-width="0.83" opacity="0.54" stroke-linecap="round" />
  <line x1="86.7" y1="74.5" x2="83.3" y2="58.4" stroke="#7C6650" stroke-width="1.20" opacity="0.21" stroke-linecap="round" />
  <line x1="175.0" y1="178.0" x2="169.0" y2="151.9" stroke="#5B4A3A" stroke-width="1.16" opacity="0.32" stroke-linecap="round" />
  <line x1="151.9" y1="28.6" x2="148.0" y2="17.5" stroke="#A08A72" stroke-width="0.83" opacity="0.22" stroke-linecap="round" />
  <line x1="14.5" y1="138.6" x2="13.7" y2="115.3" stroke="#A08A72" stroke-width="1.16" opacity="0.53" stroke-linecap="round" />
  <line x1="159.7" y1="243.9" x2="163.1" y2="217.7" stroke="#7C6650" stroke-width="1.49" opacity="0.36" stroke-linecap="round" />
  <line x1="38.7" y1="169.7" x2="40.6" y2="161.3" stroke="#7C6650" stroke-width="1.02" opacity="0.27" stroke-linecap="round" />
  <line x1="225.3" y1="134.5" x2="230.7" y2="112.6" stroke="#7C6650" stroke-width="0.93" opacity="0.46" stroke-linecap="round" />
  <line x1="94.4" y1="102.3" x2="89.4" y2="80.7" stroke="#7C6650" stroke-width="1.63" opacity="0.32" stroke-linecap="round" />
  <line x1="244.4" y1="209.8" x2="249.2" y2="185.0" stroke="#7C6650" stroke-width="1.52" opacity="0.49" stroke-linecap="round" />
  <line x1="136.0" y1="94.1" x2="133.5" y2="71.8" stroke="#7C6650" stroke-width="1.12" opacity="0.54" stroke-linecap="round" />
  <line x1="171.4" y1="102.5" x2="165.7" y2="75.0" stroke="#5B4A3A" stroke-width="1.08" opacity="0.34" stroke-linecap="round" />
  <line x1="30.4" y1="219.4" x2="25.8" y2="195.3" stroke="#5B4A3A" stroke-width="1.22" opacity="0.26" stroke-linecap="round" />
  <line x1="123.7" y1="156.8" x2="120.3" y2="129.5" stroke="#A08A72" stroke-width="1.31" opacity="0.39" stroke-linecap="round" />
  <line x1="19.1" y1="70.9" x2="23.4" y2="46.3" stroke="#A08A72" stroke-width="1.28" opacity="0.21" stroke-linecap="round" />
  <line x1="50.9" y1="83.0" x2="55.9" y2="56.2" stroke="#5B4A3A" stroke-width="1.48" opacity="0.52" stroke-linecap="round" />
  <line x1="170.4" y1="152.7" x2="173.4" y2="133.7" stroke="#7C6650" stroke-width="0.80" opacity="0.45" stroke-linecap="round" />
  <line x1="56.4" y1="252.9" x2="54.8" y2="223.6" stroke="#5B4A3A" stroke-width="1.39" opacity="0.48" stroke-linecap="round" />
  <line x1="96.5" y1="154.7" x2="101.1" y2="135.0" stroke="#A08A72" stroke-width="1.57" opacity="0.34" stroke-linecap="round" />
  <line x1="127.1" y1="38.3" x2="130.8" y2="21.6" stroke="#5B4A3A" stroke-width="1.47" opacity="0.24" stroke-linecap="round" />
  <line x1="144.3" y1="47.8" x2="138.3" y2="29.6" stroke="#A08A72" stroke-width="0.98" opacity="0.23" stroke-linecap="round" />
  <line x1="245.9" y1="126.9" x2="239.9" y2="114.8" stroke="#A08A72" stroke-width="0.96" opacity="0.20" stroke-linecap="round" />
  <line x1="82.6" y1="66.2" x2="80.6" y2="57.6" stroke="#7C6650" stroke-width="0.84" opacity="0.48" stroke-linecap="round" />
  <line x1="128.5" y1="243.9" x2="123.6" y2="234.8" stroke="#A08A72" stroke-width="1.55" opacity="0.55" stroke-linecap="round" />
  <line x1="2.3" y1="252.2" x2="1.9" y2="233.3" stroke="#A08A72" stroke-width="1.41" opacity="0.33" stroke-linecap="round" />
  <line x1="160.2" y1="170.5" x2="155.8" y2="142.3" stroke="#A08A72" stroke-width="1.27" opacity="0.37" stroke-linecap="round" />
  <line x1="38.7" y1="84.0" x2="33.0" y2="54.8" stroke="#A08A72" stroke-width="1.35" opacity="0.30" stroke-linecap="round" />
  <line x1="193.0" y1="78.1" x2="198.1" y2="64.2" stroke="#A08A72" stroke-width="1.35" opacity="0.34" stroke-linecap="round" />
  <line x1="68.0" y1="241.7" x2="73.0" y2="227.7" stroke="#5B4A3A" stroke-width="1.00" opacity="0.22" stroke-linecap="round" />
  <line x1="5.7" y1="165.9" x2="4.9" y2="155.8" stroke="#5B4A3A" stroke-width="1.63" opacity="0.20" stroke-linecap="round" />
  <line x1="108.0" y1="220.8" x2="104.8" y2="208.5" stroke="#7C6650" stroke-width="1.11" opacity="0.32" stroke-linecap="round" />
  <line x1="246.0" y1="25.0" x2="251.3" y2="13.1" stroke="#7C6650" stroke-width="1.30" opacity="0.40" stroke-linecap="round" />
  <line x1="17.7" y1="51.0" x2="14.1" y2="21.8" stroke="#A08A72" stroke-width="1.08" opacity="0.44" stroke-linecap="round" />
  <line x1="87.1" y1="28.9" x2="84.9" y2="3.6" stroke="#7C6650" stroke-width="1.60" opacity="0.22" stroke-linecap="round" />
  <line x1="201.8" y1="12.6" x2="200.3" y2="-2.5" stroke="#7C6650" stroke-width="0.83" opacity="0.51" stroke-linecap="round" />
  <line x1="49.2" y1="116.3" x2="43.7" y2="103.1" stroke="#5B4A3A" stroke-width="0.81" opacity="0.27" stroke-linecap="round" />
  <line x1="72.7" y1="45.8" x2="71.4" y2="27.1" stroke="#5B4A3A" stroke-width="1.44" opacity="0.44" stroke-linecap="round" />
  <line x1="22.0" y1="60.1" x2="17.8" y2="51.9" stroke="#A08A72" stroke-width="1.24" opacity="0.32" stroke-linecap="round" />
  <line x1="161.1" y1="45.7" x2="161.1" y2="24.2" stroke="#A08A72" stroke-width="0.91" opacity="0.30" stroke-linecap="round" />
  <line x1="232.8" y1="97.8" x2="231.2" y2="82.4" stroke="#7C6650" stroke-width="1.32" opacity="0.50" stroke-linecap="round" />
  <line x1="187.2" y1="149.0" x2="187.4" y2="120.7" stroke="#5B4A3A" stroke-width="1.57" opacity="0.35" stroke-linecap="round" />
  <line x1="27.3" y1="222.7" x2="25.9" y2="198.3" stroke="#A08A72" stroke-width="0.80" opacity="0.30" stroke-linecap="round" />
  <line x1="101.9" y1="199.5" x2="97.8" y2="184.8" stroke="#A08A72" stroke-width="0.86" opacity="0.44" stroke-linecap="round" />
  <line x1="68.1" y1="171.1" x2="68.3" y2="143.2" stroke="#7C6650" stroke-width="1.07" opacity="0.53" stroke-linecap="round" />
  <line x1="78.4" y1="134.9" x2="83.5" y2="121.5" stroke="#7C6650" stroke-width="1.63" opacity="0.35" stroke-linecap="round" />
  <line x1="3.0" y1="92.3" x2="8.2" y2="63.8" stroke="#A08A72" stroke-width="1.15" opacity="0.34" stroke-linecap="round" />
  <line x1="220.7" y1="121.0" x2="220.0" y2="99.4" stroke="#7C6650" stroke-width="0.94" opacity="0.33" stroke-linecap="round" />
  <line x1="7.0" y1="254.1" x2="10.8" y2="242.3" stroke="#7C6650" stroke-width="1.54" opacity="0.37" stroke-linecap="round" />
  <line x1="52.0" y1="0.8" x2="50.8" y2="-9.6" stroke="#7C6650" stroke-width="1.33" opacity="0.37" stroke-linecap="round" />
  <line x1="56.8" y1="149.1" x2="61.4" y2="134.7" stroke="#7C6650" stroke-width="1.20" opacity="0.46" stroke-linecap="round" />
  <line x1="42.4" y1="198.8" x2="47.5" y2="186.3" stroke="#5B4A3A" stroke-width="0.91" opacity="0.41" stroke-linecap="round" />
  <line x1="107.5" y1="22.3" x2="106.3" y2="1.5" stroke="#7C6650" stroke-width="1.66" opacity="0.28" stroke-linecap="round" />
  <line x1="169.8" y1="89.9" x2="169.1" y2="65.5" stroke="#7C6650" stroke-width="1.01" opacity="0.47" stroke-linecap="round" />
  <line x1="19.7" y1="199.1" x2="19.7" y2="175.2" stroke="#7C6650" stroke-width="1.44" opacity="0.33" stroke-linecap="round" />
  <line x1="81.7" y1="80.1" x2="75.8" y2="57.3" stroke="#A08A72" stroke-width="1.02" opacity="0.23" stroke-linecap="round" />
  <line x1="18.8" y1="21.7" x2="24.1" y2="0.7" stroke="#7C6650" stroke-width="0.89" opacity="0.24" stroke-linecap="round" />
  <line x1="99.9" y1="34.5" x2="99.1" y2="26.0" stroke="#5B4A3A" stroke-width="1.09" opacity="0.39" stroke-linecap="round" />
  <line x1="74.4" y1="14.5" x2="69.9" y2="-13.2" stroke="#7C6650" stroke-width="1.21" opacity="0.36" stroke-linecap="round" />
  <line x1="173.1" y1="68.6" x2="169.5" y2="46.2" stroke="#7C6650" stroke-width="1.41" opacity="0.45" stroke-linecap="round" />
  <line x1="135.7" y1="227.1" x2="132.1" y2="217.4" stroke="#7C6650" stroke-width="1.07" opacity="0.34" stroke-linecap="round" />
  <line x1="35.0" y1="236.5" x2="29.1" y2="207.0" stroke="#A08A72" stroke-width="1.65" opacity="0.27" stroke-linecap="round" />
  <line x1="163.2" y1="59.1" x2="159.0" y2="29.4" stroke="#7C6650" stroke-width="1.02" opacity="0.29" stroke-linecap="round" />
  <line x1="220.0" y1="10.9" x2="215.8" y2="-9.5" stroke="#5B4A3A" stroke-width="0.87" opacity="0.49" stroke-linecap="round" />
  <line x1="133.7" y1="37.9" x2="133.0" y2="10.0" stroke="#5B4A3A" stroke-width="1.34" opacity="0.42" stroke-linecap="round" />
  <line x1="199.1" y1="197.8" x2="197.9" y2="169.8" stroke="#5B4A3A" stroke-width="1.58" opacity="0.35" stroke-linecap="round" />
  <line x1="59.9" y1="110.2" x2="56.5" y2="86.3" stroke="#A08A72" stroke-width="1.54" opacity="0.40" stroke-linecap="round" />
  <line x1="239.7" y1="33.7" x2="242.1" y2="4.1" stroke="#5B4A3A" stroke-width="1.67" opacity="0.25" stroke-linecap="round" />
  <line x1="94.4" y1="251.9" x2="94.0" y2="227.6" stroke="#A08A72" stroke-width="1.06" opacity="0.40" stroke-linecap="round" />
  <line x1="38.5" y1="87.4" x2="33.5" y2="73.9" stroke="#A08A72" stroke-width="1.17" opacity="0.33" stroke-linecap="round" />
  <line x1="52.5" y1="61.6" x2="50.0" y2="48.0" stroke="#7C6650" stroke-width="1.11" opacity="0.41" stroke-linecap="round" />
  <line x1="9.1" y1="20.4" x2="9.5" y2="-2.6" stroke="#7C6650" stroke-width="1.57" opacity="0.43" stroke-linecap="round" />
  <line x1="38.3" y1="216.5" x2="34.1" y2="204.7" stroke="#7C6650" stroke-width="1.12" opacity="0.53" stroke-linecap="round" />
  <line x1="53.5" y1="38.4" x2="52.6" y2="15.5" stroke="#A08A72" stroke-width="1.03" opacity="0.35" stroke-linecap="round" />
  <line x1="185.2" y1="137.8" x2="182.0" y2="112.0" stroke="#7C6650" stroke-width="1.13" opacity="0.41" stroke-linecap="round" />
  <line x1="122.4" y1="144.5" x2="119.8" y2="133.8" stroke="#A08A72" stroke-width="1.67" opacity="0.25" stroke-linecap="round" />
  <line x1="177.1" y1="1.4" x2="175.3" y2="-16.1" stroke="#5B4A3A" stroke-width="1.64" opacity="0.41" stroke-linecap="round" />
  <line x1="100.6" y1="66.3" x2="99.7" y2="41.7" stroke="#5B4A3A" stroke-width="1.01" opacity="0.42" stroke-linecap="round" />
  <line x1="59.0" y1="59.9" x2="60.7" y2="46.1" stroke="#A08A72" stroke-width="1.47" opacity="0.22" stroke-linecap="round" />
  <line x1="133.3" y1="56.5" x2="137.9" y2="43.1" stroke="#5B4A3A" stroke-width="0.80" opacity="0.35" stroke-linecap="round" />
  <line x1="166.6" y1="147.7" x2="167.5" y2="118.2" stroke="#A08A72" stroke-width="1.01" opacity="0.51" stroke-linecap="round" />
  <line x1="19.2" y1="118.1" x2="13.5" y2="103.3" stroke="#5B4A3A" stroke-width="1.32" opacity="0.49" stroke-linecap="round" />
  <line x1="87.9" y1="227.0" x2="93.0" y2="207.5" stroke="#A08A72" stroke-width="0.93" opacity="0.36" stroke-linecap="round" />
  <line x1="139.7" y1="159.6" x2="143.3" y2="147.6" stroke="#5B4A3A" stroke-width="1.58" opacity="0.38" stroke-linecap="round" />
  <line x1="155.9" y1="151.0" x2="153.2" y2="122.4" stroke="#A08A72" stroke-width="0.86" opacity="0.54" stroke-linecap="round" />
  <line x1="236.7" y1="184.8" x2="236.7" y2="176.6" stroke="#A08A72" stroke-width="1.22" opacity="0.42" stroke-linecap="round" />
  <line x1="57.0" y1="121.4" x2="55.7" y2="98.6" stroke="#7C6650" stroke-width="1.33" opacity="0.21" stroke-linecap="round" />
  <line x1="20.8" y1="38.6" x2="19.8" y2="9.9" stroke="#5B4A3A" stroke-width="1.30" opacity="0.42" stroke-linecap="round" />
  <line x1="119.6" y1="35.2" x2="121.1" y2="25.9" stroke="#A08A72" stroke-width="0.86" opacity="0.22" stroke-linecap="round" />
  <line x1="56.9" y1="154.4" x2="60.8" y2="126.5" stroke="#7C6650" stroke-width="1.12" opacity="0.36" stroke-linecap="round" />
  <line x1="92.4" y1="8.8" x2="97.3" y2="-1.3" stroke="#7C6650" stroke-width="1.16" opacity="0.43" stroke-linecap="round" />
  <line x1="72.5" y1="236.1" x2="66.8" y2="216.3" stroke="#A08A72" stroke-width="1.28" opacity="0.53" stroke-linecap="round" />
  <line x1="195.7" y1="9.8" x2="193.5" y2="-18.0" stroke="#A08A72" stroke-width="1.37" opacity="0.19" stroke-linecap="round" />
  <line x1="62.3" y1="196.7" x2="63.7" y2="188.4" stroke="#7C6650" stroke-width="1.07" opacity="0.45" stroke-linecap="round" />
  <line x1="145.4" y1="198.7" x2="142.8" y2="187.0" stroke="#A08A72" stroke-width="1.19" opacity="0.37" stroke-linecap="round" />
  <line x1="19.9" y1="213.7" x2="22.7" y2="204.8" stroke="#5B4A3A" stroke-width="1.04" opacity="0.33" stroke-linecap="round" />
  <line x1="126.6" y1="152.7" x2="131.0" y2="134.4" stroke="#5B4A3A" stroke-width="1.16" opacity="0.49" stroke-linecap="round" />
  <line x1="22.4" y1="81.8" x2="20.0" y2="55.6" stroke="#5B4A3A" stroke-width="0.88" opacity="0.23" stroke-linecap="round" />
  <line x1="124.2" y1="188.9" x2="122.7" y2="175.1" stroke="#7C6650" stroke-width="0.98" opacity="0.25" stroke-linecap="round" />
  <line x1="6.5" y1="146.3" x2="7.8" y2="131.4" stroke="#A08A72" stroke-width="1.00" opacity="0.48" stroke-linecap="round" />
  <line x1="242.3" y1="214.9" x2="238.0" y2="190.3" stroke="#5B4A3A" stroke-width="1.22" opacity="0.42" stroke-linecap="round" />
  <line x1="36.8" y1="2.1" x2="40.7" y2="-26.5" stroke="#A08A72" stroke-width="1.21" opacity="0.26" stroke-linecap="round" />
  <line x1="120.3" y1="119.0" x2="122.1" y2="101.1" stroke="#A08A72" stroke-width="1.40" opacity="0.41" stroke-linecap="round" />
  <line x1="7.2" y1="31.6" x2="11.8" y2="5.4" stroke="#5B4A3A" stroke-width="0.81" opacity="0.35" stroke-linecap="round" />
  <circle cx="7.0" cy="137.6" r="2.1" fill="#E0D5C3" opacity="0.21" />
  <circle cx="85.4" cy="147.1" r="2.3" fill="#B8AA93" opacity="0.41" />
  <circle cx="122.1" cy="199.4" r="2.0" fill="#D1C4AF" opacity="0.29" />
  <circle cx="54.2" cy="94.2" r="2.2" fill="#E0D5C3" opacity="0.26" />
  <circle cx="24.7" cy="189.6" r="2.0" fill="#E0D5C3" opacity="0.21" />
  <circle cx="67.4" cy="136.9" r="1.6" fill="#B8AA93" opacity="0.39" />
  <circle cx="171.6" cy="214.8" r="1.5" fill="#D1C4AF" opacity="0.39" />
  <circle cx="206.9" cy="108.6" r="2.1" fill="#B8AA93" opacity="0.24" />
  <circle cx="108.1" cy="126.7" r="2.6" fill="#B8AA93" opacity="0.40" />
  <circle cx="6.7" cy="113.3" r="2.5" fill="#D1C4AF" opacity="0.40" />
  <circle cx="19.0" cy="142.0" r="1.3" fill="#D1C4AF" opacity="0.43" />
  <circle cx="199.9" cy="8.0" r="2.0" fill="#B8AA93" opacity="0.44" />
  <circle cx="243.0" cy="212.7" r="2.6" fill="#D1C4AF" opacity="0.32" />
  <circle cx="110.3" cy="207.7" r="2.0" fill="#B8AA93" opacity="0.30" />
  <circle cx="108.4" cy="97.3" r="1.5" fill="#D1C4AF" opacity="0.27" />
  <circle cx="2.4" cy="57.3" r="0.8" fill="#B8AA93" opacity="0.38" />
  <circle cx="161.8" cy="89.7" r="2.3" fill="#D1C4AF" opacity="0.26" />
  <circle cx="200.5" cy="44.4" r="2.1" fill="#E0D5C3" opacity="0.33" />
  <circle cx="177.0" cy="169.3" r="1.7" fill="#D1C4AF" opacity="0.31" />
  <circle cx="140.7" cy="253.7" r="2.2" fill="#E0D5C3" opacity="0.35" />
  <circle cx="82.1" cy="101.0" r="2.0" fill="#B8AA93" opacity="0.35" />
  <circle cx="59.9" cy="18.0" r="1.2" fill="#D1C4AF" opacity="0.30" />
  <circle cx="198.2" cy="181.6" r="2.0" fill="#D1C4AF" opacity="0.28" />
  <circle cx="122.6" cy="10.1" r="2.0" fill="#E0D5C3" opacity="0.35" />
  <circle cx="79.0" cy="68.5" r="1.2" fill="#B8AA93" opacity="0.39" />
  <circle cx="124.1" cy="224.0" r="0.9" fill="#B8AA93" opacity="0.44" />
  <circle cx="246.8" cy="89.7" r="2.0" fill="#E0D5C3" opacity="0.28" />
  <circle cx="122.4" cy="141.0" r="2.1" fill="#E0D5C3" opacity="0.36" />
  <circle cx="110.0" cy="105.3" r="1.3" fill="#D1C4AF" opacity="0.28" />
  <circle cx="57.7" cy="217.5" r="2.5" fill="#D1C4AF" opacity="0.42" />
  <circle cx="45.4" cy="187.9" r="1.1" fill="#D1C4AF" opacity="0.22" />
  <circle cx="203.8" cy="235.4" r="2.0" fill="#D1C4AF" opacity="0.24" />
  <circle cx="111.4" cy="97.2" r="1.9" fill="#E0D5C3" opacity="0.37" />
  <circle cx="138.2" cy="18.2" r="2.4" fill="#B8AA93" opacity="0.26" />
  <circle cx="136.7" cy="186.3" r="2.4" fill="#D1C4AF" opacity="0.44" />
  <circle cx="164.4" cy="15.1" r="1.5" fill="#B8AA93" opacity="0.24" />
  <circle cx="129.3" cy="103.2" r="2.2" fill="#B8AA93" opacity="0.42" />
  <circle cx="92.4" cy="231.6" r="2.0" fill="#B8AA93" opacity="0.28" />
  <circle cx="210.4" cy="70.8" r="0.8" fill="#E0D5C3" opacity="0.40" />
  <circle cx="12.3" cy="74.5" r="1.8" fill="#E0D5C3" opacity="0.22" />
  <circle cx="78.1" cy="131.2" r="2.4" fill="#E0D5C3" opacity="0.34" />
  <circle cx="126.6" cy="186.6" r="1.0" fill="#D1C4AF" opacity="0.38" />
  <circle cx="33.3" cy="31.4" r="2.4" fill="#B8AA93" opacity="0.38" />
  <circle cx="151.3" cy="97.5" r="0.8" fill="#B8AA93" opacity="0.21" />
</svg>