<?xml version="1.0" encoding="UTF-8"?>
<svg xmlns="http://www.w3.org/2000/svg" viewBox="0 0 256 256" shape-rendering="geometricPrecision">
  <defs>
    <linearGradient id="bg-sand-dry" x1="0%" y1="0%" x2="100%" y2="100%">
      <stop offset="0%" stop-color="#EDDDB0" />
      <stop offset="52%" stop-color="#C7B076" />
      <stop offset="100%" stop-color="#F3E2B7" />
    </linearGradient>
  </defs>
  <rect width="256" height="256" fill="url(#bg-sand-dry)" />
  <line x1="-10.0" y1="149.6" x2="266.0" y2="150.3" stroke="#E7D6AB" stroke-width="1.65" opacity="0.19" stroke-linecap="round" />
  <line x1="-10.0" y1="224.9" x2="266.0" y2="220.9" stroke="#C7B27E" stroke-width="1.88" opacity="0.33" stroke-linecap="round" />
  <line x1="-10.0" y1="107.1" x2="266.0" y2="102.5" stroke="#E7D6AB" stroke-width="2.05" opacity="0.42" stroke-linecap="round" />
  <line x1="-10.0" y1="77.9" x2="266.0" y2="73.6" stroke="#E7D6AB" stroke-width="0.87" opacity="0.23" stroke-linecap="round" />
  <line x1="-10.0" y1="143.6" x2="266.0" y2="150.9" stroke="#C7B27E" stroke-width="1.32" opacity="0.29" stroke-linecap="round" />
  <line x1="-10.0" y1="167.1" x2="266.0" y2="167.2" stroke="#D2BD90" stroke-width="1.35" opacity="0.43" stroke-linecap="round" />
  <line x1="-10.0" y1="100.4" x2="266.0" y2="104.6" stroke="#D2BD90" stroke-width="1.97" opacity="0.26" stroke-linecap="round" />
  <line x1="-10.0" y1="238.5" x2="266.0" y2="239.5" stroke="#E7D6AB" stroke-width="1.06" opacity="0.43" stroke-linecap="round" />
  <line x1="-10.0" y1="94.9" x2="266.0" y2="92.4" stroke="#D2BD90" stroke-width="1.82" opacity="0.41" stroke-linecap="round" />
  <line x1="-10.0" y1="68.2" x2="266.0" y2="59.3" stroke="#E7D6AB" stroke-width="1.60" opacity="0.38" stroke-linecap="round" />
  <line x1="-10.0" y1="244.4" x2="266.0" y2="240.5" stroke="#C7B27E" stroke-width="0.84" opacity="0.44" stroke-linecap="round" />
  <line x1="-10.0" y1="139.9" x2="266.0" y2="131.4" stroke="#D2BD90" stroke-width="1.42" opacity="0.26" stroke-linecap="round" />
  <line x1="-10.0" y1="208.9" x2="266.0" y2="202.3" stroke="#C7B27E" stroke-width="1.62" opacity="0.43" stroke-linecap="round" />
  <line x1="-10.0" y1="246.9" x2="266.0" y2="256.5" stroke="#C7B27E" stroke-width="0.83" opacity="0.27" stroke-linecap="round" />
  <line x1="-10.0" y1="112.1" x2="266.0" y2="117.2" stroke="#E7D6AB" stroke-width="0.94" opacity="0.34" stroke-linecap="round" />
  <line x1="-10.0" y1="132.0" x2="266.0" y2="134.7" stroke="#E7D6AB" stroke-width="1.00" opacity="0.27" stroke-linecap="round" />
  <line x1="-10.0" y1="33.0" x2="266.0" y2="27.1" stroke="#E7D6AB" stroke-width="1.59" opacity="0.50" stroke-linecap="round" />
  <line x1="-10.0" y1="22.4" x2="266.0" y2="29.7" stroke="#D2BD90" stroke-width="1.20" opacity="0.26" stroke-linecap="round" />
  <line x1="-10.0" y1="102.4" x2="266.0" y2="101.6" stroke="#E7D6AB" stroke-width="1.27" opacity="0.43" stroke-linecap="round" />
  <line x1="-10.0" y1="197.7" x2="266.0" y2="191.8" stroke="#E7D6AB" stroke-width="0.80" opacity="0.37" stroke-linecap="round" />
  <line x1="-10.0" y1="225.8" x2="266.0" y2="221.9" stroke="#E7D6AB" stroke-width="2.07" opacity="0.39" stroke-linecap="round" />
  <line x1="-10.0" y1="119.4" x2="266.0" y2="111.1" stroke="#D2BD90" stroke-width="1.62" opacity="0.40" stroke-linecap="round" />
  <line x1="-10.0" y1="120.7" x2="266.0" y2="124.3" stroke="#D2BD90" stroke-width="1.73" opacity="0.26" stroke-linecap="round" />
  <line x1="-10.0" y1="184.2" x2="266.0" y2="180.7" stroke="#E7D6AB" stroke-width="1.49" opacity="0.30" stroke-linecap="round" />
  <line x1="-10.0" y1="192.2" x2="266.0" y2="189.3" stroke="#C7B27E" stroke-width="1.38" opacity="0.45" stroke-linecap="round" />
  <line x1="-10.0" y1="43.3" x2="266.0" y2="39.1" stroke="#C7B27E" stroke-width="1.14" opacity="0.33" stroke-linecap="round" />
  <line x1="-10.0" y1="250.3" x2="266.0" y2="245.8" stroke="#C7B27E" stroke-width="1.64" opacity="0.43" stroke-linecap="round" />
  <line x1="-10.0" y1="25.4" x2="266.0" y2="25.0" stroke="#E7D6AB" stroke-width="2.12" opacity="0.47" stroke-linecap="round" />
  <line x1="-10.0" y1="119.6" x2="266.0" y2="126.0" stroke="#D2BD90" stroke-width="1.89" opacity="0.32" stroke-linecap="round" />
  <line x1="-10.0" y1="253.5" x2="266.0" y2="263.5" stroke="#D2BD90" stroke-width="1.00" opacity="0.30" stroke-linecap="round" />
  <line x1="-10.0" y1="59.4" x2="266.0" y2="64.4" stroke="#D2BD90" stroke-width="1.28" opacity="0.27" stroke-linecap="round" />
  <line x1="-10.0" y1="239.6" x2="266.0" y2="244.0" stroke="#E7D6AB" stroke-width="1.06" opacity="0.20" stroke-linecap="round" />
  <line x1="-10.0" y1="88.3" x2="266.0" y2="82.6" stroke="#E7D6AB" stroke-width="1.67" opacity="0.49" stroke-linecap="round" />
  <line x1="-10.0" y1="228.0" x2="266.0" y2="218.9" stroke="#C7B27E" stroke-width="1.76" opacity="0.34" stroke-linecap="round" />
  <line x1="-10.0" y1="91.8" x2="266.0" y2="89.8" stroke="#E7D6AB" stroke-width="1.37" opacity="0.34" stroke-linecap="round" />
  <line x1="-10.0" y1="124.0" x2="266.0" y2="122.0" stroke="#C7B27E" stroke-width="1.66" opacity="0.27" stroke-linecap="round" />
  <line x1="-10.0" y1="110.6" x2="266.0" y2="109.1" stroke="#C7B27E" stroke-width="2.12" opacity="0.24" stroke-linecap="round" />
  <line x1="-10.0" y1="92.9" x2="266.0" y2="96.7" stroke="#D2BD90" stroke-width="1.98" opacity="0.34" stroke-linecap="round" />
  <line x1="-10.0" y1="24.6" x2="266.0" y2="25.0" stroke="#D2BD90" stroke-width="1.05" opacity="0.49" stroke-linecap="round" />
  <line x1="-10.0" y1="111.2" x2="266.0" y2="108.4" stroke="#D2BD90" stroke-width="1.94" opacity="0.47" stroke-linecap="round" />
  <line x1="-10.0" y1="67.7" x2="266.0" y2="63.0" stroke="#C7B27E" stroke-width="1.93" opacity="0.36" stroke-linecap="round" />
  <line x1="-10.0" y1="251.5" x2="266.0" y2="261.2" stroke="#E7D6AB" stroke-width="0.87" opacity="0.23" stroke-linecap="round" />
  <line x1="-10.0" y1="86.8" x2="266.0" y2="86.9" stroke="#D2BD90" stroke-width="1.72" opacity="0.29" stroke-linecap="round" />
  <line x1="-10.0" y1="106.2" x2="266.0" y2="100.2" stroke="#E7D6AB" stroke-width="1.24" opacity="0.45" stroke-linecap="round" />
  <line x1="-10.0" y1="112.3" x2="266.0" y2="111.9" stroke="#D2BD90" stroke-width="1.23" opacity="0.35" stroke-linecap="round" />
  <line x1="-10.0" y1="211.1" x2="266.0" y2="208.6" stroke="#C7B27E" stroke-width="1.20" opacity="0.32" stroke-linecap="round" />
  <line x1="-10.0" y1="250.0" x2="266.0" y2="259.4" stroke="#C7B27E" stroke-width="1.62" opacity="0.46" stroke-linecap="round" />
  <line x1="-10.0" y1="187.6" x2="266.0" y2="188.7" stroke="#C7B27E" stroke-width="1.89" opacity="0.22" stroke-linecap="round" />
  <line x1="-10.0" y1="51.4" x2="266.0" y2="44.6" stroke="#E7D6AB" stroke-width="1.91" opacity="0.47" stroke-linecap="round" />
  <line x1="-10.0" y1="192.0" x2="266.0" y2="189.6" stroke="#E7D6AB" stroke-width="1.28" opacity="0.25" stroke-linecap="round" />
  <line x1="-10.0" y1="166.0" x2="266.0" y2="163.3" stroke="#E7D6AB" stroke-width="2.10" opacity="0.46" stroke-linecap="round" />
  <line x1="-10.0" y1="221.5" x2="266.0" y2="218.7" stroke="#E7D6AB" stroke-width="1.90" opacity="0.36" stroke-linecap="round" />
  <line x1="-10.0" y1="247.2" x2="266.0" y2="250.6" stroke="#E7D6AB" stroke-width="1.60" opacity="0.29" stroke-linecap="round" />
  <line x1="-10.0" y1="207.8" x2="266.0" y2="216.3" stroke="#E7D6AB" stroke-width="1.46" opacity="0.36" stroke-linecap="round" />
  <line x1="-10.0" y1="44.3" x2="266.0" y2="43.8" stroke="#D2BD90" stroke-width="1.09" opacity="0.39" stroke-linecap="round" />
  <line x1="-10.0" y1="196.3" x2="266.0" y2="188.7" stroke="#D2BD90" stroke-width="2.10" opacity="0.26" stroke-linecap="round" />
  <line x1="-10.0" y1="209.3" x2="266.0" y2="217.8" stroke="#C7B27E" stroke-width="1.11" opacity="0.47" stroke-linecap="round" />
  <line x1="-10.0" y1="93.7" x2="266.0" y2="92.7" stroke="#D2BD90" stroke-width="1.73" opacity="0.31" stroke-linecap="round" />
  <line x1="-10.0" y1="13.1" x2="266.0" y2="9.5" stroke="#E7D6AB" stroke-width="1.43" opacity="0.35" stroke-linecap="round" />
  <line x1="-10.0" y1="209.2" x2="266.0" y2="205.0" stroke="#C7B27E" stroke-width="1.21" opacity="0.49" stroke-linecap="round" />
  <line x1="-10.0" y1="90.3" x2="266.0" y2="87.9" stroke="#D2BD90" stroke-width="0.90" opacity="0.34" stroke-linecap="round" />
  <line x1="-10.0" y1="71.2" x2="266.0" y2="63.7" stroke="#E7D6AB" stroke-width="1.06" opacity="0.47" stroke-linecap="round" />
  <line x1="-10.0" y1="71.1" x2="266.0" y2="67.3" stroke="#D2BD90" stroke-width="1.38" opacity="0.34" stroke-linecap="round" />
  <line x1="-10.0" y1="194.9" x2="266.0" y2="198.4" stroke="#D2BD90" stroke-width="1.22" opacity="0.42" stroke-linecap="round" />
  <line x1="-10.0" y1="250.7" x2="266.0" y2="249.1" stroke="#C7B27E" stroke-width="1.59" opacity="0.37" stroke-linecap="round" />
  <line x1="-10.0" y1="169.3" x2="266.0" y2="161.5" stroke="#E7D6AB" stroke-width="1.55" opacity="0.44" stroke-linecap="round" />
  <line x1="-10.0" y1="203.5" x2="266.0" y2="208.7" stroke="#D2BD90" stroke-width="1.93" opacity="0.31" stroke-linecap="round" />
  <line x1="-10.0" y1="140.7" x2="266.0" y2="148.9" stroke="#D2BD90" stroke-width="1.86" opacity="0.28" stroke-linecap="round" />
  <line x1="-10.0" y1="149.5" x2="266.0" y2="157.1" stroke="#D2BD90" stroke-width="1.18" opacity="0.19" stroke-linecap="round" />
  <line x1="-10.0" y1="88.1" x2="266.0" y2="93.1" stroke="#E7D6AB" stroke-width="0.86" opacity="0.29" stroke-linecap="round" />
  <line x1="-10.0" y1="44.6" x2="266.0" y2="44.6" stroke="#D2BD90" stroke-width="1.48" opacity="0.36" stroke-linecap="round" />
  <line x1="-10.0" y1="195.7" x2="266.0" y2="199.1" stroke="#C7B27E" stroke-width="0.96" opacity="0.46" stroke-linecap="round" />
  <line x1="-10.0" y1="27.7" x2="266.0" y2="24.3" stroke="#D2BD90" stroke-width="1.77" opacity="0.43" stroke-linecap="round" />
  <line x1="-10.0" y1="39.6" x2="266.0" y2="31.9" stroke="#E7D6AB" stroke-width="1.22" opacity="0.36" stroke-linecap="round" />
  <line x1="-10.0" y1="91.8" x2="266.0" y2="84.2" stroke="#C7B27E" stroke-width="0.98" opacity="0.47" stroke-linecap="round" />
  <line x1="-10.0" y1="97.2" x2="266.0" y2="105.7" stroke="#D2BD90" stroke-width="1.42" opacity="0.22" stroke-linecap="round" />
  <ellipse cx="115.9" cy="151.0" rx="25.7" ry="6.4" fill="#BFA56A" opacity="0.15" transform="rotate(51.7 115.9 151.0)" />
  <ellipse cx="109.1" cy="182.0" rx="6.5" ry="8.4" fill="#DDC48A" opacity="0.09" transform="rotate(110.3 109.1 182.0)" />
  <ellipse cx="26.6" cy="200.9" rx="17.3" ry="7.3" fill="#DDC48A" opacity="0.12" transform="rotate(149.1 26.6 200.9)" />
  <ellipse cx="2.9" cy="85.1" rx="18.9" ry="6.6" fill="#BFA56A" opacity="0.20" transform="rotate(113.6 2.9 85.1)" />
  <ellipse cx="221.2" cy="222.8" rx="25.4" ry="4.9" fill="#BFA56A" opacity="0.13" transform="rotate(77.8 221.2 222.8)" />
  <ellipse cx="159.9" cy="132.6" rx="24.0" ry="4.3" fill="#DDC48A" opacity="0.16" transform="rotate(141.3 159.9 132.6)" />
  <ellipse cx="176.8" cy="154.3" rx="19.4" ry="5.3" fill="#C6B17B" opacity="0.15" transform="rotate(101.7 176.8 154.3)" />
  <ellipse cx="133.1" cy="122.9" rx="22.3" ry="3.4" fill="#BFA56A" opacity="0.17" transform="rotate(19.5 133.1 122.9)" />
  <ellipse cx="136.7" cy="222.8" rx="17.4" ry="5.3" fill="#DDC48A" opacity="0.10" transform="rotate(31.9 136.7 222.8)" />
  <ellipse cx="26.4" cy="48.3" rx="14.2" ry="3.5" fill="#C6B17B" opacity="0.18" transform="rotate(116.3 26.4 48.3)" />
  <ellipse cx="235.0" cy="137.2" rx="8.1" ry="3.5" fill="#DDC48A" opacity="0.15" transform="rotate(46.2 235.0 137.2)" />
  <ellipse cx="252.1" cy="134.7" rx="21.5" ry="7.0" fill="#BFA56A" opacity="0.13" transform="rotate(72.5 252.1 134.7)" />
  <ellipse cx="168.6" cy="86.1" rx="22.0" ry="7.2" fill="#BFA56A" opacity="0.21" transform="rotate(92.0 168.6 86.1)" />
  <ellipse cx="119.6" cy="40.3" rx="18.0" ry="5.7" fill="#BFA56A" opacity="0.13" transform="rotate(140.4 119.6 40.3)" />
  <ellipse cx="57.1" cy="55.7" rx="15.5" ry="9.5" fill="#DDC48A" opacity="0.17" transform="rotate(119.4 57.1 55.7)" />
  <ellipse cx="194.4" cy="4.9" rx="13.8" ry="6.0" fill="#BFA56A" opacity="0.15" transform="rotate(75.3 194.4 4.9)" />
  <ellipse cx="84.0" cy="99.0" rx="22.0" ry="4.3" fill="#DDC48A" opacity="0.17" transform="rotate(3.5 84.0 99.0)" />
  <ellipse cx="140.7" cy="177.1" rx="24.6" ry="7.1" fill="#C6B17B" opacity="0.15" transform="rotate(14.0 140.7 177.1)" />
  <ellipse cx="164.3" cy="207.6" rx="15.5" ry="5.4" fill="#C6B17B" opacity="0.10" transform="rotate(168.3 164.3 207.6)" />
  <ellipse cx="3.8" cy="52.3" rx="15.4" ry="7.5" fill="#BFA56A" opacity="0.22" transform="rotate(44.9 3.8 52.3)" />
  <ellipse cx="106.9" cy="148.8" rx="18.2" ry="5.0" fill="#DDC48A" opacity="0.15" transform="rotate(59.0 106.9 148.8)" />
  <ellipse cx="113.2" cy="231.9" rx="17.7" ry="9.6" fill="#DDC48A" opacity="0.16" transform="rotate(104.8 113.2 231.9)" />
  <ellipse cx="19.8" cy="123.7" rx="17.8" ry="6.0" fill="#DDC48A" opacity="0.11" transform="rotate(138.0 19.8 123.7)" />
  <ellipse cx="175.6" cy="143.1" rx="18.9" ry="6.8" fill="#C6B17B" opacity="0.19" transform="rotate(81.3 175.6 143.1)" />
  <ellipse cx="246.5" cy="51.9" rx="8.8" ry="4.2" fill="#DDC48A" opacity="0.09" transform="rotate(6.1 246.5 51.9)" />
  <ellipse cx="59.5" cy="141.9" rx="10.3" ry="3.8" fill="#DDC48A" opacity="0.10" transform="rotate(24.6 59.5 141.9)" />
  <ellipse cx="76.6" cy="114.7" rx="14.8" ry="7.3" fill="#DDC48A" opacity="0.16" transform="rotate(123.9 76.6 114.7)" />
  <ellipse cx="135.0" cy="100.7" rx="17.7" ry="8.0" fill="#DDC48A" opacity="0.22" transform="rotate(7.2 135.0 100.7)" />
  <ellipse cx="5.5" cy="22.4" rx="23.1" ry="4.7" fill="#DDC48A" opacity="0.08" transform="rotate(122.1 5.5 22.4)" />
  <ellipse cx="197.1" cy="106.5" rx="16.5" ry="6.9" fill="#BFA56A" opacity="0.13" transform="rotate(68.1 197.1 106.5)" />
  <circle cx="123.7" cy="241.6" r="0.8" fill="#FFF3D3" opacity="0.40" />
  <circle cx="194.0" cy="147.1" r="0.8" fill="#E2C998" opacity="0.32" />
  <circle cx="140.5" cy="91.5" r="1.5" fill="#FFF3D3" opacity="0.22" />
  <circle cx="36.2" cy="177.0" r="0.6" fill="#FFF3D3" opacity="0.19" />
  <circle cx="135.2" cy="137.9" r="0.7" fill="#E2C998" opacity="0.18" />
  <circle cx="30.0" cy="158.0" r="0.8" fill="#FFF3D3" opacity="0.42" />
  <circle cx="60.9" cy="21.8" r="1.2" fill="#FFF3D3" opacity="0.41" />
  <circle cx="219.5" cy="217.3" r="1.2" fill="#F2E2B2" opacity="0.29" />
  <circle cx="142.3" cy="8.9" r="2.4" fill="#F2E2B2" opacity="0.27" />
  <circle cx="149.7" cy="236.5" r="1.3" fill="#F2E2B2" opacity="0.24" />
  <circle cx="255.8" cy="12.8" r="1.5" fill="#E2C998" opacity="0.15" />
  <circle cx="192.0" cy="95.3" r="2.5" fill="#E2C998" opacity="0.24" />
  <circle cx="167.4" cy="19.8" r="1.9" fill="#FFF3D3" opacity="0.23" />
  <circle cx="72.4" cy="88.6" r="1.4" fill="#F2E2B2" opacity="0.38" />
  <circle cx="87.0" cy="203.5" r="2.3" fill="#F2E2B2" opacity="0.40" />
  <circle cx="191.6" cy="10.8" r="1.9" fill="#FFF3D3" opacity="0.23" />
  <circle cx="60.3" cy="213.2" r="0.8" fill="#F2E2B2" opacity="0.16" />
  <circle cx="149.0" cy="133.1" r="2.2" fill="#FFF3D3" opacity="0.20" />
  <circle cx="216.0" cy="117.2" r="2.5" fill="#F2E2B2" opacity="0.23" />
  <circle cx="18.4" cy="131.7" r="2.3" fill="#E2C998" opacity="0.17" />
  <circle cx="98.9" cy="31.4" r="0.6" fill="#F2E2B2" opacity="0.38" />
  <circle cx="91.0" cy="183.6" r="2.4" fill="#E2C998" opacity="0.24" />
  <circle cx="100.8" cy="8.5" r="2.2" fill="#FFF3D3" opacity="0.38" />
  <circle cx="118.1" cy="208.7" r="2.0" fill="#E2C998" opacity="0.23" />
  <circle cx="30.1" cy="47.5" r="0.8" fill="#F2E2B2" opacity="0.18" />
  <circle cx="44.1" cy="240.8" r="1.0" fill="#F2E2B2" opacity="0.21" />
  <circle cx="207.6" cy="59.8" r="1.6" fill="#FFF3D3" opacity="0.12" />
  <circle cx="8.4" cy="160.1" r="1.8" fill="#E2C998" opacity="0.17" />
  <circle cx="237.6" cy="166.4" r="1.4" fill="#F2E2B2" opacity="0.33" />
  <circle cx="251.3" cy="80.0" r="1.1" fill="#E2C998" opacity="0.28" />
  <circle cx="163.9" cy="129.8" r="1.0" fill="#F2E2B2" opacity="0.40" />
  <circle cx="168.6" cy="37.9" r="2.3" fill="#E2C998" opacity="0.36" />
  <circle cx="151.6" cy="226.1" r="0.9" fill="#F2E2B2" opacity="0.41" />
  <circle cx="170.0" cy="73.2" r="0.7" fill="#FFF3D3" opacity="0.28" />
  <circle cx="125.9" cy="201.6" r="1.0" fill="#FFF3D3" opacity="0.41" />
  <circle cx="89.3" cy="234.2" r="1.6" fill="#E2C998" opacity="0.38" />
  <circle cx="102.4" cy="83.2" r="1.2" fill="#FFF3D3" opacity="0.41" />
  <circle cx="86.3" cy="103.9" r="2.3" fill="#FFF3D3" opacity="0.38" />
  <circle cx="51.3" cy="45.8" r="0.7" fill="#E2C998" opacity="0.27" />
  <circle cx="223.6" cy="45.0" r="2.2" fill="#E2C998" opacity="0.17" />
  <circle cx="114.8" cy="9.1" r="2.3" fill="#F2E2B2" opacity="0.25" />
  <circle cx="130.2" cy="55.1" r="0.9" fill="#E2C998" opacity="0.27" />
  <circle cx="240.5" cy="100.6" r="1.5" fill="#FFF3D3" opacity="0.36" />
  <circle cx="240.5" cy="110.0" r="0.8" fill="#FFF3D3" opacity="0.14" />
  <circle cx="233.8" cy="5.9" r="1.0" fill="#F2E2B2" opacity="0.18" />
  <circle cx="142.3" cy="148.9" r="1.0" fill="#F2E2B2" opacity="0.34" />
</svg>