<?xml version="1.0" encoding="UTF-8"?>
<svg xmlns="http://www.w3.org/2000/svg" viewBox="0 0 256 256" shape-rendering="geometricPrecision">
  <defs>
    <linearGradient id="bg-snow-powder" x1="0%" y1="0%" x2="100%" y2="100%">
      <stop offset="0%" stop-color="#E7F3FE" />
      <stop offset="52%" stop-color="#DCEBFA" />
      <stop offset="100%" stop-color="#FFFFFF" />
    </linearGradient>
  </defs>
  <rect width="256" height="256" fill="url(#bg-snow-powder)" />
  <line x1="-10.0" y1="53.3" x2="266.0" y2="52.1" stroke="#F8FBFF" stroke-width="1.68" opacity="0.18" stroke-linecap="round" />
  <line x1="-10.0" y1="186.6" x2="266.0" y2="189.2" stroke="#D7E9F8" stroke-width="1.68" opacity="0.30" stroke-linecap="round" />
  <line x1="-10.0" y1="108.8" x2="266.0" y2="107.5" stroke="#CBE0F4" stroke-width="1.30" opacity="0.27" stroke-linecap="round" />
  <line x1="-10.0" y1="89.1" x2="266.0" y2="96.1" stroke="#CBE0F4" stroke-width="1.32" opacity="0.15" stroke-linecap="round" />
  <line x1="-10.0" y1="66.1" x2="266.0" y2="68.4" stroke="#F8FBFF" stroke-width="1.61" opacity="0.23" stroke-linecap="round" />
  <line x1="-10.0" y1="141.8" x2="266.0" y2="145.4" stroke="#CBE0F4" stroke-width="1.48" opacity="0.26" stroke-linecap="round" />
  <line x1="-10.0" y1="122.5" x2="266.0" y2="118.8" stroke="#CBE0F4" stroke-width="1.45" opacity="0.19" stroke-linecap="round" />
  <line x1="-10.0" y1="121.8" x2="266.0" y2="125.3" stroke="#D7E9F8" stroke-width="1.00" opacity="0.27" stroke-linecap="round" />
  <line x1="-10.0" y1="173.9" x2="266.0" y2="177.7" stroke="#CBE0F4" stroke-width="1.26" opacity="0.28" stroke-linecap="round" />
  <line x1="-10.0" y1="46.3" x2="266.0" y2="42.7" stroke="#F8FBFF" stroke-width="1.38" opacity="0.26" stroke-linecap="round" />
  <line x1="-10.0" y1="130.5" x2="266.0" y2="131.0" stroke="#CBE0F4" stroke-width="1.32" opacity="0.25" stroke-linecap="round" />
  <line x1="-10.0" y1="115.8" x2="266.0" y2="110.7" stroke="#F8FBFF" stroke-width="1.13" opacity="0.24" stroke-linecap="round" />
  <line x1="-10.0" y1="189.4" x2="266.0" y2="181.5" stroke="#CBE0F4" stroke-width="1.14" opacity="0.14" stroke-linecap="round" />
  <line x1="-10.0" y1="22.0" x2="266.0" y2="18.3" stroke="#CBE0F4" stroke-width="0.87" opacity="0.12" stroke-linecap="round" />
  <line x1="-10.0" y1="159.2" x2="266.0" y2="154.8" stroke="#D7E9F8" stroke-width="1.54" opacity="0.27" stroke-linecap="round" />
  <line x1="-10.0" y1="30.3" x2="266.0" y2="30.4" stroke="#F8FBFF" stroke-width="1.00" opacity="0.32" stroke-linecap="round" />
  <line x1="-10.0" y1="162.2" x2="266.0" y2="160.3" stroke="#F8FBFF" stroke-width="1.59" opacity="0.17" stroke-linecap="round" />
  <line x1="-10.0" y1="152.9" x2="266.0" y2="146.7" stroke="#CBE0F4" stroke-width="1.13" opacity="0.28" stroke-linecap="round" />
  <line x1="-10.0" y1="203.3" x2="266.0" y2="206.2" stroke="#CBE0F4" stroke-width="1.59" opacity="0.24" stroke-linecap="round" />
  <line x1="-10.0" y1="214.1" x2="266.0" y2="215.5" stroke="#F8FBFF" stroke-width="1.29" opacity="0.17" stroke-linecap="round" />
  <line x1="-10.0" y1="156.9" x2="266.0" y2="158.2" stroke="#CBE0F4" stroke-width="1.63" opacity="0.28" stroke-linecap="round" />
  <line x1="-10.0" y1="208.9" x2="266.0" y2="206.5" stroke="#D7E9F8" stroke-width="1.36" opacity="0.13" stroke-linecap="round" />
  <line x1="-10.0" y1="164.3" x2="266.0" y2="166.5" stroke="#D7E9F8" stroke-width="1.75" opacity="0.32" stroke-linecap="round" />
  <line x1="-10.0" y1="218.7" x2="266.0" y2="215.0" stroke="#CBE0F4" stroke-width="1.06" opacity="0.24" stroke-linecap="round" />
  <line x1="-10.0" y1="149.3" x2="266.0" y2="156.7" stroke="#F8FBFF" stroke-width="1.23" opacity="0.26" stroke-linecap="round" />
  <line x1="-10.0" y1="224.8" x2="266.0" y2="230.4" stroke="#F8FBFF" stroke-width="1.32" opacity="0.19" stroke-linecap="round" />
  <line x1="-10.0" y1="63.0" x2="266.0" y2="56.7" stroke="#D7E9F8" stroke-width="1.74" opacity="0.19" stroke-linecap="round" />
  <line x1="-10.0" y1="183.3" x2="266.0" y2="187.1" stroke="#D7E9F8" stroke-width="1.18" opacity="0.32" stroke-linecap="round" />
  <line x1="-10.0" y1="224.5" x2="266.0" y2="220.0" stroke="#D7E9F8" stroke-width="0.93" opacity="0.18" stroke-linecap="round" />
  <line x1="-10.0" y1="36.9" x2="266.0" y2="41.5" stroke="#CBE0F4" stroke-width="1.75" opacity="0.33" stroke-linecap="round" />
  <line x1="-10.0" y1="136.6" x2="266.0" y2="139.7" stroke="#CBE0F4" stroke-width="1.18" opacity="0.20" stroke-linecap="round" />
  <line x1="-10.0" y1="66.8" x2="266.0" y2="73.7" stroke="#CBE0F4" stroke-width="1.63" opacity="0.23" stroke-linecap="round" />
  <line x1="-10.0" y1="99.8" x2="266.0" y2="92.2" stroke="#D7E9F8" stroke-width="1.46" opacity="0.26" stroke-linecap="round" />
  <line x1="-10.0" y1="156.9" x2="266.0" y2="160.6" stroke="#CBE0F4" stroke-width="1.45" opacity="0.18" stroke-linecap="round" />
  <line x1="-10.0" y1="130.6" x2="266.0" y2="136.6" stroke="#D7E9F8" stroke-width="1.12" opacity="0.22" stroke-linecap="round" />
  <line x1="-10.0" y1="6.9" x2="266.0" y2="13.3" stroke="#F8FBFF" stroke-width="1.53" opacity="0.29" stroke-linecap="round" />
  <line x1="-10.0" y1="9.4" x2="266.0" y2="1.6" stroke="#D7E9F8" stroke-width="1.75" opacity="0.32" stroke-linecap="round" />
  <line x1="-10.0" y1="210.4" x2="266.0" y2="216.4" stroke="#D7E9F8" stroke-width="1.21" opacity="0.23" stroke-linecap="round" />
  <line x1="-10.0" y1="144.4" x2="266.0" y2="136.8" stroke="#CBE0F4" stroke-width="1.23" opacity="0.26" stroke-linecap="round" />
  <line x1="-10.0" y1="184.8" x2="266.0" y2="187.0" stroke="#CBE0F4" stroke-width="1.69" opacity="0.18" stroke-linecap="round" />
  <line x1="-10.0" y1="83.1" x2="266.0" y2="85.0" stroke="#D7E9F8" stroke-width="1.35" opacity="0.21" stroke-linecap="round" />
  <line x1="-10.0" y1="67.2" x2="266.0" y2="66.3" stroke="#F8FBFF" stroke-width="1.73" opacity="0.25" stroke-linecap="round" />
  <line x1="-10.0" y1="86.3" x2="266.0" y2="79.5" stroke="#D7E9F8" stroke-width="1.20" opacity="0.12" stroke-linecap="round" />
  <line x1="-10.0" y1="229.0" x2="266.0" y2="229.7" stroke="#F8FBFF" stroke-width="1.65" opacity="0.13" stroke-linecap="round" />
  <line x1="-10.0" y1="107.2" x2="266.0" y2="109.0" stroke="#F8FBFF" stroke-width="1.35" opacity="0.33" stroke-linecap="round" />
  <line x1="-10.0" y1="101.6" x2="266.0" y2="96.4" stroke="#D7E9F8" stroke-width="1.09" opacity="0.33" stroke-linecap="round" />
  <ellipse cx="3.7" cy="127.3" rx="28.8" ry="7.5" fill="#D6E6F7" opacity="0.18" transform="rotate(128.9 3.7 127.3)" />
  <ellipse cx="76.2" cy="213.0" rx="29.8" ry="6.0" fill="#E2EEF8" opacity="0.08" transform="rotate(90.8 76.2 213.0)" />
  <ellipse cx="244.2" cy="108.6" rx="20.6" ry="8.3" fill="#D6E6F7" opacity="0.23" transform="rotate(4.3 244.2 108.6)" />
  <ellipse cx="22.5" cy="212.2" rx="16.6" ry="10.0" fill="#D6E6F7" opacity="0.14" transform="rotate(34.3 22.5 212.2)" />
  <ellipse cx="248.3" cy="154.9" rx="29.0" ry="4.5" fill="#F3F9FF" opacity="0.13" transform="rotate(16.7 248.3 154.9)" />
  <ellipse cx="4.4" cy="132.8" rx="12.7" ry="4.2" fill="#E2EEF8" opacity="0.22" transform="rotate(41.0 4.4 132.8)" />
  <ellipse cx="213.8" cy="41.5" rx="15.7" ry="9.5" fill="#D6E6F7" opacity="0.16" transform="rotate(61.1 213.8 41.5)" />
  <ellipse cx="196.5" cy="247.8" rx="24.0" ry="8.0" fill="#F3F9FF" opacity="0.09" transform="rotate(114.3 196.5 247.8)" />
  <ellipse cx="113.7" cy="214.8" rx="13.0" ry="5.6" fill="#D6E6F7" opacity="0.09" transform="rotate(31.0 113.7 214.8)" />
  <ellipse cx="69.2" cy="98.7" rx="28.4" ry="4.8" fill="#F3F9FF" opacity="0.20" transform="rotate(21.2 69.2 98.7)" />
  <ellipse cx="6.2" cy="163.8" rx="16.4" ry="10.6" fill="#D6E6F7" opacity="0.17" transform="rotate(122.9 6.2 163.8)" />
  <ellipse cx="119.1" cy="0.7" rx="15.3" ry="3.6" fill="#D6E6F7" opacity="0.11" transform="rotate(175.6 119.1 0.7)" />
  <ellipse cx="37.4" cy="237.4" rx="21.0" ry="5.0" fill="#D6E6F7" opacity="0.20" transform="rotate(33.0 37.4 237.4)" />
  <ellipse cx="139.3" cy="176.4" rx="13.1" ry="7.8" fill="#F3F9FF" opacity="0.20" transform="rotate(56.7 139.3 176.4)" />
  <ellipse cx="110.9" cy="255.0" rx="21.0" ry="6.6" fill="#D6E6F7" opacity="0.14" transform="rotate(162.6 110.9 255.0)" />
  <ellipse cx="72.8" cy="254.5" rx="20.5" ry="7.2" fill="#F3F9FF" opacity="0.21" transform="rotate(37.7 72.8 254.5)" />
  <ellipse cx="8.5" cy="178.5" rx="19.0" ry="3.3" fill="#D6E6F7" opacity="0.11" transform="rotate(176.5 8.5 178.5)" />
  <ellipse cx="92.7" cy="242.1" rx="19.1" ry="10.1" fill="#D6E6F7" opacity="0.18" transform="rotate(4.7 92.7 242.1)" />
  <ellipse cx="130.9" cy="8.6" rx="11.2" ry="6.8" fill="#D6E6F7" opacity="0.15" transform="rotate(41.0 130.9 8.6)" />
  <ellipse cx="119.6" cy="29.1" rx="9.0" ry="6.8" fill="#D6E6F7" opacity="0.12" transform="rotate(126.8 119.6 29.1)" />
  <ellipse cx="78.4" cy="83.3" rx="18.6" ry="7.6" fill="#E2EEF8" opacity="0.09" transform="rotate(87.7 78.4 83.3)" />
  <ellipse cx="162.2" cy="200.4" rx="10.4" ry="3.4" fill="#E2EEF8" opacity="0.16" transform="rotate(79.7 162.2 200.4)" />
  <ellipse cx="42.5" cy="60.3" rx="10.0" ry="6.5" fill="#F3F9FF" opacity="0.13" transform="rotate(24.2 42.5 60.3)" />
  <ellipse cx="160.5" cy="54.4" rx="24.6" ry="4.6" fill="#F3F9FF" opacity="0.22" transform="rotate(41.5 160.5 54.4)" />
  <ellipse cx="150.7" cy="106.3" rx="19.0" ry="4.4" fill="#D6E6F7" opacity="0.24" transform="rotate(120.1 150.7 106.3)" />
  <ellipse cx="202.3" cy="231.2" rx="26.2" ry="3.1" fill="#D6E6F7" opacity="0.09" transform="rotate(19.9 202.3 231.2)" />
  <ellipse cx="78.1" cy="40.8" rx="13.4" ry="5.7" fill="#E2EEF8" opacity="0.21" transform="rotate(15.9 78.1 40.8)" />
  <ellipse cx="175.9" cy="180.3" rx="25.8" ry="5.4" fill="#D6E6F7" opacity="0.13" transform="rotate(168.2 175.9 180.3)" />
  <ellipse cx="190.0" cy="178.3" rx="22.6" ry="5.1" fill="#E2EEF8" opacity="0.09" transform="rotate(173.4 190.0 178.3)" />
  <ellipse cx="111.2" cy="109.0" rx="19.1" ry="3.2" fill="#D6E6F7" opacity="0.21" transform="rotate(179.8 111.2 109.0)" />
  <ellipse cx="201.7" cy="253.2" rx="8.4" ry="11.1" fill="#D6E6F7" opacity="0.16" transform="rotate(128.8 201.7 253.2)" />
  <ellipse cx="244.6" cy="20.2" rx="18.5" ry="3.8" fill="#E2EEF8" opacity="0.16" transform="rotate(76.6 244.6 20.2)" />
  <ellipse cx="2.1" cy="208.1" rx="9.8" ry="5.7" fill="#F3F9FF" opacity="0.12" transform="rotate(175.2 2.1 208.1)" />
  <ellipse cx="231.8" cy="162.0" rx="17.4" ry="7.4" fill="#F3F9FF" opacity="0.11" transform="rotate(155.8 231.8 162.0)" />
  <ellipse cx="44.1" cy="21.9" rx="26.3" ry="8.6" fill="#F3F9FF" opacity="0.09" transform="rotate(38.6 44.1 21.9)" />
  <ellipse cx="169.4" cy="19.9" rx="16.2" ry="11.8" fill="#E2EEF8" opacity="0.12" transform="rotate(50.7 169.4 19.9)" />
  <circle cx="200.4" cy="227.4" r="1.1" fill="#F2FAFF" opacity="0.41" />
  <circle cx="86.0" cy="137.6" r="1.4" fill="#DDEBFA" opacity="0.41" />
  <circle cx="124.1" cy="193.8" r="0.4" fill="#F2FAFF" opacity="0.42" />
  <circle cx="104.1" cy="167.1" r="0.8" fill="#FFFFFF" opacity="0.27" />
  <circle cx="100.2" cy="192.7" r="1.1" fill="#FFFFFF" opacity="0.45" />
  <circle cx="227.0" cy="45.3" r="0.9" fill="#FFFFFF" opacity="0.24" />
  <circle cx="193.5" cy="61.7" r="0.4" fill="#DDEBFA" opacity="0.44" />
  <circle cx="10.9" cy="234.5" r="2.2" fill="#DDEBFA" opacity="0.50" />
  <circle cx="184.4" cy="15.5" r="1.7" fill="#F2FAFF" opacity="0.29" />
  <circle cx="151.6" cy="82.7" r="1.1" fill="#DDEBFA" opacity="0.36" />
  <circle cx="148.9" cy="93.0" r="1.6" fill="#F2FAFF" opacity="0.40" />
  <circle cx="206.7" cy="251.6" r="0.8" fill="#DDEBFA" opacity="0.51" />
  <circle cx="156.8" cy="129.5" r="1.6" fill="#F2FAFF" opacity="0.33" />
  <circle cx="109.0" cy="37.2" r="0.7" fill="#DDEBFA" opacity="0.44" />
  <circle cx="35.3" cy="16.6" r="2.0" fill="#F2FAFF" opacity="0.52" />
  <circle cx="107.4" cy="73.9" r="1.6" fill="#DDEBFA" opacity="0.23" />
  <circle cx="130.7" cy="112.9" r="0.8" fill="#F2FAFF" opacity="0.37" />
  <circle cx="141.6" cy="99.2" r="0.6" fill="#F2FAFF" opacity="0.45" />
  <circle cx="114.5" cy="59.0" r="0.7" fill="#FFFFFF" opacity="0.38" />
  <circle cx="93.4" cy="227.1" r="2.0" fill="#DDEBFA" opacity="0.25" />
  <circle cx="86.5" cy="183.5" r="1.5" fill="#FFFFFF" opacity="0.27" />
  <circle cx="87.6" cy="248.1" r="0.5" fill="#F2FAFF" opacity="0.33" />
  <circle cx="220.5" cy="37.3" r="1.3" fill="#FFFFFF" opacity="0.38" />
  <circle cx="175.9" cy="217.9" r="1.3" fill="#DDEBFA" opacity="0.46" />
  <circle cx="183.2" cy="162.5" r="2.0" fill="#DDEBFA" opacity="0.36" />
  <circle cx="73.6" cy="49.4" r="1.4" fill="#DDEBFA" opacity="0.37" />
  <circle cx="208.7" cy="48.8" r="0.6" fill="#F2FAFF" opacity="0.34" />
  <circle cx="200.9" cy="43.9" r="1.4" fill="#DDEBFA" opacity="0.39" />
  <circle cx="211.6" cy="103.1" r="1.3" fill="#FFFFFF" opacity="0.37" />
  <circle cx="32.0" cy="147.7" r="2.0" fill="#FFFFFF" opacity="0.54" />
  <circle cx="80.0" cy="116.7" r="1.2" fill="#F2FAFF" opacity="0.48" />
  <circle cx="139.4" cy="250.6" r="1.9" fill="#FFFFFF" opacity="0.48" />
  <circle cx="253.9" cy="223.7" r="1.0" fill="#DDEBFA" opacity="0.45" />
  <circle cx="50.6" cy="48.5" r="1.2" fill="#F2FAFF" opacity="0.39" />
  <circle cx="79.3" cy="4.7" r="1.3" fill="#DDEBFA" opacity="0.29" />
  <circle cx="59.6" cy="134.2" r="1.4" fill="#F2FAFF" opacity="0.49" />
  <circle cx="127.8" cy="210.1" r="2.2" fill="#FFFFFF" opacity="0.26" />
  <circle cx="63.8" cy="170.0" r="1.5" fill="#DDEBFA" opacity="0.45" />
  <circle cx="104.5" cy="0.1" r="1.1" fill="#F2FAFF" opacity="0.33" />
  <circle cx="73.0" cy="152.9" r="1.4" fill="#DDEBFA" opacity="0.33" />
</svg>