<?xml version="1.0" encoding="UTF-8"?>
<svg xmlns="http://www.w3.org/2000/svg" viewBox="0 0 256 256" shape-rendering="geometricPrecision">
  <defs>
    <linearGradient id="bg-mountain-scree" x1="0%" y1="0%" x2="100%" y2="100%">
      <stop offset="0%" stop-color="#7D6853" />
      <stop offset="52%" stop-color="#5F4D3C" />
      <stop offset="100%" stop-color="#C5B092" />
    </linearGradient>
  </defs>
  <rect width="256" height="256" fill="url(#bg-mountain-scree)" />
  <path d="M 266.5 219.7 l 35.9 -19.1 l 43.9 19.1 z" fill="#9A8368" opacity="0.16" />
  <path d="M 243.2 237.8 l 19.7 -26.8 l 24.0 26.8 z" fill="#C7B49A" opacity="0.18" />
  <path d="M -9.2 173.3 l 32.1 -21.4 l 39.2 21.4 z" fill="#C7B49A" opacity="0.18" />
  <path d="M 262.3 45.5 l 27.8 -33.6 l 34.0 33.6 z" fill="#C7B49A" opacity="0.24" />
  <path d="M 268.8 227.0 l 29.5 -16.7 l 36.0 16.7 z" fill="#6A5746" opacity="0.15" />
  <path d="M 217.7 275.0 l 26.6 -15.3 l 32.5 15.3 z" fill="#7C6751" opacity="0.26" />
  <path d="M 120.4 121.2 l 21.5 -18.3 l 26.2 18.3 z" fill="#6A5746" opacity="0.19" />
  <path d="M 121.5 255.2 l 37.2 -29.0 l 45.4 29.0 z" fill="#C7B49A" opacity="0.20" />
  <path d="M -2.6 130.2 l 35.7 -39.3 l 43.7 39.3 z" fill="#9A8368" opacity="0.18" />
  <path d="M 8.0 114.4 l 20.4 -27.0 l 25.0 27.0 z" fill="#7C6751" opacity="0.16" />
  <path d="M 87.7 54.3 l 24.2 -29.3 l 29.6 29.3 z" fill="#7C6751" opacity="0.21" />
  <path d="M 254.7 146.1 l 16.0 -15.7 l 19.5 15.7 z" fill="#9A8368" opacity="0.15" />
  <path d="M 83.4 67.0 l 23.7 -14.1 l 28.9 14.1 z" fill="#9A8368" opacity="0.23" />
  <path d="M 24.4 99.4 l 33.2 -34.4 l 40.6 34.4 z" fill="#9A8368" opacity="0.23" />
  <path d="M 86.6 90.4 l 15.5 -37.7 l 18.9 37.7 z" fill="#C7B49A" opacity="0.22" />
  <path d="M 44.7 256.3 l 30.3 -37.1 l 37.0 37.1 z" fill="#6A5746" opacity="0.14" />
  <path d="M 169.0 117.4 l 26.3 -29.1 l 32.1 29.1 z" fill="#9A8368" opacity="0.15" />
  <path d="M 257.1 21.3 l 18.4 -30.0 l 22.5 30.0 z" fill="#9A8368" opacity="0.24" />
  <line x1="214.5" y1="125.3" x2="215.4" y2="108.0" stroke="#7C6650" stroke-width="1.54" opacity="0.53" stroke-linecap="round" />
  <line x1="59.8" y1="204.7" x2="58.1" y2="190.0" stroke="#A08A72" stroke-width="1.34" opacity="0.45" stroke-linecap="round" />
  <line x1="143.1" y1="122.9" x2="141.9" y2="102.1" stroke="#7C6650" stroke-width="0.97" opacity="0.26" stroke-linecap="round" />
  <line x1="247.1" y1="107.2" x2="245.5" y2="95.8" stroke="#7C6650" stroke-width="1.50" opacity="0.24" stroke-linecap="round" />
  <line x1="27.1" y1="182.9" x2="31.6" y2="158.4" stroke="#A08A72" stroke-width="1.02" opacity="0.37" stroke-linecap="round" />
  <line x1="53.7" y1="62.1" x2="48.8" y2="53.1" stroke="#A08A72" stroke-width="1.44" opacity="0.35" stroke-linecap="round" />
  <line x1="206.5" y1="179.9" x2="202.6" y2="150.9" stroke="#7C6650" stroke-width="1.18" opacity="0.28" stroke-linecap="round" />
  <line x1="95.9" y1="22.3" x2="90.5" y2="-0.2" stroke="#A08A72" stroke-width="0.87" opacity="0.38" stroke-linecap="round" />
  <line x1="92.8" y1="246.4" x2="95.4" y2="228.0" stroke="#7C6650" stroke-width="1.59" opacity="0.36" stroke-linecap="round" />
  <line x1="248.6" y1="29.9" x2="246.4" y2="8.2" stroke="#5B4A3A" stroke-width="1.62" opacity="0.26" stroke-linecap="round" />
  <line x1="155.6" y1="185.8" x2="156.8" y2="169.7" stroke="#5B4A3A" stroke-width="1.00" opacity="0.29" stroke-linecap="round" />
  <line x1="10.9" y1="172.6" x2="10.8" y2="162.8" stroke="#5B4A3A" stroke-width="1.47" opacity="0.36" stroke-linecap="round" />
  <line x1="160.3" y1="146.8" x2="162.1" y2="122.3" stroke="#5B4A3A" stroke-width="0.97" opacity="0.30" stroke-linecap="round" />
  <line x1="248.8" y1="37.6" x2="248.7" y2="21.7" stroke="#7C6650" stroke-width="1.13" opacity="0.45" stroke-linecap="round" />
  <line x1="94.1" y1="228.7" x2="92.7" y2="217.7" stroke="#7C6650" stroke-width="1.53" opacity="0.37" stroke-linecap="round" />
  <line x1="96.3" y1="68.9" x2="92.7" y2="40.5" stroke="#5B4A3A" stroke-width="1.23" opacity="0.20" stroke-linecap="round" />
  <line x1="108.1" y1="156.3" x2="107.8" y2="144.5" stroke="#A08A72" stroke-width="1.04" opacity="0.51" stroke-linecap="round" />
  <line x1="227.3" y1="141.4" x2="225.2" y2="116.2" stroke="#A08A72" stroke-width="1.20" opacity="0.50" stroke-linecap="round" />
  <line x1="99.2" y1="100.9" x2="97.9" y2="84.8" stroke="#5B4A3A" stroke-width="1.60" opacity="0.50" stroke-linecap="round" />
  <line x1="151.5" y1="196.6" x2="152.5" y2="169.3" stroke="#A08A72" stroke-width="1.34" opacity="0.26" stroke-linecap="round" />
  <line x1="37.9" y1="245.7" x2="40.6" y2="235.8" stroke="#A08A72" stroke-width="0.82" opacity="0.35" stroke-linecap="round" />
  <line x1="232.3" y1="45.0" x2="226.8" y2="21.8" stroke="#7C6650" stroke-width="1.13" opacity="0.43" stroke-linecap="round" />
  <line x1="164.9" y1="150.7" x2="162.2" y2="127.8" stroke="#5B4A3A" stroke-width="1.14" opacity="0.43" stroke-linecap="round" />
  <line x1="252.9" y1="26.1" x2="257.8" y2="15.6" stroke="#A08A72" stroke-width="1.08" opacity="0.24" stroke-linecap="round" />
  <line x1="49.5" y1="219.7" x2="45.6" y2="204.0" stroke="#5B4A3A" stroke-width="1.51" opacity="0.31" stroke-linecap="round" />
  <line x1="194.8" y1="146.1" x2="194.3" y2="126.2" stroke="#5B4A3A" stroke-width="1.20" opacity="0.55" stroke-linecap="round" />
  <line x1="117.3" y1="95.2" x2="115.7" y2="83.4" stroke="#A08A72" stroke-width="1.42" opacity="0.39" stroke-linecap="round" />
  <line x1="99.6" y1="201.0" x2="93.9" y2="185.0" stroke="#7C6650" stroke-width="1.16" opacity="0.25" stroke-linecap="round" />
  <line x1="175.6" y1="248.2" x2="177.2" y2="224.8" stroke="#5B4A3A" stroke-width="0.96" opacity="0.38" stroke-linecap="round" />
  <line x1="146.3" y1="218.2" x2="148.8" y2="208.1" stroke="#7C6650" stroke-width="1.63" opacity="0.27" stroke-linecap="round" />
  <line x1="22.7" y1="140.1" x2="19.7" y2="123.7" stroke="#5B4A3A" stroke-width="1.22" opacity="0.35" stroke-linecap="round" />
  <line x1="123.1" y1="146.5" x2="118.4" y2="133.2" stroke="#A08A72" stroke-width="1.49" opacity="0.38" stroke-linecap="round" />
  <line x1="184.3" y1="96.1" x2="179.0" y2="83.9" stroke="#5B4A3A" stroke-width="1.04" opacity="0.51" stroke-linecap="round" />
  <line x1="99.8" y1="106.0" x2="101.2" y2="88.1" stroke="#7C6650" stroke-width="1.44" opacity="0.27" stroke-linecap="round" />
  <line x1="252.4" y1="76.7" x2="255.0" y2="57.4" stroke="#7C6650" stroke-width="1.47" opacity="0.19" stroke-linecap="round" />
  <line x1="32.1" y1="109.6" x2="30.1" y2="98.7" stroke="#A08A72" stroke-width="0.83" opacity="0.48" stroke-linecap="round" />
  <line x1="142.8" y1="13.6" x2="148.4" y2="4.4" stroke="#5B4A3A" stroke-width="1.63" opacity="0.19" stroke-linecap="round" />
  <line x1="239.1" y1="25.5" x2="243.2" y2="-1.1" stroke="#5B4A3A" stroke-width="1.19" opacity="0.51" stroke-linecap="round" />
  <line x1="173.6" y1="190.4" x2="174.7" y2="172.5" stroke="#5B4A3A" stroke-width="0.90" opacity="0.31" stroke-linecap="round" />
  <line x1="25.5" y1="110.5" x2="22.3" y2="95.3" stroke="#5B4A3A" stroke-width="1.01" opacity="0.52" stroke-linecap="round" />
  <line x1="168.9" y1="209.8" x2="171.2" y2="184.2" stroke="#5B4A3A" stroke-width="1.60" opacity="0.27" stroke-linecap="round" />
  <line x1="228.5" y1="180.3" x2="224.3" y2="150.5" stroke="#A08A72" stroke-width="0.98" opacity="0.20" stroke-linecap="round" />
  <line x1="197.0" y1="142.7" x2="202.6" y2="132.5" stroke="#5B4A3A" stroke-width="0.95" opacity="0.39" stroke-linecap="round" />
  <line x1="210.0" y1="104.4" x2="213.2" y2="93.8" stroke="#7C6650" stroke-width="1.25" opacity="0.51" stroke-linecap="round" />
  <line x1="47.9" y1="232.2" x2="50.7" y2="220.6" stroke="#7C6650" stroke-width="0.89" opacity="0.39" stroke-linecap="round" />
  <line x1="255.5" y1="94.4" x2="254.0" y2="68.7" stroke="#5B4A3A" stroke-width="1.07" opacity="0.27" stroke-linecap="round" />
  <line x1="234.3" y1="127.3" x2="233.4" y2="108.8" stroke="#7C6650" stroke-width="0.91" opacity="0.24" stroke-linecap="round" />
  <line x1="51.7" y1="29.4" x2="51.6" y2="4.7" stroke="#7C6650" stroke-width="1.01" opacity="0.46" stroke-linecap="round" />
  <line x1="113.3" y1="167.4" x2="117.7" y2="151.3" stroke="#A08A72" stroke-width="0.99" opacity="0.41" stroke-linecap="round" />
  <line x1="88.8" y1="128.1" x2="89.8" y2="112.5" stroke="#7C6650" stroke-width="1.65" opacity="0.20" stroke-linecap="round" />
  <line x1="11.7" y1="20.1" x2="13.9" y2="7.0" stroke="#5B4A3A" stroke-width="1.30" opacity="0.54" stroke-linecap="round" />
  <line x1="203.1" y1="136.5" x2="206.2" y2="120.3" stroke="#A08A72" stroke-width="0.88" opacity="0.52" stroke-linecap="round" />
  <line x1="67.8" y1="13.4" x2="71.6" y2="-4.4" stroke="#7C6650" stroke-width="1.35" opacity="0.32" stroke-linecap="round" />
  <line x1="90.4" y1="154.7" x2="95.4" y2="137.0" stroke="#5B4A3A" stroke-width="0.81" opacity="0.45" stroke-linecap="round" />
  <line x1="146.7" y1="139.9" x2="147.7" y2="126.7" stroke="#7C6650" stroke-width="1.24" opacity="0.36" stroke-linecap="round" />
  <line x1="203.9" y1="148.7" x2="202.8" y2="134.6" stroke="#A08A72" stroke-width="1.12" opacity="0.43" stroke-linecap="round" />
  <line x1="110.1" y1="196.7" x2="113.0" y2="183.6" stroke="#A08A72" stroke-width="0.99" opacity="0.25" stroke-linecap="round" />
  <line x1="190.5" y1="184.4" x2="191.9" y2="162.4" stroke="#7C6650" stroke-width="1.38" opacity="0.32" stroke-linecap="round" />
  <line x1="168.9" y1="101.3" x2="164.6" y2="83.1" stroke="#5B4A3A" stroke-width="0.99" opacity="0.30" stroke-linecap="round" />
  <line x1="186.6" y1="92.4" x2="191.6" y2="66.7" stroke="#7C6650" stroke-width="1.00" opacity="0.33" stroke-linecap="round" />
  <line x1="146.7" y1="203.3" x2="150.5" y2="176.7" stroke="#5B4A3A" stroke-width="1.13" opacity="0.25" stroke-linecap="round" />
  <line x1="35.9" y1="149.0" x2="32.9" y2="124.4" stroke="#5B4A3A" stroke-width="1.30" opacity="0.31" stroke-linecap="round" />
  <line x1="44.2" y1="100.0" x2="46.7" y2="88.3" stroke="#A08A72" stroke-width="0.83" opacity="0.41" stroke-linecap="round" />
  <line x1="174.0" y1="177.3" x2="170.3" y2="151.6" stroke="#7C6650" stroke-width="1.31" opacity="0.19" stroke-linecap="round" />
  <line x1="218.6" y1="1.7" x2="216.9" y2="-15.3" stroke="#A08A72" stroke-width="1.23" opacity="0.51" stroke-linecap="round" />
  <line x1="175.3" y1="104.1" x2="178.6" y2="83.5" stroke="#A08A72" stroke-width="1.06" opacity="0.20" stroke-linecap="round" />
  <line x1="220.6" y1="141.6" x2="220.9" y2="121.1" stroke="#A08A72" stroke-width="1.58" opacity="0.40" stroke-linecap="round" />
  <line x1="84.2" y1="23.2" x2="84.1" y2="0.2" stroke="#A08A72" stroke-width="1.44" opacity="0.49" stroke-linecap="round" />
  <line x1="36.2" y1="128.9" x2="37.8" y2="114.6" stroke="#7C6650" stroke-width="1.44" opacity="0.42" stroke-linecap="round" />
  <line x1="104.6" y1="121.2" x2="100.5" y2="96.0" stroke="#5B4A3A" stroke-width="1.30" opacity="0.48" stroke-linecap="round" />
  <line x1="126.1" y1="224.8" x2="127.4" y2="200.2" stroke="#7C6650" stroke-width="0.97" opacity="0.51" stroke-linecap="round" />
  <line x1="67.8" y1="67.9" x2="67.7" y2="41.7" stroke="#A08A72" stroke-width="1.58" opacity="0.28" stroke-linecap="round" />
  <line x1="178.7" y1="146.7" x2="177.3" y2="136.7" stroke="#5B4A3A" stroke-width="0.95" opacity="0.46" stroke-linecap="round" />
  <line x1="100.6" y1="112.9" x2="105.7" y2="89.3" stroke="#5B4A3A" stroke-width="1.45" opacity="0.55" stroke-linecap="round" />
  <line x1="208.6" y1="157.5" x2="205.7" y2="143.9" stroke="#5B4A3A" stroke-width="1.06" opacity="0.40" stroke-linecap="round" />
  <line x1="166.7" y1="134.6" x2="168.3" y2="105.9" stroke="#A08A72" stroke-width="0.91" opacity="0.23" stroke-linecap="round" />
  <line x1="119.5" y1="118.3" x2="119.6" y2="89.4" stroke="#7C6650" stroke-width="1.64" opacity="0.34" stroke-linecap="round" />
  <line x1="24.6" y1="234.1" x2="22.0" y2="220.5" stroke="#7C6650" stroke-width="1.23" opacity="0.45" stroke-linecap="round" />
  <line x1="186.6" y1="193.5" x2="180.7" y2="164.6" stroke="#7C6650" stroke-width="0.87" opacity="0.30" stroke-linecap="round" />
  <line x1="102.3" y1="157.6" x2="96.8" y2="138.1" stroke="#7C6650" stroke-width="0.90" opacity="0.36" stroke-linecap="round" />
  <line x1="198.2" y1="126.6" x2="193.3" y2="104.9" stroke="#7C6650" stroke-width="0.86" opacity="0.44" stroke-linecap="round" />
  <line x1="200.1" y1="40.1" x2="199.4" y2="30.1" stroke="#A08A72" stroke-width="1.18" opacity="0.42" stroke-linecap="round" />
  <line x1="111.1" y1="194.9" x2="111.7" y2="177.2" stroke="#7C6650" stroke-width="1.15" opacity="0.22" stroke-linecap="round" />
  <line x1="77.9" y1="0.0" x2="77.8" y2="-25.5" stroke="#7C6650" stroke-width="1.29" opacity="0.43" stroke-linecap="round" />
  <line x1="92.6" y1="195.9" x2="98.2" y2="173.6" stroke="#7C6650" stroke-width="1.50" opacity="0.21" stroke-linecap="round" />
  <line x1="172.8" y1="178.9" x2="169.7" y2="155.3" stroke="#7C6650" stroke-width="1.67" opacity="0.42" stroke-linecap="round" />
  <line x1="9.8" y1="207.1" x2="9.6" y2="190.6" stroke="#7C6650" stroke-width="0.85" opacity="0.24" stroke-linecap="round" />
  <line x1="201.6" y1="82.5" x2="207.4" y2="69.7" stroke="#A08A72" stroke-width="1.02" opacity="0.34" stroke-linecap="round" />
  <line x1="233.4" y1="34.7" x2="238.4" y2="17.2" stroke="#5B4A3A" stroke-width="1.22" opacity="0.33" stroke-linecap="round" />
  <line x1="221.0" y1="255.9" x2="223.5" y2="234.0" stroke="#7C6650" stroke-width="1.67" opacity="0.37" stroke-linecap="round" />
  <line x1="13.6" y1="111.6" x2="9.0" y2="85.4" stroke="#7C6650" stroke-width="1.56" opacity="0.53" stroke-linecap="round" />
  <line x1="3.4" y1="225.2" x2="-2.5" y2="200.8" stroke="#A08A72" stroke-width="0.88" opacity="0.52" stroke-linecap="round" />
  <line x1="219.7" y1="255.7" x2="220.5" y2="246.1" stroke="#7C6650" stroke-width="1.47" opacity="0.21" stroke-linecap="round" />
  <line x1="44.8" y1="17.7" x2="42.8" y2="-6.3" stroke="#7C6650" stroke-width="1.68" opacity="0.24" stroke-linecap="round" />
  <line x1="108.9" y1="19.5" x2="109.3" y2="-9.5" stroke="#A08A72" stroke-width="1.03" opacity="0.26" stroke-linecap="round" />
  <line x1="164.2" y1="80.7" x2="168.1" y2="56.5" stroke="#A08A72" stroke-width="0.97" opacity="0.47" stroke-linecap="round" />
  <line x1="65.9" y1="244.6" x2="61.9" y2="235.8" stroke="#7C6650" stroke-width="1.52" opacity="0.24" stroke-linecap="round" />
  <line x1="30.9" y1="56.5" x2="35.3" y2="29.8" stroke="#5B4A3A" stroke-width="1.12" opacity="0.51" stroke-linecap="round" />
  <line x1="242.8" y1="151.5" x2="237.5" y2="128.8" stroke="#7C6650" stroke-width="0.82" opacity="0.32" stroke-linecap="round" />
  <line x1="42.1" y1="31.1" x2="43.9" y2="19.0" stroke="#A08A72" stroke-width="1.62" opacity="0.34" stroke-linecap="round" />
  <line x1="195.2" y1="59.0" x2="200.7" y2="49.7" stroke="#5B4A3A" stroke-width="1.45" opacity="0.41" stroke-linecap="round" />
  <line x1="108.2" y1="4.0" x2="106.2" y2="-21.6" stroke="#A08A72" stroke-width="1.10" opacity="0.41" stroke-linecap="round" />
  <line x1="105.7" y1="65.3" x2="100.2" y2="47.0" stroke="#7C6650" stroke-width="0.86" opacity="0.26" stroke-linecap="round" />
  <line x1="207.5" y1="206.6" x2="211.6" y2="183.7" stroke="#7C6650" stroke-width="1.34" opacity="0.34" stroke-linecap="round" />
  <line x1="58.6" y1="7.9" x2="60.7" y2="-19.5" stroke="#7C6650" stroke-width="1.08" opacity="0.38" stroke-linecap="round" />
  <line x1="105.6" y1="14.4" x2="111.1" y2="3.1" stroke="#A08A72" stroke-width="1.63" opacity="0.34" stroke-linecap="round" />
  <line x1="5.7" y1="43.0" x2="2.4" y2="33.3" stroke="#7C6650" stroke-width="1.66" opacity="0.54" stroke-linecap="round" />
  <line x1="28.5" y1="43.8" x2="24.7" y2="28.7" stroke="#5B4A3A" stroke-width="1.14" opacity="0.48" stroke-linecap="round" />
  <line x1="73.2" y1="18.1" x2="70.2" y2="2.0" stroke="#A08A72" stroke-width="1.04" opacity="0.26" stroke-linecap="round" />
  <line x1="234.2" y1="51.6" x2="235.6" y2="25.5" stroke="#7C6650" stroke-width="1.48" opacity="0.46" stroke-linecap="round" />
  <line x1="69.3" y1="175.3" x2="71.8" y2="145.9" stroke="#5B4A3A" stroke-width="1.35" opacity="0.52" stroke-linecap="round" />
  <line x1="88.1" y1="34.4" x2="87.7" y2="12.8" stroke="#5B4A3A" stroke-width="1.35" opacity="0.26" stroke-linecap="round" />
  <line x1="78.5" y1="149.2" x2="81.1" y2="140.6" stroke="#7C6650" stroke-width="1.36" opacity="0.33" stroke-linecap="round" />
  <line x1="136.1" y1="68.7" x2="141.2" y2="40.1" stroke="#5B4A3A" stroke-width="1.26" opacity="0.40" stroke-linecap="round" />
  <line x1="74.5" y1="117.9" x2="72.1" y2="100.6" stroke="#A08A72" stroke-width="1.26" opacity="0.42" stroke-linecap="round" />
  <line x1="187.0" y1="249.7" x2="181.1" y2="234.5" stroke="#5B4A3A" stroke-width="1.34" opacity="0.29" stroke-linecap="round" />
  <line x1="54.0" y1="105.1" x2="50.1" y2="76.0" stroke="#A08A72" stroke-width="1.10" opacity="0.28" stroke-linecap="round" />
  <line x1="162.2" y1="178.5" x2="163.4" y2="162.1" stroke="#7C6650" stroke-width="1.02" opacity="0.53" stroke-linecap="round" />
  <line x1="239.1" y1="166.3" x2="241.7" y2="149.0" stroke="#A08A72" stroke-width="1.44" opacity="0.28" stroke-linecap="round" />
  <line x1="32.9" y1="151.6" x2="33.3" y2="122.3" stroke="#7C6650" stroke-width="1.68" opacity="0.25" stroke-linecap="round" />
  <circle cx="85.2" cy="127.5" r="0.7" fill="#B8AA93" opacity="0.23" />
  <circle cx="200.7" cy="147.0" r="1.2" fill="#E0D5C3" opacity="0.23" />
  <circle cx="167.1" cy="213.5" r="0.8" fill="#B8AA93" opacity="0.37" />
  <circle cx="148.2" cy="143.3" r="1.1" fill="#B8AA93" opacity="0.26" />
  <circle cx="112.3" cy="125.8" r="0.7" fill="#B8AA93" opacity="0.24" />
  <circle cx="87.1" cy="42.6" r="0.7" fill="#D1C4AF" opacity="0.23" />
  <circle cx="185.3" cy="111.1" r="2.4" fill="#D1C4AF" opacity="0.23" />
  <circle cx="111.0" cy="188.2" r="2.5" fill="#E0D5C3" opacity="0.21" />
  <circle cx="163.0" cy="50.1" r="1.5" fill="#B8AA93" opacity="0.42" />
  <circle cx="161.3" cy="58.7" r="2.2" fill="#B8AA93" opacity="0.30" />
  <circle cx="100.8" cy="60.2" r="1.5" fill="#B8AA93" opacity="0.26" />
  <circle cx="177.1" cy="201.4" r="1.1" fill="#B8AA93" opacity="0.26" />
  <circle cx="22.1" cy="248.0" r="1.0" fill="#E0D5C3" opacity="0.22" />
  <circle cx="157.8" cy="95.2" r="2.6" fill="#B8AA93" opacity="0.41" />
  <circle cx="170.2" cy="125.8" r="1.9" fill="#D1C4AF" opacity="0.37" />
  <circle cx="102.7" cy="57.7" r="1.7" fill="#E0D5C3" opacity="0.27" />
  <circle cx="173.3" cy="223.6" r="1.5" fill="#B8AA93" opacity="0.34" />
  <circle cx="41.2" cy="119.3" r="2.3" fill="#D1C4AF" opacity="0.31" />
  <circle cx="117.3" cy="79.2" r="1.5" fill="#B8AA93" opacity="0.39" />
  <circle cx="198.3" cy="165.3" r="2.0" fill="#D1C4AF" opacity="0.43" />
  <circle cx="10.8" cy="160.1" r="1.2" fill="#B8AA93" opacity="0.39" />
  <circle cx="3.1" cy="225.7" r="1.5" fill="#E0D5C3" opacity="0.37" />
  <circle cx="143.6" cy="240.8" r="1.8" fill="#B8AA93" opacity="0.37" />
  <circle cx="70.2" cy="227.4" r="1.2" fill="#B8AA93" opacity="0.33" />
  <circle cx="52.1" cy="230.3" r="2.3" fill="#D1C4AF" opacity="0.25" />
  <circle cx="74.7" cy="162.9" r="2.1" fill="#B8AA93" opacity="0.36" />
  <circle cx="99.6" cy="145.8" r="2.0" fill="#D1C4AF" opacity="0.35" />
  <circle cx="228.6" cy="213.8" r="0.9" fill="#B8AA93" opacity="0.35" />
  <circle cx="157.0" cy="160.3" r="2.6" fill="#E0D5C3" opacity="0.30" />
  <circle cx="25.1" cy="148.9" r="0.8" fill="#D1C4AF" opacity="0.38" />
  <circle cx="42.9" cy="34.5" r="1.8" fill="#D1C4AF" opacity="0.23" />
  <circle cx="143.1" cy="21.9" r="2.4" fill="#D1C4AF" opacity="0.32" />
  <circle cx="94.9" cy="96.0" r="1.9" fill="#E0D5C3" opacity="0.25" />
  <circle cx="110.6" cy="70.2" r="1.8" fill="#B8AA93" opacity="0.25" />
  <circle cx="157.9" cy="207.6" r="2.0" fill="#E0D5C3" opacity="0.29" />
  <circle cx="250.8" cy="40.6" r="2.1" fill="#D1C4AF" opacity="0.38" />
  <circle cx="251.2" cy="177.7" r="2.6" fill="#B8AA93" opacity="0.37" />
  <circle cx="109.1" cy="163.4" r="1.2" fill="#D1C4AF" opacity="0.26" />
  <circle cx="1.8" cy="23.5" r="1.2" fill="#E0D5C3" opacity="0.32" />
  <circle cx="102.7" cy="3.5" r="2.4" fill="#B8AA93" opacity="0.21" />
  <circle cx="162.6" cy="76.1" r="1.8" fill="#D1C4AF" opacity="0.26" />
  <circle cx="218.4" cy="56.6" r="1.7" fill="#B8AA93" opacity="0.25" />
  <circle cx="110.0" cy="215.8" r="0.8" fill="#B8AA93" opacity="0.30" />
  <circle cx="7.3" cy="150.8" r="1.5" fill="#D1C4AF" opacity="0.35" />
</svg>