<?xml version="1.0" encoding="UTF-8"?>
<svg xmlns="http://www.w3.org/2000/svg" viewBox="0 0 256 256" shape-rendering="geometricPrecision">
  <defs>
    <linearGradient id="bg-forest-grove" x1="0%" y1="0%" x2="100%" y2="100%">
      <stop offset="0%" stop-color="#4E7845" />
      <stop offset="52%" stop-color="#5A8B50" />
      <stop offset="100%" stop-color="#5D8F56" />
    </linearGradient>
  </defs>
  <rect width="256" height="256" fill="url(#bg-forest-grove)" />
  <ellipse cx="89.8" cy="19.4" rx="27.5" ry="18.0" fill="#82B26D" opacity="0.13" transform="rotate(9.3 89.8 19.4)" />
  <ellipse cx="233.7" cy="186.0" rx="17.2" ry="16.8" fill="#4D8048" opacity="0.19" transform="rotate(139.0 233.7 186.0)" />
  <ellipse cx="44.8" cy="-0.4" rx="15.8" ry="12.8" fill="#82B26D" opacity="0.20" transform="rotate(113.4 44.8 -0.4)" />
  <ellipse cx="50.9" cy="100.7" rx="19.4" ry="21.7" fill="#365D34" opacity="0.11" transform="rotate(151.4 50.9 100.7)" />
  <ellipse cx="90.0" cy="249.2" rx="12.1" ry="8.0" fill="#4D8048" opacity="0.13" transform="rotate(35.0 90.0 249.2)" />
  <ellipse cx="192.4" cy="177.9" rx="17.5" ry="12.6" fill="#365D34" opacity="0.19" transform="rotate(131.8 192.4 177.9)" />
  <ellipse cx="36.8" cy="111.5" rx="22.8" ry="16.6" fill="#82B26D" opacity="0.09" transform="rotate(111.6 36.8 111.5)" />
  <ellipse cx="220.0" cy="136.2" rx="24.8" ry="24.7" fill="#365D34" opacity="0.17" transform="rotate(69.1 220.0 136.2)" />
  <ellipse cx="108.8" cy="210.8" rx="13.3" ry="9.6" fill="#365D34" opacity="0.11" transform="rotate(92.5 108.8 210.8)" />
  <ellipse cx="172.3" cy="155.1" rx="26.0" ry="20.7" fill="#6F9C67" opacity="0.10" transform="rotate(140.0 172.3 155.1)" />
  <ellipse cx="245.2" cy="163.4" rx="21.3" ry="18.4" fill="#365D34" opacity="0.17" transform="rotate(86.3 245.2 163.4)" />
  <ellipse cx="46.1" cy="261.8" rx="18.5" ry="15.4" fill="#365D34" opacity="0.17" transform="rotate(146.7 46.1 261.8)" />
  <ellipse cx="2.8" cy="115.8" rx="26.2" ry="22.7" fill="#4D8048" opacity="0.11" transform="rotate(120.0 2.8 115.8)" />
  <ellipse cx="61.5" cy="102.9" rx="21.7" ry="17.6" fill="#365D34" opacity="0.09" transform="rotate(68.6 61.5 102.9)" />
  <ellipse cx="13.4" cy="163.9" rx="26.8" ry="26.0" fill="#4D8048" opacity="0.17" transform="rotate(13.6 13.4 163.9)" />
  <ellipse cx="124.2" cy="173.9" rx="20.5" ry="14.5" fill="#82B26D" opacity="0.14" transform="rotate(70.4 124.2 173.9)" />
  <ellipse cx="13.0" cy="158.8" rx="17.4" ry="17.9" fill="#4D8048" opacity="0.20" transform="rotate(171.8 13.0 158.8)" />
  <ellipse cx="53.6" cy="124.7" rx="20.4" ry="14.4" fill="#365D34" opacity="0.14" transform="rotate(170.3 53.6 124.7)" />
  <ellipse cx="151.6" cy="33.7" rx="20.2" ry="13.6" fill="#365D34" opacity="0.10" transform="rotate(65.7 151.6 33.7)" />
  <ellipse cx="149.8" cy="138.3" rx="13.5" ry="14.6" fill="#6F9C67" opacity="0.22" transform="rotate(65.6 149.8 138.3)" />
  <ellipse cx="39.2" cy="226.1" rx="10.2" ry="10.8" fill="#365D34" opacity="0.21" transform="rotate(15.7 39.2 226.1)" />
  <ellipse cx="35.2" cy="237.3" rx="23.3" ry="16.7" fill="#4D8048" opacity="0.18" transform="rotate(35.5 35.2 237.3)" />
  <ellipse cx="218.8" cy="155.2" rx="27.6" ry="22.9" fill="#365D34" opacity="0.22" transform="rotate(1.1 218.8 155.2)" />
  <ellipse cx="158.0" cy="145.2" rx="25.4" ry="23.5" fill="#6F9C67" opacity="0.15" transform="rotate(133.7 158.0 145.2)" />
  <ellipse cx="93.4" cy="181.8" rx="27.7" ry="28.2" fill="#6F9C67" opacity="0.10" transform="rotate(57.8 93.4 181.8)" />
  <ellipse cx="262.2" cy="42.7" rx="15.6" ry="13.6" fill="#365D34" opacity="0.12" transform="rotate(0.5 262.2 42.7)" />
  <ellipse cx="216.2" cy="124.8" rx="27.0" ry="26.7" fill="#6F9C67" opacity="0.21" transform="rotate(96.4 216.2 124.8)" />
  <ellipse cx="32.1" cy="109.7" rx="14.8" ry="16.5" fill="#82B26D" opacity="0.16" transform="rotate(32.1 32.1 109.7)" />
  <ellipse cx="260.3" cy="60.3" rx="15.6" ry="15.1" fill="#82B26D" opacity="0.11" transform="rotate(35.0 260.3 60.3)" />
  <ellipse cx="205.9" cy="131.0" rx="18.5" ry="14.8" fill="#4D8048" opacity="0.15" transform="rotate(33.8 205.9 131.0)" />
  <ellipse cx="208.4" cy="39.5" rx="21.9" ry="16.2" fill="#4D8048" opacity="0.16" transform="rotate(88.4 208.4 39.5)" />
  <ellipse cx="-2.2" cy="137.2" rx="25.8" ry="26.2" fill="#4D8048" opacity="0.17" transform="rotate(78.1 -2.2 137.2)" />
  <path d="M 208.0 158.2 q 7.3 -7.3 5.1 -29.3" stroke="#507E49" stroke-width="1.36" opacity="0.38" fill="none" stroke-linecap="round" stroke-linejoin="round" />
  <path d="M 114.8 253.4 q 4.0 -3.2 2.8 -12.7" stroke="#507E49" stroke-width="1.10" opacity="0.47" fill="none" stroke-linecap="round" stroke-linejoin="round" />
  <path d="M 210.3 150.6 q -0.8 -7.9 -0.6 -31.6" stroke="#214126" stroke-width="0.92" opacity="0.25" fill="none" stroke-linecap="round" stroke-linejoin="round" />
  <path d="M 228.5 124.5 q 4.5 -4.6 3.1 -18.4" stroke="#507E49" stroke-width="1.12" opacity="0.23" fill="none" stroke-linecap="round" stroke-linejoin="round" />
  <path d="M 219.5 46.5 q -4.7 -7.5 -3.3 -30.0" stroke="#355B35" stroke-width="1.50" opacity="0.28" fill="none" stroke-linecap="round" stroke-linejoin="round" />
  <path d="M 1.9 192.8 q 7.9 -3.6 5.5 -14.4" stroke="#507E49" stroke-width="1.18" opacity="0.50" fill="none" stroke-linecap="round" stroke-linejoin="round" />
  <path d="M 206.8 43.0 q -3.5 -4.9 -2.4 -19.7" stroke="#355B35" stroke-width="1.19" opacity="0.31" fill="none" stroke-linecap="round" stroke-linejoin="round" />
  <path d="M 246.8 35.3 q 2.7 -7.8 1.9 -31.2" stroke="#507E49" stroke-width="0.79" opacity="0.39" fill="none" stroke-linecap="round" stroke-linejoin="round" />
  <path d="M 27.1 31.6 q 0.1 -2.7 0.1 -10.9" stroke="#507E49" stroke-width="1.50" opacity="0.22" fill="none" stroke-linecap="round" stroke-linejoin="round" />
  <path d="M 142.9 236.5 q 7.9 -6.7 5.6 -26.6" stroke="#355B35" stroke-width="1.06" opacity="0.43" fill="none" stroke-linecap="round" stroke-linejoin="round" />
  <path d="M 239.4 123.4 q -2.0 -6.8 -1.4 -27.1" stroke="#355B35" stroke-width="1.26" opacity="0.22" fill="none" stroke-linecap="round" stroke-linejoin="round" />
  <path d="M 141.5 29.6 q -0.1 -6.7 -0.1 -27.0" stroke="#214126" stroke-width="0.93" opacity="0.43" fill="none" stroke-linecap="round" stroke-linejoin="round" />
  <path d="M 220.0 193.6 q -2.7 -4.0 -1.9 -16.0" stroke="#355B35" stroke-width="1.10" opacity="0.40" fill="none" stroke-linecap="round" stroke-linejoin="round" />
  <path d="M 224.8 144.4 q 4.8 -5.8 3.3 -23.1" stroke="#214126" stroke-width="0.81" opacity="0.47" fill="none" stroke-linecap="round" stroke-linejoin="round" />
  <path d="M 35.0 208.3 q 0.3 -6.9 0.2 -27.8" stroke="#507E49" stroke-width="1.26" opacity="0.39" fill="none" stroke-linecap="round" stroke-linejoin="round" />
  <path d="M 40.6 252.8 q -3.8 -7.7 -2.6 -30.7" stroke="#214126" stroke-width="1.33" opacity="0.45" fill="none" stroke-linecap="round" stroke-linejoin="round" />
  <path d="M 196.2 24.6 q -5.9 -4.3 -4.1 -17.2" stroke="#355B35" stroke-width="0.72" opacity="0.21" fill="none" stroke-linecap="round" stroke-linejoin="round" />
  <path d="M 78.4 229.2 q -5.5 -4.1 -3.9 -16.6" stroke="#214126" stroke-width="0.75" opacity="0.39" fill="none" stroke-linecap="round" stroke-linejoin="round" />
  <path d="M 158.4 101.5 q 7.3 -3.7 5.1 -14.7" stroke="#355B35" stroke-width="0.80" opacity="0.48" fill="none" stroke-linecap="round" stroke-linejoin="round" />
  <path d="M 125.6 46.6 q 0.5 -3.8 0.3 -15.0" stroke="#507E49" stroke-width="1.32" opacity="0.20" fill="none" stroke-linecap="round" stroke-linejoin="round" />
  <path d="M 180.9 61.2 q 3.1 -6.6 2.2 -26.3" stroke="#214126" stroke-width="0.79" opacity="0.39" fill="none" stroke-linecap="round" stroke-linejoin="round" />
  <path d="M 243.4 17.8 q -0.5 -3.4 -0.3 -13.4" stroke="#214126" stroke-width="1.34" opacity="0.53" fill="none" stroke-linecap="round" stroke-linejoin="round" />
  <path d="M 85.8 38.9 q -4.2 -4.6 -2.9 -18.3" stroke="#214126" stroke-width="1.33" opacity="0.50" fill="none" stroke-linecap="round" stroke-linejoin="round" />
  <path d="M 15.1 218.4 q -2.1 -2.8 -1.5 -11.1" stroke="#507E49" stroke-width="1.29" opacity="0.50" fill="none" stroke-linecap="round" stroke-linejoin="round" />
  <path d="M 88.1 32.7 q 4.0 -7.8 2.8 -31.0" stroke="#214126" stroke-width="1.56" opacity="0.27" fill="none" stroke-linecap="round" stroke-linejoin="round" />
  <path d="M 175.9 90.5 q -5.7 -4.9 -4.0 -19.4" stroke="#507E49" stroke-width="1.30" opacity="0.45" fill="none" stroke-linecap="round" stroke-linejoin="round" />
  <path d="M 48.0 246.5 q -7.9 -7.3 -5.5 -29.2" stroke="#507E49" stroke-width="1.54" opacity="0.43" fill="none" stroke-linecap="round" stroke-linejoin="round" />
  <path d="M 44.4 46.6 q 1.0 -3.0 0.7 -12.0" stroke="#355B35" stroke-width="0.85" opacity="0.42" fill="none" stroke-linecap="round" stroke-linejoin="round" />
  <path d="M 88.8 84.6 q -5.0 -5.8 -3.5 -23.0" stroke="#355B35" stroke-width="1.16" opacity="0.54" fill="none" stroke-linecap="round" stroke-linejoin="round" />
  <path d="M 155.0 246.8 q 7.7 -6.7 5.4 -26.9" stroke="#214126" stroke-width="1.11" opacity="0.23" fill="none" stroke-linecap="round" stroke-linejoin="round" />
  <path d="M 58.8 242.2 q 3.2 -3.2 2.3 -12.8" stroke="#355B35" stroke-width="1.06" opacity="0.24" fill="none" stroke-linecap="round" stroke-linejoin="round" />
  <path d="M 68.4 188.0 q 6.4 -4.4 4.5 -17.5" stroke="#507E49" stroke-width="0.76" opacity="0.48" fill="none" stroke-linecap="round" stroke-linejoin="round" />
  <path d="M 245.0 222.2 q 2.2 -7.3 1.6 -29.4" stroke="#507E49" stroke-width="1.33" opacity="0.36" fill="none" stroke-linecap="round" stroke-linejoin="round" />
  <path d="M 196.8 82.7 q -1.7 -7.3 -1.2 -29.3" stroke="#355B35" stroke-width="1.55" opacity="0.50" fill="none" stroke-linecap="round" stroke-linejoin="round" />
  <path d="M 0.0 249.0 q -2.5 -7.1 -1.8 -28.3" stroke="#355B35" stroke-width="1.39" opacity="0.32" fill="none" stroke-linecap="round" stroke-linejoin="round" />
  <path d="M 141.5 182.5 q -0.2 -3.8 -0.1 -15.4" stroke="#507E49" stroke-width="1.60" opacity="0.47" fill="none" stroke-linecap="round" stroke-linejoin="round" />
  <path d="M 16.9 10.3 q 7.9 -6.8 5.5 -27.3" stroke="#355B35" stroke-width="1.15" opacity="0.32" fill="none" stroke-linecap="round" stroke-linejoin="round" />
  <path d="M 201.9 135.9 q -0.1 -4.1 -0.1 -16.5" stroke="#355B35" stroke-width="0.82" opacity="0.28" fill="none" stroke-linecap="round" stroke-linejoin="round" />
  <path d="M 208.6 94.1 q 1.1 -2.8 0.8 -11.4" stroke="#507E49" stroke-width="1.37" opacity="0.19" fill="none" stroke-linecap="round" stroke-linejoin="round" />
  <path d="M 103.9 41.5 q -6.6 -3.8 -4.6 -15.2" stroke="#507E49" stroke-width="0.99" opacity="0.33" fill="none" stroke-linecap="round" stroke-linejoin="round" />
  <path d="M 155.5 59.2 q -4.7 -3.9 -3.3 -15.7" stroke="#355B35" stroke-width="1.57" opacity="0.51" fill="none" stroke-linecap="round" stroke-linejoin="round" />
  <path d="M 51.5 22.6 q -0.9 -7.2 -0.6 -28.9" stroke="#214126" stroke-width="0.71" opacity="0.30" fill="none" stroke-linecap="round" stroke-linejoin="round" />
  <path d="M 3.8 232.8 q 7.6 -7.9 5.3 -31.6" stroke="#214126" stroke-width="1.33" opacity="0.53" fill="none" stroke-linecap="round" stroke-linejoin="round" />
  <path d="M 115.8 190.1 q 1.5 -4.0 1.1 -16.0" stroke="#507E49" stroke-width="0.98" opacity="0.47" fill="none" stroke-linecap="round" stroke-linejoin="round" />
  <path d="M 82.5 192.2 q 3.7 -3.4 2.6 -13.8" stroke="#507E49" stroke-width="1.14" opacity="0.51" fill="none" stroke-linecap="round" stroke-linejoin="round" />
  <path d="M 74.6 187.1 q -5.7 -5.1 -4.0 -20.4" stroke="#214126" stroke-width="1.32" opacity="0.22" fill="none" stroke-linecap="round" stroke-linejoin="round" />
  <path d="M 196.7 115.6 q 7.6 -6.4 5.3 -25.7" stroke="#355B35" stroke-width="1.35" opacity="0.42" fill="none" stroke-linecap="round" stroke-linejoin="round" />
  <path d="M 2.1 129.4 q 5.7 -8.0 4.0 -31.8" stroke="#214126" stroke-width="1.25" opacity="0.22" fill="none" stroke-linecap="round" stroke-linejoin="round" />
  <path d="M 163.7 238.7 q 4.8 -6.0 3.4 -24.2" stroke="#355B35" stroke-width="1.46" opacity="0.44" fill="none" stroke-linecap="round" stroke-linejoin="round" />
  <path d="M 27.8 214.8 q 4.3 -3.9 3.0 -15.5" stroke="#507E49" stroke-width="0.96" opacity="0.40" fill="none" stroke-linecap="round" stroke-linejoin="round" />
  <path d="M 193.5 13.9 q -7.5 -4.4 -5.3 -17.5" stroke="#355B35" stroke-width="1.22" opacity="0.38" fill="none" stroke-linecap="round" stroke-linejoin="round" />
  <path d="M 244.5 3.1 q -0.8 -7.6 -0.6 -30.3" stroke="#355B35" stroke-width="0.77" opacity="0.30" fill="none" stroke-linecap="round" stroke-linejoin="round" />
  <path d="M 71.0 193.9 q -6.0 -4.5 -4.2 -17.9" stroke="#507E49" stroke-width="1.20" opacity="0.43" fill="none" stroke-linecap="round" stroke-linejoin="round" />
  <path d="M 224.0 175.3 q -3.6 -4.1 -2.5 -16.3" stroke="#507E49" stroke-width="0.86" opacity="0.25" fill="none" stroke-linecap="round" stroke-linejoin="round" />
  <path d="M 9.4 30.4 q 7.8 -4.4 5.5 -17.7" stroke="#214126" stroke-width="0.95" opacity="0.51" fill="none" stroke-linecap="round" stroke-linejoin="round" />
  <path d="M 89.2 168.7 q -7.5 -7.6 -5.2 -30.3" stroke="#355B35" stroke-width="0.83" opacity="0.20" fill="none" stroke-linecap="round" stroke-linejoin="round" />
  <path d="M 175.8 53.6 q -5.3 -2.8 -3.7 -11.3" stroke="#355B35" stroke-width="1.31" opacity="0.43" fill="none" stroke-linecap="round" stroke-linejoin="round" />
  <path d="M 108.3 130.3 q -6.9 -3.8 -4.8 -15.4" stroke="#355B35" stroke-width="0.72" opacity="0.27" fill="none" stroke-linecap="round" stroke-linejoin="round" />
  <path d="M 243.8 225.3 q 0.3 -8.0 0.2 -31.8" stroke="#507E49" stroke-width="0.95" opacity="0.31" fill="none" stroke-linecap="round" stroke-linejoin="round" />
  <path d="M 207.2 109.1 q 2.6 -5.3 1.8 -21.3" stroke="#507E49" stroke-width="0.71" opacity="0.33" fill="none" stroke-linecap="round" stroke-linejoin="round" />
  <path d="M 239.1 194.9 q 8.0 -5.4 5.6 -21.7" stroke="#507E49" stroke-width="0.96" opacity="0.35" fill="none" stroke-linecap="round" stroke-linejoin="round" />
  <path d="M 161.5 245.0 q 5.6 -7.3 3.9 -29.4" stroke="#507E49" stroke-width="1.28" opacity="0.40" fill="none" stroke-linecap="round" stroke-linejoin="round" />
  <path d="M 159.4 198.7 q 4.0 -2.8 2.8 -11.3" stroke="#355B35" stroke-width="1.04" opacity="0.55" fill="none" stroke-linecap="round" stroke-linejoin="round" />
  <path d="M 139.5 240.1 q -1.1 -5.3 -0.8 -21.1" stroke="#355B35" stroke-width="1.10" opacity="0.20" fill="none" stroke-linecap="round" stroke-linejoin="round" />
  <path d="M 227.7 37.6 q -3.9 -7.4 -2.7 -29.8" stroke="#214126" stroke-width="0.96" opacity="0.46" fill="none" stroke-linecap="round" stroke-linejoin="round" />
  <path d="M 32.4 49.1 q -5.5 -7.6 -3.9 -30.5" stroke="#355B35" stroke-width="0.83" opacity="0.25" fill="none" stroke-linecap="round" stroke-linejoin="round" />
  <path d="M 60.1 49.7 q -5.1 -6.8 -3.5 -27.2" stroke="#507E49" stroke-width="0.85" opacity="0.21" fill="none" stroke-linecap="round" stroke-linejoin="round" />
  <path d="M 37.1 183.2 q -1.8 -4.0 -1.3 -16.1" stroke="#507E49" stroke-width="0.89" opacity="0.54" fill="none" stroke-linecap="round" stroke-linejoin="round" />
  <path d="M 158.1 162.2 q 5.0 -7.4 3.5 -29.6" stroke="#507E49" stroke-width="0.72" opacity="0.29" fill="none" stroke-linecap="round" stroke-linejoin="round" />
  <path d="M 137.9 38.9 q 7.9 -5.4 5.5 -21.5" stroke="#507E49" stroke-width="0.81" opacity="0.44" fill="none" stroke-linecap="round" stroke-linejoin="round" />
  <path d="M 203.4 56.3 q -2.0 -3.3 -1.4 -13.3" stroke="#507E49" stroke-width="0.81" opacity="0.41" fill="none" stroke-linecap="round" stroke-linejoin="round" />
  <path d="M 42.7 215.7 q -4.5 -6.5 -3.2 -26.0" stroke="#214126" stroke-width="1.02" opacity="0.44" fill="none" stroke-linecap="round" stroke-linejoin="round" />
  <path d="M 166.9 231.2 q -3.6 -2.6 -2.5 -10.2" stroke="#507E49" stroke-width="1.36" opacity="0.24" fill="none" stroke-linecap="round" stroke-linejoin="round" />
  <path d="M 160.9 107.2 q -4.2 -6.8 -2.9 -27.3" stroke="#214126" stroke-width="1.01" opacity="0.33" fill="none" stroke-linecap="round" stroke-linejoin="round" />
  <path d="M 150.1 243.6 q -5.3 -7.9 -3.7 -31.6" stroke="#355B35" stroke-width="0.74" opacity="0.22" fill="none" stroke-linecap="round" stroke-linejoin="round" />
  <path d="M 96.5 226.8 q -4.4 -6.4 -3.1 -25.5" stroke="#214126" stroke-width="0.89" opacity="0.25" fill="none" stroke-linecap="round" stroke-linejoin="round" />
  <path d="M 48.9 93.2 q 3.1 -4.5 2.2 -18.1" stroke="#214126" stroke-width="0.96" opacity="0.24" fill="none" stroke-linecap="round" stroke-linejoin="round" />
  <path d="M 133.7 58.9 q 0.8 -7.0 0.5 -27.9" stroke="#507E49" stroke-width="1.19" opacity="0.48" fill="none" stroke-linecap="round" stroke-linejoin="round" />
  <path d="M 221.8 133.3 q 5.0 -6.8 3.5 -27.3" stroke="#507E49" stroke-width="1.20" opacity="0.49" fill="none" stroke-linecap="round" stroke-linejoin="round" />
  <path d="M 0.0 116.7 q 1.0 -4.5 0.7 -17.9" stroke="#214126" stroke-width="1.51" opacity="0.31" fill="none" stroke-linecap="round" stroke-linejoin="round" />
  <circle cx="179.5" cy="232.6" r="1.7" fill="#B4D88D" opacity="0.43" />
  <circle cx="60.4" cy="255.4" r="1.6" fill="#B4D88D" opacity="0.49" />
  <circle cx="186.4" cy="14.9" r="1.7" fill="#8CC47A" opacity="0.47" />
  <circle cx="155.8" cy="41.4" r="0.8" fill="#8CC47A" opacity="0.27" />
  <circle cx="71.9" cy="53.5" r="2.0" fill="#8CC47A" opacity="0.22" />
  <circle cx="142.8" cy="37.9" r="1.8" fill="#8CC47A" opacity="0.27" />
  <circle cx="12.4" cy="9.1" r="1.0" fill="#DEEAB2" opacity="0.27" />
  <circle cx="40.1" cy="49.4" r="2.2" fill="#B4D88D" opacity="0.40" />
  <circle cx="86.3" cy="118.3" r="0.7" fill="#B4D88D" opacity="0.25" />
  <circle cx="110.2" cy="16.2" r="1.6" fill="#B4D88D" opacity="0.27" />
  <circle cx="236.4" cy="52.8" r="0.7" fill="#8CC47A" opacity="0.37" />
  <circle cx="20.4" cy="233.9" r="0.9" fill="#B4D88D" opacity="0.41" />
  <circle cx="122.6" cy="88.6" r="0.7" fill="#B4D88D" opacity="0.48" />
  <circle cx="232.6" cy="194.1" r="0.8" fill="#B4D88D" opacity="0.52" />
  <circle cx="59.5" cy="151.3" r="1.1" fill="#8CC47A" opacity="0.30" />
  <circle cx="191.1" cy="168.0" r="2.1" fill="#DEEAB2" opacity="0.37" />
  <circle cx="120.6" cy="222.5" r="1.6" fill="#B4D88D" opacity="0.52" />
  <circle cx="204.4" cy="71.0" r="1.3" fill="#DEEAB2" opacity="0.51" />
  <circle cx="97.2" cy="181.4" r="2.0" fill="#8CC47A" opacity="0.38" />
  <circle cx="98.7" cy="168.0" r="2.1" fill="#DEEAB2" opacity="0.54" />
  <circle cx="24.4" cy="128.7" r="0.6" fill="#8CC47A" opacity="0.23" />
  <circle cx="209.7" cy="235.1" r="1.3" fill="#8CC47A" opacity="0.40" />
  <circle cx="123.8" cy="157.8" r="0.9" fill="#8CC47A" opacity="0.44" />
  <circle cx="127.0" cy="121.4" r="1.0" fill="#8CC47A" opacity="0.31" />
  <circle cx="98.7" cy="183.3" r="1.2" fill="#DEEAB2" opacity="0.34" />
  <circle cx="18.2" cy="195.7" r="1.8" fill="#B4D88D" opacity="0.44" />
  <circle cx="206.4" cy="116.6" r="1.1" fill="#DEEAB2" opacity="0.27" />
  <circle cx="204.2" cy="142.4" r="1.0" fill="#B4D88D" opacity="0.26" />
  <circle cx="158.4" cy="58.0" r="2.0" fill="#8CC47A" opacity="0.31" />
  <circle cx="213.5" cy="38.6" r="1.1" fill="#DEEAB2" opacity="0.24" />
  <circle cx="137.9" cy="129.8" r="2.2" fill="#8CC47A" opacity="0.32" />
  <circle cx="171.6" cy="179.4" r="0.7" fill="#DEEAB2" opacity="0.27" />
  <circle cx="220.6" cy="198.4" r="0.7" fill="#B4D88D" opacity="0.48" />
  <circle cx="71.6" cy="50.0" r="2.0" fill="#8CC47A" opacity="0.47" />
  <circle cx="47.8" cy="166.4" r="0.5" fill="#B4D88D" opacity="0.36" />
  <circle cx="23.2" cy="144.2" r="1.2" fill="#8CC47A" opacity="0.28" />
  <circle cx="168.2" cy="199.1" r="0.7" fill="#8CC47A" opacity="0.31" />
  <circle cx="146.8" cy="8.8" r="1.6" fill="#8CC47A" opacity="0.23" />
  <circle cx="70.9" cy="160.1" r="0.6" fill="#DEEAB2" opacity="0.40" />
  <circle cx="91.1" cy="173.6" r="1.1" fill="#8CC47A" opacity="0.29" />
  <circle cx="115.1" cy="231.5" r="1.6" fill="#B4D88D" opacity="0.32" />
  <circle cx="188.1" cy="154.1" r="1.1" fill="#DEEAB2" opacity="0.37" />
  <circle cx="124.9" cy="151.6" r="2.2" fill="#DEEAB2" opacity="0.43" />
  <circle cx="186.0" cy="199.3" r="1.2" fill="#8CC47A" opacity="0.24" />
  <circle cx="210.5" cy="43.5" r="1.0" fill="#8CC47A" opacity="0.53" />
  <circle cx="23.4" cy="243.6" r="1.6" fill="#B4D88D" opacity="0.54" />
  <circle cx="156.6" cy="215.0" r="1.2" fill="#8CC47A" opacity="0.35" />
  <circle cx="43.5" cy="172.5" r="0.9" fill="#B4D88D" opacity="0.40" />
  <circle cx="168.5" cy="213.7" r="1.6" fill="#DEEAB2" opacity="0.34" />
  <circle cx="102.4" cy="247.8" r="1.9" fill="#8CC47A" opacity="0.38" />
  <circle cx="189.8" cy="42.5" r="1.1" fill="#DEEAB2" opacity="0.33" />
  <circle cx="238.8" cy="89.1" r="0.9" fill="#B4D88D" opacity="0.50" />
  <circle cx="200.3" cy="23.0" r="1.0" fill="#DEEAB2" opacity="0.38" />
  <circle cx="130.3" cy="83.4" r="0.8" fill="#B4D88D" opacity="0.35" />
  <circle cx="162.3" cy="100.8" r="1.9" fill="#B4D88D" opacity="0.33" />
  <circle cx="168.9" cy="180.6" r="1.6" fill="#8CC47A" opacity="0.51" />
  <circle cx="46.3" cy="154.0" r="1.4" fill="#B4D88D" opacity="0.30" />
  <circle cx="165.8" cy="35.9" r="0.7" fill="#B4D88D" opacity="0.45" />
  <circle cx="217.8" cy="47.3" r="0.8" fill="#8CC47A" opacity="0.41" />
  <circle cx="236.1" cy="36.9" r="1.0" fill="#B4D88D" opacity="0.47" />
</svg>