<?xml version="1.0" encoding="UTF-8"?>
<svg xmlns="http://www.w3.org/2000/svg" viewBox="0 0 256 256" shape-rendering="geometricPrecision">
  <defs>
    <linearGradient id="bg-forest-canopy" x1="0%" y1="0%" x2="100%" y2="100%">
      <stop offset="0%" stop-color="#45693D" />
      <stop offset="52%" stop-color="#5A8B50" />
      <stop offset="100%" stop-color="#7DB072" />
    </linearGradient>
  </defs>
  <rect width="256" height="256" fill="url(#bg-forest-canopy)" />
  <ellipse cx="206.4" cy="0.6" rx="10.6" ry="8.5" fill="#82B26D" opacity="0.19" transform="rotate(103.1 206.4 0.6)" />
  <ellipse cx="162.4" cy="114.7" rx="19.3" ry="18.1" fill="#82B26D" opacity="0.19" transform="rotate(12.2 162.4 114.7)" />
  <ellipse cx="235.0" cy="164.2" rx="22.3" ry="22.7" fill="#4D8048" opacity="0.16" transform="rotate(28.9 235.0 164.2)" />
  <ellipse cx="204.8" cy="184.9" rx="19.1" ry="17.6" fill="#365D34" opacity="0.14" transform="rotate(106.4 204.8 184.9)" />
  <ellipse cx="234.5" cy="142.4" rx="15.9" ry="16.9" fill="#6F9C67" opacity="0.14" transform="rotate(127.5 234.5 142.4)" />
  <ellipse cx="214.3" cy="186.6" rx="26.9" ry="24.5" fill="#82B26D" opacity="0.18" transform="rotate(65.4 214.3 186.6)" />
  <ellipse cx="184.4" cy="156.7" rx="26.9" ry="26.8" fill="#82B26D" opacity="0.14" transform="rotate(31.4 184.4 156.7)" />
  <ellipse cx="249.0" cy="136.5" rx="13.4" ry="9.7" fill="#4D8048" opacity="0.18" transform="rotate(133.1 249.0 136.5)" />
  <ellipse cx="-4.4" cy="129.8" rx="24.5" ry="19.3" fill="#82B26D" opacity="0.16" transform="rotate(45.1 -4.4 129.8)" />
  <ellipse cx="23.9" cy="92.0" rx="10.3" ry="7.9" fill="#82B26D" opacity="0.20" transform="rotate(83.0 23.9 92.0)" />
  <ellipse cx="138.0" cy="147.3" rx="14.4" ry="14.1" fill="#82B26D" opacity="0.19" transform="rotate(174.6 138.0 147.3)" />
  <ellipse cx="108.8" cy="245.2" rx="25.2" ry="24.2" fill="#82B26D" opacity="0.14" transform="rotate(133.3 108.8 245.2)" />
  <ellipse cx="182.4" cy="208.8" rx="16.1" ry="13.8" fill="#365D34" opacity="0.21" transform="rotate(119.2 182.4 208.8)" />
  <ellipse cx="11.4" cy="202.0" rx="13.9" ry="14.5" fill="#365D34" opacity="0.16" transform="rotate(129.4 11.4 202.0)" />
  <ellipse cx="3.1" cy="202.5" rx="20.7" ry="15.9" fill="#4D8048" opacity="0.19" transform="rotate(133.0 3.1 202.5)" />
  <ellipse cx="267.9" cy="91.9" rx="11.8" ry="13.5" fill="#365D34" opacity="0.12" transform="rotate(156.3 267.9 91.9)" />
  <ellipse cx="5.1" cy="139.4" rx="23.3" ry="17.1" fill="#82B26D" opacity="0.12" transform="rotate(147.5 5.1 139.4)" />
  <ellipse cx="263.6" cy="198.4" rx="18.5" ry="13.5" fill="#4D8048" opacity="0.21" transform="rotate(151.0 263.6 198.4)" />
  <ellipse cx="90.2" cy="-10.5" rx="22.5" ry="24.7" fill="#4D8048" opacity="0.10" transform="rotate(74.1 90.2 -10.5)" />
  <ellipse cx="264.0" cy="161.9" rx="24.9" ry="26.3" fill="#82B26D" opacity="0.16" transform="rotate(21.2 264.0 161.9)" />
  <ellipse cx="100.6" cy="148.6" rx="26.4" ry="23.3" fill="#6F9C67" opacity="0.15" transform="rotate(75.4 100.6 148.6)" />
  <ellipse cx="212.8" cy="175.9" rx="23.9" ry="21.9" fill="#6F9C67" opacity="0.16" transform="rotate(117.6 212.8 175.9)" />
  <ellipse cx="2.5" cy="64.9" rx="20.3" ry="13.3" fill="#4D8048" opacity="0.19" transform="rotate(64.5 2.5 64.9)" />
  <ellipse cx="194.2" cy="212.2" rx="16.7" ry="14.8" fill="#365D34" opacity="0.21" transform="rotate(13.2 194.2 212.2)" />
  <ellipse cx="55.5" cy="-9.3" rx="26.3" ry="28.2" fill="#4D8048" opacity="0.18" transform="rotate(72.0 55.5 -9.3)" />
  <ellipse cx="-9.7" cy="266.0" rx="19.5" ry="17.8" fill="#82B26D" opacity="0.14" transform="rotate(128.2 -9.7 266.0)" />
  <ellipse cx="187.6" cy="157.4" rx="24.7" ry="27.1" fill="#365D34" opacity="0.18" transform="rotate(110.5 187.6 157.4)" />
  <ellipse cx="2.8" cy="222.4" rx="23.2" ry="18.8" fill="#365D34" opacity="0.16" transform="rotate(117.0 2.8 222.4)" />
  <ellipse cx="135.3" cy="64.1" rx="24.4" ry="24.8" fill="#4D8048" opacity="0.14" transform="rotate(13.8 135.3 64.1)" />
  <ellipse cx="191.7" cy="26.7" rx="15.8" ry="17.4" fill="#82B26D" opacity="0.10" transform="rotate(1.0 191.7 26.7)" />
  <ellipse cx="19.8" cy="157.7" rx="12.3" ry="8.7" fill="#6F9C67" opacity="0.11" transform="rotate(139.6 19.8 157.7)" />
  <ellipse cx="46.5" cy="13.2" rx="23.0" ry="24.0" fill="#365D34" opacity="0.17" transform="rotate(165.3 46.5 13.2)" />
  <path d="M 203.5 64.2 q 6.3 -3.8 4.4 -15.1" stroke="#507E49" stroke-width="1.27" opacity="0.42" fill="none" stroke-linecap="round" stroke-linejoin="round" />
  <path d="M 214.6 237.2 q 3.6 -7.9 2.5 -31.7" stroke="#214126" stroke-width="1.56" opacity="0.38" fill="none" stroke-linecap="round" stroke-linejoin="round" />
  <path d="M 112.2 37.3 q -0.9 -6.4 -0.6 -25.4" stroke="#355B35" stroke-width="1.12" opacity="0.49" fill="none" stroke-linecap="round" stroke-linejoin="round" />
  <path d="M 106.4 16.5 q 6.6 -6.4 4.6 -25.5" stroke="#507E49" stroke-width="1.10" opacity="0.19" fill="none" stroke-linecap="round" stroke-linejoin="round" />
  <path d="M 237.7 169.3 q 7.9 -5.8 5.5 -23.1" stroke="#214126" stroke-width="1.05" opacity="0.36" fill="none" stroke-linecap="round" stroke-linejoin="round" />
  <path d="M 224.4 37.9 q -6.9 -7.8 -4.8 -31.3" stroke="#355B35" stroke-width="0.74" opacity="0.40" fill="none" stroke-linecap="round" stroke-linejoin="round" />
  <path d="M 222.8 54.3 q -7.4 -6.0 -5.2 -24.1" stroke="#214126" stroke-width="1.50" opacity="0.31" fill="none" stroke-linecap="round" stroke-linejoin="round" />
  <path d="M 58.4 6.9 q -0.5 -4.9 -0.3 -19.7" stroke="#507E49" stroke-width="1.59" opacity="0.46" fill="none" stroke-linecap="round" stroke-linejoin="round" />
  <path d="M 11.5 201.3 q -4.3 -5.2 -3.0 -20.7" stroke="#214126" stroke-width="1.40" opacity="0.19" fill="none" stroke-linecap="round" stroke-linejoin="round" />
  <path d="M 168.8 56.5 q -5.1 -7.7 -3.6 -30.6" stroke="#507E49" stroke-width="0.76" opacity="0.45" fill="none" stroke-linecap="round" stroke-linejoin="round" />
  <path d="M 211.3 49.6 q -3.8 -2.8 -2.7 -11.0" stroke="#507E49" stroke-width="1.36" opacity="0.44" fill="none" stroke-linecap="round" stroke-linejoin="round" />
  <path d="M 46.7 29.1 q 6.3 -3.8 4.4 -15.4" stroke="#355B35" stroke-width="1.33" opacity="0.38" fill="none" stroke-linecap="round" stroke-linejoin="round" />
  <path d="M 239.2 186.6 q -5.1 -5.4 -3.5 -21.5" stroke="#355B35" stroke-width="1.59" opacity="0.36" fill="none" stroke-linecap="round" stroke-linejoin="round" />
  <path d="M 159.3 3.6 q -7.4 -6.2 -5.2 -24.8" stroke="#355B35" stroke-width="0.73" opacity="0.39" fill="none" stroke-linecap="round" stroke-linejoin="round" />
  <path d="M 19.6 39.6 q -4.4 -5.0 -3.1 -20.2" stroke="#214126" stroke-width="1.01" opacity="0.40" fill="none" stroke-linecap="round" stroke-linejoin="round" />
  <path d="M 238.2 187.8 q -1.0 -2.8 -0.7 -11.3" stroke="#214126" stroke-width="1.46" opacity="0.34" fill="none" stroke-linecap="round" stroke-linejoin="round" />
  <path d="M 232.7 86.8 q 4.0 -3.0 2.8 -11.8" stroke="#355B35" stroke-width="1.20" opacity="0.55" fill="none" stroke-linecap="round" stroke-linejoin="round" />
  <path d="M 180.4 221.0 q 0.2 -7.0 0.2 -28.0" stroke="#355B35" stroke-width="1.19" opacity="0.45" fill="none" stroke-linecap="round" stroke-linejoin="round" />
  <path d="M 194.5 190.6 q -6.2 -6.7 -4.3 -26.7" stroke="#355B35" stroke-width="1.37" opacity="0.47" fill="none" stroke-linecap="round" stroke-linejoin="round" />
  <path d="M 101.0 216.2 q -3.6 -7.8 -2.5 -31.1" stroke="#355B35" stroke-width="0.72" opacity="0.27" fill="none" stroke-linecap="round" stroke-linejoin="round" />
  <path d="M 159.2 150.4 q -3.8 -5.4 -2.6 -21.5" stroke="#355B35" stroke-width="1.35" opacity="0.18" fill="none" stroke-linecap="round" stroke-linejoin="round" />
  <path d="M 6.5 20.0 q -7.8 -2.5 -5.5 -10.1" stroke="#214126" stroke-width="0.89" opacity="0.47" fill="none" stroke-linecap="round" stroke-linejoin="round" />
  <path d="M 126.4 181.2 q -0.5 -6.0 -0.3 -24.1" stroke="#355B35" stroke-width="1.01" opacity="0.35" fill="none" stroke-linecap="round" stroke-linejoin="round" />
  <path d="M 39.9 209.7 q 7.5 -7.9 5.3 -31.5" stroke="#507E49" stroke-width="0.82" opacity="0.44" fill="none" stroke-linecap="round" stroke-linejoin="round" />
  <path d="M 95.4 85.0 q -0.8 -5.7 -0.6 -22.7" stroke="#355B35" stroke-width="0.91" opacity="0.45" fill="none" stroke-linecap="round" stroke-linejoin="round" />
  <path d="M 59.2 116.6 q 5.7 -4.0 4.0 -16.0" stroke="#507E49" stroke-width="1.11" opacity="0.39" fill="none" stroke-linecap="round" stroke-linejoin="round" />
  <path d="M 19.9 206.8 q -7.9 -6.1 -5.5 -24.5" stroke="#507E49" stroke-width="0.82" opacity="0.21" fill="none" stroke-linecap="round" stroke-linejoin="round" />
  <path d="M 179.9 156.3 q -4.6 -4.1 -3.2 -16.4" stroke="#355B35" stroke-width="1.41" opacity="0.33" fill="none" stroke-linecap="round" stroke-linejoin="round" />
  <path d="M 237.5 41.0 q 5.6 -7.1 3.9 -28.5" stroke="#214126" stroke-width="1.33" opacity="0.41" fill="none" stroke-linecap="round" stroke-linejoin="round" />
  <path d="M 208.3 191.6 q -0.9 -3.3 -0.6 -13.3" stroke="#507E49" stroke-width="1.50" opacity="0.48" fill="none" stroke-linecap="round" stroke-linejoin="round" />
  <path d="M 235.3 68.1 q 6.0 -5.3 4.2 -21.3" stroke="#355B35" stroke-width="1.42" opacity="0.31" fill="none" stroke-linecap="round" stroke-linejoin="round" />
  <path d="M 241.6 106.2 q 2.5 -6.7 1.7 -26.7" stroke="#507E49" stroke-width="0.88" opacity="0.29" fill="none" stroke-linecap="round" stroke-linejoin="round" />
  <path d="M 216.4 215.0 q -5.7 -5.4 -4.0 -21.7" stroke="#355B35" stroke-width="1.12" opacity="0.45" fill="none" stroke-linecap="round" stroke-linejoin="round" />
  <path d="M 145.1 67.5 q 5.7 -4.1 4.0 -16.6" stroke="#214126" stroke-width="1.53" opacity="0.51" fill="none" stroke-linecap="round" stroke-linejoin="round" />
  <path d="M 33.6 181.1 q -3.5 -3.0 -2.5 -11.9" stroke="#507E49" stroke-width="1.16" opacity="0.53" fill="none" stroke-linecap="round" stroke-linejoin="round" />
  <path d="M 28.3 229.3 q 7.1 -3.8 5.0 -15.1" stroke="#214126" stroke-width="1.59" opacity="0.26" fill="none" stroke-linecap="round" stroke-linejoin="round" />
  <path d="M 170.1 252.9 q 1.6 -6.8 1.1 -27.2" stroke="#355B35" stroke-width="1.41" opacity="0.49" fill="none" stroke-linecap="round" stroke-linejoin="round" />
  <path d="M 54.0 47.4 q -6.4 -5.2 -4.5 -20.6" stroke="#214126" stroke-width="0.88" opacity="0.39" fill="none" stroke-linecap="round" stroke-linejoin="round" />
  <path d="M 97.3 23.2 q 6.4 -3.6 4.4 -14.3" stroke="#507E49" stroke-width="0.72" opacity="0.31" fill="none" stroke-linecap="round" stroke-linejoin="round" />
  <path d="M 189.0 172.2 q 4.0 -7.6 2.8 -30.4" stroke="#507E49" stroke-width="1.59" opacity="0.38" fill="none" stroke-linecap="round" stroke-linejoin="round" />
  <path d="M 136.9 92.6 q -1.5 -5.8 -1.0 -23.1" stroke="#355B35" stroke-width="1.58" opacity="0.50" fill="none" stroke-linecap="round" stroke-linejoin="round" />
  <path d="M 217.3 95.6 q -0.1 -6.5 -0.0 -26.0" stroke="#507E49" stroke-width="1.57" opacity="0.29" fill="none" stroke-linecap="round" stroke-linejoin="round" />
  <path d="M 164.4 21.2 q -5.2 -4.6 -3.6 -18.4" stroke="#355B35" stroke-width="0.79" opacity="0.53" fill="none" stroke-linecap="round" stroke-linejoin="round" />
  <path d="M 124.8 165.0 q 6.3 -5.9 4.4 -23.4" stroke="#507E49" stroke-width="1.14" opacity="0.21" fill="none" stroke-linecap="round" stroke-linejoin="round" />
  <path d="M 11.0 168.4 q -0.5 -3.8 -0.3 -15.3" stroke="#214126" stroke-width="1.54" opacity="0.51" fill="none" stroke-linecap="round" stroke-linejoin="round" />
  <path d="M 194.7 51.9 q 2.3 -3.9 1.6 -15.4" stroke="#355B35" stroke-width="0.93" opacity="0.23" fill="none" stroke-linecap="round" stroke-linejoin="round" />
  <path d="M 18.5 119.1 q -3.2 -7.9 -2.2 -31.5" stroke="#355B35" stroke-width="1.28" opacity="0.23" fill="none" stroke-linecap="round" stroke-linejoin="round" />
  <path d="M 199.0 114.8 q 2.4 -2.6 1.7 -10.2" stroke="#507E49" stroke-width="1.06" opacity="0.29" fill="none" stroke-linecap="round" stroke-linejoin="round" />
  <path d="M 196.9 161.0 q -3.5 -4.8 -2.4 -19.3" stroke="#355B35" stroke-width="0.88" opacity="0.53" fill="none" stroke-linecap="round" stroke-linejoin="round" />
  <path d="M 85.4 15.1 q 7.6 -7.8 5.3 -31.1" stroke="#507E49" stroke-width="1.34" opacity="0.20" fill="none" stroke-linecap="round" stroke-linejoin="round" />
  <path d="M 127.7 104.8 q -3.1 -4.2 -2.2 -17.0" stroke="#507E49" stroke-width="1.52" opacity="0.46" fill="none" stroke-linecap="round" stroke-linejoin="round" />
  <path d="M 162.4 76.3 q -3.0 -4.4 -2.1 -17.7" stroke="#355B35" stroke-width="1.07" opacity="0.18" fill="none" stroke-linecap="round" stroke-linejoin="round" />
  <path d="M 206.3 147.6 q -6.6 -3.0 -4.6 -12.1" stroke="#507E49" stroke-width="1.58" opacity="0.24" fill="none" stroke-linecap="round" stroke-linejoin="round" />
  <path d="M 207.0 128.1 q 1.4 -7.6 1.0 -30.2" stroke="#214126" stroke-width="1.46" opacity="0.46" fill="none" stroke-linecap="round" stroke-linejoin="round" />
  <path d="M 175.7 152.9 q 2.3 -6.1 1.6 -24.2" stroke="#214126" stroke-width="1.21" opacity="0.47" fill="none" stroke-linecap="round" stroke-linejoin="round" />
  <path d="M 199.3 109.0 q 1.5 -4.3 1.0 -17.2" stroke="#214126" stroke-width="1.17" opacity="0.20" fill="none" stroke-linecap="round" stroke-linejoin="round" />
  <path d="M 196.3 186.8 q -1.4 -4.2 -1.0 -16.7" stroke="#507E49" stroke-width="0.86" opacity="0.29" fill="none" stroke-linecap="round" stroke-linejoin="round" />
  <path d="M 224.2 75.8 q -2.7 -5.1 -1.9 -20.5" stroke="#214126" stroke-width="0.85" opacity="0.43" fill="none" stroke-linecap="round" stroke-linejoin="round" />
  <path d="M 109.8 121.1 q -0.7 -6.4 -0.5 -25.7" stroke="#507E49" stroke-width="1.21" opacity="0.48" fill="none" stroke-linecap="round" stroke-linejoin="round" />
  <path d="M 129.0 197.1 q 5.9 -6.4 4.1 -25.7" stroke="#355B35" stroke-width="0.97" opacity="0.48" fill="none" stroke-linecap="round" stroke-linejoin="round" />
  <path d="M 1.7 221.3 q -1.5 -5.7 -1.0 -22.7" stroke="#507E49" stroke-width="0.84" opacity="0.52" fill="none" stroke-linecap="round" stroke-linejoin="round" />
  <path d="M 213.8 25.3 q -7.0 -7.7 -4.9 -30.9" stroke="#355B35" stroke-width="1.18" opacity="0.21" fill="none" stroke-linecap="round" stroke-linejoin="round" />
  <path d="M 210.5 109.1 q 0.7 -2.7 0.5 -10.7" stroke="#214126" stroke-width="1.54" opacity="0.55" fill="none" stroke-linecap="round" stroke-linejoin="round" />
  <path d="M 194.7 234.6 q 4.8 -4.0 3.4 -16.1" stroke="#507E49" stroke-width="1.29" opacity="0.25" fill="none" stroke-linecap="round" stroke-linejoin="round" />
  <path d="M 139.7 126.3 q 7.4 -3.3 5.2 -13.1" stroke="#507E49" stroke-width="1.07" opacity="0.24" fill="none" stroke-linecap="round" stroke-linejoin="round" />
  <path d="M 171.5 76.3 q -4.8 -4.7 -3.4 -18.7" stroke="#507E49" stroke-width="1.09" opacity="0.18" fill="none" stroke-linecap="round" stroke-linejoin="round" />
  <path d="M 101.4 208.8 q -4.2 -7.5 -2.9 -29.8" stroke="#355B35" stroke-width="0.77" opacity="0.44" fill="none" stroke-linecap="round" stroke-linejoin="round" />
  <path d="M 14.0 61.3 q -3.6 -4.6 -2.5 -18.2" stroke="#355B35" stroke-width="1.52" opacity="0.47" fill="none" stroke-linecap="round" stroke-linejoin="round" />
  <path d="M 210.0 94.3 q -6.5 -4.8 -4.5 -19.2" stroke="#507E49" stroke-width="1.46" opacity="0.22" fill="none" stroke-linecap="round" stroke-linejoin="round" />
  <path d="M 63.7 22.7 q 5.0 -6.6 3.5 -26.5" stroke="#355B35" stroke-width="1.49" opacity="0.39" fill="none" stroke-linecap="round" stroke-linejoin="round" />
  <path d="M 202.5 233.8 q 6.2 -4.7 4.4 -18.6" stroke="#214126" stroke-width="0.78" opacity="0.43" fill="none" stroke-linecap="round" stroke-linejoin="round" />
  <path d="M 139.4 91.8 q -5.9 -7.7 -4.1 -30.9" stroke="#214126" stroke-width="0.94" opacity="0.30" fill="none" stroke-linecap="round" stroke-linejoin="round" />
  <path d="M 233.8 225.4 q -7.6 -6.1 -5.3 -24.6" stroke="#214126" stroke-width="1.52" opacity="0.47" fill="none" stroke-linecap="round" stroke-linejoin="round" />
  <path d="M 71.8 201.5 q -2.6 -3.8 -1.8 -15.4" stroke="#507E49" stroke-width="1.18" opacity="0.25" fill="none" stroke-linecap="round" stroke-linejoin="round" />
  <path d="M 65.4 160.3 q -1.6 -6.6 -1.1 -26.5" stroke="#355B35" stroke-width="1.60" opacity="0.28" fill="none" stroke-linecap="round" stroke-linejoin="round" />
  <path d="M 153.8 181.1 q -7.3 -6.1 -5.1 -24.6" stroke="#355B35" stroke-width="0.85" opacity="0.19" fill="none" stroke-linecap="round" stroke-linejoin="round" />
  <path d="M 85.9 216.0 q 1.6 -3.3 1.1 -13.2" stroke="#355B35" stroke-width="1.43" opacity="0.37" fill="none" stroke-linecap="round" stroke-linejoin="round" />
  <path d="M 141.4 82.6 q 2.8 -6.1 1.9 -24.5" stroke="#214126" stroke-width="1.06" opacity="0.22" fill="none" stroke-linecap="round" stroke-linejoin="round" />
  <path d="M 150.7 171.9 q 0.5 -6.1 0.3 -24.5" stroke="#214126" stroke-width="0.87" opacity="0.34" fill="none" stroke-linecap="round" stroke-linejoin="round" />
  <path d="M 22.3 164.1 q -7.2 -4.7 -5.0 -18.9" stroke="#507E49" stroke-width="0.84" opacity="0.32" fill="none" stroke-linecap="round" stroke-linejoin="round" />
  <circle cx="194.6" cy="55.9" r="0.6" fill="#8CC47A" opacity="0.23" />
  <circle cx="227.8" cy="218.5" r="1.0" fill="#8CC47A" opacity="0.33" />
  <circle cx="49.4" cy="113.1" r="0.7" fill="#8CC47A" opacity="0.49" />
  <circle cx="215.7" cy="147.9" r="0.6" fill="#DEEAB2" opacity="0.37" />
  <circle cx="58.8" cy="71.2" r="0.7" fill="#8CC47A" opacity="0.46" />
  <circle cx="136.3" cy="26.8" r="1.9" fill="#8CC47A" opacity="0.35" />
  <circle cx="49.6" cy="35.5" r="0.8" fill="#B4D88D" opacity="0.24" />
  <circle cx="79.8" cy="38.0" r="0.9" fill="#B4D88D" opacity="0.30" />
  <circle cx="173.7" cy="16.8" r="0.8" fill="#DEEAB2" opacity="0.29" />
  <circle cx="22.3" cy="160.1" r="1.6" fill="#DEEAB2" opacity="0.24" />
  <circle cx="62.4" cy="148.3" r="1.2" fill="#DEEAB2" opacity="0.23" />
  <circle cx="179.4" cy="55.3" r="1.3" fill="#DEEAB2" opacity="0.23" />
  <circle cx="28.8" cy="215.9" r="2.0" fill="#8CC47A" opacity="0.53" />
  <circle cx="232.1" cy="104.1" r="0.7" fill="#8CC47A" opacity="0.31" />
  <circle cx="110.8" cy="129.7" r="1.6" fill="#DEEAB2" opacity="0.51" />
  <circle cx="217.9" cy="245.6" r="0.9" fill="#B4D88D" opacity="0.42" />
  <circle cx="14.9" cy="115.8" r="1.5" fill="#B4D88D" opacity="0.40" />
  <circle cx="4.8" cy="78.9" r="1.2" fill="#DEEAB2" opacity="0.47" />
  <circle cx="86.9" cy="155.2" r="0.6" fill="#B4D88D" opacity="0.42" />
  <circle cx="58.5" cy="171.5" r="1.8" fill="#B4D88D" opacity="0.32" />
  <circle cx="15.6" cy="86.5" r="1.9" fill="#B4D88D" opacity="0.35" />
  <circle cx="71.6" cy="1.4" r="1.5" fill="#DEEAB2" opacity="0.27" />
  <circle cx="247.6" cy="211.6" r="1.1" fill="#DEEAB2" opacity="0.42" />
  <circle cx="107.7" cy="159.9" r="1.9" fill="#DEEAB2" opacity="0.25" />
  <circle cx="247.4" cy="239.4" r="2.0" fill="#8CC47A" opacity="0.41" />
  <circle cx="214.7" cy="29.5" r="1.0" fill="#8CC47A" opacity="0.44" />
  <circle cx="131.5" cy="212.3" r="0.9" fill="#DEEAB2" opacity="0.38" />
  <circle cx="140.5" cy="102.7" r="2.0" fill="#B4D88D" opacity="0.24" />
  <circle cx="35.9" cy="71.9" r="1.1" fill="#B4D88D" opacity="0.53" />
  <circle cx="10.1" cy="72.7" r="1.9" fill="#B4D88D" opacity="0.30" />
  <circle cx="158.6" cy="31.5" r="1.5" fill="#DEEAB2" opacity="0.36" />
  <circle cx="142.3" cy="224.0" r="2.0" fill="#B4D88D" opacity="0.47" />
  <circle cx="171.3" cy="86.1" r="1.0" fill="#8CC47A" opacity="0.34" />
  <circle cx="240.2" cy="232.0" r="0.7" fill="#8CC47A" opacity="0.29" />
  <circle cx="3.4" cy="127.5" r="2.1" fill="#DEEAB2" opacity="0.42" />
  <circle cx="180.3" cy="43.8" r="1.5" fill="#DEEAB2" opacity="0.51" />
  <circle cx="13.5" cy="76.1" r="1.7" fill="#8CC47A" opacity="0.37" />
  <circle cx="18.6" cy="172.7" r="1.3" fill="#B4D88D" opacity="0.43" />
  <circle cx="120.6" cy="95.4" r="1.6" fill="#B4D88D" opacity="0.43" />
  <circle cx="91.5" cy="195.6" r="0.9" fill="#DEEAB2" opacity="0.40" />
  <circle cx="238.1" cy="140.9" r="1.8" fill="#B4D88D" opacity="0.39" />
  <circle cx="141.6" cy="51.9" r="1.4" fill="#DEEAB2" opacity="0.36" />
  <circle cx="66.1" cy="51.3" r="1.5" fill="#8CC47A" opacity="0.41" />
  <circle cx="163.9" cy="105.0" r="1.3" fill="#DEEAB2" opacity="0.45" />
  <circle cx="248.2" cy="142.7" r="2.2" fill="#DEEAB2" opacity="0.55" />
  <circle cx="109.3" cy="80.6" r="0.6" fill="#B4D88D" opacity="0.51" />
  <circle cx="25.8" cy="238.7" r="1.4" fill="#B4D88D" opacity="0.43" />
  <circle cx="46.7" cy="202.9" r="1.4" fill="#DEEAB2" opacity="0.23" />
  <circle cx="122.9" cy="194.6" r="1.4" fill="#8CC47A" opacity="0.22" />
  <circle cx="204.6" cy="198.5" r="0.5" fill="#DEEAB2" opacity="0.54" />
  <circle cx="122.6" cy="35.6" r="0.8" fill="#8CC47A" opacity="0.40" />
  <circle cx="49.9" cy="231.1" r="1.6" fill="#DEEAB2" opacity="0.38" />
  <circle cx="235.9" cy="148.1" r="1.8" fill="#DEEAB2" opacity="0.44" />
  <circle cx="249.0" cy="223.1" r="1.9" fill="#DEEAB2" opacity="0.31" />
  <circle cx="79.8" cy="142.9" r="0.7" fill="#B4D88D" opacity="0.49" />
  <circle cx="232.0" cy="83.2" r="2.1" fill="#8CC47A" opacity="0.33" />
  <circle cx="88.8" cy="135.0" r="0.7" fill="#DEEAB2" opacity="0.48" />
  <circle cx="217.3" cy="41.6" r="1.4" fill="#DEEAB2" opacity="0.36" />
  <circle cx="197.3" cy="176.6" r="0.7" fill="#8CC47A" opacity="0.37" />
  <circle cx="130.9" cy="51.3" r="0.8" fill="#DEEAB2" opacity="0.29" />
</svg>