<?xml version="1.0" encoding="UTF-8"?>
<svg xmlns="http://www.w3.org/2000/svg" viewBox="0 0 256 256" shape-rendering="geometricPrecision">
  <defs>
    <linearGradient id="bg-water-current" x1="0%" y1="0%" x2="100%" y2="100%">
      <stop offset="0%" stop-color="#76B5EA" />
      <stop offset="52%" stop-color="#3F82C8" />
      <stop offset="100%" stop-color="#8ED3F8" />
    </linearGradient>
  </defs>
  <rect width="256" height="256" fill="url(#bg-water-current)" />
  <line x1="-10.0" y1="214.8" x2="266.0" y2="213.6" stroke="#BFEAFF" stroke-width="1.53" opacity="0.25" stroke-linecap="round" />
  <line x1="-10.0" y1="120.9" x2="266.0" y2="119.1" stroke="#BFEAFF" stroke-width="1.16" opacity="0.21" stroke-linecap="round" />
  <line x1="-10.0" y1="229.9" x2="266.0" y2="228.1" stroke="#BFEAFF" stroke-width="1.08" opacity="0.23" stroke-linecap="round" />
  <line x1="-10.0" y1="149.8" x2="266.0" y2="157.3" stroke="#8FD5FF" stroke-width="1.62" opacity="0.28" stroke-linecap="round" />
  <line x1="-10.0" y1="41.1" x2="266.0" y2="41.5" stroke="#D5F3FF" stroke-width="1.25" opacity="0.28" stroke-linecap="round" />
  <line x1="-10.0" y1="69.8" x2="266.0" y2="77.4" stroke="#BFEAFF" stroke-width="1.05" opacity="0.19" stroke-linecap="round" />
  <line x1="-10.0" y1="3.9" x2="266.0" y2="-3.5" stroke="#BFEAFF" stroke-width="1.13" opacity="0.14" stroke-linecap="round" />
  <line x1="-10.0" y1="71.2" x2="266.0" y2="75.8" stroke="#D5F3FF" stroke-width="1.48" opacity="0.18" stroke-linecap="round" />
  <line x1="-10.0" y1="99.8" x2="266.0" y2="96.5" stroke="#D5F3FF" stroke-width="1.41" opacity="0.31" stroke-linecap="round" />
  <line x1="-10.0" y1="233.1" x2="266.0" y2="240.7" stroke="#D5F3FF" stroke-width="1.28" opacity="0.21" stroke-linecap="round" />
  <line x1="-10.0" y1="109.6" x2="266.0" y2="106.8" stroke="#BFEAFF" stroke-width="1.03" opacity="0.14" stroke-linecap="round" />
  <line x1="-10.0" y1="15.1" x2="266.0" y2="19.1" stroke="#BFEAFF" stroke-width="1.02" opacity="0.16" stroke-linecap="round" />
  <line x1="-10.0" y1="225.2" x2="266.0" y2="219.5" stroke="#D5F3FF" stroke-width="0.99" opacity="0.26" stroke-linecap="round" />
  <line x1="-10.0" y1="167.8" x2="266.0" y2="169.7" stroke="#BFEAFF" stroke-width="0.79" opacity="0.14" stroke-linecap="round" />
  <line x1="-10.0" y1="58.6" x2="266.0" y2="54.2" stroke="#BFEAFF" stroke-width="1.18" opacity="0.21" stroke-linecap="round" />
  <line x1="-10.0" y1="75.8" x2="266.0" y2="78.5" stroke="#8FD5FF" stroke-width="1.28" opacity="0.31" stroke-linecap="round" />
  <line x1="-10.0" y1="169.0" x2="266.0" y2="162.2" stroke="#8FD5FF" stroke-width="1.23" opacity="0.26" stroke-linecap="round" />
  <line x1="-10.0" y1="53.4" x2="266.0" y2="46.9" stroke="#BFEAFF" stroke-width="1.02" opacity="0.13" stroke-linecap="round" />
  <line x1="-10.0" y1="172.8" x2="266.0" y2="166.0" stroke="#D5F3FF" stroke-width="0.80" opacity="0.32" stroke-linecap="round" />
  <line x1="-10.0" y1="223.2" x2="266.0" y2="221.5" stroke="#8FD5FF" stroke-width="1.33" opacity="0.31" stroke-linecap="round" />
  <line x1="-10.0" y1="-6.8" x2="266.0" y2="-11.4" stroke="#D5F3FF" stroke-width="1.58" opacity="0.28" stroke-linecap="round" />
  <line x1="-10.0" y1="48.0" x2="266.0" y2="49.9" stroke="#D5F3FF" stroke-width="0.73" opacity="0.21" stroke-linecap="round" />
  <line x1="-10.0" y1="157.2" x2="266.0" y2="164.4" stroke="#8FD5FF" stroke-width="1.49" opacity="0.14" stroke-linecap="round" />
  <line x1="-10.0" y1="138.9" x2="266.0" y2="145.0" stroke="#BFEAFF" stroke-width="1.17" opacity="0.22" stroke-linecap="round" />
  <line x1="-10.0" y1="87.1" x2="266.0" y2="86.5" stroke="#BFEAFF" stroke-width="1.03" opacity="0.15" stroke-linecap="round" />
  <line x1="-10.0" y1="51.6" x2="266.0" y2="51.1" stroke="#D5F3FF" stroke-width="1.79" opacity="0.21" stroke-linecap="round" />
  <line x1="-10.0" y1="205.0" x2="266.0" y2="198.1" stroke="#8FD5FF" stroke-width="1.32" opacity="0.20" stroke-linecap="round" />
  <line x1="-10.0" y1="83.3" x2="266.0" y2="79.6" stroke="#D5F3FF" stroke-width="1.41" opacity="0.30" stroke-linecap="round" />
  <line x1="-10.0" y1="262.0" x2="266.0" y2="269.7" stroke="#BFEAFF" stroke-width="1.22" opacity="0.12" stroke-linecap="round" />
  <line x1="-10.0" y1="186.3" x2="266.0" y2="188.3" stroke="#BFEAFF" stroke-width="1.02" opacity="0.22" stroke-linecap="round" />
  <line x1="-10.0" y1="76.5" x2="266.0" y2="69.6" stroke="#D5F3FF" stroke-width="1.58" opacity="0.28" stroke-linecap="round" />
  <line x1="-10.0" y1="212.7" x2="266.0" y2="211.2" stroke="#D5F3FF" stroke-width="1.39" opacity="0.18" stroke-linecap="round" />
  <ellipse cx="217.0" cy="181.9" rx="63.6" ry="14.3" fill="#B8E9FF" opacity="0.14" transform="rotate(153.1 217.0 181.9)" />
  <ellipse cx="62.6" cy="131.4" rx="55.4" ry="7.4" fill="#A6E0FF" opacity="0.16" transform="rotate(141.5 62.6 131.4)" />
  <ellipse cx="166.9" cy="6.3" rx="40.1" ry="10.0" fill="#6FC0EA" opacity="0.14" transform="rotate(25.3 166.9 6.3)" />
  <ellipse cx="193.0" cy="155.6" rx="53.9" ry="11.8" fill="#B8E9FF" opacity="0.10" transform="rotate(170.1 193.0 155.6)" />
  <ellipse cx="100.3" cy="251.3" rx="53.5" ry="10.1" fill="#B8E9FF" opacity="0.10" transform="rotate(28.3 100.3 251.3)" />
  <ellipse cx="145.9" cy="232.7" rx="27.6" ry="9.1" fill="#B8E9FF" opacity="0.23" transform="rotate(140.9 145.9 232.7)" />
  <ellipse cx="223.0" cy="103.7" rx="43.0" ry="8.9" fill="#A6E0FF" opacity="0.11" transform="rotate(11.7 223.0 103.7)" />
  <ellipse cx="119.9" cy="234.8" rx="25.1" ry="13.8" fill="#B8E9FF" opacity="0.23" transform="rotate(44.7 119.9 234.8)" />
  <ellipse cx="215.8" cy="141.5" rx="25.2" ry="7.0" fill="#6FC0EA" opacity="0.21" transform="rotate(19.5 215.8 141.5)" />
  <ellipse cx="135.2" cy="113.5" rx="30.4" ry="12.2" fill="#6FC0EA" opacity="0.21" transform="rotate(29.2 135.2 113.5)" />
  <ellipse cx="126.5" cy="18.0" rx="22.2" ry="17.2" fill="#B8E9FF" opacity="0.20" transform="rotate(53.8 126.5 18.0)" />
  <ellipse cx="122.1" cy="81.3" rx="26.4" ry="18.3" fill="#A6E0FF" opacity="0.13" transform="rotate(35.8 122.1 81.3)" />
  <ellipse cx="113.0" cy="33.6" rx="55.0" ry="8.3" fill="#A6E0FF" opacity="0.17" transform="rotate(105.3 113.0 33.6)" />
  <ellipse cx="204.9" cy="14.1" rx="40.2" ry="19.2" fill="#A6E0FF" opacity="0.23" transform="rotate(25.7 204.9 14.1)" />
  <ellipse cx="96.2" cy="220.8" rx="42.2" ry="15.7" fill="#A6E0FF" opacity="0.09" transform="rotate(168.2 96.2 220.8)" />
  <ellipse cx="252.3" cy="222.4" rx="62.3" ry="8.6" fill="#A6E0FF" opacity="0.08" transform="rotate(50.2 252.3 222.4)" />
  <ellipse cx="100.1" cy="89.1" rx="37.8" ry="18.2" fill="#B8E9FF" opacity="0.18" transform="rotate(14.2 100.1 89.1)" />
  <ellipse cx="15.4" cy="247.4" rx="33.5" ry="18.0" fill="#A6E0FF" opacity="0.15" transform="rotate(148.2 15.4 247.4)" />
  <ellipse cx="197.0" cy="14.3" rx="26.0" ry="14.1" fill="#B8E9FF" opacity="0.24" transform="rotate(143.9 197.0 14.3)" />
  <ellipse cx="37.3" cy="160.1" rx="55.5" ry="12.5" fill="#6FC0EA" opacity="0.13" transform="rotate(102.5 37.3 160.1)" />
  <ellipse cx="221.9" cy="61.9" rx="22.7" ry="9.4" fill="#A6E0FF" opacity="0.14" transform="rotate(37.9 221.9 61.9)" />
  <ellipse cx="108.1" cy="185.2" rx="23.5" ry="13.4" fill="#6FC0EA" opacity="0.09" transform="rotate(96.1 108.1 185.2)" />
  <ellipse cx="33.7" cy="4.5" rx="18.9" ry="13.6" fill="#B8E9FF" opacity="0.10" transform="rotate(165.8 33.7 4.5)" />
  <ellipse cx="192.0" cy="61.0" rx="23.1" ry="13.8" fill="#B8E9FF" opacity="0.17" transform="rotate(132.8 192.0 61.0)" />
  <ellipse cx="51.3" cy="0.8" rx="21.8" ry="13.6" fill="#B8E9FF" opacity="0.15" transform="rotate(151.2 51.3 0.8)" />
  <ellipse cx="221.9" cy="149.5" rx="43.0" ry="19.3" fill="#B8E9FF" opacity="0.10" transform="rotate(149.2 221.9 149.5)" />
  <ellipse cx="16.7" cy="228.2" rx="20.9" ry="7.3" fill="#A6E0FF" opacity="0.21" transform="rotate(170.9 16.7 228.2)" />
  <ellipse cx="80.7" cy="33.1" rx="28.7" ry="12.4" fill="#B8E9FF" opacity="0.16" transform="rotate(79.9 80.7 33.1)" />
  <ellipse cx="252.0" cy="242.3" rx="60.3" ry="10.8" fill="#A6E0FF" opacity="0.21" transform="rotate(58.2 252.0 242.3)" />
  <ellipse cx="224.4" cy="148.1" rx="46.2" ry="17.3" fill="#6FC0EA" opacity="0.11" transform="rotate(101.0 224.4 148.1)" />
  <ellipse cx="106.4" cy="66.0" rx="40.1" ry="8.9" fill="#6FC0EA" opacity="0.20" transform="rotate(163.9 106.4 66.0)" />
  <ellipse cx="173.7" cy="39.6" rx="27.6" ry="9.5" fill="#A6E0FF" opacity="0.11" transform="rotate(83.7 173.7 39.6)" />
  <ellipse cx="20.7" cy="103.3" rx="42.0" ry="9.0" fill="#B8E9FF" opacity="0.14" transform="rotate(21.2 20.7 103.3)" />
  <ellipse cx="126.7" cy="235.4" rx="21.2" ry="7.6" fill="#B8E9FF" opacity="0.15" transform="rotate(59.6 126.7 235.4)" />
  <ellipse cx="5.7" cy="37.7" rx="23.7" ry="7.4" fill="#B8E9FF" opacity="0.24" transform="rotate(57.0 5.7 37.7)" />
  <ellipse cx="135.7" cy="118.4" rx="23.5" ry="16.2" fill="#B8E9FF" opacity="0.20" transform="rotate(74.0 135.7 118.4)" />
  <ellipse cx="237.1" cy="159.5" rx="51.6" ry="19.4" fill="#A6E0FF" opacity="0.18" transform="rotate(118.6 237.1 159.5)" />
  <ellipse cx="94.8" cy="202.7" rx="54.0" ry="16.7" fill="#A6E0FF" opacity="0.20" transform="rotate(110.6 94.8 202.7)" />
  <circle cx="67.8" cy="146.7" r="0.9" fill="#E9FAFF" opacity="0.41" />
  <circle cx="198.0" cy="231.4" r="1.2" fill="#D6F4FF" opacity="0.31" />
  <circle cx="236.0" cy="57.4" r="1.1" fill="#E9FAFF" opacity="0.38" />
  <circle cx="145.3" cy="91.8" r="0.9" fill="#D6F4FF" opacity="0.61" />
  <circle cx="195.4" cy="70.4" r="0.8" fill="#E9FAFF" opacity="0.62" />
  <circle cx="217.4" cy="203.8" r="1.2" fill="#D6F4FF" opacity="0.36" />
  <circle cx="12.3" cy="37.4" r="0.9" fill="#D6F4FF" opacity="0.57" />
  <circle cx="216.8" cy="192.2" r="1.4" fill="#C6EEFF" opacity="0.53" />
  <circle cx="218.1" cy="202.0" r="0.9" fill="#D6F4FF" opacity="0.44" />
  <circle cx="180.6" cy="93.0" r="0.5" fill="#E9FAFF" opacity="0.31" />
  <circle cx="227.5" cy="91.2" r="0.9" fill="#C6EEFF" opacity="0.32" />
  <circle cx="208.9" cy="45.8" r="1.4" fill="#C6EEFF" opacity="0.32" />
  <circle cx="230.4" cy="54.0" r="1.7" fill="#C6EEFF" opacity="0.48" />
  <circle cx="38.5" cy="138.4" r="1.6" fill="#C6EEFF" opacity="0.46" />
  <circle cx="165.3" cy="60.9" r="0.8" fill="#D6F4FF" opacity="0.58" />
  <circle cx="232.5" cy="204.1" r="1.3" fill="#D6F4FF" opacity="0.39" />
  <circle cx="110.1" cy="77.4" r="1.2" fill="#D6F4FF" opacity="0.58" />
  <circle cx="65.9" cy="255.4" r="0.6" fill="#C6EEFF" opacity="0.55" />
  <circle cx="234.9" cy="212.9" r="0.9" fill="#D6F4FF" opacity="0.29" />
  <circle cx="1.6" cy="98.8" r="1.0" fill="#E9FAFF" opacity="0.61" />
  <circle cx="38.6" cy="37.9" r="0.5" fill="#E9FAFF" opacity="0.42" />
  <circle cx="1.0" cy="92.7" r="0.8" fill="#D6F4FF" opacity="0.40" />
  <circle cx="209.7" cy="205.5" r="0.8" fill="#E9FAFF" opacity="0.59" />
  <circle cx="200.9" cy="103.1" r="0.9" fill="#E9FAFF" opacity="0.45" />
  <circle cx="58.0" cy="119.4" r="0.5" fill="#C6EEFF" opacity="0.29" />
  <circle cx="23.8" cy="17.6" r="0.4" fill="#E9FAFF" opacity="0.42" />
  <circle cx="160.0" cy="185.0" r="1.7" fill="#C6EEFF" opacity="0.56" />
  <circle cx="159.3" cy="4.2" r="1.6" fill="#D6F4FF" opacity="0.36" />
  <circle cx="216.9" cy="159.8" r="0.9" fill="#E9FAFF" opacity="0.38" />
  <circle cx="167.9" cy="3.3" r="1.6" fill="#D6F4FF" opacity="0.59" />
  <circle cx="114.1" cy="2.5" r="1.4" fill="#E9FAFF" opacity="0.44" />
  <circle cx="55.4" cy="191.5" r="1.1" fill="#C6EEFF" opacity="0.44" />
  <circle cx="100.8" cy="82.6" r="1.7" fill="#C6EEFF" opacity="0.60" />
  <circle cx="95.8" cy="171.1" r="0.8" fill="#C6EEFF" opacity="0.53" />
  <circle cx="39.3" cy="81.8" r="0.6" fill="#D6F4FF" opacity="0.33" />
  <circle cx="62.7" cy="241.9" r="1.3" fill="#E9FAFF" opacity="0.41" />
  <circle cx="64.0" cy="21.7" r="0.6" fill="#E9FAFF" opacity="0.31" />
  <circle cx="229.9" cy="41.5" r="0.6" fill="#D6F4FF" opacity="0.52" />
  <circle cx="221.6" cy="231.6" r="1.5" fill="#D6F4FF" opacity="0.44" />
  <circle cx="236.6" cy="177.6" r="0.8" fill="#D6F4FF" opacity="0.33" />
  <circle cx="194.6" cy="198.9" r="1.6" fill="#C6EEFF" opacity="0.46" />
  <circle cx="89.7" cy="225.5" r="1.7" fill="#D6F4FF" opacity="0.46" />
  <circle cx="248.8" cy="161.5" r="1.5" fill="#E9FAFF" opacity="0.45" />
  <circle cx="120.5" cy="220.8" r="0.6" fill="#C6EEFF" opacity="0.28" />
  <circle cx="1.8" cy="23.2" r="1.6" fill="#D6F4FF" opacity="0.27" />
  <circle cx="176.5" cy="30.2" r="1.0" fill="#C6EEFF" opacity="0.43" />
  <circle cx="88.9" cy="228.7" r="0.5" fill="#E9FAFF" opacity="0.55" />
  <circle cx="116.8" cy="154.9" r="1.1" fill="#C6EEFF" opacity="0.45" />
  <circle cx="250.5" cy="3.3" r="0.5" fill="#E9FAFF" opacity="0.47" />
  <circle cx="243.7" cy="229.1" r="0.8" fill="#C6EEFF" opacity="0.45" />
  <circle cx="88.5" cy="46.2" r="1.5" fill="#D6F4FF" opacity="0.31" />
  <circle cx="241.6" cy="186.3" r="1.5" fill="#E9FAFF" opacity="0.41" />
  <circle cx="12.7" cy="141.1" r="1.8" fill="#C6EEFF" opacity="0.51" />
  <circle cx="19.0" cy="45.0" r="1.0" fill="#C6EEFF" opacity="0.28" />
  <circle cx="53.8" cy="168.0" r="1.2" fill="#E9FAFF" opacity="0.31" />
  <circle cx="30.7" cy="250.5" r="0.6" fill="#D6F4FF" opacity="0.34" />
  <circle cx="152.9" cy="250.5" r="0.5" fill="#E9FAFF" opacity="0.41" />
  <circle cx="168.2" cy="227.5" r="1.7" fill="#E9FAFF" opacity="0.47" />
  <circle cx="131.0" cy="61.3" r="1.7" fill="#C6EEFF" opacity="0.29" />
  <circle cx="63.5" cy="93.1" r="1.4" fill="#E9FAFF" opacity="0.61" />
  <circle cx="254.7" cy="240.7" r="1.5" fill="#C6EEFF" opacity="0.42" />
  <circle cx="141.5" cy="65.9" r="0.8" fill="#C6EEFF" opacity="0.51" />
  <circle cx="226.7" cy="167.3" r="0.8" fill="#D6F4FF" opacity="0.42" />
  <circle cx="92.1" cy="155.5" r="1.1" fill="#E9FAFF" opacity="0.34" />
  <circle cx="44.9" cy="71.0" r="1.7" fill="#E9FAFF" opacity="0.50" />
  <circle cx="188.6" cy="71.9" r="0.4" fill="#E9FAFF" opacity="0.56" />
</svg>