<?xml version="1.0" encoding="UTF-8"?>
<svg xmlns="http://www.w3.org/2000/svg" viewBox="0 0 256 256" shape-rendering="geometricPrecision">
  <defs>
    <linearGradient id="bg-sand-beach" x1="0%" y1="0%" x2="100%" y2="100%">
      <stop offset="0%" stop-color="#E6D09D" />
      <stop offset="52%" stop-color="#C7B076" />
      <stop offset="100%" stop-color="#F4E7C8" />
    </linearGradient>
  </defs>
  <rect width="256" height="256" fill="url(#bg-sand-beach)" />
  <line x1="-10.0" y1="60.6" x2="266.0" y2="58.5" stroke="#E7D6AB" stroke-width="1.79" opacity="0.48" stroke-linecap="round" />
  <line x1="-10.0" y1="226.8" x2="266.0" y2="226.7" stroke="#E7D6AB" stroke-width="0.94" opacity="0.32" stroke-linecap="round" />
  <line x1="-10.0" y1="91.3" x2="266.0" y2="93.4" stroke="#D2BD90" stroke-width="1.67" opacity="0.32" stroke-linecap="round" />
  <line x1="-10.0" y1="199.2" x2="266.0" y2="201.7" stroke="#C7B27E" stroke-width="1.87" opacity="0.27" stroke-linecap="round" />
  <line x1="-10.0" y1="38.0" x2="266.0" y2="32.4" stroke="#E7D6AB" stroke-width="2.18" opacity="0.43" stroke-linecap="round" />
  <line x1="-10.0" y1="192.2" x2="266.0" y2="196.0" stroke="#D2BD90" stroke-width="0.88" opacity="0.32" stroke-linecap="round" />
  <line x1="-10.0" y1="221.3" x2="266.0" y2="216.4" stroke="#E7D6AB" stroke-width="1.41" opacity="0.23" stroke-linecap="round" />
  <line x1="-10.0" y1="205.2" x2="266.0" y2="199.7" stroke="#E7D6AB" stroke-width="0.90" opacity="0.22" stroke-linecap="round" />
  <line x1="-10.0" y1="233.0" x2="266.0" y2="240.7" stroke="#C7B27E" stroke-width="1.88" opacity="0.45" stroke-linecap="round" />
  <line x1="-10.0" y1="245.1" x2="266.0" y2="245.8" stroke="#C7B27E" stroke-width="1.19" opacity="0.37" stroke-linecap="round" />
  <line x1="-10.0" y1="0.6" x2="266.0" y2="0.2" stroke="#D2BD90" stroke-width="1.75" opacity="0.35" stroke-linecap="round" />
  <line x1="-10.0" y1="142.0" x2="266.0" y2="146.3" stroke="#D2BD90" stroke-width="1.95" opacity="0.43" stroke-linecap="round" />
  <line x1="-10.0" y1="26.6" x2="266.0" y2="26.4" stroke="#D2BD90" stroke-width="1.10" opacity="0.32" stroke-linecap="round" />
  <line x1="-10.0" y1="32.8" x2="266.0" y2="29.8" stroke="#C7B27E" stroke-width="1.64" opacity="0.29" stroke-linecap="round" />
  <line x1="-10.0" y1="62.9" x2="266.0" y2="60.9" stroke="#D2BD90" stroke-width="1.10" opacity="0.24" stroke-linecap="round" />
  <line x1="-10.0" y1="223.1" x2="266.0" y2="229.2" stroke="#C7B27E" stroke-width="2.00" opacity="0.23" stroke-linecap="round" />
  <line x1="-10.0" y1="55.6" x2="266.0" y2="65.2" stroke="#D2BD90" stroke-width="1.78" opacity="0.40" stroke-linecap="round" />
  <line x1="-10.0" y1="3.8" x2="266.0" y2="3.2" stroke="#D2BD90" stroke-width="1.60" opacity="0.33" stroke-linecap="round" />
  <line x1="-10.0" y1="156.0" x2="266.0" y2="156.7" stroke="#C7B27E" stroke-width="1.21" opacity="0.21" stroke-linecap="round" />
  <line x1="-10.0" y1="80.5" x2="266.0" y2="79.5" stroke="#D2BD90" stroke-width="1.85" opacity="0.43" stroke-linecap="round" />
  <line x1="-10.0" y1="170.7" x2="266.0" y2="180.2" stroke="#E7D6AB" stroke-width="0.97" opacity="0.45" stroke-linecap="round" />
  <line x1="-10.0" y1="50.2" x2="266.0" y2="45.2" stroke="#E7D6AB" stroke-width="1.30" opacity="0.25" stroke-linecap="round" />
  <line x1="-10.0" y1="216.0" x2="266.0" y2="216.7" stroke="#D2BD90" stroke-width="1.69" opacity="0.20" stroke-linecap="round" />
  <line x1="-10.0" y1="36.0" x2="266.0" y2="30.7" stroke="#D2BD90" stroke-width="1.69" opacity="0.28" stroke-linecap="round" />
  <line x1="-10.0" y1="250.9" x2="266.0" y2="241.4" stroke="#C7B27E" stroke-width="1.34" opacity="0.27" stroke-linecap="round" />
  <line x1="-10.0" y1="189.1" x2="266.0" y2="186.9" stroke="#D2BD90" stroke-width="1.41" opacity="0.22" stroke-linecap="round" />
  <line x1="-10.0" y1="251.0" x2="266.0" y2="257.0" stroke="#D2BD90" stroke-width="1.45" opacity="0.46" stroke-linecap="round" />
  <line x1="-10.0" y1="39.2" x2="266.0" y2="34.7" stroke="#C7B27E" stroke-width="1.36" opacity="0.28" stroke-linecap="round" />
  <line x1="-10.0" y1="114.7" x2="266.0" y2="117.1" stroke="#E7D6AB" stroke-width="0.96" opacity="0.50" stroke-linecap="round" />
  <line x1="-10.0" y1="25.5" x2="266.0" y2="23.0" stroke="#D2BD90" stroke-width="1.09" opacity="0.42" stroke-linecap="round" />
  <line x1="-10.0" y1="9.5" x2="266.0" y2="18.2" stroke="#E7D6AB" stroke-width="0.86" opacity="0.40" stroke-linecap="round" />
  <line x1="-10.0" y1="62.9" x2="266.0" y2="64.2" stroke="#C7B27E" stroke-width="1.97" opacity="0.27" stroke-linecap="round" />
  <line x1="-10.0" y1="83.6" x2="266.0" y2="92.2" stroke="#C7B27E" stroke-width="0.93" opacity="0.27" stroke-linecap="round" />
  <line x1="-10.0" y1="91.6" x2="266.0" y2="92.2" stroke="#D2BD90" stroke-width="2.19" opacity="0.35" stroke-linecap="round" />
  <line x1="-10.0" y1="221.7" x2="266.0" y2="219.5" stroke="#C7B27E" stroke-width="1.88" opacity="0.29" stroke-linecap="round" />
  <line x1="-10.0" y1="43.3" x2="266.0" y2="52.7" stroke="#E7D6AB" stroke-width="1.21" opacity="0.47" stroke-linecap="round" />
  <line x1="-10.0" y1="194.2" x2="266.0" y2="193.0" stroke="#E7D6AB" stroke-width="1.49" opacity="0.47" stroke-linecap="round" />
  <line x1="-10.0" y1="11.7" x2="266.0" y2="7.8" stroke="#C7B27E" stroke-width="1.38" opacity="0.29" stroke-linecap="round" />
  <line x1="-10.0" y1="162.4" x2="266.0" y2="156.9" stroke="#D2BD90" stroke-width="1.03" opacity="0.43" stroke-linecap="round" />
  <line x1="-10.0" y1="64.2" x2="266.0" y2="62.7" stroke="#C7B27E" stroke-width="0.85" opacity="0.41" stroke-linecap="round" />
  <line x1="-10.0" y1="209.9" x2="266.0" y2="200.4" stroke="#D2BD90" stroke-width="2.01" opacity="0.39" stroke-linecap="round" />
  <line x1="-10.0" y1="10.1" x2="266.0" y2="2.3" stroke="#E7D6AB" stroke-width="1.18" opacity="0.39" stroke-linecap="round" />
  <line x1="-10.0" y1="218.9" x2="266.0" y2="213.1" stroke="#D2BD90" stroke-width="1.10" opacity="0.30" stroke-linecap="round" />
  <line x1="-10.0" y1="48.8" x2="266.0" y2="52.8" stroke="#E7D6AB" stroke-width="1.26" opacity="0.18" stroke-linecap="round" />
  <line x1="-10.0" y1="166.7" x2="266.0" y2="158.6" stroke="#D2BD90" stroke-width="2.02" opacity="0.18" stroke-linecap="round" />
  <line x1="-10.0" y1="177.4" x2="266.0" y2="172.9" stroke="#E7D6AB" stroke-width="0.90" opacity="0.32" stroke-linecap="round" />
  <line x1="-10.0" y1="13.5" x2="266.0" y2="18.0" stroke="#E7D6AB" stroke-width="1.97" opacity="0.36" stroke-linecap="round" />
  <line x1="-10.0" y1="8.9" x2="266.0" y2="4.0" stroke="#C7B27E" stroke-width="1.50" opacity="0.47" stroke-linecap="round" />
  <line x1="-10.0" y1="93.1" x2="266.0" y2="93.0" stroke="#E7D6AB" stroke-width="1.75" opacity="0.36" stroke-linecap="round" />
  <line x1="-10.0" y1="219.9" x2="266.0" y2="221.4" stroke="#D2BD90" stroke-width="1.02" opacity="0.19" stroke-linecap="round" />
  <line x1="-10.0" y1="90.9" x2="266.0" y2="85.0" stroke="#C7B27E" stroke-width="1.37" opacity="0.31" stroke-linecap="round" />
  <line x1="-10.0" y1="147.4" x2="266.0" y2="140.6" stroke="#D2BD90" stroke-width="1.91" opacity="0.31" stroke-linecap="round" />
  <line x1="-10.0" y1="90.1" x2="266.0" y2="85.2" stroke="#C7B27E" stroke-width="1.26" opacity="0.20" stroke-linecap="round" />
  <line x1="-10.0" y1="203.0" x2="266.0" y2="200.8" stroke="#D2BD90" stroke-width="2.03" opacity="0.33" stroke-linecap="round" />
  <line x1="-10.0" y1="79.2" x2="266.0" y2="80.7" stroke="#D2BD90" stroke-width="2.03" opacity="0.30" stroke-linecap="round" />
  <line x1="-10.0" y1="47.3" x2="266.0" y2="54.3" stroke="#C7B27E" stroke-width="1.56" opacity="0.43" stroke-linecap="round" />
  <line x1="-10.0" y1="122.7" x2="266.0" y2="132.4" stroke="#D2BD90" stroke-width="1.86" opacity="0.18" stroke-linecap="round" />
  <line x1="-10.0" y1="46.2" x2="266.0" y2="43.1" stroke="#E7D6AB" stroke-width="1.44" opacity="0.33" stroke-linecap="round" />
  <line x1="-10.0" y1="243.4" x2="266.0" y2="248.2" stroke="#D2BD90" stroke-width="1.69" opacity="0.24" stroke-linecap="round" />
  <line x1="-10.0" y1="155.3" x2="266.0" y2="154.2" stroke="#E7D6AB" stroke-width="0.82" opacity="0.32" stroke-linecap="round" />
  <line x1="-10.0" y1="229.8" x2="266.0" y2="226.6" stroke="#E7D6AB" stroke-width="1.86" opacity="0.22" stroke-linecap="round" />
  <line x1="-10.0" y1="53.1" x2="266.0" y2="62.7" stroke="#D2BD90" stroke-width="1.50" opacity="0.28" stroke-linecap="round" />
  <line x1="-10.0" y1="160.6" x2="266.0" y2="156.4" stroke="#C7B27E" stroke-width="1.84" opacity="0.28" stroke-linecap="round" />
  <line x1="-10.0" y1="249.7" x2="266.0" y2="248.8" stroke="#C7B27E" stroke-width="2.11" opacity="0.40" stroke-linecap="round" />
  <line x1="-10.0" y1="138.2" x2="266.0" y2="140.6" stroke="#C7B27E" stroke-width="1.12" opacity="0.24" stroke-linecap="round" />
  <line x1="-10.0" y1="139.8" x2="266.0" y2="140.7" stroke="#C7B27E" stroke-width="0.89" opacity="0.26" stroke-linecap="round" />
  <line x1="-10.0" y1="182.8" x2="266.0" y2="180.1" stroke="#D2BD90" stroke-width="1.68" opacity="0.41" stroke-linecap="round" />
  <line x1="-10.0" y1="246.0" x2="266.0" y2="237.7" stroke="#D2BD90" stroke-width="1.25" opacity="0.36" stroke-linecap="round" />
  <line x1="-10.0" y1="63.9" x2="266.0" y2="62.6" stroke="#D2BD90" stroke-width="1.32" opacity="0.24" stroke-linecap="round" />
  <line x1="-10.0" y1="20.2" x2="266.0" y2="21.4" stroke="#E7D6AB" stroke-width="1.96" opacity="0.24" stroke-linecap="round" />
  <line x1="-10.0" y1="122.3" x2="266.0" y2="121.8" stroke="#C7B27E" stroke-width="1.27" opacity="0.28" stroke-linecap="round" />
  <line x1="-10.0" y1="36.5" x2="266.0" y2="44.4" stroke="#E7D6AB" stroke-width="1.10" opacity="0.40" stroke-linecap="round" />
  <line x1="-10.0" y1="172.9" x2="266.0" y2="163.6" stroke="#E7D6AB" stroke-width="1.52" opacity="0.23" stroke-linecap="round" />
  <line x1="-10.0" y1="234.0" x2="266.0" y2="240.5" stroke="#C7B27E" stroke-width="0.84" opacity="0.22" stroke-linecap="round" />
  <line x1="-10.0" y1="74.7" x2="266.0" y2="82.9" stroke="#E7D6AB" stroke-width="1.65" opacity="0.47" stroke-linecap="round" />
  <line x1="-10.0" y1="198.7" x2="266.0" y2="205.1" stroke="#D2BD90" stroke-width="2.03" opacity="0.46" stroke-linecap="round" />
  <ellipse cx="80.4" cy="193.4" rx="17.4" ry="9.1" fill="#C6B17B" opacity="0.13" transform="rotate(100.0 80.4 193.4)" />
  <ellipse cx="151.8" cy="238.2" rx="21.6" ry="6.7" fill="#DDC48A" opacity="0.18" transform="rotate(33.0 151.8 238.2)" />
  <ellipse cx="137.0" cy="60.9" rx="12.1" ry="9.9" fill="#BFA56A" opacity="0.16" transform="rotate(144.7 137.0 60.9)" />
  <ellipse cx="125.1" cy="226.4" rx="16.8" ry="3.2" fill="#BFA56A" opacity="0.10" transform="rotate(85.3 125.1 226.4)" />
  <ellipse cx="134.8" cy="234.2" rx="13.9" ry="7.1" fill="#BFA56A" opacity="0.20" transform="rotate(139.1 134.8 234.2)" />
  <ellipse cx="207.3" cy="12.4" rx="25.9" ry="5.9" fill="#DDC48A" opacity="0.20" transform="rotate(68.9 207.3 12.4)" />
  <ellipse cx="97.3" cy="198.0" rx="23.1" ry="7.9" fill="#BFA56A" opacity="0.16" transform="rotate(66.8 97.3 198.0)" />
  <ellipse cx="140.2" cy="19.1" rx="20.2" ry="4.7" fill="#DDC48A" opacity="0.12" transform="rotate(109.6 140.2 19.1)" />
  <ellipse cx="137.9" cy="172.3" rx="15.4" ry="7.2" fill="#BFA56A" opacity="0.18" transform="rotate(62.0 137.9 172.3)" />
  <ellipse cx="89.0" cy="54.4" rx="14.3" ry="7.6" fill="#BFA56A" opacity="0.17" transform="rotate(37.1 89.0 54.4)" />
  <ellipse cx="28.8" cy="112.4" rx="9.7" ry="2.5" fill="#BFA56A" opacity="0.08" transform="rotate(47.4 28.8 112.4)" />
  <ellipse cx="79.0" cy="71.9" rx="9.2" ry="4.7" fill="#BFA56A" opacity="0.19" transform="rotate(16.9 79.0 71.9)" />
  <ellipse cx="7.7" cy="153.3" rx="20.6" ry="2.4" fill="#DDC48A" opacity="0.12" transform="rotate(176.7 7.7 153.3)" />
  <ellipse cx="22.5" cy="44.5" rx="22.7" ry="9.9" fill="#C6B17B" opacity="0.17" transform="rotate(101.0 22.5 44.5)" />
  <ellipse cx="51.7" cy="144.1" rx="21.0" ry="7.1" fill="#C6B17B" opacity="0.10" transform="rotate(130.3 51.7 144.1)" />
  <ellipse cx="224.8" cy="116.7" rx="23.1" ry="6.6" fill="#BFA56A" opacity="0.20" transform="rotate(142.6 224.8 116.7)" />
  <ellipse cx="217.1" cy="76.0" rx="13.5" ry="8.6" fill="#DDC48A" opacity="0.21" transform="rotate(21.4 217.1 76.0)" />
  <ellipse cx="208.0" cy="43.1" rx="14.3" ry="8.3" fill="#DDC48A" opacity="0.10" transform="rotate(118.9 208.0 43.1)" />
  <ellipse cx="130.4" cy="121.9" rx="6.2" ry="3.1" fill="#BFA56A" opacity="0.11" transform="rotate(17.1 130.4 121.9)" />
  <ellipse cx="137.6" cy="150.3" rx="6.1" ry="6.0" fill="#BFA56A" opacity="0.10" transform="rotate(135.0 137.6 150.3)" />
  <ellipse cx="171.9" cy="16.5" rx="8.4" ry="5.5" fill="#C6B17B" opacity="0.18" transform="rotate(117.0 171.9 16.5)" />
  <ellipse cx="235.4" cy="1.5" rx="15.5" ry="9.7" fill="#C6B17B" opacity="0.17" transform="rotate(51.7 235.4 1.5)" />
  <ellipse cx="83.0" cy="216.5" rx="18.0" ry="7.2" fill="#BFA56A" opacity="0.11" transform="rotate(20.5 83.0 216.5)" />
  <ellipse cx="88.6" cy="42.6" rx="10.3" ry="9.5" fill="#DDC48A" opacity="0.12" transform="rotate(57.7 88.6 42.6)" />
  <ellipse cx="216.9" cy="155.1" rx="16.5" ry="7.2" fill="#BFA56A" opacity="0.15" transform="rotate(81.1 216.9 155.1)" />
  <ellipse cx="213.1" cy="164.1" rx="9.5" ry="4.2" fill="#C6B17B" opacity="0.14" transform="rotate(152.5 213.1 164.1)" />
  <ellipse cx="170.4" cy="64.6" rx="16.1" ry="2.5" fill="#DDC48A" opacity="0.13" transform="rotate(11.8 170.4 64.6)" />
  <ellipse cx="255.4" cy="157.5" rx="8.2" ry="3.0" fill="#C6B17B" opacity="0.15" transform="rotate(75.0 255.4 157.5)" />
  <ellipse cx="87.1" cy="66.5" rx="13.8" ry="3.9" fill="#DDC48A" opacity="0.10" transform="rotate(160.8 87.1 66.5)" />
  <ellipse cx="127.4" cy="213.7" rx="25.5" ry="3.7" fill="#C6B17B" opacity="0.18" transform="rotate(146.3 127.4 213.7)" />
  <circle cx="226.4" cy="228.9" r="2.4" fill="#F2E2B2" opacity="0.29" />
  <circle cx="162.4" cy="23.0" r="1.9" fill="#F2E2B2" opacity="0.19" />
  <circle cx="59.8" cy="118.2" r="2.0" fill="#E2C998" opacity="0.13" />
  <circle cx="136.2" cy="24.6" r="1.2" fill="#E2C998" opacity="0.38" />
  <circle cx="214.0" cy="136.0" r="1.9" fill="#E2C998" opacity="0.23" />
  <circle cx="206.7" cy="164.4" r="1.5" fill="#E2C998" opacity="0.13" />
  <circle cx="64.4" cy="44.2" r="1.6" fill="#E2C998" opacity="0.36" />
  <circle cx="90.5" cy="56.1" r="1.8" fill="#FFF3D3" opacity="0.15" />
  <circle cx="16.9" cy="84.6" r="1.7" fill="#F2E2B2" opacity="0.34" />
  <circle cx="208.5" cy="106.7" r="1.0" fill="#FFF3D3" opacity="0.38" />
  <circle cx="194.0" cy="89.8" r="1.5" fill="#F2E2B2" opacity="0.34" />
  <circle cx="92.8" cy="217.7" r="0.6" fill="#E2C998" opacity="0.32" />
  <circle cx="213.5" cy="196.4" r="2.5" fill="#F2E2B2" opacity="0.22" />
  <circle cx="206.1" cy="136.1" r="1.2" fill="#F2E2B2" opacity="0.40" />
  <circle cx="70.3" cy="230.5" r="2.6" fill="#FFF3D3" opacity="0.16" />
  <circle cx="132.9" cy="94.2" r="2.0" fill="#FFF3D3" opacity="0.20" />
  <circle cx="12.3" cy="192.7" r="2.2" fill="#F2E2B2" opacity="0.16" />
  <circle cx="27.8" cy="222.4" r="1.7" fill="#E2C998" opacity="0.23" />
  <circle cx="184.3" cy="80.8" r="2.0" fill="#F2E2B2" opacity="0.40" />
  <circle cx="54.3" cy="118.9" r="2.4" fill="#FFF3D3" opacity="0.33" />
  <circle cx="36.5" cy="222.9" r="0.8" fill="#F2E2B2" opacity="0.28" />
  <circle cx="108.3" cy="109.1" r="2.1" fill="#F2E2B2" opacity="0.14" />
  <circle cx="215.0" cy="200.7" r="2.3" fill="#E2C998" opacity="0.21" />
  <circle cx="88.8" cy="65.9" r="0.6" fill="#FFF3D3" opacity="0.25" />
  <circle cx="117.7" cy="75.8" r="0.6" fill="#E2C998" opacity="0.39" />
  <circle cx="169.9" cy="183.5" r="2.3" fill="#E2C998" opacity="0.36" />
  <circle cx="64.0" cy="199.5" r="0.7" fill="#F2E2B2" opacity="0.39" />
  <circle cx="249.3" cy="176.6" r="2.5" fill="#E2C998" opacity="0.22" />
  <circle cx="225.2" cy="244.7" r="1.2" fill="#F2E2B2" opacity="0.25" />
  <circle cx="54.6" cy="84.9" r="2.4" fill="#E2C998" opacity="0.17" />
  <circle cx="91.9" cy="9.2" r="2.1" fill="#FFF3D3" opacity="0.38" />
  <circle cx="115.2" cy="60.9" r="1.7" fill="#FFF3D3" opacity="0.13" />
  <circle cx="43.8" cy="123.6" r="2.1" fill="#FFF3D3" opacity="0.24" />
  <circle cx="136.5" cy="111.9" r="2.0" fill="#FFF3D3" opacity="0.13" />
  <circle cx="241.6" cy="92.5" r="0.7" fill="#E2C998" opacity="0.12" />
  <circle cx="58.5" cy="101.3" r="0.6" fill="#F2E2B2" opacity="0.25" />
  <circle cx="35.0" cy="70.1" r="1.4" fill="#E2C998" opacity="0.34" />
  <circle cx="158.4" cy="157.4" r="0.7" fill="#F2E2B2" opacity="0.41" />
  <circle cx="176.0" cy="99.5" r="1.5" fill="#E2C998" opacity="0.41" />
  <circle cx="148.5" cy="52.5" r="1.8" fill="#F2E2B2" opacity="0.28" />
  <circle cx="175.3" cy="223.2" r="2.0" fill="#FFF3D3" opacity="0.37" />
  <circle cx="17.9" cy="212.6" r="2.6" fill="#E2C998" opacity="0.27" />
  <circle cx="14.3" cy="175.5" r="0.6" fill="#E2C998" opacity="0.34" />
  <circle cx="89.7" cy="11.6" r="2.6" fill="#E2C998" opacity="0.36" />
  <circle cx="81.0" cy="131.2" r="2.5" fill="#F2E2B2" opacity="0.28" />
  <circle cx="27.8" cy="205.7" r="2.3" fill="#F2E2B2" opacity="0.38" />
</svg>