<?xml version="1.0" encoding="UTF-8"?>
<svg xmlns="http://www.w3.org/2000/svg" viewBox="0 0 256 256" shape-rendering="geometricPrecision">
  <defs>
    <linearGradient id="bg-mountain-cliff" x1="0%" y1="0%" x2="100%" y2="100%">
      <stop offset="0%" stop-color="#8C765F" />
      <stop offset="52%" stop-color="#5F4D3C" />
      <stop offset="100%" stop-color="#C5B092" />
    </linearGradient>
  </defs>
  <rect width="256" height="256" fill="url(#bg-mountain-cliff)" />
  <path d="M 114.4 62.5 l 30.8 -27.3 l 37.6 27.3 z" fill="#7C6751" opacity="0.14" />
  <path d="M 213.5 228.8 l 37.3 -25.7 l 45.6 25.7 z" fill="#6A5746" opacity="0.23" />
  <path d="M 2.4 78.1 l 23.8 -26.4 l 29.1 26.4 z" fill="#7C6751" opacity="0.18" />
  <path d="M 25.7 109.9 l 41.2 -19.9 l 50.4 19.9 z" fill="#9A8368" opacity="0.23" />
  <path d="M 82.5 182.4 l 40.9 -35.0 l 50.0 35.0 z" fill="#C7B49A" opacity="0.22" />
  <path d="M 252.5 172.8 l 23.8 -23.9 l 29.1 23.9 z" fill="#6A5746" opacity="0.19" />
  <path d="M -16.3 256.8 l 32.0 -22.8 l 39.2 22.8 z" fill="#7C6751" opacity="0.13" />
  <path d="M 264.4 197.1 l 33.4 -17.6 l 40.8 17.6 z" fill="#9A8368" opacity="0.22" />
  <path d="M 198.1 234.9 l 36.3 -29.2 l 44.4 29.2 z" fill="#6A5746" opacity="0.18" />
  <path d="M 137.6 103.6 l 27.9 -41.7 l 34.1 41.7 z" fill="#6A5746" opacity="0.20" />
  <path d="M 93.6 259.0 l 20.7 -35.3 l 25.2 35.3 z" fill="#6A5746" opacity="0.17" />
  <path d="M 79.6 58.5 l 30.8 -15.5 l 37.7 15.5 z" fill="#9A8368" opacity="0.17" />
  <path d="M 143.5 209.8 l 26.1 -28.7 l 31.9 28.7 z" fill="#6A5746" opacity="0.13" />
  <path d="M -13.1 219.2 l 36.8 -19.7 l 45.0 19.7 z" fill="#7C6751" opacity="0.16" />
  <path d="M 182.5 17.5 l 39.1 -38.2 l 47.8 38.2 z" fill="#7C6751" opacity="0.26" />
  <path d="M 198.3 23.5 l 31.5 -33.7 l 38.5 33.7 z" fill="#C7B49A" opacity="0.16" />
  <path d="M 108.6 56.6 l 18.2 -41.5 l 22.3 41.5 z" fill="#C7B49A" opacity="0.14" />
  <path d="M 3.1 52.1 l 16.8 -21.1 l 20.5 21.1 z" fill="#7C6751" opacity="0.15" />
  <line x1="112.7" y1="200.8" x2="117.0" y2="176.4" stroke="#5B4A3A" stroke-width="1.66" opacity="0.50" stroke-linecap="round" />
  <line x1="86.4" y1="35.3" x2="91.9" y2="19.4" stroke="#7C6650" stroke-width="1.63" opacity="0.37" stroke-linecap="round" />
  <line x1="242.5" y1="45.2" x2="241.5" y2="36.8" stroke="#5B4A3A" stroke-width="1.23" opacity="0.53" stroke-linecap="round" />
  <line x1="15.1" y1="192.9" x2="20.0" y2="177.1" stroke="#A08A72" stroke-width="1.41" opacity="0.46" stroke-linecap="round" />
  <line x1="222.0" y1="240.9" x2="223.1" y2="219.9" stroke="#7C6650" stroke-width="0.98" opacity="0.24" stroke-linecap="round" />
  <line x1="83.4" y1="254.5" x2="87.3" y2="239.9" stroke="#A08A72" stroke-width="1.40" opacity="0.37" stroke-linecap="round" />
  <line x1="87.2" y1="204.5" x2="90.6" y2="192.3" stroke="#A08A72" stroke-width="0.91" opacity="0.21" stroke-linecap="round" />
  <line x1="66.3" y1="249.0" x2="63.0" y2="226.2" stroke="#5B4A3A" stroke-width="0.90" opacity="0.53" stroke-linecap="round" />
  <line x1="21.3" y1="216.9" x2="20.8" y2="205.1" stroke="#A08A72" stroke-width="1.37" opacity="0.23" stroke-linecap="round" />
  <line x1="109.8" y1="28.0" x2="106.9" y2="9.6" stroke="#5B4A3A" stroke-width="1.20" opacity="0.48" stroke-linecap="round" />
  <line x1="3.5" y1="137.2" x2="4.1" y2="111.2" stroke="#7C6650" stroke-width="1.52" opacity="0.33" stroke-linecap="round" />
  <line x1="145.6" y1="176.6" x2="139.8" y2="160.0" stroke="#A08A72" stroke-width="1.08" opacity="0.43" stroke-linecap="round" />
  <line x1="77.9" y1="195.1" x2="80.0" y2="174.5" stroke="#5B4A3A" stroke-width="1.36" opacity="0.41" stroke-linecap="round" />
  <line x1="169.3" y1="152.2" x2="174.2" y2="139.6" stroke="#A08A72" stroke-width="1.17" opacity="0.39" stroke-linecap="round" />
  <line x1="59.5" y1="253.5" x2="63.3" y2="237.4" stroke="#7C6650" stroke-width="0.89" opacity="0.38" stroke-linecap="round" />
  <line x1="75.2" y1="32.4" x2="71.2" y2="16.5" stroke="#5B4A3A" stroke-width="1.32" opacity="0.32" stroke-linecap="round" />
  <line x1="231.0" y1="54.1" x2="229.2" y2="27.7" stroke="#7C6650" stroke-width="0.84" opacity="0.44" stroke-linecap="round" />
  <line x1="10.6" y1="227.8" x2="16.3" y2="213.5" stroke="#5B4A3A" stroke-width="1.57" opacity="0.39" stroke-linecap="round" />
  <line x1="192.5" y1="204.8" x2="196.5" y2="186.2" stroke="#A08A72" stroke-width="0.88" opacity="0.22" stroke-linecap="round" />
  <line x1="132.8" y1="77.4" x2="138.4" y2="64.2" stroke="#5B4A3A" stroke-width="1.13" opacity="0.29" stroke-linecap="round" />
  <line x1="14.9" y1="178.5" x2="10.1" y2="149.8" stroke="#A08A72" stroke-width="0.97" opacity="0.46" stroke-linecap="round" />
  <line x1="33.4" y1="166.0" x2="34.7" y2="146.1" stroke="#5B4A3A" stroke-width="1.04" opacity="0.30" stroke-linecap="round" />
  <line x1="27.7" y1="74.4" x2="30.1" y2="65.6" stroke="#7C6650" stroke-width="1.12" opacity="0.28" stroke-linecap="round" />
  <line x1="141.0" y1="178.9" x2="143.5" y2="167.3" stroke="#A08A72" stroke-width="0.98" opacity="0.44" stroke-linecap="round" />
  <line x1="27.4" y1="219.8" x2="28.5" y2="201.2" stroke="#7C6650" stroke-width="1.27" opacity="0.32" stroke-linecap="round" />
  <line x1="135.2" y1="92.7" x2="140.9" y2="69.2" stroke="#5B4A3A" stroke-width="1.32" opacity="0.34" stroke-linecap="round" />
  <line x1="0.8" y1="236.9" x2="-0.5" y2="226.7" stroke="#5B4A3A" stroke-width="1.65" opacity="0.30" stroke-linecap="round" />
  <line x1="73.9" y1="133.9" x2="75.2" y2="105.8" stroke="#7C6650" stroke-width="0.91" opacity="0.47" stroke-linecap="round" />
  <line x1="123.2" y1="66.2" x2="119.2" y2="54.2" stroke="#A08A72" stroke-width="1.31" opacity="0.38" stroke-linecap="round" />
  <line x1="212.0" y1="219.8" x2="212.6" y2="199.5" stroke="#7C6650" stroke-width="1.59" opacity="0.51" stroke-linecap="round" />
  <line x1="245.4" y1="56.7" x2="251.1" y2="41.4" stroke="#A08A72" stroke-width="1.46" opacity="0.23" stroke-linecap="round" />
  <line x1="8.1" y1="99.3" x2="2.7" y2="75.8" stroke="#7C6650" stroke-width="0.86" opacity="0.51" stroke-linecap="round" />
  <line x1="79.6" y1="74.9" x2="82.0" y2="46.7" stroke="#A08A72" stroke-width="0.97" opacity="0.20" stroke-linecap="round" />
  <line x1="27.8" y1="196.8" x2="28.3" y2="167.8" stroke="#5B4A3A" stroke-width="1.42" opacity="0.34" stroke-linecap="round" />
  <line x1="124.2" y1="214.0" x2="118.3" y2="184.6" stroke="#7C6650" stroke-width="1.05" opacity="0.31" stroke-linecap="round" />
  <line x1="111.8" y1="40.4" x2="109.8" y2="11.6" stroke="#7C6650" stroke-width="1.67" opacity="0.44" stroke-linecap="round" />
  <line x1="91.3" y1="204.7" x2="89.8" y2="184.5" stroke="#7C6650" stroke-width="1.23" opacity="0.47" stroke-linecap="round" />
  <line x1="146.3" y1="192.6" x2="144.4" y2="175.1" stroke="#7C6650" stroke-width="0.92" opacity="0.20" stroke-linecap="round" />
  <line x1="212.0" y1="183.7" x2="215.3" y2="158.5" stroke="#A08A72" stroke-width="1.69" opacity="0.48" stroke-linecap="round" />
  <line x1="205.9" y1="125.8" x2="206.5" y2="117.0" stroke="#5B4A3A" stroke-width="1.26" opacity="0.44" stroke-linecap="round" />
  <line x1="230.4" y1="73.4" x2="226.7" y2="54.7" stroke="#A08A72" stroke-width="1.42" opacity="0.39" stroke-linecap="round" />
  <line x1="15.0" y1="150.2" x2="17.4" y2="141.5" stroke="#7C6650" stroke-width="0.92" opacity="0.18" stroke-linecap="round" />
  <line x1="199.7" y1="46.9" x2="203.1" y2="27.0" stroke="#7C6650" stroke-width="1.13" opacity="0.18" stroke-linecap="round" />
  <line x1="198.2" y1="74.4" x2="199.2" y2="63.4" stroke="#7C6650" stroke-width="1.27" opacity="0.23" stroke-linecap="round" />
  <line x1="6.5" y1="72.7" x2="8.3" y2="48.5" stroke="#5B4A3A" stroke-width="1.54" opacity="0.24" stroke-linecap="round" />
  <line x1="221.3" y1="64.8" x2="217.2" y2="52.3" stroke="#A08A72" stroke-width="1.60" opacity="0.27" stroke-linecap="round" />
  <line x1="173.9" y1="100.6" x2="175.9" y2="74.7" stroke="#A08A72" stroke-width="0.81" opacity="0.26" stroke-linecap="round" />
  <line x1="54.7" y1="166.8" x2="50.6" y2="139.4" stroke="#7C6650" stroke-width="1.52" opacity="0.43" stroke-linecap="round" />
  <line x1="105.1" y1="78.8" x2="100.0" y2="53.5" stroke="#7C6650" stroke-width="1.53" opacity="0.28" stroke-linecap="round" />
  <line x1="189.4" y1="33.0" x2="195.1" y2="5.8" stroke="#A08A72" stroke-width="0.96" opacity="0.22" stroke-linecap="round" />
  <line x1="40.9" y1="240.6" x2="41.6" y2="213.3" stroke="#7C6650" stroke-width="1.32" opacity="0.35" stroke-linecap="round" />
  <line x1="62.6" y1="48.5" x2="67.0" y2="33.3" stroke="#5B4A3A" stroke-width="1.08" opacity="0.19" stroke-linecap="round" />
  <line x1="155.5" y1="80.8" x2="152.1" y2="65.2" stroke="#5B4A3A" stroke-width="1.36" opacity="0.45" stroke-linecap="round" />
  <line x1="105.8" y1="60.2" x2="107.8" y2="40.7" stroke="#A08A72" stroke-width="1.33" opacity="0.35" stroke-linecap="round" />
  <line x1="191.7" y1="190.3" x2="188.5" y2="171.3" stroke="#5B4A3A" stroke-width="1.37" opacity="0.30" stroke-linecap="round" />
  <line x1="155.6" y1="181.2" x2="152.5" y2="157.3" stroke="#A08A72" stroke-width="1.05" opacity="0.28" stroke-linecap="round" />
  <line x1="120.3" y1="228.2" x2="123.4" y2="217.6" stroke="#7C6650" stroke-width="1.27" opacity="0.25" stroke-linecap="round" />
  <line x1="36.8" y1="16.0" x2="35.8" y2="3.6" stroke="#A08A72" stroke-width="1.40" opacity="0.33" stroke-linecap="round" />
  <line x1="67.6" y1="100.5" x2="62.5" y2="85.3" stroke="#A08A72" stroke-width="1.05" opacity="0.38" stroke-linecap="round" />
  <line x1="101.0" y1="18.1" x2="105.4" y2="-6.8" stroke="#7C6650" stroke-width="1.09" opacity="0.24" stroke-linecap="round" />
  <line x1="163.4" y1="44.6" x2="167.5" y2="21.3" stroke="#A08A72" stroke-width="1.64" opacity="0.49" stroke-linecap="round" />
  <line x1="13.8" y1="253.2" x2="17.3" y2="240.8" stroke="#7C6650" stroke-width="1.67" opacity="0.37" stroke-linecap="round" />
  <line x1="100.6" y1="110.2" x2="94.8" y2="102.1" stroke="#5B4A3A" stroke-width="1.03" opacity="0.23" stroke-linecap="round" />
  <line x1="22.0" y1="98.9" x2="27.6" y2="82.8" stroke="#5B4A3A" stroke-width="1.65" opacity="0.31" stroke-linecap="round" />
  <line x1="43.4" y1="36.5" x2="38.0" y2="15.2" stroke="#7C6650" stroke-width="1.15" opacity="0.39" stroke-linecap="round" />
  <line x1="164.6" y1="153.3" x2="166.2" y2="126.6" stroke="#5B4A3A" stroke-width="0.84" opacity="0.45" stroke-linecap="round" />
  <line x1="92.1" y1="226.6" x2="93.7" y2="210.2" stroke="#7C6650" stroke-width="0.85" opacity="0.40" stroke-linecap="round" />
  <line x1="7.7" y1="22.8" x2="12.6" y2="13.0" stroke="#5B4A3A" stroke-width="1.01" opacity="0.40" stroke-linecap="round" />
  <line x1="73.6" y1="0.4" x2="78.2" y2="-15.6" stroke="#A08A72" stroke-width="1.42" opacity="0.30" stroke-linecap="round" />
  <line x1="70.1" y1="62.3" x2="75.7" y2="46.7" stroke="#7C6650" stroke-width="0.85" opacity="0.43" stroke-linecap="round" />
  <line x1="135.6" y1="53.5" x2="131.3" y2="45.3" stroke="#5B4A3A" stroke-width="1.54" opacity="0.52" stroke-linecap="round" />
  <line x1="114.4" y1="232.2" x2="111.3" y2="218.7" stroke="#A08A72" stroke-width="1.28" opacity="0.50" stroke-linecap="round" />
  <line x1="240.3" y1="21.6" x2="240.4" y2="-5.1" stroke="#A08A72" stroke-width="1.45" opacity="0.32" stroke-linecap="round" />
  <line x1="107.0" y1="175.6" x2="109.2" y2="155.0" stroke="#7C6650" stroke-width="1.16" opacity="0.27" stroke-linecap="round" />
  <line x1="134.8" y1="247.4" x2="136.4" y2="234.4" stroke="#A08A72" stroke-width="1.61" opacity="0.52" stroke-linecap="round" />
  <line x1="13.2" y1="252.4" x2="13.4" y2="231.1" stroke="#5B4A3A" stroke-width="1.03" opacity="0.34" stroke-linecap="round" />
  <line x1="88.4" y1="237.1" x2="90.3" y2="207.7" stroke="#A08A72" stroke-width="1.27" opacity="0.25" stroke-linecap="round" />
  <line x1="183.8" y1="70.2" x2="183.5" y2="40.7" stroke="#5B4A3A" stroke-width="1.68" opacity="0.24" stroke-linecap="round" />
  <line x1="190.5" y1="81.9" x2="189.1" y2="70.7" stroke="#5B4A3A" stroke-width="1.16" opacity="0.29" stroke-linecap="round" />
  <line x1="242.7" y1="230.0" x2="244.4" y2="208.7" stroke="#A08A72" stroke-width="1.14" opacity="0.27" stroke-linecap="round" />
  <line x1="37.2" y1="207.7" x2="38.7" y2="179.3" stroke="#5B4A3A" stroke-width="1.32" opacity="0.18" stroke-linecap="round" />
  <line x1="15.7" y1="106.3" x2="20.2" y2="81.4" stroke="#A08A72" stroke-width="0.84" opacity="0.23" stroke-linecap="round" />
  <line x1="5.6" y1="38.6" x2="8.6" y2="12.0" stroke="#5B4A3A" stroke-width="1.13" opacity="0.32" stroke-linecap="round" />
  <line x1="191.7" y1="220.9" x2="194.2" y2="198.7" stroke="#A08A72" stroke-width="1.15" opacity="0.42" stroke-linecap="round" />
  <line x1="149.6" y1="123.6" x2="148.3" y2="104.5" stroke="#A08A72" stroke-width="1.27" opacity="0.47" stroke-linecap="round" />
  <line x1="181.6" y1="199.4" x2="183.5" y2="173.7" stroke="#7C6650" stroke-width="1.53" opacity="0.43" stroke-linecap="round" />
  <line x1="93.9" y1="21.0" x2="88.0" y2="-5.0" stroke="#7C6650" stroke-width="1.59" opacity="0.19" stroke-linecap="round" />
  <line x1="31.1" y1="193.3" x2="30.8" y2="172.1" stroke="#5B4A3A" stroke-width="1.54" opacity="0.42" stroke-linecap="round" />
  <line x1="242.2" y1="56.8" x2="244.5" y2="34.6" stroke="#5B4A3A" stroke-width="0.94" opacity="0.37" stroke-linecap="round" />
  <line x1="250.8" y1="102.4" x2="254.7" y2="83.0" stroke="#A08A72" stroke-width="1.38" opacity="0.55" stroke-linecap="round" />
  <line x1="139.4" y1="104.4" x2="136.7" y2="80.5" stroke="#5B4A3A" stroke-width="0.88" opacity="0.31" stroke-linecap="round" />
  <line x1="75.9" y1="145.3" x2="81.1" y2="123.7" stroke="#5B4A3A" stroke-width="1.27" opacity="0.37" stroke-linecap="round" />
  <line x1="119.2" y1="238.7" x2="124.6" y2="218.1" stroke="#5B4A3A" stroke-width="1.65" opacity="0.29" stroke-linecap="round" />
  <line x1="119.2" y1="226.5" x2="114.8" y2="208.7" stroke="#5B4A3A" stroke-width="1.01" opacity="0.45" stroke-linecap="round" />
  <line x1="176.5" y1="77.7" x2="172.7" y2="59.4" stroke="#A08A72" stroke-width="1.03" opacity="0.26" stroke-linecap="round" />
  <line x1="27.9" y1="71.2" x2="26.0" y2="61.6" stroke="#5B4A3A" stroke-width="1.27" opacity="0.44" stroke-linecap="round" />
  <line x1="154.5" y1="41.6" x2="155.8" y2="21.9" stroke="#7C6650" stroke-width="0.98" opacity="0.22" stroke-linecap="round" />
  <line x1="94.9" y1="70.9" x2="97.3" y2="48.4" stroke="#5B4A3A" stroke-width="0.93" opacity="0.51" stroke-linecap="round" />
  <line x1="53.3" y1="133.2" x2="50.1" y2="115.7" stroke="#A08A72" stroke-width="1.59" opacity="0.27" stroke-linecap="round" />
  <line x1="96.7" y1="73.9" x2="97.4" y2="56.4" stroke="#A08A72" stroke-width="0.82" opacity="0.51" stroke-linecap="round" />
  <line x1="120.4" y1="210.0" x2="123.4" y2="193.1" stroke="#7C6650" stroke-width="1.53" opacity="0.29" stroke-linecap="round" />
  <line x1="35.0" y1="73.1" x2="36.2" y2="44.8" stroke="#5B4A3A" stroke-width="1.21" opacity="0.39" stroke-linecap="round" />
  <line x1="173.1" y1="221.6" x2="174.0" y2="208.6" stroke="#7C6650" stroke-width="1.46" opacity="0.39" stroke-linecap="round" />
  <line x1="119.3" y1="190.0" x2="124.4" y2="174.5" stroke="#A08A72" stroke-width="1.17" opacity="0.37" stroke-linecap="round" />
  <line x1="193.8" y1="135.2" x2="193.0" y2="125.5" stroke="#A08A72" stroke-width="1.69" opacity="0.53" stroke-linecap="round" />
  <line x1="127.9" y1="83.1" x2="122.2" y2="54.8" stroke="#5B4A3A" stroke-width="1.25" opacity="0.54" stroke-linecap="round" />
  <line x1="154.5" y1="91.2" x2="156.1" y2="63.8" stroke="#7C6650" stroke-width="1.38" opacity="0.25" stroke-linecap="round" />
  <line x1="156.2" y1="112.7" x2="156.9" y2="102.9" stroke="#5B4A3A" stroke-width="1.30" opacity="0.47" stroke-linecap="round" />
  <line x1="2.0" y1="46.6" x2="6.9" y2="21.2" stroke="#7C6650" stroke-width="1.59" opacity="0.26" stroke-linecap="round" />
  <line x1="173.2" y1="248.6" x2="179.1" y2="239.3" stroke="#A08A72" stroke-width="1.61" opacity="0.19" stroke-linecap="round" />
  <line x1="112.4" y1="221.5" x2="106.6" y2="200.2" stroke="#5B4A3A" stroke-width="1.06" opacity="0.27" stroke-linecap="round" />
  <line x1="15.7" y1="248.4" x2="12.1" y2="229.0" stroke="#A08A72" stroke-width="1.26" opacity="0.46" stroke-linecap="round" />
  <line x1="210.7" y1="163.6" x2="214.9" y2="145.7" stroke="#5B4A3A" stroke-width="1.35" opacity="0.40" stroke-linecap="round" />
  <line x1="97.7" y1="250.2" x2="99.8" y2="222.1" stroke="#5B4A3A" stroke-width="1.46" opacity="0.35" stroke-linecap="round" />
  <line x1="197.6" y1="128.8" x2="196.7" y2="108.8" stroke="#A08A72" stroke-width="0.85" opacity="0.48" stroke-linecap="round" />
  <line x1="236.3" y1="166.5" x2="238.5" y2="141.7" stroke="#7C6650" stroke-width="1.57" opacity="0.25" stroke-linecap="round" />
  <line x1="56.6" y1="100.0" x2="61.7" y2="73.0" stroke="#7C6650" stroke-width="1.30" opacity="0.53" stroke-linecap="round" />
  <line x1="76.5" y1="174.8" x2="71.2" y2="165.2" stroke="#A08A72" stroke-width="1.16" opacity="0.32" stroke-linecap="round" />
  <line x1="241.9" y1="144.9" x2="238.3" y2="123.5" stroke="#5B4A3A" stroke-width="1.21" opacity="0.37" stroke-linecap="round" />
  <line x1="182.6" y1="118.8" x2="182.4" y2="98.1" stroke="#A08A72" stroke-width="1.53" opacity="0.43" stroke-linecap="round" />
  <circle cx="251.5" cy="77.5" r="1.5" fill="#E0D5C3" opacity="0.27" />
  <circle cx="65.8" cy="229.3" r="1.8" fill="#E0D5C3" opacity="0.35" />
  <circle cx="128.4" cy="160.4" r="1.2" fill="#B8AA93" opacity="0.27" />
  <circle cx="195.5" cy="112.8" r="1.0" fill="#D1C4AF" opacity="0.26" />
  <circle cx="223.4" cy="15.3" r="0.9" fill="#B8AA93" opacity="0.30" />
  <circle cx="173.9" cy="92.5" r="2.4" fill="#E0D5C3" opacity="0.44" />
  <circle cx="223.1" cy="249.0" r="2.3" fill="#B8AA93" opacity="0.41" />
  <circle cx="121.8" cy="243.7" r="1.5" fill="#D1C4AF" opacity="0.43" />
  <circle cx="201.1" cy="249.6" r="2.6" fill="#D1C4AF" opacity="0.35" />
  <circle cx="26.5" cy="224.3" r="2.4" fill="#D1C4AF" opacity="0.32" />
  <circle cx="103.1" cy="216.4" r="1.4" fill="#B8AA93" opacity="0.25" />
  <circle cx="235.9" cy="24.8" r="1.6" fill="#E0D5C3" opacity="0.24" />
  <circle cx="183.0" cy="14.6" r="2.1" fill="#D1C4AF" opacity="0.37" />
  <circle cx="173.2" cy="98.4" r="1.4" fill="#E0D5C3" opacity="0.34" />
  <circle cx="102.7" cy="214.6" r="2.2" fill="#E0D5C3" opacity="0.42" />
  <circle cx="187.9" cy="55.8" r="2.2" fill="#E0D5C3" opacity="0.36" />
  <circle cx="127.1" cy="189.6" r="1.5" fill="#B8AA93" opacity="0.36" />
  <circle cx="209.7" cy="74.6" r="1.6" fill="#E0D5C3" opacity="0.36" />
  <circle cx="152.2" cy="114.9" r="1.1" fill="#D1C4AF" opacity="0.30" />
  <circle cx="43.6" cy="77.2" r="0.9" fill="#D1C4AF" opacity="0.31" />
  <circle cx="31.4" cy="18.8" r="2.3" fill="#E0D5C3" opacity="0.20" />
  <circle cx="184.5" cy="242.0" r="1.0" fill="#B8AA93" opacity="0.21" />
  <circle cx="53.8" cy="177.5" r="2.4" fill="#D1C4AF" opacity="0.44" />
  <circle cx="24.9" cy="40.9" r="1.2" fill="#E0D5C3" opacity="0.25" />
  <circle cx="43.5" cy="44.2" r="1.8" fill="#B8AA93" opacity="0.28" />
  <circle cx="139.7" cy="153.5" r="2.3" fill="#E0D5C3" opacity="0.36" />
  <circle cx="216.3" cy="87.0" r="0.8" fill="#E0D5C3" opacity="0.37" />
  <circle cx="13.2" cy="155.2" r="2.4" fill="#D1C4AF" opacity="0.38" />
  <circle cx="218.6" cy="237.3" r="1.8" fill="#B8AA93" opacity="0.35" />
  <circle cx="141.8" cy="235.4" r="1.5" fill="#E0D5C3" opacity="0.34" />
  <circle cx="18.6" cy="8.7" r="1.4" fill="#B8AA93" opacity="0.23" />
  <circle cx="0.3" cy="193.1" r="2.4" fill="#B8AA93" opacity="0.27" />
  <circle cx="190.0" cy="6.4" r="1.7" fill="#B8AA93" opacity="0.40" />
  <circle cx="137.1" cy="164.1" r="2.2" fill="#D1C4AF" opacity="0.24" />
  <circle cx="43.1" cy="23.3" r="2.5" fill="#E0D5C3" opacity="0.22" />
  <circle cx="22.1" cy="201.7" r="0.7" fill="#B8AA93" opacity="0.24" />
  <circle cx="248.8" cy="51.0" r="2.6" fill="#D1C4AF" opacity="0.33" />
  <circle cx="33.7" cy="140.2" r="1.6" fill="#E0D5C3" opacity="0.45" />
  <circle cx="243.3" cy="139.0" r="1.1" fill="#B8AA93" opacity="0.36" />
  <circle cx="200.7" cy="242.0" r="0.9" fill="#B8AA93" opacity="0.32" />
  <circle cx="251.5" cy="69.5" r="2.5" fill="#B8AA93" opacity="0.43" />
  <circle cx="79.5" cy="126.1" r="1.6" fill="#E0D5C3" opacity="0.23" />
  <circle cx="174.7" cy="28.3" r="1.1" fill="#E0D5C3" opacity="0.39" />
  <circle cx="88.8" cy="92.0" r="1.2" fill="#E0D5C3" opacity="0.32" />
</svg>