<?xml version="1.0" encoding="UTF-8"?>
<svg xmlns="http://www.w3.org/2000/svg" viewBox="0 0 256 256" shape-rendering="geometricPrecision">
  <defs>
    <linearGradient id="bg-sand-dunes" x1="0%" y1="0%" x2="100%" y2="100%">
      <stop offset="0%" stop-color="#E8D7AA" />
      <stop offset="52%" stop-color="#C7B076" />
      <stop offset="100%" stop-color="#F3E2B7" />
    </linearGradient>
  </defs>
  <rect width="256" height="256" fill="url(#bg-sand-dunes)" />
  <line x1="-10.0" y1="25.3" x2="266.0" y2="31.0" stroke="#E7D6AB" stroke-width="1.98" opacity="0.33" stroke-linecap="round" />
  <line x1="-10.0" y1="88.8" x2="266.0" y2="85.4" stroke="#E7D6AB" stroke-width="1.23" opacity="0.47" stroke-linecap="round" />
  <line x1="-10.0" y1="83.4" x2="266.0" y2="83.4" stroke="#E7D6AB" stroke-width="1.41" opacity="0.26" stroke-linecap="round" />
  <line x1="-10.0" y1="113.6" x2="266.0" y2="104.7" stroke="#D2BD90" stroke-width="1.77" opacity="0.26" stroke-linecap="round" />
  <line x1="-10.0" y1="187.7" x2="266.0" y2="189.5" stroke="#D2BD90" stroke-width="1.53" opacity="0.25" stroke-linecap="round" />
  <line x1="-10.0" y1="9.4" x2="266.0" y2="5.0" stroke="#E7D6AB" stroke-width="1.83" opacity="0.19" stroke-linecap="round" />
  <line x1="-10.0" y1="146.9" x2="266.0" y2="142.6" stroke="#D2BD90" stroke-width="1.04" opacity="0.19" stroke-linecap="round" />
  <line x1="-10.0" y1="228.7" x2="266.0" y2="220.3" stroke="#D2BD90" stroke-width="2.07" opacity="0.30" stroke-linecap="round" />
  <line x1="-10.0" y1="33.8" x2="266.0" y2="25.9" stroke="#C7B27E" stroke-width="1.26" opacity="0.37" stroke-linecap="round" />
  <line x1="-10.0" y1="127.6" x2="266.0" y2="129.9" stroke="#D2BD90" stroke-width="0.81" opacity="0.44" stroke-linecap="round" />
  <line x1="-10.0" y1="168.1" x2="266.0" y2="175.3" stroke="#D2BD90" stroke-width="0.91" opacity="0.50" stroke-linecap="round" />
  <line x1="-10.0" y1="146.9" x2="266.0" y2="143.1" stroke="#E7D6AB" stroke-width="1.77" opacity="0.45" stroke-linecap="round" />
  <line x1="-10.0" y1="90.8" x2="266.0" y2="100.3" stroke="#E7D6AB" stroke-width="2.13" opacity="0.39" stroke-linecap="round" />
  <line x1="-10.0" y1="157.3" x2="266.0" y2="156.9" stroke="#E7D6AB" stroke-width="1.23" opacity="0.46" stroke-linecap="round" />
  <line x1="-10.0" y1="63.5" x2="266.0" y2="54.9" stroke="#D2BD90" stroke-width="2.14" opacity="0.45" stroke-linecap="round" />
  <line x1="-10.0" y1="194.8" x2="266.0" y2="194.4" stroke="#E7D6AB" stroke-width="1.29" opacity="0.21" stroke-linecap="round" />
  <line x1="-10.0" y1="5.7" x2="266.0" y2="6.0" stroke="#C7B27E" stroke-width="1.90" opacity="0.46" stroke-linecap="round" />
  <line x1="-10.0" y1="155.8" x2="266.0" y2="152.1" stroke="#C7B27E" stroke-width="1.27" opacity="0.21" stroke-linecap="round" />
  <line x1="-10.0" y1="56.0" x2="266.0" y2="54.4" stroke="#D2BD90" stroke-width="1.02" opacity="0.46" stroke-linecap="round" />
  <line x1="-10.0" y1="173.6" x2="266.0" y2="173.8" stroke="#C7B27E" stroke-width="1.19" opacity="0.26" stroke-linecap="round" />
  <line x1="-10.0" y1="134.6" x2="266.0" y2="138.7" stroke="#E7D6AB" stroke-width="0.97" opacity="0.44" stroke-linecap="round" />
  <line x1="-10.0" y1="232.1" x2="266.0" y2="232.2" stroke="#D2BD90" stroke-width="0.92" opacity="0.43" stroke-linecap="round" />
  <line x1="-10.0" y1="5.0" x2="266.0" y2="10.5" stroke="#C7B27E" stroke-width="1.88" opacity="0.24" stroke-linecap="round" />
  <line x1="-10.0" y1="215.0" x2="266.0" y2="222.4" stroke="#D2BD90" stroke-width="1.16" opacity="0.46" stroke-linecap="round" />
  <line x1="-10.0" y1="27.9" x2="266.0" y2="24.7" stroke="#E7D6AB" stroke-width="0.94" opacity="0.25" stroke-linecap="round" />
  <line x1="-10.0" y1="0.9" x2="266.0" y2="3.7" stroke="#E7D6AB" stroke-width="1.44" opacity="0.48" stroke-linecap="round" />
  <line x1="-10.0" y1="243.6" x2="266.0" y2="240.1" stroke="#E7D6AB" stroke-width="1.02" opacity="0.26" stroke-linecap="round" />
  <line x1="-10.0" y1="61.0" x2="266.0" y2="70.1" stroke="#E7D6AB" stroke-width="1.62" opacity="0.28" stroke-linecap="round" />
  <line x1="-10.0" y1="84.0" x2="266.0" y2="88.8" stroke="#E7D6AB" stroke-width="1.32" opacity="0.43" stroke-linecap="round" />
  <line x1="-10.0" y1="235.2" x2="266.0" y2="243.9" stroke="#E7D6AB" stroke-width="1.92" opacity="0.25" stroke-linecap="round" />
  <line x1="-10.0" y1="40.4" x2="266.0" y2="45.7" stroke="#C7B27E" stroke-width="1.09" opacity="0.41" stroke-linecap="round" />
  <line x1="-10.0" y1="238.5" x2="266.0" y2="238.8" stroke="#D2BD90" stroke-width="1.35" opacity="0.22" stroke-linecap="round" />
  <line x1="-10.0" y1="226.9" x2="266.0" y2="235.9" stroke="#C7B27E" stroke-width="0.86" opacity="0.41" stroke-linecap="round" />
  <line x1="-10.0" y1="106.1" x2="266.0" y2="105.8" stroke="#C7B27E" stroke-width="1.36" opacity="0.29" stroke-linecap="round" />
  <line x1="-10.0" y1="176.6" x2="266.0" y2="173.6" stroke="#E7D6AB" stroke-width="1.27" opacity="0.23" stroke-linecap="round" />
  <line x1="-10.0" y1="189.6" x2="266.0" y2="196.3" stroke="#C7B27E" stroke-width="2.16" opacity="0.45" stroke-linecap="round" />
  <line x1="-10.0" y1="55.5" x2="266.0" y2="60.0" stroke="#C7B27E" stroke-width="1.83" opacity="0.19" stroke-linecap="round" />
  <line x1="-10.0" y1="10.3" x2="266.0" y2="4.2" stroke="#C7B27E" stroke-width="1.47" opacity="0.42" stroke-linecap="round" />
  <line x1="-10.0" y1="200.3" x2="266.0" y2="192.9" stroke="#C7B27E" stroke-width="0.84" opacity="0.30" stroke-linecap="round" />
  <line x1="-10.0" y1="204.9" x2="266.0" y2="208.4" stroke="#D2BD90" stroke-width="0.85" opacity="0.28" stroke-linecap="round" />
  <line x1="-10.0" y1="246.1" x2="266.0" y2="240.8" stroke="#C7B27E" stroke-width="0.88" opacity="0.41" stroke-linecap="round" />
  <line x1="-10.0" y1="174.0" x2="266.0" y2="175.3" stroke="#D2BD90" stroke-width="1.06" opacity="0.46" stroke-linecap="round" />
  <line x1="-10.0" y1="201.3" x2="266.0" y2="205.3" stroke="#D2BD90" stroke-width="1.66" opacity="0.34" stroke-linecap="round" />
  <line x1="-10.0" y1="114.3" x2="266.0" y2="105.9" stroke="#E7D6AB" stroke-width="1.95" opacity="0.40" stroke-linecap="round" />
  <line x1="-10.0" y1="66.3" x2="266.0" y2="62.8" stroke="#C7B27E" stroke-width="1.20" opacity="0.33" stroke-linecap="round" />
  <line x1="-10.0" y1="159.1" x2="266.0" y2="151.7" stroke="#E7D6AB" stroke-width="1.26" opacity="0.40" stroke-linecap="round" />
  <line x1="-10.0" y1="234.3" x2="266.0" y2="226.9" stroke="#E7D6AB" stroke-width="1.24" opacity="0.24" stroke-linecap="round" />
  <line x1="-10.0" y1="143.9" x2="266.0" y2="151.5" stroke="#D2BD90" stroke-width="1.86" opacity="0.38" stroke-linecap="round" />
  <line x1="-10.0" y1="2.4" x2="266.0" y2="8.1" stroke="#C7B27E" stroke-width="0.81" opacity="0.35" stroke-linecap="round" />
  <line x1="-10.0" y1="252.2" x2="266.0" y2="242.3" stroke="#E7D6AB" stroke-width="1.36" opacity="0.30" stroke-linecap="round" />
  <line x1="-10.0" y1="166.9" x2="266.0" y2="171.5" stroke="#E7D6AB" stroke-width="1.46" opacity="0.36" stroke-linecap="round" />
  <line x1="-10.0" y1="251.8" x2="266.0" y2="245.9" stroke="#C7B27E" stroke-width="1.58" opacity="0.18" stroke-linecap="round" />
  <line x1="-10.0" y1="197.3" x2="266.0" y2="205.1" stroke="#D2BD90" stroke-width="0.94" opacity="0.47" stroke-linecap="round" />
  <line x1="-10.0" y1="222.4" x2="266.0" y2="229.4" stroke="#C7B27E" stroke-width="0.82" opacity="0.18" stroke-linecap="round" />
  <line x1="-10.0" y1="102.9" x2="266.0" y2="98.8" stroke="#C7B27E" stroke-width="1.17" opacity="0.33" stroke-linecap="round" />
  <line x1="-10.0" y1="83.0" x2="266.0" y2="75.3" stroke="#C7B27E" stroke-width="1.59" opacity="0.46" stroke-linecap="round" />
  <line x1="-10.0" y1="168.4" x2="266.0" y2="159.2" stroke="#C7B27E" stroke-width="1.81" opacity="0.49" stroke-linecap="round" />
  <line x1="-10.0" y1="17.7" x2="266.0" y2="25.2" stroke="#E7D6AB" stroke-width="1.45" opacity="0.20" stroke-linecap="round" />
  <line x1="-10.0" y1="113.8" x2="266.0" y2="115.5" stroke="#E7D6AB" stroke-width="1.44" opacity="0.47" stroke-linecap="round" />
  <line x1="-10.0" y1="105.4" x2="266.0" y2="110.5" stroke="#C7B27E" stroke-width="1.39" opacity="0.28" stroke-linecap="round" />
  <line x1="-10.0" y1="67.4" x2="266.0" y2="75.4" stroke="#D2BD90" stroke-width="1.22" opacity="0.43" stroke-linecap="round" />
  <line x1="-10.0" y1="132.2" x2="266.0" y2="123.4" stroke="#D2BD90" stroke-width="2.15" opacity="0.30" stroke-linecap="round" />
  <line x1="-10.0" y1="17.8" x2="266.0" y2="9.3" stroke="#D2BD90" stroke-width="1.53" opacity="0.39" stroke-linecap="round" />
  <line x1="-10.0" y1="254.2" x2="266.0" y2="258.2" stroke="#E7D6AB" stroke-width="0.97" opacity="0.38" stroke-linecap="round" />
  <line x1="-10.0" y1="139.1" x2="266.0" y2="143.6" stroke="#E7D6AB" stroke-width="1.79" opacity="0.36" stroke-linecap="round" />
  <line x1="-10.0" y1="34.5" x2="266.0" y2="34.5" stroke="#E7D6AB" stroke-width="1.02" opacity="0.46" stroke-linecap="round" />
  <line x1="-10.0" y1="119.5" x2="266.0" y2="117.4" stroke="#C7B27E" stroke-width="1.85" opacity="0.37" stroke-linecap="round" />
  <line x1="-10.0" y1="188.0" x2="266.0" y2="185.5" stroke="#E7D6AB" stroke-width="1.90" opacity="0.40" stroke-linecap="round" />
  <line x1="-10.0" y1="35.6" x2="266.0" y2="35.6" stroke="#C7B27E" stroke-width="1.96" opacity="0.20" stroke-linecap="round" />
  <line x1="-10.0" y1="214.9" x2="266.0" y2="209.0" stroke="#D2BD90" stroke-width="1.04" opacity="0.26" stroke-linecap="round" />
  <line x1="-10.0" y1="138.3" x2="266.0" y2="136.1" stroke="#C7B27E" stroke-width="2.12" opacity="0.48" stroke-linecap="round" />
  <line x1="-10.0" y1="20.9" x2="266.0" y2="22.9" stroke="#D2BD90" stroke-width="2.08" opacity="0.25" stroke-linecap="round" />
  <line x1="-10.0" y1="46.4" x2="266.0" y2="45.9" stroke="#D2BD90" stroke-width="1.93" opacity="0.21" stroke-linecap="round" />
  <line x1="-10.0" y1="164.2" x2="266.0" y2="173.1" stroke="#D2BD90" stroke-width="1.32" opacity="0.45" stroke-linecap="round" />
  <line x1="-10.0" y1="212.5" x2="266.0" y2="216.4" stroke="#C7B27E" stroke-width="0.87" opacity="0.29" stroke-linecap="round" />
  <line x1="-10.0" y1="100.1" x2="266.0" y2="93.7" stroke="#E7D6AB" stroke-width="1.93" opacity="0.50" stroke-linecap="round" />
  <ellipse cx="65.9" cy="239.1" rx="25.4" ry="7.5" fill="#C6B17B" opacity="0.16" transform="rotate(141.0 65.9 239.1)" />
  <ellipse cx="96.7" cy="211.2" rx="21.3" ry="6.1" fill="#BFA56A" opacity="0.20" transform="rotate(31.6 96.7 211.2)" />
  <ellipse cx="112.1" cy="78.0" rx="11.6" ry="6.2" fill="#C6B17B" opacity="0.10" transform="rotate(24.3 112.1 78.0)" />
  <ellipse cx="26.4" cy="73.6" rx="25.4" ry="4.1" fill="#BFA56A" opacity="0.17" transform="rotate(137.6 26.4 73.6)" />
  <ellipse cx="166.0" cy="51.3" rx="24.5" ry="7.6" fill="#BFA56A" opacity="0.19" transform="rotate(90.8 166.0 51.3)" />
  <ellipse cx="1.5" cy="208.0" rx="9.7" ry="7.6" fill="#DDC48A" opacity="0.21" transform="rotate(148.1 1.5 208.0)" />
  <ellipse cx="75.5" cy="90.9" rx="6.5" ry="2.4" fill="#C6B17B" opacity="0.18" transform="rotate(100.0 75.5 90.9)" />
  <ellipse cx="253.0" cy="97.7" rx="24.2" ry="7.9" fill="#BFA56A" opacity="0.16" transform="rotate(51.4 253.0 97.7)" />
  <ellipse cx="121.6" cy="40.1" rx="20.7" ry="7.9" fill="#C6B17B" opacity="0.13" transform="rotate(159.7 121.6 40.1)" />
  <ellipse cx="74.1" cy="3.0" rx="24.6" ry="2.0" fill="#BFA56A" opacity="0.14" transform="rotate(57.0 74.1 3.0)" />
  <ellipse cx="22.8" cy="164.7" rx="19.6" ry="2.6" fill="#DDC48A" opacity="0.20" transform="rotate(11.9 22.8 164.7)" />
  <ellipse cx="74.0" cy="247.1" rx="9.1" ry="7.4" fill="#BFA56A" opacity="0.19" transform="rotate(138.1 74.0 247.1)" />
  <ellipse cx="24.5" cy="103.7" rx="22.9" ry="2.3" fill="#BFA56A" opacity="0.18" transform="rotate(25.1 24.5 103.7)" />
  <ellipse cx="169.5" cy="136.9" rx="16.0" ry="4.7" fill="#BFA56A" opacity="0.17" transform="rotate(139.8 169.5 136.9)" />
  <ellipse cx="231.6" cy="185.9" rx="18.9" ry="7.0" fill="#DDC48A" opacity="0.10" transform="rotate(171.4 231.6 185.9)" />
  <ellipse cx="171.4" cy="121.9" rx="19.7" ry="4.5" fill="#BFA56A" opacity="0.17" transform="rotate(35.6 171.4 121.9)" />
  <ellipse cx="109.8" cy="16.9" rx="10.5" ry="6.1" fill="#C6B17B" opacity="0.19" transform="rotate(85.6 109.8 16.9)" />
  <ellipse cx="234.9" cy="138.9" rx="22.5" ry="8.9" fill="#BFA56A" opacity="0.15" transform="rotate(46.7 234.9 138.9)" />
  <ellipse cx="102.1" cy="19.7" rx="20.6" ry="3.2" fill="#BFA56A" opacity="0.22" transform="rotate(41.5 102.1 19.7)" />
  <ellipse cx="25.4" cy="187.7" rx="13.7" ry="7.5" fill="#BFA56A" opacity="0.20" transform="rotate(2.0 25.4 187.7)" />
  <ellipse cx="239.9" cy="143.0" rx="12.7" ry="7.2" fill="#C6B17B" opacity="0.19" transform="rotate(106.0 239.9 143.0)" />
  <ellipse cx="53.0" cy="195.4" rx="15.0" ry="7.1" fill="#BFA56A" opacity="0.16" transform="rotate(103.4 53.0 195.4)" />
  <ellipse cx="0.4" cy="13.1" rx="6.1" ry="4.2" fill="#BFA56A" opacity="0.16" transform="rotate(118.8 0.4 13.1)" />
  <ellipse cx="211.4" cy="49.0" rx="20.0" ry="5.9" fill="#DDC48A" opacity="0.19" transform="rotate(108.8 211.4 49.0)" />
  <ellipse cx="72.6" cy="211.1" rx="21.8" ry="5.4" fill="#C6B17B" opacity="0.10" transform="rotate(104.0 72.6 211.1)" />
  <ellipse cx="107.5" cy="247.2" rx="25.8" ry="7.0" fill="#BFA56A" opacity="0.11" transform="rotate(53.0 107.5 247.2)" />
  <ellipse cx="233.3" cy="245.3" rx="7.3" ry="4.8" fill="#DDC48A" opacity="0.20" transform="rotate(53.9 233.3 245.3)" />
  <ellipse cx="235.6" cy="18.6" rx="15.3" ry="9.7" fill="#DDC48A" opacity="0.19" transform="rotate(164.1 235.6 18.6)" />
  <ellipse cx="162.5" cy="33.1" rx="23.0" ry="6.6" fill="#C6B17B" opacity="0.09" transform="rotate(51.0 162.5 33.1)" />
  <ellipse cx="224.5" cy="137.8" rx="10.8" ry="5.4" fill="#BFA56A" opacity="0.12" transform="rotate(103.0 224.5 137.8)" />
  <circle cx="128.0" cy="244.7" r="1.4" fill="#E2C998" opacity="0.16" />
  <circle cx="247.9" cy="57.8" r="0.9" fill="#FFF3D3" opacity="0.35" />
  <circle cx="10.0" cy="189.2" r="0.7" fill="#FFF3D3" opacity="0.26" />
  <circle cx="222.6" cy="126.1" r="0.7" fill="#E2C998" opacity="0.38" />
  <circle cx="246.5" cy="178.9" r="2.5" fill="#FFF3D3" opacity="0.41" />
  <circle cx="33.9" cy="200.5" r="1.9" fill="#E2C998" opacity="0.16" />
  <circle cx="62.8" cy="92.5" r="1.5" fill="#E2C998" opacity="0.20" />
  <circle cx="218.3" cy="66.6" r="1.8" fill="#F2E2B2" opacity="0.28" />
  <circle cx="61.5" cy="66.3" r="2.0" fill="#F2E2B2" opacity="0.33" />
  <circle cx="121.4" cy="40.7" r="0.8" fill="#F2E2B2" opacity="0.38" />
  <circle cx="247.9" cy="229.9" r="0.7" fill="#FFF3D3" opacity="0.15" />
  <circle cx="203.1" cy="78.1" r="2.1" fill="#FFF3D3" opacity="0.26" />
  <circle cx="214.8" cy="106.3" r="1.9" fill="#F2E2B2" opacity="0.31" />
  <circle cx="67.5" cy="86.5" r="2.1" fill="#FFF3D3" opacity="0.23" />
  <circle cx="100.2" cy="229.8" r="1.2" fill="#FFF3D3" opacity="0.25" />
  <circle cx="95.3" cy="253.1" r="1.8" fill="#FFF3D3" opacity="0.42" />
  <circle cx="234.2" cy="204.1" r="2.2" fill="#E2C998" opacity="0.42" />
  <circle cx="156.4" cy="182.8" r="2.1" fill="#FFF3D3" opacity="0.30" />
  <circle cx="13.6" cy="30.8" r="1.5" fill="#E2C998" opacity="0.37" />
  <circle cx="77.9" cy="116.9" r="2.3" fill="#F2E2B2" opacity="0.32" />
  <circle cx="235.4" cy="223.0" r="1.4" fill="#E2C998" opacity="0.32" />
  <circle cx="227.6" cy="91.9" r="2.3" fill="#FFF3D3" opacity="0.16" />
  <circle cx="89.1" cy="38.8" r="2.1" fill="#FFF3D3" opacity="0.28" />
  <circle cx="59.6" cy="219.6" r="1.8" fill="#E2C998" opacity="0.24" />
  <circle cx="95.4" cy="47.1" r="1.1" fill="#E2C998" opacity="0.25" />
  <circle cx="28.0" cy="34.4" r="0.9" fill="#E2C998" opacity="0.27" />
  <circle cx="118.9" cy="190.2" r="0.8" fill="#F2E2B2" opacity="0.35" />
  <circle cx="202.8" cy="195.2" r="1.3" fill="#FFF3D3" opacity="0.42" />
  <circle cx="49.4" cy="199.6" r="1.0" fill="#E2C998" opacity="0.37" />
  <circle cx="63.6" cy="82.7" r="0.9" fill="#FFF3D3" opacity="0.25" />
  <circle cx="65.8" cy="180.3" r="1.9" fill="#E2C998" opacity="0.39" />
  <circle cx="152.2" cy="143.2" r="0.9" fill="#E2C998" opacity="0.36" />
  <circle cx="205.8" cy="229.0" r="0.6" fill="#FFF3D3" opacity="0.18" />
  <circle cx="178.9" cy="12.5" r="2.1" fill="#E2C998" opacity="0.39" />
  <circle cx="9.1" cy="96.9" r="0.7" fill="#F2E2B2" opacity="0.24" />
  <circle cx="161.5" cy="208.7" r="1.1" fill="#F2E2B2" opacity="0.37" />
  <circle cx="242.6" cy="189.1" r="2.2" fill="#E2C998" opacity="0.41" />
  <circle cx="105.5" cy="65.0" r="2.3" fill="#FFF3D3" opacity="0.17" />
  <circle cx="164.7" cy="193.1" r="2.6" fill="#E2C998" opacity="0.21" />
  <circle cx="60.5" cy="155.5" r="1.9" fill="#FFF3D3" opacity="0.16" />
  <circle cx="22.7" cy="205.7" r="0.6" fill="#FFF3D3" opacity="0.21" />
  <circle cx="82.4" cy="56.8" r="1.2" fill="#F2E2B2" opacity="0.14" />
  <circle cx="28.8" cy="79.3" r="1.2" fill="#F2E2B2" opacity="0.31" />
  <circle cx="206.0" cy="147.9" r="2.4" fill="#F2E2B2" opacity="0.17" />
  <circle cx="202.5" cy="88.5" r="1.1" fill="#FFF3D3" opacity="0.21" />
  <circle cx="47.0" cy="44.0" r="2.3" fill="#E2C998" opacity="0.29" />
</svg>