<?xml version="1.0" encoding="UTF-8"?>
<svg xmlns="http://www.w3.org/2000/svg" viewBox="0 0 256 256" shape-rendering="geometricPrecision">
  <defs>
    <linearGradient id="bg-sand-dunes" x1="0%" y1="0%" x2="100%" y2="100%">
      <stop offset="0%" stop-color="#E2CC98" />
      <stop offset="52%" stop-color="#D8BF8D" />
      <stop offset="100%" stop-color="#F0E1BD" />
    </linearGradient>
  </defs>
  <rect width="256" height="256" fill="url(#bg-sand-dunes)" />
  <line x1="-12.0" y1="56.6" x2="268.0" y2="50.4" stroke="#E6D5A8" stroke-width="1.05" opacity="0.22" stroke-linecap="round" />
  <line x1="-12.0" y1="59.8" x2="268.0" y2="53.8" stroke="#D7C08C" stroke-width="0.73" opacity="0.14" stroke-linecap="round" />
  <line x1="-12.0" y1="155.4" x2="268.0" y2="160.2" stroke="#E6D5A8" stroke-width="1.04" opacity="0.25" stroke-linecap="round" />
  <line x1="-12.0" y1="161.4" x2="268.0" y2="169.1" stroke="#C6AE74" stroke-width="1.06" opacity="0.26" stroke-linecap="round" />
  <line x1="-12.0" y1="171.2" x2="268.0" y2="166.7" stroke="#D7C08C" stroke-width="1.24" opacity="0.29" stroke-linecap="round" />
  <line x1="-12.0" y1="157.3" x2="268.0" y2="159.2" stroke="#C6AE74" stroke-width="0.71" opacity="0.29" stroke-linecap="round" />
  <line x1="-12.0" y1="193.1" x2="268.0" y2="185.5" stroke="#D7C08C" stroke-width="1.32" opacity="0.27" stroke-linecap="round" />
  <line x1="-12.0" y1="192.4" x2="268.0" y2="198.3" stroke="#E6D5A8" stroke-width="1.48" opacity="0.25" stroke-linecap="round" />
  <line x1="-12.0" y1="91.6" x2="268.0" y2="95.1" stroke="#E6D5A8" stroke-width="1.13" opacity="0.21" stroke-linecap="round" />
  <line x1="-12.0" y1="35.3" x2="268.0" y2="30.5" stroke="#D7C08C" stroke-width="1.79" opacity="0.34" stroke-linecap="round" />
  <line x1="-12.0" y1="252.8" x2="268.0" y2="253.4" stroke="#D7C08C" stroke-width="0.73" opacity="0.17" stroke-linecap="round" />
  <line x1="-12.0" y1="200.8" x2="268.0" y2="198.6" stroke="#D7C08C" stroke-width="0.80" opacity="0.30" stroke-linecap="round" />
  <line x1="-12.0" y1="1.5" x2="268.0" y2="7.9" stroke="#E6D5A8" stroke-width="1.63" opacity="0.28" stroke-linecap="round" />
  <line x1="-12.0" y1="163.5" x2="268.0" y2="160.8" stroke="#D7C08C" stroke-width="1.33" opacity="0.24" stroke-linecap="round" />
  <line x1="-12.0" y1="135.3" x2="268.0" y2="129.3" stroke="#C6AE74" stroke-width="1.57" opacity="0.23" stroke-linecap="round" />
  <line x1="-12.0" y1="63.6" x2="268.0" y2="57.7" stroke="#D7C08C" stroke-width="0.70" opacity="0.19" stroke-linecap="round" />
  <line x1="-12.0" y1="138.4" x2="268.0" y2="142.4" stroke="#D7C08C" stroke-width="1.65" opacity="0.25" stroke-linecap="round" />
  <line x1="-12.0" y1="125.5" x2="268.0" y2="119.4" stroke="#E6D5A8" stroke-width="1.53" opacity="0.33" stroke-linecap="round" />
  <line x1="-12.0" y1="92.1" x2="268.0" y2="85.0" stroke="#D7C08C" stroke-width="1.28" opacity="0.20" stroke-linecap="round" />
  <line x1="-12.0" y1="89.0" x2="268.0" y2="84.3" stroke="#E6D5A8" stroke-width="1.08" opacity="0.30" stroke-linecap="round" />
  <line x1="-12.0" y1="109.8" x2="268.0" y2="114.0" stroke="#E6D5A8" stroke-width="0.84" opacity="0.19" stroke-linecap="round" />
  <line x1="-12.0" y1="111.6" x2="268.0" y2="109.5" stroke="#E6D5A8" stroke-width="0.63" opacity="0.18" stroke-linecap="round" />
  <line x1="-12.0" y1="96.3" x2="268.0" y2="94.5" stroke="#C6AE74" stroke-width="1.35" opacity="0.18" stroke-linecap="round" />
  <line x1="-12.0" y1="17.5" x2="268.0" y2="22.2" stroke="#E6D5A8" stroke-width="1.08" opacity="0.20" stroke-linecap="round" />
  <line x1="-12.0" y1="89.2" x2="268.0" y2="85.5" stroke="#E6D5A8" stroke-width="1.48" opacity="0.17" stroke-linecap="round" />
  <line x1="-12.0" y1="207.2" x2="268.0" y2="206.0" stroke="#C6AE74" stroke-width="0.67" opacity="0.26" stroke-linecap="round" />
  <line x1="-12.0" y1="145.2" x2="268.0" y2="137.2" stroke="#E6D5A8" stroke-width="0.72" opacity="0.13" stroke-linecap="round" />
  <line x1="-12.0" y1="139.5" x2="268.0" y2="135.6" stroke="#D7C08C" stroke-width="1.11" opacity="0.24" stroke-linecap="round" />
  <line x1="-12.0" y1="12.1" x2="268.0" y2="12.9" stroke="#D7C08C" stroke-width="1.22" opacity="0.30" stroke-linecap="round" />
  <line x1="-12.0" y1="93.4" x2="268.0" y2="86.2" stroke="#D7C08C" stroke-width="0.93" opacity="0.28" stroke-linecap="round" />
  <line x1="-12.0" y1="162.8" x2="268.0" y2="157.3" stroke="#D7C08C" stroke-width="1.42" opacity="0.12" stroke-linecap="round" />
  <line x1="-12.0" y1="238.8" x2="268.0" y2="236.6" stroke="#D7C08C" stroke-width="0.77" opacity="0.20" stroke-linecap="round" />
  <line x1="-12.0" y1="247.7" x2="268.0" y2="240.9" stroke="#E6D5A8" stroke-width="0.75" opacity="0.17" stroke-linecap="round" />
  <line x1="-12.0" y1="113.0" x2="268.0" y2="115.1" stroke="#E6D5A8" stroke-width="0.77" opacity="0.31" stroke-linecap="round" />
  <line x1="-12.0" y1="163.4" x2="268.0" y2="161.3" stroke="#C6AE74" stroke-width="1.43" opacity="0.19" stroke-linecap="round" />
  <line x1="-12.0" y1="64.8" x2="268.0" y2="62.1" stroke="#E6D5A8" stroke-width="0.96" opacity="0.20" stroke-linecap="round" />
  <line x1="-12.0" y1="46.4" x2="268.0" y2="49.6" stroke="#C6AE74" stroke-width="0.87" opacity="0.22" stroke-linecap="round" />
  <line x1="-12.0" y1="14.6" x2="268.0" y2="21.9" stroke="#C6AE74" stroke-width="0.84" opacity="0.26" stroke-linecap="round" />
  <line x1="-12.0" y1="195.0" x2="268.0" y2="201.8" stroke="#C6AE74" stroke-width="1.24" opacity="0.25" stroke-linecap="round" />
  <line x1="-12.0" y1="134.1" x2="268.0" y2="141.9" stroke="#D7C08C" stroke-width="0.72" opacity="0.32" stroke-linecap="round" />
  <line x1="-12.0" y1="33.5" x2="268.0" y2="28.8" stroke="#C6AE74" stroke-width="1.34" opacity="0.15" stroke-linecap="round" />
  <line x1="-12.0" y1="109.9" x2="268.0" y2="111.4" stroke="#D7C08C" stroke-width="1.35" opacity="0.17" stroke-linecap="round" />
  <line x1="-12.0" y1="183.9" x2="268.0" y2="181.8" stroke="#E6D5A8" stroke-width="0.81" opacity="0.19" stroke-linecap="round" />
  <line x1="-12.0" y1="252.2" x2="268.0" y2="246.5" stroke="#D7C08C" stroke-width="1.46" opacity="0.27" stroke-linecap="round" />
  <line x1="-12.0" y1="88.3" x2="268.0" y2="82.3" stroke="#C6AE74" stroke-width="1.16" opacity="0.23" stroke-linecap="round" />
  <line x1="-12.0" y1="21.0" x2="268.0" y2="23.5" stroke="#C6AE74" stroke-width="1.49" opacity="0.19" stroke-linecap="round" />
  <line x1="-12.0" y1="14.2" x2="268.0" y2="16.6" stroke="#C6AE74" stroke-width="1.75" opacity="0.29" stroke-linecap="round" />
  <line x1="-12.0" y1="224.4" x2="268.0" y2="222.6" stroke="#D7C08C" stroke-width="1.45" opacity="0.17" stroke-linecap="round" />
  <line x1="-12.0" y1="259.7" x2="268.0" y2="264.9" stroke="#D7C08C" stroke-width="0.96" opacity="0.27" stroke-linecap="round" />
  <line x1="-12.0" y1="53.9" x2="268.0" y2="58.7" stroke="#E6D5A8" stroke-width="0.61" opacity="0.24" stroke-linecap="round" />
  <line x1="-12.0" y1="196.9" x2="268.0" y2="201.9" stroke="#C6AE74" stroke-width="1.59" opacity="0.31" stroke-linecap="round" />
  <line x1="-12.0" y1="159.8" x2="268.0" y2="166.8" stroke="#D7C08C" stroke-width="1.38" opacity="0.12" stroke-linecap="round" />
  <line x1="-12.0" y1="142.7" x2="268.0" y2="141.0" stroke="#E6D5A8" stroke-width="1.34" opacity="0.13" stroke-linecap="round" />
  <line x1="-12.0" y1="5.2" x2="268.0" y2="-1.1" stroke="#C6AE74" stroke-width="1.33" opacity="0.27" stroke-linecap="round" />
  <line x1="-12.0" y1="169.9" x2="268.0" y2="177.2" stroke="#D7C08C" stroke-width="0.62" opacity="0.15" stroke-linecap="round" />
  <line x1="-12.0" y1="168.3" x2="268.0" y2="161.4" stroke="#D7C08C" stroke-width="0.76" opacity="0.28" stroke-linecap="round" />
  <line x1="-12.0" y1="49.5" x2="268.0" y2="55.0" stroke="#D7C08C" stroke-width="1.34" opacity="0.31" stroke-linecap="round" />
  <line x1="-12.0" y1="165.9" x2="268.0" y2="167.3" stroke="#E6D5A8" stroke-width="0.97" opacity="0.23" stroke-linecap="round" />
  <line x1="-12.0" y1="36.0" x2="268.0" y2="31.8" stroke="#D7C08C" stroke-width="1.74" opacity="0.16" stroke-linecap="round" />
  <line x1="-12.0" y1="221.8" x2="268.0" y2="220.5" stroke="#C6AE74" stroke-width="0.65" opacity="0.19" stroke-linecap="round" />
  <line x1="-12.0" y1="98.4" x2="268.0" y2="103.9" stroke="#E6D5A8" stroke-width="1.68" opacity="0.33" stroke-linecap="round" />
  <line x1="-12.0" y1="34.7" x2="268.0" y2="28.3" stroke="#D7C08C" stroke-width="0.91" opacity="0.29" stroke-linecap="round" />
  <line x1="-12.0" y1="259.6" x2="268.0" y2="262.9" stroke="#E6D5A8" stroke-width="1.04" opacity="0.26" stroke-linecap="round" />
  <line x1="-12.0" y1="115.6" x2="268.0" y2="110.9" stroke="#E6D5A8" stroke-width="0.69" opacity="0.23" stroke-linecap="round" />
  <line x1="-12.0" y1="-7.2" x2="268.0" y2="-3.6" stroke="#C6AE74" stroke-width="1.52" opacity="0.21" stroke-linecap="round" />
  <line x1="-12.0" y1="225.9" x2="268.0" y2="225.1" stroke="#E6D5A8" stroke-width="1.78" opacity="0.29" stroke-linecap="round" />
  <line x1="-12.0" y1="99.8" x2="268.0" y2="93.5" stroke="#E6D5A8" stroke-width="1.11" opacity="0.23" stroke-linecap="round" />
  <line x1="-12.0" y1="53.4" x2="268.0" y2="46.6" stroke="#E6D5A8" stroke-width="0.79" opacity="0.31" stroke-linecap="round" />
  <line x1="-12.0" y1="249.8" x2="268.0" y2="256.1" stroke="#C6AE74" stroke-width="1.47" opacity="0.20" stroke-linecap="round" />
  <line x1="-12.0" y1="103.8" x2="268.0" y2="98.8" stroke="#D7C08C" stroke-width="0.67" opacity="0.31" stroke-linecap="round" />
  <line x1="-12.0" y1="88.1" x2="268.0" y2="89.8" stroke="#D7C08C" stroke-width="1.16" opacity="0.33" stroke-linecap="round" />
  <line x1="-12.0" y1="119.6" x2="268.0" y2="111.8" stroke="#C6AE74" stroke-width="1.65" opacity="0.23" stroke-linecap="round" />
  <line x1="-12.0" y1="173.7" x2="268.0" y2="179.1" stroke="#E6D5A8" stroke-width="1.26" opacity="0.33" stroke-linecap="round" />
  <line x1="-12.0" y1="166.8" x2="268.0" y2="173.1" stroke="#E6D5A8" stroke-width="1.40" opacity="0.16" stroke-linecap="round" />
  <line x1="-12.0" y1="177.2" x2="268.0" y2="178.3" stroke="#D7C08C" stroke-width="0.69" opacity="0.22" stroke-linecap="round" />
  <line x1="-12.0" y1="82.9" x2="268.0" y2="88.2" stroke="#E6D5A8" stroke-width="1.06" opacity="0.18" stroke-linecap="round" />
  <line x1="-12.0" y1="178.0" x2="268.0" y2="185.4" stroke="#C6AE74" stroke-width="1.64" opacity="0.25" stroke-linecap="round" />
  <line x1="-12.0" y1="238.0" x2="268.0" y2="237.8" stroke="#C6AE74" stroke-width="1.76" opacity="0.31" stroke-linecap="round" />
  <line x1="-12.0" y1="89.3" x2="268.0" y2="93.1" stroke="#C6AE74" stroke-width="0.67" opacity="0.32" stroke-linecap="round" />
  <line x1="-12.0" y1="259.3" x2="268.0" y2="255.0" stroke="#C6AE74" stroke-width="1.65" opacity="0.30" stroke-linecap="round" />
  <line x1="-12.0" y1="45.4" x2="268.0" y2="52.4" stroke="#C6AE74" stroke-width="1.00" opacity="0.22" stroke-linecap="round" />
  <line x1="-12.0" y1="55.6" x2="268.0" y2="49.8" stroke="#D7C08C" stroke-width="0.60" opacity="0.22" stroke-linecap="round" />
  <line x1="-12.0" y1="85.4" x2="268.0" y2="84.5" stroke="#D7C08C" stroke-width="1.80" opacity="0.13" stroke-linecap="round" />
  <line x1="-12.0" y1="182.4" x2="268.0" y2="183.0" stroke="#C6AE74" stroke-width="1.12" opacity="0.27" stroke-linecap="round" />
  <line x1="-12.0" y1="191.4" x2="268.0" y2="188.0" stroke="#D7C08C" stroke-width="1.45" opacity="0.24" stroke-linecap="round" />
  <line x1="-12.0" y1="46.2" x2="268.0" y2="38.4" stroke="#E6D5A8" stroke-width="1.39" opacity="0.31" stroke-linecap="round" />
  <line x1="-12.0" y1="78.4" x2="268.0" y2="72.3" stroke="#E6D5A8" stroke-width="1.71" opacity="0.26" stroke-linecap="round" />
  <line x1="-12.0" y1="96.5" x2="268.0" y2="102.6" stroke="#D7C08C" stroke-width="0.99" opacity="0.15" stroke-linecap="round" />
  <ellipse cx="221.3" cy="27.6" rx="12.4" ry="12.7" fill="#D9C38D" opacity="0.09" transform="rotate(99.3 221.3 27.6)" />
  <ellipse cx="44.1" cy="172.8" rx="14.1" ry="8.8" fill="#E8D7A8" opacity="0.05" transform="rotate(143.2 44.1 172.8)" />
  <ellipse cx="-3.7" cy="269.2" rx="25.7" ry="32.0" fill="#D9C38D" opacity="0.10" transform="rotate(66.7 -3.7 269.2)" />
  <ellipse cx="63.9" cy="252.7" rx="9.4" ry="9.6" fill="#D9C38D" opacity="0.10" transform="rotate(18.7 63.9 252.7)" />
  <ellipse cx="197.4" cy="93.6" rx="8.0" ry="10.5" fill="#E8D7A8" opacity="0.06" transform="rotate(176.2 197.4 93.6)" />
  <ellipse cx="219.2" cy="78.9" rx="18.7" ry="19.4" fill="#D9C38D" opacity="0.05" transform="rotate(2.9 219.2 78.9)" />
  <ellipse cx="175.6" cy="104.7" rx="12.2" ry="16.4" fill="#D9C38D" opacity="0.11" transform="rotate(77.2 175.6 104.7)" />
  <ellipse cx="51.8" cy="187.1" rx="23.9" ry="16.2" fill="#BFA46B" opacity="0.06" transform="rotate(96.2 51.8 187.1)" />
  <ellipse cx="-7.0" cy="30.5" rx="19.3" ry="16.9" fill="#E8D7A8" opacity="0.11" transform="rotate(123.6 -7.0 30.5)" />
  <ellipse cx="236.3" cy="199.1" rx="10.1" ry="12.1" fill="#E8D7A8" opacity="0.11" transform="rotate(19.6 236.3 199.1)" />
  <ellipse cx="51.1" cy="249.1" rx="12.1" ry="10.1" fill="#BFA46B" opacity="0.10" transform="rotate(81.9 51.1 249.1)" />
  <ellipse cx="193.6" cy="81.4" rx="23.4" ry="28.3" fill="#BFA46B" opacity="0.04" transform="rotate(87.6 193.6 81.4)" />
  <ellipse cx="98.7" cy="66.0" rx="25.8" ry="18.1" fill="#E8D7A8" opacity="0.06" transform="rotate(16.3 98.7 66.0)" />
  <ellipse cx="34.1" cy="203.7" rx="14.1" ry="17.4" fill="#BFA46B" opacity="0.09" transform="rotate(47.8 34.1 203.7)" />
  <ellipse cx="258.5" cy="27.8" rx="25.2" ry="31.8" fill="#E8D7A8" opacity="0.08" transform="rotate(5.4 258.5 27.8)" />
  <ellipse cx="233.1" cy="215.2" rx="18.5" ry="11.7" fill="#D9C38D" opacity="0.10" transform="rotate(59.1 233.1 215.2)" />
  <ellipse cx="62.5" cy="255.6" rx="13.6" ry="10.7" fill="#BFA46B" opacity="0.05" transform="rotate(86.8 62.5 255.6)" />
  <ellipse cx="228.1" cy="126.6" rx="16.6" ry="19.3" fill="#D9C38D" opacity="0.11" transform="rotate(176.7 228.1 126.6)" />
  <ellipse cx="65.3" cy="82.2" rx="10.7" ry="9.0" fill="#D9C38D" opacity="0.10" transform="rotate(135.6 65.3 82.2)" />
  <ellipse cx="48.3" cy="204.9" rx="11.6" ry="7.3" fill="#BFA46B" opacity="0.11" transform="rotate(21.9 48.3 204.9)" />
  <ellipse cx="244.1" cy="233.6" rx="16.4" ry="16.3" fill="#E8D7A8" opacity="0.06" transform="rotate(105.2 244.1 233.6)" />
  <ellipse cx="31.7" cy="54.4" rx="25.2" ry="16.3" fill="#E8D7A8" opacity="0.08" transform="rotate(24.3 31.7 54.4)" />
  <ellipse cx="187.2" cy="85.8" rx="19.7" ry="15.5" fill="#E8D7A8" opacity="0.04" transform="rotate(9.1 187.2 85.8)" />
  <ellipse cx="59.6" cy="64.3" rx="12.0" ry="16.1" fill="#D9C38D" opacity="0.08" transform="rotate(157.2 59.6 64.3)" />
  <ellipse cx="98.6" cy="95.0" rx="16.5" ry="9.4" fill="#BFA46B" opacity="0.05" transform="rotate(45.7 98.6 95.0)" />
  <ellipse cx="189.9" cy="261.2" rx="10.8" ry="11.0" fill="#D9C38D" opacity="0.08" transform="rotate(154.3 189.9 261.2)" />
  <ellipse cx="-7.7" cy="269.9" rx="24.2" ry="21.7" fill="#BFA46B" opacity="0.06" transform="rotate(127.3 -7.7 269.9)" />
  <ellipse cx="161.2" cy="5.7" rx="15.9" ry="19.9" fill="#E8D7A8" opacity="0.11" transform="rotate(33.5 161.2 5.7)" />
  <circle cx="240.9" cy="214.1" r="1.2" fill="#FFF3D4" opacity="0.17" />
  <circle cx="151.3" cy="44.0" r="0.5" fill="#F4E3B6" opacity="0.30" />
  <circle cx="204.0" cy="80.3" r="1.2" fill="#F4E3B6" opacity="0.15" />
  <circle cx="130.1" cy="77.0" r="0.4" fill="#FFF3D4" opacity="0.30" />
  <circle cx="229.5" cy="201.3" r="0.5" fill="#F4E3B6" opacity="0.22" />
  <circle cx="166.0" cy="99.3" r="0.5" fill="#E3CA97" opacity="0.21" />
  <circle cx="201.9" cy="197.8" r="0.7" fill="#E3CA97" opacity="0.30" />
  <circle cx="73.5" cy="231.9" r="1.2" fill="#E3CA97" opacity="0.17" />
  <circle cx="30.5" cy="234.3" r="0.6" fill="#FFF3D4" opacity="0.22" />
  <circle cx="35.0" cy="252.1" r="1.1" fill="#FFF3D4" opacity="0.23" />
  <circle cx="76.8" cy="165.1" r="0.7" fill="#F4E3B6" opacity="0.31" />
  <circle cx="18.7" cy="82.0" r="0.9" fill="#E3CA97" opacity="0.25" />
  <circle cx="219.2" cy="233.2" r="0.6" fill="#F4E3B6" opacity="0.23" />
  <circle cx="236.7" cy="41.6" r="1.0" fill="#F4E3B6" opacity="0.27" />
  <circle cx="12.2" cy="100.0" r="1.1" fill="#F4E3B6" opacity="0.19" />
  <circle cx="14.0" cy="135.9" r="1.7" fill="#E3CA97" opacity="0.33" />
  <circle cx="154.2" cy="48.6" r="0.9" fill="#E3CA97" opacity="0.13" />
  <circle cx="123.2" cy="17.6" r="0.7" fill="#FFF3D4" opacity="0.31" />
  <circle cx="94.0" cy="207.5" r="1.6" fill="#FFF3D4" opacity="0.14" />
  <circle cx="31.8" cy="65.8" r="0.5" fill="#FFF3D4" opacity="0.19" />
  <circle cx="34.7" cy="128.2" r="0.7" fill="#E3CA97" opacity="0.21" />
  <circle cx="180.7" cy="184.5" r="1.4" fill="#E3CA97" opacity="0.31" />
  <circle cx="243.6" cy="74.2" r="1.2" fill="#F4E3B6" opacity="0.15" />
  <circle cx="160.0" cy="64.8" r="1.6" fill="#FFF3D4" opacity="0.17" />
  <circle cx="62.5" cy="193.3" r="1.1" fill="#FFF3D4" opacity="0.14" />
  <circle cx="104.7" cy="33.3" r="1.2" fill="#FFF3D4" opacity="0.33" />
  <circle cx="123.8" cy="48.5" r="0.6" fill="#F4E3B6" opacity="0.22" />
  <circle cx="107.3" cy="235.7" r="1.0" fill="#FFF3D4" opacity="0.36" />
  <circle cx="230.2" cy="29.6" r="1.6" fill="#FFF3D4" opacity="0.37" />
  <circle cx="194.0" cy="69.6" r="1.4" fill="#FFF3D4" opacity="0.31" />
  <circle cx="18.9" cy="242.6" r="1.6" fill="#F4E3B6" opacity="0.17" />
  <circle cx="171.1" cy="2.3" r="1.6" fill="#F4E3B6" opacity="0.37" />
  <circle cx="0.9" cy="38.1" r="0.5" fill="#F4E3B6" opacity="0.15" />
  <circle cx="4.1" cy="13.5" r="1.7" fill="#FFF3D4" opacity="0.23" />
  <circle cx="241.5" cy="34.2" r="1.1" fill="#F4E3B6" opacity="0.22" />
  <circle cx="20.2" cy="221.1" r="0.6" fill="#E3CA97" opacity="0.35" />
  <circle cx="211.4" cy="199.0" r="1.4" fill="#E3CA97" opacity="0.14" />
  <circle cx="200.1" cy="240.1" r="1.8" fill="#F4E3B6" opacity="0.33" />
  <circle cx="71.5" cy="184.6" r="1.3" fill="#E3CA97" opacity="0.18" />
  <circle cx="163.0" cy="236.2" r="1.8" fill="#F4E3B6" opacity="0.36" />
  <circle cx="246.6" cy="146.2" r="1.4" fill="#E3CA97" opacity="0.25" />
  <circle cx="177.9" cy="8.0" r="0.7" fill="#E3CA97" opacity="0.14" />
  <circle cx="2.1" cy="217.8" r="1.3" fill="#FFF3D4" opacity="0.34" />
  <circle cx="41.2" cy="29.3" r="1.1" fill="#E3CA97" opacity="0.20" />
  <circle cx="4.5" cy="40.9" r="1.3" fill="#E3CA97" opacity="0.14" />
  <circle cx="42.5" cy="246.9" r="0.8" fill="#F4E3B6" opacity="0.16" />
  <circle cx="102.5" cy="171.3" r="1.6" fill="#F4E3B6" opacity="0.27" />
  <circle cx="198.9" cy="202.3" r="1.4" fill="#E3CA97" opacity="0.16" />
  <circle cx="137.6" cy="104.5" r="1.8" fill="#E3CA97" opacity="0.24" />
  <circle cx="11.5" cy="12.0" r="1.3" fill="#F4E3B6" opacity="0.26" />
  <circle cx="225.9" cy="17.1" r="0.8" fill="#E3CA97" opacity="0.23" />
  <circle cx="216.6" cy="98.5" r="1.8" fill="#E3CA97" opacity="0.25" />
  <circle cx="179.3" cy="203.5" r="1.0" fill="#FFF3D4" opacity="0.23" />
  <circle cx="248.3" cy="196.0" r="1.6" fill="#FFF3D4" opacity="0.29" />
  <circle cx="247.6" cy="187.7" r="0.8" fill="#F4E3B6" opacity="0.24" />
  <circle cx="60.0" cy="84.7" r="1.8" fill="#E3CA97" opacity="0.19" />
  <circle cx="229.7" cy="244.8" r="1.3" fill="#FFF3D4" opacity="0.32" />
  <circle cx="152.8" cy="95.3" r="0.7" fill="#E3CA97" opacity="0.35" />
  <circle cx="95.1" cy="186.2" r="1.0" fill="#E3CA97" opacity="0.21" />
  <circle cx="194.6" cy="34.8" r="1.5" fill="#FFF3D4" opacity="0.26" />
  <circle cx="104.9" cy="53.8" r="1.0" fill="#FFF3D4" opacity="0.15" />
  <circle cx="213.6" cy="218.0" r="0.9" fill="#F4E3B6" opacity="0.19" />
  <circle cx="188.7" cy="64.1" r="1.6" fill="#E3CA97" opacity="0.23" />
  <circle cx="90.2" cy="39.1" r="0.7" fill="#F4E3B6" opacity="0.34" />
  <circle cx="110.0" cy="90.7" r="1.8" fill="#FFF3D4" opacity="0.31" />
  <circle cx="169.8" cy="149.9" r="0.6" fill="#FFF3D4" opacity="0.24" />
  <circle cx="28.9" cy="89.4" r="0.4" fill="#F4E3B6" opacity="0.15" />
  <circle cx="230.7" cy="148.9" r="0.8" fill="#FFF3D4" opacity="0.24" />
  <circle cx="62.2" cy="211.0" r="1.6" fill="#E3CA97" opacity="0.19" />
  <circle cx="38.2" cy="136.6" r="0.9" fill="#E3CA97" opacity="0.19" />
  <circle cx="94.0" cy="81.7" r="1.6" fill="#FFF3D4" opacity="0.16" />
  <circle cx="111.4" cy="64.7" r="1.2" fill="#F4E3B6" opacity="0.32" />
  <circle cx="121.2" cy="28.7" r="1.0" fill="#FFF3D4" opacity="0.37" />
  <circle cx="56.6" cy="135.3" r="0.4" fill="#FFF3D4" opacity="0.38" />
  <circle cx="198.6" cy="195.6" r="1.1" fill="#E3CA97" opacity="0.25" />
  <circle cx="85.8" cy="236.3" r="0.5" fill="#F4E3B6" opacity="0.23" />
  <circle cx="103.1" cy="222.2" r="1.7" fill="#F4E3B6" opacity="0.25" />
  <circle cx="190.8" cy="14.1" r="0.4" fill="#F4E3B6" opacity="0.19" />
  <circle cx="145.8" cy="107.5" r="0.4" fill="#FFF3D4" opacity="0.24" />
  <circle cx="240.9" cy="54.7" r="0.5" fill="#E3CA97" opacity="0.28" />
  <circle cx="131.0" cy="21.1" r="1.1" fill="#FFF3D4" opacity="0.27" />
  <circle cx="130.4" cy="58.6" r="1.5" fill="#E3CA97" opacity="0.34" />
  <ellipse cx="44.4" cy="8.7" rx="5.0" ry="4.3" fill="#BFA468" opacity="0.10" transform="rotate(81.0 44.4 8.7)" />
  <ellipse cx="97.1" cy="-2.1" rx="6.5" ry="4.3" fill="#BFA468" opacity="0.07" transform="rotate(113.2 97.1 -2.1)" />
  <ellipse cx="72.5" cy="43.2" rx="4.6" ry="3.0" fill="#BFA468" opacity="0.06" transform="rotate(113.1 72.5 43.2)" />
  <ellipse cx="271.1" cy="258.8" rx="5.7" ry="6.0" fill="#BFA468" opacity="0.05" transform="rotate(131.7 271.1 258.8)" />
  <ellipse cx="186.0" cy="35.4" rx="4.7" ry="5.6" fill="#CDB57E" opacity="0.05" transform="rotate(129.8 186.0 35.4)" />
  <ellipse cx="-3.0" cy="173.5" rx="7.2" ry="5.3" fill="#BFA468" opacity="0.09" transform="rotate(116.0 -3.0 173.5)" />
  <ellipse cx="261.7" cy="91.2" rx="6.0" ry="6.2" fill="#BFA468" opacity="0.05" transform="rotate(4.7 261.7 91.2)" />
  <ellipse cx="-16.4" cy="170.6" rx="6.5" ry="5.1" fill="#BFA468" opacity="0.06" transform="rotate(13.3 -16.4 170.6)" />
  <ellipse cx="32.1" cy="-13.3" rx="6.8" ry="6.6" fill="#BFA468" opacity="0.06" transform="rotate(112.4 32.1 -13.3)" />
  <ellipse cx="14.1" cy="144.9" rx="6.4" ry="7.2" fill="#CDB57E" opacity="0.07" transform="rotate(70.0 14.1 144.9)" />
</svg>