<?xml version="1.0" encoding="UTF-8"?>
<svg xmlns="http://www.w3.org/2000/svg" viewBox="0 0 256 256" shape-rendering="geometricPrecision">
  <defs>
    <linearGradient id="bg-sand-dry" x1="0%" y1="0%" x2="100%" y2="100%">
      <stop offset="0%" stop-color="#EDDDB1" />
      <stop offset="52%" stop-color="#CEB57E" />
      <stop offset="100%" stop-color="#F0E1BD" />
    </linearGradient>
  </defs>
  <rect width="256" height="256" fill="url(#bg-sand-dry)" />
  <line x1="-12.0" y1="51.8" x2="268.0" y2="52.4" stroke="#E6D5A8" stroke-width="0.88" opacity="0.26" stroke-linecap="round" />
  <line x1="-12.0" y1="88.6" x2="268.0" y2="82.2" stroke="#D7C08C" stroke-width="1.28" opacity="0.30" stroke-linecap="round" />
  <line x1="-12.0" y1="137.6" x2="268.0" y2="136.3" stroke="#D7C08C" stroke-width="1.48" opacity="0.17" stroke-linecap="round" />
  <line x1="-12.0" y1="242.3" x2="268.0" y2="248.5" stroke="#E6D5A8" stroke-width="1.10" opacity="0.25" stroke-linecap="round" />
  <line x1="-12.0" y1="108.7" x2="268.0" y2="109.7" stroke="#E6D5A8" stroke-width="1.69" opacity="0.26" stroke-linecap="round" />
  <line x1="-12.0" y1="79.7" x2="268.0" y2="86.3" stroke="#E6D5A8" stroke-width="0.83" opacity="0.15" stroke-linecap="round" />
  <line x1="-12.0" y1="87.8" x2="268.0" y2="91.2" stroke="#D7C08C" stroke-width="1.44" opacity="0.21" stroke-linecap="round" />
  <line x1="-12.0" y1="208.1" x2="268.0" y2="201.8" stroke="#E6D5A8" stroke-width="1.68" opacity="0.18" stroke-linecap="round" />
  <line x1="-12.0" y1="100.7" x2="268.0" y2="96.1" stroke="#E6D5A8" stroke-width="0.70" opacity="0.34" stroke-linecap="round" />
  <line x1="-12.0" y1="58.5" x2="268.0" y2="57.8" stroke="#D7C08C" stroke-width="0.89" opacity="0.34" stroke-linecap="round" />
  <line x1="-12.0" y1="239.9" x2="268.0" y2="245.3" stroke="#D7C08C" stroke-width="1.50" opacity="0.25" stroke-linecap="round" />
  <line x1="-12.0" y1="157.0" x2="268.0" y2="150.7" stroke="#D7C08C" stroke-width="1.62" opacity="0.22" stroke-linecap="round" />
  <line x1="-12.0" y1="55.6" x2="268.0" y2="50.9" stroke="#C6AE74" stroke-width="1.16" opacity="0.15" stroke-linecap="round" />
  <line x1="-12.0" y1="165.8" x2="268.0" y2="161.4" stroke="#E6D5A8" stroke-width="1.17" opacity="0.28" stroke-linecap="round" />
  <line x1="-12.0" y1="126.0" x2="268.0" y2="128.3" stroke="#E6D5A8" stroke-width="1.57" opacity="0.13" stroke-linecap="round" />
  <line x1="-12.0" y1="4.2" x2="268.0" y2="-2.9" stroke="#D7C08C" stroke-width="1.28" opacity="0.22" stroke-linecap="round" />
  <line x1="-12.0" y1="71.3" x2="268.0" y2="78.6" stroke="#D7C08C" stroke-width="1.77" opacity="0.26" stroke-linecap="round" />
  <line x1="-12.0" y1="73.8" x2="268.0" y2="72.7" stroke="#C6AE74" stroke-width="1.01" opacity="0.30" stroke-linecap="round" />
  <line x1="-12.0" y1="13.5" x2="268.0" y2="18.4" stroke="#E6D5A8" stroke-width="1.48" opacity="0.29" stroke-linecap="round" />
  <line x1="-12.0" y1="211.2" x2="268.0" y2="213.9" stroke="#C6AE74" stroke-width="1.13" opacity="0.29" stroke-linecap="round" />
  <line x1="-12.0" y1="255.0" x2="268.0" y2="261.0" stroke="#E6D5A8" stroke-width="1.76" opacity="0.23" stroke-linecap="round" />
  <line x1="-12.0" y1="227.9" x2="268.0" y2="229.5" stroke="#D7C08C" stroke-width="0.71" opacity="0.23" stroke-linecap="round" />
  <line x1="-12.0" y1="190.0" x2="268.0" y2="187.1" stroke="#D7C08C" stroke-width="1.76" opacity="0.32" stroke-linecap="round" />
  <line x1="-12.0" y1="230.0" x2="268.0" y2="234.7" stroke="#D7C08C" stroke-width="0.74" opacity="0.15" stroke-linecap="round" />
  <line x1="-12.0" y1="128.4" x2="268.0" y2="133.0" stroke="#C6AE74" stroke-width="0.90" opacity="0.13" stroke-linecap="round" />
  <line x1="-12.0" y1="103.6" x2="268.0" y2="110.7" stroke="#C6AE74" stroke-width="0.84" opacity="0.15" stroke-linecap="round" />
  <line x1="-12.0" y1="113.4" x2="268.0" y2="110.5" stroke="#E6D5A8" stroke-width="0.75" opacity="0.22" stroke-linecap="round" />
  <line x1="-12.0" y1="34.0" x2="268.0" y2="26.9" stroke="#E6D5A8" stroke-width="1.62" opacity="0.28" stroke-linecap="round" />
  <line x1="-12.0" y1="230.1" x2="268.0" y2="236.3" stroke="#C6AE74" stroke-width="1.17" opacity="0.30" stroke-linecap="round" />
  <line x1="-12.0" y1="257.1" x2="268.0" y2="261.4" stroke="#E6D5A8" stroke-width="0.73" opacity="0.15" stroke-linecap="round" />
  <line x1="-12.0" y1="62.5" x2="268.0" y2="56.9" stroke="#E6D5A8" stroke-width="1.11" opacity="0.21" stroke-linecap="round" />
  <line x1="-12.0" y1="246.8" x2="268.0" y2="251.8" stroke="#E6D5A8" stroke-width="1.26" opacity="0.21" stroke-linecap="round" />
  <line x1="-12.0" y1="233.0" x2="268.0" y2="240.3" stroke="#C6AE74" stroke-width="0.83" opacity="0.27" stroke-linecap="round" />
  <line x1="-12.0" y1="96.3" x2="268.0" y2="90.2" stroke="#E6D5A8" stroke-width="0.60" opacity="0.27" stroke-linecap="round" />
  <line x1="-12.0" y1="189.4" x2="268.0" y2="189.7" stroke="#E6D5A8" stroke-width="0.75" opacity="0.12" stroke-linecap="round" />
  <line x1="-12.0" y1="257.3" x2="268.0" y2="256.4" stroke="#C6AE74" stroke-width="1.63" opacity="0.13" stroke-linecap="round" />
  <line x1="-12.0" y1="79.7" x2="268.0" y2="85.5" stroke="#D7C08C" stroke-width="1.13" opacity="0.24" stroke-linecap="round" />
  <line x1="-12.0" y1="49.6" x2="268.0" y2="47.6" stroke="#D7C08C" stroke-width="0.77" opacity="0.34" stroke-linecap="round" />
  <line x1="-12.0" y1="243.6" x2="268.0" y2="251.1" stroke="#E6D5A8" stroke-width="0.92" opacity="0.15" stroke-linecap="round" />
  <line x1="-12.0" y1="36.2" x2="268.0" y2="34.8" stroke="#D7C08C" stroke-width="1.00" opacity="0.24" stroke-linecap="round" />
  <line x1="-12.0" y1="214.2" x2="268.0" y2="212.7" stroke="#E6D5A8" stroke-width="1.78" opacity="0.26" stroke-linecap="round" />
  <line x1="-12.0" y1="45.9" x2="268.0" y2="52.9" stroke="#D7C08C" stroke-width="1.65" opacity="0.15" stroke-linecap="round" />
  <line x1="-12.0" y1="19.3" x2="268.0" y2="23.0" stroke="#D7C08C" stroke-width="1.26" opacity="0.22" stroke-linecap="round" />
  <line x1="-12.0" y1="160.5" x2="268.0" y2="157.9" stroke="#D7C08C" stroke-width="1.17" opacity="0.23" stroke-linecap="round" />
  <line x1="-12.0" y1="34.1" x2="268.0" y2="36.5" stroke="#D7C08C" stroke-width="1.16" opacity="0.24" stroke-linecap="round" />
  <line x1="-12.0" y1="178.6" x2="268.0" y2="180.4" stroke="#E6D5A8" stroke-width="0.64" opacity="0.30" stroke-linecap="round" />
  <line x1="-12.0" y1="98.2" x2="268.0" y2="95.7" stroke="#E6D5A8" stroke-width="1.49" opacity="0.29" stroke-linecap="round" />
  <line x1="-12.0" y1="21.9" x2="268.0" y2="22.9" stroke="#D7C08C" stroke-width="1.13" opacity="0.26" stroke-linecap="round" />
  <line x1="-12.0" y1="78.4" x2="268.0" y2="77.1" stroke="#E6D5A8" stroke-width="1.75" opacity="0.19" stroke-linecap="round" />
  <line x1="-12.0" y1="47.1" x2="268.0" y2="52.0" stroke="#C6AE74" stroke-width="0.89" opacity="0.19" stroke-linecap="round" />
  <line x1="-12.0" y1="21.0" x2="268.0" y2="28.2" stroke="#E6D5A8" stroke-width="1.01" opacity="0.17" stroke-linecap="round" />
  <line x1="-12.0" y1="241.5" x2="268.0" y2="238.6" stroke="#D7C08C" stroke-width="1.35" opacity="0.20" stroke-linecap="round" />
  <line x1="-12.0" y1="86.8" x2="268.0" y2="89.4" stroke="#C6AE74" stroke-width="1.17" opacity="0.22" stroke-linecap="round" />
  <line x1="-12.0" y1="29.0" x2="268.0" y2="33.2" stroke="#C6AE74" stroke-width="1.09" opacity="0.17" stroke-linecap="round" />
  <line x1="-12.0" y1="140.7" x2="268.0" y2="145.4" stroke="#D7C08C" stroke-width="1.17" opacity="0.29" stroke-linecap="round" />
  <line x1="-12.0" y1="95.9" x2="268.0" y2="91.3" stroke="#C6AE74" stroke-width="1.59" opacity="0.22" stroke-linecap="round" />
  <line x1="-12.0" y1="26.4" x2="268.0" y2="34.2" stroke="#D7C08C" stroke-width="1.45" opacity="0.25" stroke-linecap="round" />
  <line x1="-12.0" y1="206.1" x2="268.0" y2="213.0" stroke="#D7C08C" stroke-width="0.85" opacity="0.18" stroke-linecap="round" />
  <line x1="-12.0" y1="238.0" x2="268.0" y2="242.2" stroke="#D7C08C" stroke-width="1.63" opacity="0.24" stroke-linecap="round" />
  <line x1="-12.0" y1="243.7" x2="268.0" y2="235.8" stroke="#C6AE74" stroke-width="1.50" opacity="0.21" stroke-linecap="round" />
  <line x1="-12.0" y1="13.9" x2="268.0" y2="11.2" stroke="#C6AE74" stroke-width="0.80" opacity="0.12" stroke-linecap="round" />
  <line x1="-12.0" y1="183.2" x2="268.0" y2="187.2" stroke="#E6D5A8" stroke-width="1.39" opacity="0.30" stroke-linecap="round" />
  <line x1="-12.0" y1="12.8" x2="268.0" y2="10.4" stroke="#E6D5A8" stroke-width="1.15" opacity="0.12" stroke-linecap="round" />
  <line x1="-12.0" y1="5.5" x2="268.0" y2="3.1" stroke="#D7C08C" stroke-width="0.78" opacity="0.27" stroke-linecap="round" />
  <line x1="-12.0" y1="196.5" x2="268.0" y2="197.5" stroke="#D7C08C" stroke-width="1.34" opacity="0.17" stroke-linecap="round" />
  <line x1="-12.0" y1="165.7" x2="268.0" y2="158.2" stroke="#D7C08C" stroke-width="0.90" opacity="0.32" stroke-linecap="round" />
  <line x1="-12.0" y1="234.3" x2="268.0" y2="228.4" stroke="#E6D5A8" stroke-width="0.91" opacity="0.22" stroke-linecap="round" />
  <line x1="-12.0" y1="226.4" x2="268.0" y2="219.7" stroke="#D7C08C" stroke-width="1.71" opacity="0.16" stroke-linecap="round" />
  <line x1="-12.0" y1="182.6" x2="268.0" y2="179.7" stroke="#D7C08C" stroke-width="0.88" opacity="0.32" stroke-linecap="round" />
  <line x1="-12.0" y1="39.7" x2="268.0" y2="43.9" stroke="#D7C08C" stroke-width="1.67" opacity="0.34" stroke-linecap="round" />
  <line x1="-12.0" y1="228.8" x2="268.0" y2="229.5" stroke="#C6AE74" stroke-width="1.75" opacity="0.26" stroke-linecap="round" />
  <line x1="-12.0" y1="195.2" x2="268.0" y2="188.3" stroke="#C6AE74" stroke-width="1.72" opacity="0.33" stroke-linecap="round" />
  <line x1="-12.0" y1="229.9" x2="268.0" y2="226.4" stroke="#D7C08C" stroke-width="1.62" opacity="0.24" stroke-linecap="round" />
  <line x1="-12.0" y1="47.8" x2="268.0" y2="52.7" stroke="#C6AE74" stroke-width="1.62" opacity="0.13" stroke-linecap="round" />
  <line x1="-12.0" y1="22.7" x2="268.0" y2="17.0" stroke="#C6AE74" stroke-width="1.25" opacity="0.20" stroke-linecap="round" />
  <line x1="-12.0" y1="91.6" x2="268.0" y2="96.4" stroke="#C6AE74" stroke-width="1.52" opacity="0.27" stroke-linecap="round" />
  <line x1="-12.0" y1="-1.0" x2="268.0" y2="-0.1" stroke="#C6AE74" stroke-width="1.07" opacity="0.21" stroke-linecap="round" />
  <line x1="-12.0" y1="209.2" x2="268.0" y2="207.2" stroke="#E6D5A8" stroke-width="1.07" opacity="0.28" stroke-linecap="round" />
  <line x1="-12.0" y1="70.9" x2="268.0" y2="75.5" stroke="#D7C08C" stroke-width="1.36" opacity="0.14" stroke-linecap="round" />
  <line x1="-12.0" y1="208.8" x2="268.0" y2="208.9" stroke="#E6D5A8" stroke-width="1.10" opacity="0.22" stroke-linecap="round" />
  <line x1="-12.0" y1="54.2" x2="268.0" y2="50.4" stroke="#D7C08C" stroke-width="1.41" opacity="0.26" stroke-linecap="round" />
  <line x1="-12.0" y1="73.6" x2="268.0" y2="78.8" stroke="#D7C08C" stroke-width="0.81" opacity="0.26" stroke-linecap="round" />
  <line x1="-12.0" y1="189.2" x2="268.0" y2="182.7" stroke="#D7C08C" stroke-width="1.19" opacity="0.26" stroke-linecap="round" />
  <line x1="-12.0" y1="54.9" x2="268.0" y2="53.5" stroke="#C6AE74" stroke-width="1.25" opacity="0.19" stroke-linecap="round" />
  <line x1="-12.0" y1="174.1" x2="268.0" y2="174.6" stroke="#D7C08C" stroke-width="1.74" opacity="0.25" stroke-linecap="round" />
  <line x1="-12.0" y1="96.8" x2="268.0" y2="94.9" stroke="#C6AE74" stroke-width="0.70" opacity="0.16" stroke-linecap="round" />
  <line x1="-12.0" y1="144.1" x2="268.0" y2="145.0" stroke="#D7C08C" stroke-width="0.98" opacity="0.19" stroke-linecap="round" />
  <line x1="-12.0" y1="-2.8" x2="268.0" y2="0.6" stroke="#E6D5A8" stroke-width="1.51" opacity="0.12" stroke-linecap="round" />
  <ellipse cx="240.5" cy="26.0" rx="24.9" ry="32.6" fill="#E8D7A8" opacity="0.09" transform="rotate(97.5 240.5 26.0)" />
  <ellipse cx="247.0" cy="2.7" rx="18.7" ry="15.1" fill="#E8D7A8" opacity="0.05" transform="rotate(80.4 247.0 2.7)" />
  <ellipse cx="142.3" cy="60.7" rx="12.0" ry="11.8" fill="#BFA46B" opacity="0.11" transform="rotate(89.9 142.3 60.7)" />
  <ellipse cx="234.9" cy="197.9" rx="8.2" ry="6.0" fill="#BFA46B" opacity="0.10" transform="rotate(133.7 234.9 197.9)" />
  <ellipse cx="172.4" cy="151.5" rx="12.0" ry="8.5" fill="#D9C38D" opacity="0.07" transform="rotate(136.0 172.4 151.5)" />
  <ellipse cx="175.5" cy="-16.9" rx="18.7" ry="13.2" fill="#E8D7A8" opacity="0.06" transform="rotate(16.8 175.5 -16.9)" />
  <ellipse cx="82.1" cy="173.5" rx="11.7" ry="7.7" fill="#BFA46B" opacity="0.06" transform="rotate(128.6 82.1 173.5)" />
  <ellipse cx="140.8" cy="-15.7" rx="16.6" ry="9.4" fill="#BFA46B" opacity="0.07" transform="rotate(68.6 140.8 -15.7)" />
  <ellipse cx="178.1" cy="109.3" rx="18.1" ry="17.0" fill="#D9C38D" opacity="0.12" transform="rotate(135.9 178.1 109.3)" />
  <ellipse cx="108.1" cy="117.7" rx="22.3" ry="26.3" fill="#E8D7A8" opacity="0.07" transform="rotate(24.6 108.1 117.7)" />
  <ellipse cx="180.0" cy="204.4" rx="21.6" ry="17.1" fill="#D9C38D" opacity="0.12" transform="rotate(167.9 180.0 204.4)" />
  <ellipse cx="103.2" cy="226.2" rx="22.6" ry="28.4" fill="#D9C38D" opacity="0.06" transform="rotate(126.8 103.2 226.2)" />
  <ellipse cx="-1.0" cy="270.4" rx="13.8" ry="14.7" fill="#BFA46B" opacity="0.07" transform="rotate(108.5 -1.0 270.4)" />
  <ellipse cx="238.5" cy="-10.1" rx="14.4" ry="17.9" fill="#D9C38D" opacity="0.05" transform="rotate(45.7 238.5 -10.1)" />
  <ellipse cx="153.0" cy="157.9" rx="19.0" ry="17.8" fill="#BFA46B" opacity="0.05" transform="rotate(65.3 153.0 157.9)" />
  <ellipse cx="175.2" cy="1.5" rx="16.2" ry="15.1" fill="#D9C38D" opacity="0.11" transform="rotate(162.5 175.2 1.5)" />
  <ellipse cx="172.2" cy="157.6" rx="20.9" ry="15.8" fill="#BFA46B" opacity="0.05" transform="rotate(92.2 172.2 157.6)" />
  <ellipse cx="62.3" cy="37.9" rx="11.8" ry="12.4" fill="#E8D7A8" opacity="0.11" transform="rotate(115.6 62.3 37.9)" />
  <ellipse cx="43.4" cy="160.5" rx="14.8" ry="17.4" fill="#E8D7A8" opacity="0.07" transform="rotate(167.9 43.4 160.5)" />
  <ellipse cx="218.4" cy="227.3" rx="10.4" ry="11.8" fill="#D9C38D" opacity="0.06" transform="rotate(90.0 218.4 227.3)" />
  <ellipse cx="166.5" cy="266.2" rx="18.7" ry="22.8" fill="#E8D7A8" opacity="0.11" transform="rotate(84.7 166.5 266.2)" />
  <ellipse cx="97.8" cy="120.6" rx="14.8" ry="14.7" fill="#BFA46B" opacity="0.12" transform="rotate(13.7 97.8 120.6)" />
  <ellipse cx="168.3" cy="235.3" rx="13.2" ry="12.1" fill="#BFA46B" opacity="0.06" transform="rotate(16.8 168.3 235.3)" />
  <ellipse cx="256.7" cy="131.9" rx="12.0" ry="10.6" fill="#D9C38D" opacity="0.05" transform="rotate(153.3 256.7 131.9)" />
  <ellipse cx="108.7" cy="3.1" rx="16.9" ry="13.3" fill="#D9C38D" opacity="0.06" transform="rotate(26.8 108.7 3.1)" />
  <ellipse cx="229.7" cy="34.5" rx="9.6" ry="5.7" fill="#BFA46B" opacity="0.05" transform="rotate(110.1 229.7 34.5)" />
  <ellipse cx="84.2" cy="3.7" rx="17.7" ry="14.0" fill="#E8D7A8" opacity="0.11" transform="rotate(92.9 84.2 3.7)" />
  <ellipse cx="-14.6" cy="176.6" rx="18.8" ry="19.2" fill="#BFA46B" opacity="0.11" transform="rotate(176.4 -14.6 176.6)" />
  <circle cx="62.9" cy="113.3" r="1.5" fill="#FFF3D4" opacity="0.15" />
  <circle cx="177.7" cy="16.1" r="0.4" fill="#F4E3B6" opacity="0.13" />
  <circle cx="7.7" cy="190.6" r="1.6" fill="#FFF3D4" opacity="0.25" />
  <circle cx="18.9" cy="207.8" r="1.5" fill="#FFF3D4" opacity="0.13" />
  <circle cx="53.0" cy="130.0" r="0.5" fill="#F4E3B6" opacity="0.33" />
  <circle cx="205.6" cy="21.4" r="1.7" fill="#E3CA97" opacity="0.19" />
  <circle cx="118.9" cy="15.1" r="1.7" fill="#E3CA97" opacity="0.38" />
  <circle cx="233.3" cy="8.8" r="1.1" fill="#FFF3D4" opacity="0.35" />
  <circle cx="91.9" cy="197.8" r="1.2" fill="#E3CA97" opacity="0.32" />
  <circle cx="49.7" cy="218.5" r="1.0" fill="#E3CA97" opacity="0.23" />
  <circle cx="197.3" cy="24.0" r="0.6" fill="#FFF3D4" opacity="0.30" />
  <circle cx="49.6" cy="169.2" r="1.8" fill="#F4E3B6" opacity="0.36" />
  <circle cx="138.9" cy="222.4" r="1.3" fill="#FFF3D4" opacity="0.28" />
  <circle cx="57.5" cy="77.4" r="1.7" fill="#FFF3D4" opacity="0.34" />
  <circle cx="237.4" cy="66.9" r="0.5" fill="#FFF3D4" opacity="0.27" />
  <circle cx="254.2" cy="106.4" r="0.9" fill="#F4E3B6" opacity="0.28" />
  <circle cx="46.8" cy="222.1" r="1.5" fill="#F4E3B6" opacity="0.20" />
  <circle cx="229.0" cy="156.8" r="1.3" fill="#E3CA97" opacity="0.19" />
  <circle cx="137.5" cy="174.1" r="0.8" fill="#E3CA97" opacity="0.28" />
  <circle cx="58.7" cy="42.0" r="1.3" fill="#E3CA97" opacity="0.28" />
  <circle cx="142.7" cy="3.2" r="1.2" fill="#E3CA97" opacity="0.16" />
  <circle cx="230.0" cy="176.2" r="1.3" fill="#E3CA97" opacity="0.37" />
  <circle cx="81.1" cy="215.9" r="1.7" fill="#F4E3B6" opacity="0.26" />
  <circle cx="142.2" cy="129.2" r="0.8" fill="#F4E3B6" opacity="0.19" />
  <circle cx="253.6" cy="141.8" r="1.2" fill="#FFF3D4" opacity="0.31" />
  <circle cx="14.4" cy="84.1" r="0.7" fill="#F4E3B6" opacity="0.13" />
  <circle cx="246.7" cy="112.8" r="1.3" fill="#F4E3B6" opacity="0.12" />
  <circle cx="112.5" cy="200.7" r="0.8" fill="#E3CA97" opacity="0.26" />
  <circle cx="227.2" cy="55.6" r="1.7" fill="#E3CA97" opacity="0.14" />
  <circle cx="186.2" cy="247.5" r="0.7" fill="#F4E3B6" opacity="0.22" />
  <circle cx="174.9" cy="220.6" r="0.6" fill="#E3CA97" opacity="0.36" />
  <circle cx="185.5" cy="22.3" r="0.7" fill="#E3CA97" opacity="0.17" />
  <circle cx="16.8" cy="251.7" r="0.5" fill="#E3CA97" opacity="0.18" />
  <circle cx="85.3" cy="195.7" r="1.6" fill="#F4E3B6" opacity="0.15" />
  <circle cx="65.3" cy="161.6" r="0.5" fill="#E3CA97" opacity="0.27" />
  <circle cx="241.4" cy="114.1" r="1.0" fill="#FFF3D4" opacity="0.17" />
  <circle cx="237.5" cy="54.1" r="1.5" fill="#F4E3B6" opacity="0.26" />
  <circle cx="129.4" cy="231.2" r="0.8" fill="#F4E3B6" opacity="0.20" />
  <circle cx="138.8" cy="166.5" r="1.8" fill="#F4E3B6" opacity="0.36" />
  <circle cx="225.0" cy="79.7" r="1.7" fill="#F4E3B6" opacity="0.16" />
  <circle cx="232.4" cy="7.5" r="1.0" fill="#E3CA97" opacity="0.15" />
  <circle cx="104.7" cy="115.0" r="1.8" fill="#E3CA97" opacity="0.25" />
  <circle cx="44.5" cy="20.9" r="1.6" fill="#FFF3D4" opacity="0.24" />
  <circle cx="103.8" cy="17.3" r="1.7" fill="#FFF3D4" opacity="0.16" />
  <circle cx="102.9" cy="228.9" r="0.6" fill="#F4E3B6" opacity="0.29" />
  <circle cx="220.0" cy="155.4" r="1.5" fill="#FFF3D4" opacity="0.26" />
  <circle cx="63.8" cy="239.7" r="0.7" fill="#E3CA97" opacity="0.37" />
  <circle cx="187.9" cy="193.4" r="0.5" fill="#FFF3D4" opacity="0.28" />
  <circle cx="155.1" cy="131.0" r="0.9" fill="#E3CA97" opacity="0.13" />
  <circle cx="60.6" cy="29.0" r="0.4" fill="#F4E3B6" opacity="0.36" />
  <circle cx="45.4" cy="211.0" r="1.5" fill="#F4E3B6" opacity="0.31" />
  <circle cx="234.9" cy="38.9" r="1.8" fill="#F4E3B6" opacity="0.27" />
  <circle cx="223.5" cy="75.9" r="1.8" fill="#E3CA97" opacity="0.26" />
  <circle cx="34.9" cy="30.8" r="0.7" fill="#FFF3D4" opacity="0.21" />
  <circle cx="87.1" cy="198.6" r="0.9" fill="#E3CA97" opacity="0.33" />
  <circle cx="44.0" cy="100.8" r="0.9" fill="#F4E3B6" opacity="0.17" />
  <circle cx="15.4" cy="129.6" r="1.0" fill="#F4E3B6" opacity="0.35" />
  <circle cx="67.3" cy="29.4" r="0.5" fill="#E3CA97" opacity="0.25" />
  <circle cx="123.7" cy="175.0" r="1.3" fill="#F4E3B6" opacity="0.28" />
  <circle cx="133.4" cy="144.6" r="0.8" fill="#E3CA97" opacity="0.12" />
  <circle cx="165.9" cy="230.2" r="1.6" fill="#F4E3B6" opacity="0.30" />
  <circle cx="255.2" cy="224.2" r="1.3" fill="#E3CA97" opacity="0.34" />
  <circle cx="167.0" cy="202.7" r="0.7" fill="#FFF3D4" opacity="0.26" />
  <circle cx="219.0" cy="167.3" r="1.7" fill="#F4E3B6" opacity="0.15" />
  <circle cx="81.6" cy="42.9" r="0.5" fill="#F4E3B6" opacity="0.31" />
  <circle cx="193.6" cy="234.7" r="0.5" fill="#F4E3B6" opacity="0.17" />
  <circle cx="156.9" cy="224.1" r="0.9" fill="#E3CA97" opacity="0.20" />
  <circle cx="231.3" cy="25.2" r="1.5" fill="#F4E3B6" opacity="0.17" />
  <circle cx="244.4" cy="1.9" r="0.6" fill="#F4E3B6" opacity="0.13" />
  <circle cx="51.4" cy="23.2" r="1.7" fill="#FFF3D4" opacity="0.15" />
  <circle cx="251.4" cy="111.7" r="1.6" fill="#F4E3B6" opacity="0.16" />
  <circle cx="215.3" cy="240.1" r="0.5" fill="#E3CA97" opacity="0.33" />
  <circle cx="65.9" cy="160.7" r="1.4" fill="#F4E3B6" opacity="0.22" />
  <circle cx="148.4" cy="145.3" r="1.3" fill="#FFF3D4" opacity="0.21" />
  <circle cx="51.0" cy="244.0" r="0.9" fill="#FFF3D4" opacity="0.17" />
  <circle cx="90.0" cy="61.4" r="0.8" fill="#FFF3D4" opacity="0.16" />
  <circle cx="115.4" cy="184.4" r="1.0" fill="#FFF3D4" opacity="0.36" />
  <circle cx="118.4" cy="204.0" r="1.7" fill="#FFF3D4" opacity="0.14" />
  <circle cx="215.9" cy="177.6" r="1.1" fill="#E3CA97" opacity="0.17" />
  <circle cx="59.4" cy="20.1" r="0.8" fill="#F4E3B6" opacity="0.32" />
  <circle cx="87.7" cy="9.3" r="0.6" fill="#FFF3D4" opacity="0.17" />
  <circle cx="153.6" cy="92.1" r="0.8" fill="#E3CA97" opacity="0.23" />
  <ellipse cx="139.9" cy="176.8" rx="5.4" ry="5.1" fill="#CDB57E" opacity="0.06" transform="rotate(88.3 139.9 176.8)" />
  <ellipse cx="47.2" cy="167.8" rx="8.0" ry="7.1" fill="#CDB57E" opacity="0.09" transform="rotate(120.0 47.2 167.8)" />
  <ellipse cx="265.5" cy="146.7" rx="5.7" ry="7.0" fill="#BFA468" opacity="0.05" transform="rotate(40.4 265.5 146.7)" />
  <ellipse cx="75.6" cy="101.9" rx="6.7" ry="8.4" fill="#CDB57E" opacity="0.07" transform="rotate(149.5 75.6 101.9)" />
  <ellipse cx="271.5" cy="60.4" rx="5.9" ry="3.6" fill="#BFA468" opacity="0.07" transform="rotate(13.5 271.5 60.4)" />
  <ellipse cx="22.2" cy="236.1" rx="5.6" ry="6.9" fill="#CDB57E" opacity="0.10" transform="rotate(61.5 22.2 236.1)" />
  <ellipse cx="183.1" cy="212.3" rx="5.5" ry="7.0" fill="#CDB57E" opacity="0.08" transform="rotate(110.0 183.1 212.3)" />
  <ellipse cx="124.9" cy="-3.2" rx="6.4" ry="4.3" fill="#BFA468" opacity="0.08" transform="rotate(150.8 124.9 -3.2)" />
  <ellipse cx="161.1" cy="157.1" rx="6.9" ry="7.0" fill="#BFA468" opacity="0.08" transform="rotate(21.3 161.1 157.1)" />
  <ellipse cx="234.3" cy="125.2" rx="6.4" ry="4.1" fill="#CDB57E" opacity="0.09" transform="rotate(116.5 234.3 125.2)" />
</svg>