<?xml version="1.0" encoding="UTF-8"?>
<svg xmlns="http://www.w3.org/2000/svg" viewBox="0 0 256 256" shape-rendering="geometricPrecision">
  <defs>
    <linearGradient id="bg-snow-frost" x1="0%" y1="0%" x2="100%" y2="100%">
      <stop offset="0%" stop-color="#F5FAFF" />
      <stop offset="52%" stop-color="#E1EDF9" />
      <stop offset="100%" stop-color="#F8FCFF" />
    </linearGradient>
  </defs>
  <rect width="256" height="256" fill="url(#bg-snow-frost)" />
  <line x1="-12.0" y1="127.0" x2="268.0" y2="133.9" stroke="#E1EEF9" stroke-width="0.78" opacity="0.30" stroke-linecap="round" />
  <line x1="-12.0" y1="31.3" x2="268.0" y2="36.1" stroke="#D0E0F4" stroke-width="0.66" opacity="0.24" stroke-linecap="round" />
  <line x1="-12.0" y1="116.6" x2="268.0" y2="115.5" stroke="#D0E0F4" stroke-width="1.22" opacity="0.24" stroke-linecap="round" />
  <line x1="-12.0" y1="73.8" x2="268.0" y2="68.2" stroke="#F8FBFF" stroke-width="0.63" opacity="0.25" stroke-linecap="round" />
  <line x1="-12.0" y1="245.4" x2="268.0" y2="241.1" stroke="#D0E0F4" stroke-width="1.05" opacity="0.26" stroke-linecap="round" />
  <line x1="-12.0" y1="243.1" x2="268.0" y2="247.0" stroke="#D0E0F4" stroke-width="1.39" opacity="0.29" stroke-linecap="round" />
  <line x1="-12.0" y1="24.3" x2="268.0" y2="24.2" stroke="#D0E0F4" stroke-width="0.92" opacity="0.20" stroke-linecap="round" />
  <line x1="-12.0" y1="213.8" x2="268.0" y2="215.2" stroke="#D0E0F4" stroke-width="1.07" opacity="0.28" stroke-linecap="round" />
  <line x1="-12.0" y1="258.0" x2="268.0" y2="253.9" stroke="#D0E0F4" stroke-width="0.85" opacity="0.26" stroke-linecap="round" />
  <line x1="-12.0" y1="83.2" x2="268.0" y2="86.2" stroke="#E1EEF9" stroke-width="0.72" opacity="0.27" stroke-linecap="round" />
  <line x1="-12.0" y1="249.3" x2="268.0" y2="246.3" stroke="#E1EEF9" stroke-width="0.79" opacity="0.27" stroke-linecap="round" />
  <line x1="-12.0" y1="212.5" x2="268.0" y2="210.4" stroke="#F8FBFF" stroke-width="1.33" opacity="0.18" stroke-linecap="round" />
  <line x1="-12.0" y1="214.3" x2="268.0" y2="217.6" stroke="#D0E0F4" stroke-width="0.65" opacity="0.29" stroke-linecap="round" />
  <line x1="-12.0" y1="35.4" x2="268.0" y2="38.9" stroke="#E1EEF9" stroke-width="1.36" opacity="0.14" stroke-linecap="round" />
  <line x1="-12.0" y1="14.3" x2="268.0" y2="10.8" stroke="#F8FBFF" stroke-width="0.85" opacity="0.22" stroke-linecap="round" />
  <line x1="-12.0" y1="201.7" x2="268.0" y2="195.9" stroke="#D0E0F4" stroke-width="1.38" opacity="0.29" stroke-linecap="round" />
  <line x1="-12.0" y1="217.5" x2="268.0" y2="221.8" stroke="#F8FBFF" stroke-width="0.85" opacity="0.26" stroke-linecap="round" />
  <line x1="-12.0" y1="244.3" x2="268.0" y2="242.6" stroke="#D0E0F4" stroke-width="0.65" opacity="0.21" stroke-linecap="round" />
  <line x1="-12.0" y1="180.7" x2="268.0" y2="177.3" stroke="#D0E0F4" stroke-width="1.05" opacity="0.13" stroke-linecap="round" />
  <line x1="-12.0" y1="88.4" x2="268.0" y2="85.0" stroke="#D0E0F4" stroke-width="0.56" opacity="0.28" stroke-linecap="round" />
  <line x1="-12.0" y1="232.4" x2="268.0" y2="237.2" stroke="#E1EEF9" stroke-width="1.19" opacity="0.27" stroke-linecap="round" />
  <line x1="-12.0" y1="146.7" x2="268.0" y2="149.9" stroke="#E1EEF9" stroke-width="1.12" opacity="0.13" stroke-linecap="round" />
  <line x1="-12.0" y1="162.2" x2="268.0" y2="164.7" stroke="#E1EEF9" stroke-width="1.04" opacity="0.16" stroke-linecap="round" />
  <line x1="-12.0" y1="78.7" x2="268.0" y2="74.7" stroke="#E1EEF9" stroke-width="0.68" opacity="0.28" stroke-linecap="round" />
  <line x1="-12.0" y1="148.4" x2="268.0" y2="148.6" stroke="#D0E0F4" stroke-width="1.08" opacity="0.29" stroke-linecap="round" />
  <line x1="-12.0" y1="101.1" x2="268.0" y2="107.1" stroke="#D0E0F4" stroke-width="0.92" opacity="0.29" stroke-linecap="round" />
  <line x1="-12.0" y1="70.0" x2="268.0" y2="68.5" stroke="#F8FBFF" stroke-width="0.70" opacity="0.13" stroke-linecap="round" />
  <line x1="-12.0" y1="169.9" x2="268.0" y2="175.5" stroke="#F8FBFF" stroke-width="1.10" opacity="0.18" stroke-linecap="round" />
  <line x1="-12.0" y1="176.9" x2="268.0" y2="174.0" stroke="#D0E0F4" stroke-width="0.89" opacity="0.29" stroke-linecap="round" />
  <line x1="-12.0" y1="230.9" x2="268.0" y2="229.6" stroke="#F8FBFF" stroke-width="0.96" opacity="0.28" stroke-linecap="round" />
  <line x1="-12.0" y1="240.6" x2="268.0" y2="240.5" stroke="#D0E0F4" stroke-width="0.55" opacity="0.23" stroke-linecap="round" />
  <line x1="-12.0" y1="146.5" x2="268.0" y2="147.5" stroke="#F8FBFF" stroke-width="0.80" opacity="0.29" stroke-linecap="round" />
  <line x1="-12.0" y1="20.4" x2="268.0" y2="21.2" stroke="#F8FBFF" stroke-width="1.04" opacity="0.15" stroke-linecap="round" />
  <line x1="-12.0" y1="132.6" x2="268.0" y2="133.9" stroke="#E1EEF9" stroke-width="0.77" opacity="0.16" stroke-linecap="round" />
  <line x1="-12.0" y1="171.6" x2="268.0" y2="178.1" stroke="#E1EEF9" stroke-width="0.56" opacity="0.29" stroke-linecap="round" />
  <line x1="-12.0" y1="246.1" x2="268.0" y2="251.8" stroke="#E1EEF9" stroke-width="1.33" opacity="0.14" stroke-linecap="round" />
  <line x1="-12.0" y1="7.6" x2="268.0" y2="3.3" stroke="#F8FBFF" stroke-width="1.35" opacity="0.19" stroke-linecap="round" />
  <line x1="-12.0" y1="167.2" x2="268.0" y2="166.9" stroke="#F8FBFF" stroke-width="1.18" opacity="0.24" stroke-linecap="round" />
  <line x1="-12.0" y1="167.5" x2="268.0" y2="173.6" stroke="#F8FBFF" stroke-width="0.83" opacity="0.13" stroke-linecap="round" />
  <line x1="-12.0" y1="133.9" x2="268.0" y2="136.3" stroke="#E1EEF9" stroke-width="1.28" opacity="0.22" stroke-linecap="round" />
  <line x1="-12.0" y1="90.7" x2="268.0" y2="87.9" stroke="#E1EEF9" stroke-width="0.72" opacity="0.17" stroke-linecap="round" />
  <line x1="-12.0" y1="138.2" x2="268.0" y2="133.5" stroke="#E1EEF9" stroke-width="0.62" opacity="0.23" stroke-linecap="round" />
  <line x1="-12.0" y1="144.7" x2="268.0" y2="147.1" stroke="#E1EEF9" stroke-width="1.13" opacity="0.19" stroke-linecap="round" />
  <line x1="-12.0" y1="124.1" x2="268.0" y2="129.9" stroke="#F8FBFF" stroke-width="0.91" opacity="0.17" stroke-linecap="round" />
  <line x1="-12.0" y1="65.0" x2="268.0" y2="65.3" stroke="#D0E0F4" stroke-width="0.90" opacity="0.25" stroke-linecap="round" />
  <line x1="-12.0" y1="195.3" x2="268.0" y2="195.4" stroke="#F8FBFF" stroke-width="0.80" opacity="0.18" stroke-linecap="round" />
  <line x1="-12.0" y1="187.8" x2="268.0" y2="186.6" stroke="#F8FBFF" stroke-width="1.36" opacity="0.25" stroke-linecap="round" />
  <line x1="-12.0" y1="124.3" x2="268.0" y2="125.5" stroke="#D0E0F4" stroke-width="0.80" opacity="0.22" stroke-linecap="round" />
  <line x1="-12.0" y1="-7.9" x2="268.0" y2="-12.4" stroke="#D0E0F4" stroke-width="1.39" opacity="0.26" stroke-linecap="round" />
  <line x1="-12.0" y1="59.4" x2="268.0" y2="60.7" stroke="#F8FBFF" stroke-width="0.62" opacity="0.13" stroke-linecap="round" />
  <line x1="-12.0" y1="250.6" x2="268.0" y2="246.6" stroke="#D0E0F4" stroke-width="1.18" opacity="0.13" stroke-linecap="round" />
  <line x1="-12.0" y1="114.3" x2="268.0" y2="119.2" stroke="#E1EEF9" stroke-width="0.95" opacity="0.16" stroke-linecap="round" />
  <line x1="-12.0" y1="38.5" x2="268.0" y2="33.6" stroke="#D0E0F4" stroke-width="1.05" opacity="0.20" stroke-linecap="round" />
  <line x1="-12.0" y1="160.1" x2="268.0" y2="162.0" stroke="#E1EEF9" stroke-width="0.74" opacity="0.24" stroke-linecap="round" />
  <line x1="-12.0" y1="110.9" x2="268.0" y2="110.5" stroke="#E1EEF9" stroke-width="0.76" opacity="0.16" stroke-linecap="round" />
  <line x1="-12.0" y1="212.1" x2="268.0" y2="210.7" stroke="#D0E0F4" stroke-width="0.92" opacity="0.23" stroke-linecap="round" />
  <line x1="-12.0" y1="151.2" x2="268.0" y2="147.2" stroke="#E1EEF9" stroke-width="1.32" opacity="0.15" stroke-linecap="round" />
  <line x1="-12.0" y1="205.6" x2="268.0" y2="206.7" stroke="#E1EEF9" stroke-width="1.18" opacity="0.27" stroke-linecap="round" />
  <line x1="-12.0" y1="15.4" x2="268.0" y2="14.9" stroke="#D0E0F4" stroke-width="1.16" opacity="0.16" stroke-linecap="round" />
  <line x1="-12.0" y1="135.1" x2="268.0" y2="136.3" stroke="#E1EEF9" stroke-width="0.86" opacity="0.29" stroke-linecap="round" />
  <line x1="-12.0" y1="224.6" x2="268.0" y2="231.2" stroke="#D0E0F4" stroke-width="0.71" opacity="0.17" stroke-linecap="round" />
  <line x1="-12.0" y1="76.9" x2="268.0" y2="71.2" stroke="#F8FBFF" stroke-width="1.21" opacity="0.26" stroke-linecap="round" />
  <line x1="-12.0" y1="213.9" x2="268.0" y2="217.0" stroke="#E1EEF9" stroke-width="0.62" opacity="0.22" stroke-linecap="round" />
  <line x1="-12.0" y1="98.2" x2="268.0" y2="97.0" stroke="#D0E0F4" stroke-width="0.69" opacity="0.17" stroke-linecap="round" />
  <line x1="-12.0" y1="247.9" x2="268.0" y2="249.4" stroke="#E1EEF9" stroke-width="1.40" opacity="0.15" stroke-linecap="round" />
  <line x1="-12.0" y1="8.2" x2="268.0" y2="13.6" stroke="#E1EEF9" stroke-width="0.59" opacity="0.14" stroke-linecap="round" />
  <line x1="-12.0" y1="263.7" x2="268.0" y2="268.1" stroke="#E1EEF9" stroke-width="1.15" opacity="0.24" stroke-linecap="round" />
  <line x1="-12.0" y1="118.4" x2="268.0" y2="116.6" stroke="#F8FBFF" stroke-width="1.00" opacity="0.24" stroke-linecap="round" />
  <line x1="-12.0" y1="160.9" x2="268.0" y2="157.6" stroke="#D0E0F4" stroke-width="0.57" opacity="0.20" stroke-linecap="round" />
  <line x1="-12.0" y1="152.8" x2="268.0" y2="155.8" stroke="#D0E0F4" stroke-width="0.62" opacity="0.19" stroke-linecap="round" />
  <line x1="-12.0" y1="118.5" x2="268.0" y2="119.0" stroke="#F8FBFF" stroke-width="1.04" opacity="0.25" stroke-linecap="round" />
  <line x1="-12.0" y1="246.6" x2="268.0" y2="252.7" stroke="#E1EEF9" stroke-width="0.82" opacity="0.15" stroke-linecap="round" />
  <ellipse cx="-18.2" cy="229.8" rx="11.8" ry="15.3" fill="#F4FAFF" opacity="0.08" transform="rotate(81.8 -18.2 229.8)" />
  <ellipse cx="162.6" cy="174.0" rx="21.8" ry="26.1" fill="#F4FAFF" opacity="0.08" transform="rotate(53.7 162.6 174.0)" />
  <ellipse cx="208.2" cy="166.4" rx="21.0" ry="26.8" fill="#F4FAFF" opacity="0.04" transform="rotate(35.8 208.2 166.4)" />
  <ellipse cx="4.2" cy="245.6" rx="21.9" ry="29.2" fill="#F4FAFF" opacity="0.05" transform="rotate(161.9 4.2 245.6)" />
  <ellipse cx="217.0" cy="50.2" rx="8.6" ry="9.2" fill="#D9E8F7" opacity="0.08" transform="rotate(129.6 217.0 50.2)" />
  <ellipse cx="51.1" cy="23.9" rx="22.4" ry="14.7" fill="#D9E8F7" opacity="0.08" transform="rotate(117.0 51.1 23.9)" />
  <ellipse cx="267.7" cy="248.2" rx="18.7" ry="19.5" fill="#F4FAFF" opacity="0.04" transform="rotate(51.6 267.7 248.2)" />
  <ellipse cx="13.0" cy="133.3" rx="19.3" ry="23.5" fill="#E6EFF9" opacity="0.08" transform="rotate(131.8 13.0 133.3)" />
  <ellipse cx="99.9" cy="18.2" rx="23.0" ry="27.3" fill="#D9E8F7" opacity="0.09" transform="rotate(32.4 99.9 18.2)" />
  <ellipse cx="18.0" cy="50.9" rx="21.0" ry="12.5" fill="#D9E8F7" opacity="0.09" transform="rotate(27.1 18.0 50.9)" />
  <ellipse cx="196.8" cy="90.2" rx="10.6" ry="10.7" fill="#D9E8F7" opacity="0.06" transform="rotate(141.7 196.8 90.2)" />
  <ellipse cx="108.4" cy="54.8" rx="23.8" ry="29.5" fill="#D9E8F7" opacity="0.06" transform="rotate(0.7 108.4 54.8)" />
  <ellipse cx="165.0" cy="170.7" rx="13.0" ry="10.8" fill="#E6EFF9" opacity="0.07" transform="rotate(149.1 165.0 170.7)" />
  <ellipse cx="182.9" cy="-7.7" rx="21.7" ry="17.0" fill="#E6EFF9" opacity="0.06" transform="rotate(125.9 182.9 -7.7)" />
  <ellipse cx="170.5" cy="81.0" rx="20.1" ry="20.4" fill="#D9E8F7" opacity="0.08" transform="rotate(77.6 170.5 81.0)" />
  <ellipse cx="115.7" cy="18.6" rx="23.8" ry="24.7" fill="#E6EFF9" opacity="0.04" transform="rotate(44.8 115.7 18.6)" />
  <ellipse cx="147.0" cy="227.7" rx="13.3" ry="8.0" fill="#E6EFF9" opacity="0.08" transform="rotate(43.3 147.0 227.7)" />
  <ellipse cx="94.2" cy="95.9" rx="16.4" ry="20.3" fill="#F4FAFF" opacity="0.04" transform="rotate(129.5 94.2 95.9)" />
  <ellipse cx="220.6" cy="134.3" rx="14.1" ry="12.0" fill="#D9E8F7" opacity="0.04" transform="rotate(169.5 220.6 134.3)" />
  <ellipse cx="166.1" cy="20.9" rx="10.2" ry="6.3" fill="#F4FAFF" opacity="0.08" transform="rotate(130.8 166.1 20.9)" />
  <ellipse cx="-0.3" cy="68.0" rx="8.6" ry="10.5" fill="#D9E8F7" opacity="0.08" transform="rotate(19.8 -0.3 68.0)" />
  <ellipse cx="139.2" cy="100.8" rx="14.7" ry="10.2" fill="#F4FAFF" opacity="0.07" transform="rotate(147.2 139.2 100.8)" />
  <ellipse cx="189.4" cy="211.2" rx="11.9" ry="15.7" fill="#E6EFF9" opacity="0.04" transform="rotate(130.9 189.4 211.2)" />
  <ellipse cx="15.0" cy="184.0" rx="15.3" ry="12.6" fill="#D9E8F7" opacity="0.09" transform="rotate(7.8 15.0 184.0)" />
  <ellipse cx="145.7" cy="95.2" rx="16.5" ry="12.7" fill="#E6EFF9" opacity="0.04" transform="rotate(77.3 145.7 95.2)" />
  <ellipse cx="265.7" cy="253.7" rx="21.4" ry="13.7" fill="#E6EFF9" opacity="0.06" transform="rotate(23.4 265.7 253.7)" />
  <ellipse cx="150.8" cy="127.0" rx="12.8" ry="13.7" fill="#E6EFF9" opacity="0.10" transform="rotate(175.4 150.8 127.0)" />
  <ellipse cx="100.0" cy="230.9" rx="20.7" ry="16.4" fill="#F4FAFF" opacity="0.06" transform="rotate(99.1 100.0 230.9)" />
  <ellipse cx="158.4" cy="192.7" rx="17.1" ry="17.8" fill="#D9E8F7" opacity="0.10" transform="rotate(137.1 158.4 192.7)" />
  <ellipse cx="230.7" cy="74.2" rx="12.6" ry="9.1" fill="#E6EFF9" opacity="0.06" transform="rotate(123.3 230.7 74.2)" />
  <ellipse cx="246.2" cy="17.4" rx="13.7" ry="18.4" fill="#D9E8F7" opacity="0.06" transform="rotate(106.6 246.2 17.4)" />
  <ellipse cx="130.1" cy="112.1" rx="19.7" ry="24.8" fill="#F4FAFF" opacity="0.06" transform="rotate(112.4 130.1 112.1)" />
  <ellipse cx="-11.7" cy="154.7" rx="4.2" ry="3.5" fill="#EEF7FF" opacity="0.08" transform="rotate(140.9 -11.7 154.7)" />
  <ellipse cx="47.9" cy="161.7" rx="8.4" ry="6.9" fill="#EEF7FF" opacity="0.04" transform="rotate(14.8 47.9 161.7)" />
  <ellipse cx="217.9" cy="67.8" rx="8.6" ry="11.0" fill="#FFFFFF" opacity="0.05" transform="rotate(156.8 217.9 67.8)" />
  <ellipse cx="164.8" cy="4.9" rx="11.9" ry="11.4" fill="#EEF7FF" opacity="0.09" transform="rotate(17.5 164.8 4.9)" />
  <ellipse cx="272.7" cy="50.6" rx="5.0" ry="5.8" fill="#DCEAF8" opacity="0.08" transform="rotate(123.3 272.7 50.6)" />
  <ellipse cx="-16.3" cy="189.1" rx="6.7" ry="8.7" fill="#FFFFFF" opacity="0.04" transform="rotate(112.8 -16.3 189.1)" />
  <ellipse cx="163.0" cy="70.2" rx="6.2" ry="5.6" fill="#FFFFFF" opacity="0.07" transform="rotate(127.7 163.0 70.2)" />
  <ellipse cx="-3.9" cy="236.0" rx="10.7" ry="8.6" fill="#EEF7FF" opacity="0.04" transform="rotate(34.6 -3.9 236.0)" />
  <ellipse cx="123.7" cy="268.3" rx="4.5" ry="5.3" fill="#DCEAF8" opacity="0.07" transform="rotate(61.1 123.7 268.3)" />
  <ellipse cx="223.1" cy="98.7" rx="5.5" ry="3.7" fill="#FFFFFF" opacity="0.07" transform="rotate(16.8 223.1 98.7)" />
  <ellipse cx="37.5" cy="103.5" rx="9.6" ry="6.0" fill="#DCEAF8" opacity="0.08" transform="rotate(96.9 37.5 103.5)" />
  <ellipse cx="246.3" cy="75.9" rx="10.5" ry="9.2" fill="#DCEAF8" opacity="0.10" transform="rotate(133.7 246.3 75.9)" />
  <ellipse cx="253.6" cy="192.9" rx="11.5" ry="6.6" fill="#DCEAF8" opacity="0.09" transform="rotate(27.3 253.6 192.9)" />
  <ellipse cx="238.0" cy="74.8" rx="7.5" ry="8.5" fill="#FFFFFF" opacity="0.06" transform="rotate(10.0 238.0 74.8)" />
  <ellipse cx="62.5" cy="21.6" rx="10.4" ry="8.8" fill="#EEF7FF" opacity="0.04" transform="rotate(151.4 62.5 21.6)" />
  <ellipse cx="38.1" cy="39.9" rx="11.4" ry="9.1" fill="#EEF7FF" opacity="0.06" transform="rotate(56.0 38.1 39.9)" />
  <ellipse cx="194.4" cy="246.9" rx="6.6" ry="6.1" fill="#DCEAF8" opacity="0.04" transform="rotate(9.2 194.4 246.9)" />
  <ellipse cx="10.9" cy="275.0" rx="8.9" ry="6.6" fill="#FFFFFF" opacity="0.04" transform="rotate(15.9 10.9 275.0)" />
  <circle cx="59.5" cy="116.2" r="0.5" fill="#F4FAFF" opacity="0.28" />
  <circle cx="147.1" cy="121.4" r="0.4" fill="#DCE9F8" opacity="0.18" />
  <circle cx="227.9" cy="197.9" r="1.0" fill="#FFFFFF" opacity="0.41" />
  <circle cx="54.5" cy="40.6" r="1.0" fill="#F4FAFF" opacity="0.38" />
  <circle cx="61.9" cy="112.7" r="1.3" fill="#F4FAFF" opacity="0.40" />
  <circle cx="87.8" cy="244.8" r="1.2" fill="#DCE9F8" opacity="0.34" />
  <circle cx="254.6" cy="175.6" r="0.3" fill="#FFFFFF" opacity="0.38" />
  <circle cx="21.3" cy="136.4" r="0.9" fill="#F4FAFF" opacity="0.22" />
  <circle cx="6.5" cy="112.1" r="1.4" fill="#F4FAFF" opacity="0.41" />
  <circle cx="54.7" cy="38.6" r="0.7" fill="#F4FAFF" opacity="0.17" />
  <circle cx="204.6" cy="74.6" r="0.4" fill="#DCE9F8" opacity="0.29" />
  <circle cx="199.5" cy="189.2" r="1.0" fill="#FFFFFF" opacity="0.24" />
  <circle cx="33.3" cy="141.3" r="1.0" fill="#F4FAFF" opacity="0.21" />
  <circle cx="12.0" cy="168.1" r="0.6" fill="#FFFFFF" opacity="0.25" />
  <circle cx="179.4" cy="88.4" r="1.1" fill="#FFFFFF" opacity="0.32" />
  <circle cx="165.5" cy="143.3" r="1.2" fill="#FFFFFF" opacity="0.38" />
  <circle cx="193.8" cy="160.1" r="0.5" fill="#DCE9F8" opacity="0.36" />
  <circle cx="185.9" cy="206.9" r="0.8" fill="#FFFFFF" opacity="0.40" />
  <circle cx="12.3" cy="79.4" r="1.3" fill="#FFFFFF" opacity="0.21" />
  <circle cx="159.9" cy="68.8" r="0.6" fill="#DCE9F8" opacity="0.20" />
  <circle cx="15.3" cy="99.3" r="1.2" fill="#FFFFFF" opacity="0.18" />
  <circle cx="196.4" cy="95.0" r="0.8" fill="#DCE9F8" opacity="0.26" />
  <circle cx="101.9" cy="223.9" r="0.9" fill="#DCE9F8" opacity="0.35" />
  <circle cx="71.5" cy="205.6" r="1.3" fill="#F4FAFF" opacity="0.18" />
  <circle cx="97.1" cy="184.4" r="0.4" fill="#FFFFFF" opacity="0.24" />
  <circle cx="156.4" cy="69.1" r="1.0" fill="#DCE9F8" opacity="0.17" />
  <circle cx="60.9" cy="180.8" r="1.2" fill="#F4FAFF" opacity="0.17" />
  <circle cx="126.8" cy="105.1" r="1.0" fill="#F4FAFF" opacity="0.20" />
  <circle cx="58.2" cy="54.5" r="0.4" fill="#DCE9F8" opacity="0.24" />
  <circle cx="217.7" cy="73.2" r="1.3" fill="#F4FAFF" opacity="0.20" />
  <circle cx="18.1" cy="52.9" r="1.1" fill="#FFFFFF" opacity="0.22" />
  <circle cx="252.6" cy="151.5" r="0.7" fill="#FFFFFF" opacity="0.35" />
  <circle cx="3.1" cy="72.2" r="0.3" fill="#FFFFFF" opacity="0.24" />
  <circle cx="27.4" cy="195.9" r="1.2" fill="#DCE9F8" opacity="0.18" />
  <circle cx="183.6" cy="120.0" r="0.4" fill="#F4FAFF" opacity="0.31" />
  <circle cx="69.4" cy="206.6" r="1.0" fill="#FFFFFF" opacity="0.42" />
  <circle cx="64.5" cy="22.7" r="0.5" fill="#DCE9F8" opacity="0.39" />
  <circle cx="163.6" cy="49.3" r="0.5" fill="#DCE9F8" opacity="0.28" />
  <circle cx="93.1" cy="13.5" r="0.5" fill="#F4FAFF" opacity="0.20" />
  <circle cx="142.7" cy="76.1" r="0.5" fill="#F4FAFF" opacity="0.19" />
  <circle cx="55.8" cy="175.8" r="0.7" fill="#F4FAFF" opacity="0.18" />
  <circle cx="7.7" cy="178.2" r="0.9" fill="#DCE9F8" opacity="0.27" />
  <circle cx="147.9" cy="91.0" r="0.9" fill="#DCE9F8" opacity="0.30" />
  <circle cx="100.1" cy="182.9" r="0.8" fill="#F4FAFF" opacity="0.25" />
  <circle cx="60.2" cy="224.3" r="0.7" fill="#DCE9F8" opacity="0.19" />
  <circle cx="70.7" cy="61.4" r="0.7" fill="#FFFFFF" opacity="0.41" />
  <circle cx="150.7" cy="126.7" r="0.8" fill="#F4FAFF" opacity="0.18" />
  <circle cx="203.2" cy="132.1" r="0.4" fill="#F4FAFF" opacity="0.42" />
  <circle cx="119.7" cy="119.5" r="0.5" fill="#F4FAFF" opacity="0.31" />
  <circle cx="215.2" cy="215.4" r="0.5" fill="#F4FAFF" opacity="0.34" />
  <circle cx="139.5" cy="176.2" r="0.4" fill="#FFFFFF" opacity="0.41" />
  <circle cx="107.9" cy="163.8" r="1.1" fill="#F4FAFF" opacity="0.37" />
  <circle cx="152.2" cy="35.1" r="1.1" fill="#DCE9F8" opacity="0.40" />
  <circle cx="89.2" cy="129.0" r="1.2" fill="#DCE9F8" opacity="0.31" />
  <circle cx="164.7" cy="10.5" r="1.4" fill="#F4FAFF" opacity="0.25" />
  <circle cx="71.0" cy="255.0" r="0.7" fill="#DCE9F8" opacity="0.19" />
  <circle cx="249.2" cy="107.4" r="0.8" fill="#DCE9F8" opacity="0.29" />
  <circle cx="24.7" cy="106.7" r="0.4" fill="#DCE9F8" opacity="0.18" />
  <circle cx="82.6" cy="49.5" r="1.0" fill="#DCE9F8" opacity="0.26" />
  <circle cx="198.9" cy="235.2" r="1.2" fill="#DCE9F8" opacity="0.37" />
  <circle cx="108.1" cy="127.9" r="1.2" fill="#FFFFFF" opacity="0.28" />
  <circle cx="122.8" cy="154.7" r="1.4" fill="#DCE9F8" opacity="0.25" />
  <circle cx="148.6" cy="124.3" r="0.5" fill="#F4FAFF" opacity="0.33" />
  <circle cx="19.8" cy="216.2" r="0.8" fill="#F4FAFF" opacity="0.37" />
  <circle cx="72.3" cy="77.1" r="0.3" fill="#F4FAFF" opacity="0.28" />
  <circle cx="169.3" cy="204.6" r="0.7" fill="#DCE9F8" opacity="0.19" />
  <circle cx="139.1" cy="10.1" r="0.8" fill="#FFFFFF" opacity="0.28" />
  <circle cx="58.3" cy="69.1" r="1.3" fill="#DCE9F8" opacity="0.38" />
  <circle cx="199.5" cy="5.9" r="1.0" fill="#FFFFFF" opacity="0.36" />
  <circle cx="149.3" cy="173.9" r="0.3" fill="#F4FAFF" opacity="0.23" />
  <circle cx="172.0" cy="10.8" r="0.9" fill="#FFFFFF" opacity="0.27" />
  <circle cx="44.0" cy="201.6" r="0.4" fill="#DCE9F8" opacity="0.33" />
  <circle cx="74.8" cy="198.4" r="0.9" fill="#F4FAFF" opacity="0.39" />
  <circle cx="252.5" cy="92.2" r="1.3" fill="#DCE9F8" opacity="0.23" />
  <circle cx="196.5" cy="154.7" r="1.3" fill="#DCE9F8" opacity="0.29" />
  <circle cx="198.3" cy="230.2" r="0.5" fill="#FFFFFF" opacity="0.19" />
  <circle cx="5.5" cy="74.4" r="0.5" fill="#F4FAFF" opacity="0.42" />
  <circle cx="145.3" cy="134.0" r="1.0" fill="#DCE9F8" opacity="0.22" />
  <circle cx="247.2" cy="235.4" r="0.9" fill="#DCE9F8" opacity="0.40" />
  <circle cx="238.6" cy="230.5" r="0.5" fill="#DCE9F8" opacity="0.31" />
  <circle cx="78.3" cy="79.3" r="0.5" fill="#DCE9F8" opacity="0.27" />
  <circle cx="104.8" cy="160.0" r="0.5" fill="#FFFFFF" opacity="0.30" />
  <circle cx="243.3" cy="2.8" r="1.2" fill="#DCE9F8" opacity="0.30" />
  <circle cx="33.6" cy="106.8" r="1.2" fill="#DCE9F8" opacity="0.35" />
  <circle cx="7.9" cy="142.9" r="1.1" fill="#FFFFFF" opacity="0.33" />
  <circle cx="123.9" cy="164.6" r="0.5" fill="#DCE9F8" opacity="0.30" />
  <circle cx="209.7" cy="95.6" r="0.6" fill="#F4FAFF" opacity="0.29" />
  <circle cx="134.4" cy="12.4" r="0.5" fill="#FFFFFF" opacity="0.27" />
  <circle cx="40.7" cy="177.6" r="1.1" fill="#F4FAFF" opacity="0.19" />
  <circle cx="98.6" cy="44.3" r="1.1" fill="#FFFFFF" opacity="0.35" />
  <circle cx="164.8" cy="228.5" r="0.9" fill="#FFFFFF" opacity="0.20" />
  <circle cx="104.2" cy="173.7" r="1.2" fill="#F4FAFF" opacity="0.18" />
  <circle cx="127.7" cy="69.1" r="0.8" fill="#DCE9F8" opacity="0.21" />
  <circle cx="9.3" cy="195.1" r="1.0" fill="#F4FAFF" opacity="0.41" />
  <circle cx="85.6" cy="73.7" r="1.2" fill="#FFFFFF" opacity="0.36" />
  <circle cx="130.6" cy="109.7" r="1.2" fill="#DCE9F8" opacity="0.23" />
  <path d="M 9.8 157.0 q 0.1 -1.8 0.1 -8.0" stroke="#F7FBFF" stroke-width="0.63" opacity="0.11" fill="none" stroke-linecap="round" stroke-linejoin="round" />
  <path d="M 70.3 24.3 q 0.3 -2.1 0.7 -9.6" stroke="#C4D9EE" stroke-width="0.52" opacity="0.15" fill="none" stroke-linecap="round" stroke-linejoin="round" />
  <path d="M 142.9 7.6 q 0.2 -2.4 0.4 -11.0" stroke="#D8E7F6" stroke-width="0.38" opacity="0.14" fill="none" stroke-linecap="round" stroke-linejoin="round" />
  <path d="M 223.5 175.3 q 0.3 -3.4 0.7 -15.3" stroke="#D8E7F6" stroke-width="0.54" opacity="0.08" fill="none" stroke-linecap="round" stroke-linejoin="round" />
  <path d="M 247.9 215.2 q 0.6 -3.0 1.6 -13.5" stroke="#F7FBFF" stroke-width="0.79" opacity="0.09" fill="none" stroke-linecap="round" stroke-linejoin="round" />
  <path d="M 205.5 208.3 q -0.3 -2.9 -0.7 -13.1" stroke="#D8E7F6" stroke-width="0.49" opacity="0.12" fill="none" stroke-linecap="round" stroke-linejoin="round" />
  <path d="M 65.9 255.7 q 0.3 -3.4 0.7 -15.3" stroke="#C4D9EE" stroke-width="0.37" opacity="0.17" fill="none" stroke-linecap="round" stroke-linejoin="round" />
  <path d="M 207.5 113.7 q -0.0 -1.5 -0.0 -6.9" stroke="#C4D9EE" stroke-width="0.45" opacity="0.17" fill="none" stroke-linecap="round" stroke-linejoin="round" />
  <path d="M 41.8 166.1 q 0.5 -2.8 1.2 -12.8" stroke="#C4D9EE" stroke-width="0.46" opacity="0.14" fill="none" stroke-linecap="round" stroke-linejoin="round" />
  <path d="M 84.6 82.1 q 1.1 -1.3 2.7 -6.0" stroke="#F7FBFF" stroke-width="0.77" opacity="0.09" fill="none" stroke-linecap="round" stroke-linejoin="round" />
  <path d="M 76.0 134.1 q 0.7 -3.1 1.7 -14.1" stroke="#C4D9EE" stroke-width="0.54" opacity="0.15" fill="none" stroke-linecap="round" stroke-linejoin="round" />
  <path d="M 210.3 169.0 q 0.5 -1.6 1.2 -7.3" stroke="#D8E7F6" stroke-width="0.77" opacity="0.18" fill="none" stroke-linecap="round" stroke-linejoin="round" />
  <path d="M 215.5 92.2 q 1.4 -2.3 3.5 -10.4" stroke="#F7FBFF" stroke-width="0.58" opacity="0.10" fill="none" stroke-linecap="round" stroke-linejoin="round" />
  <path d="M 157.3 251.1 q 0.8 -2.8 2.1 -12.7" stroke="#C4D9EE" stroke-width="0.63" opacity="0.18" fill="none" stroke-linecap="round" stroke-linejoin="round" />
  <path d="M 209.2 7.8 q -0.9 -2.8 -2.3 -12.7" stroke="#D8E7F6" stroke-width="0.72" opacity="0.09" fill="none" stroke-linecap="round" stroke-linejoin="round" />
  <path d="M 246.1 67.7 q 0.0 -2.2 0.1 -10.2" stroke="#D8E7F6" stroke-width="0.71" opacity="0.14" fill="none" stroke-linecap="round" stroke-linejoin="round" />
  <path d="M 132.1 246.9 q 0.8 -3.0 1.9 -13.4" stroke="#C4D9EE" stroke-width="0.38" opacity="0.21" fill="none" stroke-linecap="round" stroke-linejoin="round" />
  <path d="M 46.9 177.4 q 0.6 -3.4 1.4 -15.5" stroke="#F7FBFF" stroke-width="0.46" opacity="0.16" fill="none" stroke-linecap="round" stroke-linejoin="round" />
  <path d="M 120.9 144.3 q -0.9 -2.1 -2.2 -9.5" stroke="#C4D9EE" stroke-width="0.46" opacity="0.19" fill="none" stroke-linecap="round" stroke-linejoin="round" />
  <path d="M 29.4 160.6 q 0.9 -1.7 2.2 -7.9" stroke="#F7FBFF" stroke-width="0.49" opacity="0.10" fill="none" stroke-linecap="round" stroke-linejoin="round" />
  <path d="M 115.6 30.5 q 0.2 -2.1 0.5 -9.4" stroke="#D8E7F6" stroke-width="0.64" opacity="0.16" fill="none" stroke-linecap="round" stroke-linejoin="round" />
  <path d="M 66.7 6.8 q 0.0 -1.3 0.0 -6.1" stroke="#D8E7F6" stroke-width="0.35" opacity="0.15" fill="none" stroke-linecap="round" stroke-linejoin="round" />
  <path d="M 250.6 177.6 q 0.7 -2.8 1.8 -12.6" stroke="#F7FBFF" stroke-width="0.74" opacity="0.11" fill="none" stroke-linecap="round" stroke-linejoin="round" />
  <path d="M 232.5 12.0 q 0.7 -3.0 1.9 -13.8" stroke="#C4D9EE" stroke-width="0.53" opacity="0.20" fill="none" stroke-linecap="round" stroke-linejoin="round" />
  <path d="M 118.9 84.6 q -0.9 -2.5 -2.1 -11.5" stroke="#C4D9EE" stroke-width="0.71" opacity="0.14" fill="none" stroke-linecap="round" stroke-linejoin="round" />
  <path d="M 234.1 33.3 q 1.2 -1.6 3.0 -7.1" stroke="#F7FBFF" stroke-width="0.65" opacity="0.14" fill="none" stroke-linecap="round" stroke-linejoin="round" />
  <path d="M 158.7 14.5 q 0.6 -3.4 1.4 -15.6" stroke="#D8E7F6" stroke-width="0.65" opacity="0.16" fill="none" stroke-linecap="round" stroke-linejoin="round" />
  <path d="M 144.0 237.9 q 0.1 -1.7 0.2 -7.6" stroke="#D8E7F6" stroke-width="0.37" opacity="0.15" fill="none" stroke-linecap="round" stroke-linejoin="round" />
  <path d="M 192.2 57.1 q 0.7 -2.3 1.9 -10.4" stroke="#C4D9EE" stroke-width="0.73" opacity="0.17" fill="none" stroke-linecap="round" stroke-linejoin="round" />
  <path d="M 36.2 194.1 q 0.4 -3.4 1.0 -15.3" stroke="#D8E7F6" stroke-width="0.79" opacity="0.13" fill="none" stroke-linecap="round" stroke-linejoin="round" />
  <path d="M 210.8 20.1 q 1.2 -1.6 3.1 -7.3" stroke="#C4D9EE" stroke-width="0.36" opacity="0.20" fill="none" stroke-linecap="round" stroke-linejoin="round" />
  <path d="M 97.0 61.7 q -0.1 -2.8 -0.1 -12.9" stroke="#D8E7F6" stroke-width="0.36" opacity="0.14" fill="none" stroke-linecap="round" stroke-linejoin="round" />
  <path d="M 118.1 140.6 q 1.2 -3.4 3.1 -15.3" stroke="#F7FBFF" stroke-width="0.72" opacity="0.21" fill="none" stroke-linecap="round" stroke-linejoin="round" />
  <path d="M 27.3 243.2 q 1.0 -3.1 2.6 -14.1" stroke="#F7FBFF" stroke-width="0.48" opacity="0.16" fill="none" stroke-linecap="round" stroke-linejoin="round" />
  <path d="M 76.6 241.8 q -0.6 -1.5 -1.6 -6.6" stroke="#D8E7F6" stroke-width="0.66" opacity="0.19" fill="none" stroke-linecap="round" stroke-linejoin="round" />
  <path d="M 180.6 37.7 q 1.3 -2.1 3.1 -9.5" stroke="#D8E7F6" stroke-width="0.58" opacity="0.15" fill="none" stroke-linecap="round" stroke-linejoin="round" />
  <path d="M 19.7 142.6 q -1.2 -3.3 -2.9 -15.1" stroke="#D8E7F6" stroke-width="0.58" opacity="0.18" fill="none" stroke-linecap="round" stroke-linejoin="round" />
  <path d="M 142.5 237.3 q -0.9 -1.9 -2.2 -8.7" stroke="#D8E7F6" stroke-width="0.52" opacity="0.13" fill="none" stroke-linecap="round" stroke-linejoin="round" />
  <path d="M 136.0 141.6 q -0.1 -1.7 -0.2 -7.9" stroke="#D8E7F6" stroke-width="0.51" opacity="0.21" fill="none" stroke-linecap="round" stroke-linejoin="round" />
  <path d="M 214.9 184.0 q 1.3 -3.5 3.3 -16.0" stroke="#D8E7F6" stroke-width="0.72" opacity="0.20" fill="none" stroke-linecap="round" stroke-linejoin="round" />
  <path d="M 37.2 22.9 q 0.9 -2.1 2.4 -9.6" stroke="#C4D9EE" stroke-width="0.38" opacity="0.17" fill="none" stroke-linecap="round" stroke-linejoin="round" />
  <path d="M 119.2 164.8 q -0.9 -2.2 -2.1 -9.8" stroke="#F7FBFF" stroke-width="0.70" opacity="0.15" fill="none" stroke-linecap="round" stroke-linejoin="round" />
  <path d="M 33.4 233.1 q -0.0 -2.0 -0.0 -9.1" stroke="#C4D9EE" stroke-width="0.47" opacity="0.20" fill="none" stroke-linecap="round" stroke-linejoin="round" />
  <path d="M 21.9 112.4 q -0.7 -1.3 -1.7 -6.1" stroke="#D8E7F6" stroke-width="0.51" opacity="0.12" fill="none" stroke-linecap="round" stroke-linejoin="round" />
  <path d="M 84.7 124.0 q 0.9 -1.6 2.2 -7.2" stroke="#D8E7F6" stroke-width="0.50" opacity="0.10" fill="none" stroke-linecap="round" stroke-linejoin="round" />
  <path d="M 101.8 211.0 q 0.7 -3.4 1.8 -15.3" stroke="#D8E7F6" stroke-width="0.64" opacity="0.19" fill="none" stroke-linecap="round" stroke-linejoin="round" />
  <path d="M 222.0 216.4 q -0.1 -3.0 -0.2 -13.5" stroke="#F7FBFF" stroke-width="0.57" opacity="0.14" fill="none" stroke-linecap="round" stroke-linejoin="round" />
  <path d="M 83.7 18.5 q -1.3 -3.5 -3.2 -16.0" stroke="#D8E7F6" stroke-width="0.42" opacity="0.22" fill="none" stroke-linecap="round" stroke-linejoin="round" />
</svg>