<?xml version="1.0" encoding="UTF-8"?>
<svg xmlns="http://www.w3.org/2000/svg" viewBox="0 0 256 256" shape-rendering="geometricPrecision">
  <defs>
    <linearGradient id="bg-water-shallows" x1="0%" y1="0%" x2="100%" y2="100%">
      <stop offset="0%" stop-color="#5EA0DD" />
      <stop offset="52%" stop-color="#2C68A9" />
      <stop offset="100%" stop-color="#9CDAF6" />
    </linearGradient>
  </defs>
  <rect width="256" height="256" fill="url(#bg-water-shallows)" />
  <line x1="-12.0" y1="87.0" x2="268.0" y2="90.6" stroke="#BCE9FF" stroke-width="1.26" opacity="0.12" stroke-linecap="round" />
  <line x1="-12.0" y1="83.2" x2="268.0" y2="83.9" stroke="#BCE9FF" stroke-width="0.87" opacity="0.25" stroke-linecap="round" />
  <line x1="-12.0" y1="145.7" x2="268.0" y2="151.3" stroke="#BCE9FF" stroke-width="1.40" opacity="0.25" stroke-linecap="round" />
  <line x1="-12.0" y1="78.4" x2="268.0" y2="75.4" stroke="#95D7FF" stroke-width="1.11" opacity="0.11" stroke-linecap="round" />
  <line x1="-12.0" y1="26.4" x2="268.0" y2="30.1" stroke="#BCE9FF" stroke-width="0.61" opacity="0.22" stroke-linecap="round" />
  <line x1="-12.0" y1="28.0" x2="268.0" y2="32.5" stroke="#DBF4FF" stroke-width="1.17" opacity="0.21" stroke-linecap="round" />
  <line x1="-12.0" y1="187.8" x2="268.0" y2="183.9" stroke="#95D7FF" stroke-width="1.18" opacity="0.15" stroke-linecap="round" />
  <line x1="-12.0" y1="171.0" x2="268.0" y2="170.3" stroke="#DBF4FF" stroke-width="0.68" opacity="0.24" stroke-linecap="round" />
  <line x1="-12.0" y1="210.8" x2="268.0" y2="207.5" stroke="#BCE9FF" stroke-width="1.49" opacity="0.14" stroke-linecap="round" />
  <line x1="-12.0" y1="8.8" x2="268.0" y2="6.4" stroke="#95D7FF" stroke-width="1.37" opacity="0.25" stroke-linecap="round" />
  <line x1="-12.0" y1="4.0" x2="268.0" y2="10.6" stroke="#DBF4FF" stroke-width="0.82" opacity="0.13" stroke-linecap="round" />
  <line x1="-12.0" y1="89.0" x2="268.0" y2="93.2" stroke="#DBF4FF" stroke-width="1.36" opacity="0.15" stroke-linecap="round" />
  <line x1="-12.0" y1="76.8" x2="268.0" y2="81.5" stroke="#DBF4FF" stroke-width="1.11" opacity="0.17" stroke-linecap="round" />
  <line x1="-12.0" y1="245.8" x2="268.0" y2="246.9" stroke="#DBF4FF" stroke-width="1.47" opacity="0.22" stroke-linecap="round" />
  <line x1="-12.0" y1="53.5" x2="268.0" y2="50.3" stroke="#DBF4FF" stroke-width="1.22" opacity="0.21" stroke-linecap="round" />
  <line x1="-12.0" y1="50.5" x2="268.0" y2="50.3" stroke="#95D7FF" stroke-width="1.15" opacity="0.14" stroke-linecap="round" />
  <line x1="-12.0" y1="86.4" x2="268.0" y2="85.3" stroke="#DBF4FF" stroke-width="1.36" opacity="0.25" stroke-linecap="round" />
  <line x1="-12.0" y1="87.6" x2="268.0" y2="82.4" stroke="#BCE9FF" stroke-width="1.21" opacity="0.16" stroke-linecap="round" />
  <line x1="-12.0" y1="79.1" x2="268.0" y2="84.4" stroke="#95D7FF" stroke-width="0.77" opacity="0.20" stroke-linecap="round" />
  <line x1="-12.0" y1="195.9" x2="268.0" y2="191.8" stroke="#DBF4FF" stroke-width="1.42" opacity="0.28" stroke-linecap="round" />
  <line x1="-12.0" y1="18.1" x2="268.0" y2="11.2" stroke="#DBF4FF" stroke-width="1.02" opacity="0.26" stroke-linecap="round" />
  <line x1="-12.0" y1="111.4" x2="268.0" y2="104.6" stroke="#95D7FF" stroke-width="1.41" opacity="0.20" stroke-linecap="round" />
  <line x1="-12.0" y1="135.5" x2="268.0" y2="130.8" stroke="#DBF4FF" stroke-width="1.17" opacity="0.27" stroke-linecap="round" />
  <line x1="-12.0" y1="125.0" x2="268.0" y2="124.9" stroke="#95D7FF" stroke-width="0.79" opacity="0.26" stroke-linecap="round" />
  <line x1="-12.0" y1="103.9" x2="268.0" y2="102.0" stroke="#95D7FF" stroke-width="0.70" opacity="0.11" stroke-linecap="round" />
  <line x1="-12.0" y1="153.4" x2="268.0" y2="149.4" stroke="#DBF4FF" stroke-width="1.10" opacity="0.27" stroke-linecap="round" />
  <line x1="-12.0" y1="108.1" x2="268.0" y2="106.3" stroke="#95D7FF" stroke-width="0.94" opacity="0.14" stroke-linecap="round" />
  <line x1="-12.0" y1="13.3" x2="268.0" y2="7.4" stroke="#95D7FF" stroke-width="0.78" opacity="0.23" stroke-linecap="round" />
  <line x1="-12.0" y1="31.7" x2="268.0" y2="35.5" stroke="#95D7FF" stroke-width="1.18" opacity="0.13" stroke-linecap="round" />
  <line x1="-12.0" y1="120.7" x2="268.0" y2="118.6" stroke="#BCE9FF" stroke-width="1.22" opacity="0.25" stroke-linecap="round" />
  <line x1="-12.0" y1="139.8" x2="268.0" y2="144.0" stroke="#DBF4FF" stroke-width="0.92" opacity="0.23" stroke-linecap="round" />
  <line x1="-12.0" y1="257.9" x2="268.0" y2="252.7" stroke="#BCE9FF" stroke-width="1.16" opacity="0.17" stroke-linecap="round" />
  <line x1="-12.0" y1="123.5" x2="268.0" y2="119.7" stroke="#BCE9FF" stroke-width="1.49" opacity="0.21" stroke-linecap="round" />
  <line x1="-12.0" y1="202.0" x2="268.0" y2="208.9" stroke="#BCE9FF" stroke-width="0.99" opacity="0.15" stroke-linecap="round" />
  <line x1="-12.0" y1="108.2" x2="268.0" y2="110.5" stroke="#95D7FF" stroke-width="1.21" opacity="0.26" stroke-linecap="round" />
  <line x1="-12.0" y1="37.8" x2="268.0" y2="36.9" stroke="#BCE9FF" stroke-width="1.37" opacity="0.21" stroke-linecap="round" />
  <line x1="-12.0" y1="52.8" x2="268.0" y2="52.6" stroke="#BCE9FF" stroke-width="0.78" opacity="0.17" stroke-linecap="round" />
  <line x1="-12.0" y1="55.4" x2="268.0" y2="50.5" stroke="#BCE9FF" stroke-width="1.37" opacity="0.15" stroke-linecap="round" />
  <line x1="-12.0" y1="167.9" x2="268.0" y2="173.5" stroke="#95D7FF" stroke-width="1.16" opacity="0.27" stroke-linecap="round" />
  <line x1="-12.0" y1="123.6" x2="268.0" y2="123.2" stroke="#BCE9FF" stroke-width="0.84" opacity="0.18" stroke-linecap="round" />
  <line x1="-12.0" y1="250.4" x2="268.0" y2="248.4" stroke="#DBF4FF" stroke-width="1.04" opacity="0.14" stroke-linecap="round" />
  <line x1="-12.0" y1="34.7" x2="268.0" y2="37.1" stroke="#95D7FF" stroke-width="1.15" opacity="0.12" stroke-linecap="round" />
  <line x1="-12.0" y1="92.2" x2="268.0" y2="93.6" stroke="#95D7FF" stroke-width="1.20" opacity="0.15" stroke-linecap="round" />
  <line x1="-12.0" y1="31.4" x2="268.0" y2="32.9" stroke="#BCE9FF" stroke-width="0.87" opacity="0.21" stroke-linecap="round" />
  <line x1="-12.0" y1="247.8" x2="268.0" y2="252.9" stroke="#DBF4FF" stroke-width="0.76" opacity="0.16" stroke-linecap="round" />
  <line x1="-12.0" y1="72.3" x2="268.0" y2="70.4" stroke="#DBF4FF" stroke-width="0.88" opacity="0.27" stroke-linecap="round" />
  <line x1="-12.0" y1="96.3" x2="268.0" y2="90.5" stroke="#BCE9FF" stroke-width="0.88" opacity="0.20" stroke-linecap="round" />
  <line x1="-12.0" y1="195.5" x2="268.0" y2="191.6" stroke="#DBF4FF" stroke-width="0.66" opacity="0.17" stroke-linecap="round" />
  <line x1="-12.0" y1="68.1" x2="268.0" y2="72.7" stroke="#DBF4FF" stroke-width="0.64" opacity="0.12" stroke-linecap="round" />
  <line x1="-12.0" y1="91.5" x2="268.0" y2="97.9" stroke="#95D7FF" stroke-width="0.91" opacity="0.18" stroke-linecap="round" />
  <line x1="-12.0" y1="26.2" x2="268.0" y2="25.5" stroke="#BCE9FF" stroke-width="0.85" opacity="0.20" stroke-linecap="round" />
  <line x1="-12.0" y1="57.6" x2="268.0" y2="50.8" stroke="#DBF4FF" stroke-width="0.78" opacity="0.21" stroke-linecap="round" />
  <line x1="-12.0" y1="236.0" x2="268.0" y2="236.9" stroke="#95D7FF" stroke-width="1.41" opacity="0.20" stroke-linecap="round" />
  <line x1="-12.0" y1="224.1" x2="268.0" y2="225.0" stroke="#BCE9FF" stroke-width="1.02" opacity="0.27" stroke-linecap="round" />
  <line x1="-12.0" y1="110.6" x2="268.0" y2="108.6" stroke="#BCE9FF" stroke-width="0.89" opacity="0.16" stroke-linecap="round" />
  <line x1="-12.0" y1="199.8" x2="268.0" y2="193.7" stroke="#DBF4FF" stroke-width="0.97" opacity="0.22" stroke-linecap="round" />
  <ellipse cx="47.4" cy="35.6" rx="49.6" ry="47.2" fill="#8FD2F0" opacity="0.06" transform="rotate(150.5 47.4 35.6)" />
  <ellipse cx="127.2" cy="214.7" rx="16.1" ry="13.2" fill="#8FD2F0" opacity="0.08" transform="rotate(111.3 127.2 214.7)" />
  <ellipse cx="87.5" cy="265.9" rx="26.9" ry="25.5" fill="#D6F4FF" opacity="0.07" transform="rotate(97.2 87.5 265.9)" />
  <ellipse cx="42.6" cy="194.2" rx="47.1" ry="51.3" fill="#D6F4FF" opacity="0.05" transform="rotate(40.9 42.6 194.2)" />
  <ellipse cx="224.7" cy="4.1" rx="47.2" ry="53.5" fill="#8FD2F0" opacity="0.05" transform="rotate(169.3 224.7 4.1)" />
  <ellipse cx="139.5" cy="203.9" rx="40.2" ry="27.6" fill="#8FD2F0" opacity="0.05" transform="rotate(51.0 139.5 203.9)" />
  <ellipse cx="33.3" cy="58.0" rx="19.2" ry="23.6" fill="#D6F4FF" opacity="0.09" transform="rotate(8.7 33.3 58.0)" />
  <ellipse cx="195.1" cy="132.1" rx="29.7" ry="36.3" fill="#BEEBFF" opacity="0.08" transform="rotate(35.9 195.1 132.1)" />
  <ellipse cx="81.5" cy="197.2" rx="17.5" ry="19.7" fill="#D6F4FF" opacity="0.08" transform="rotate(27.1 81.5 197.2)" />
  <ellipse cx="-19.3" cy="166.1" rx="35.3" ry="38.0" fill="#8FD2F0" opacity="0.05" transform="rotate(112.3 -19.3 166.1)" />
  <ellipse cx="229.7" cy="156.0" rx="42.7" ry="35.8" fill="#8FD2F0" opacity="0.08" transform="rotate(25.8 229.7 156.0)" />
  <ellipse cx="223.6" cy="-2.4" rx="38.6" ry="23.7" fill="#BEEBFF" opacity="0.08" transform="rotate(146.5 223.6 -2.4)" />
  <ellipse cx="269.6" cy="166.0" rx="51.8" ry="62.7" fill="#BEEBFF" opacity="0.09" transform="rotate(44.7 269.6 166.0)" />
  <ellipse cx="133.2" cy="236.5" rx="25.0" ry="30.8" fill="#D6F4FF" opacity="0.03" transform="rotate(68.1 133.2 236.5)" />
  <ellipse cx="254.2" cy="12.6" rx="36.5" ry="45.0" fill="#D6F4FF" opacity="0.06" transform="rotate(86.1 254.2 12.6)" />
  <ellipse cx="130.0" cy="38.0" rx="26.5" ry="31.6" fill="#BEEBFF" opacity="0.03" transform="rotate(63.3 130.0 38.0)" />
  <ellipse cx="106.4" cy="76.8" rx="25.3" ry="21.3" fill="#D6F4FF" opacity="0.03" transform="rotate(1.9 106.4 76.8)" />
  <ellipse cx="-13.5" cy="148.8" rx="50.4" ry="55.0" fill="#BEEBFF" opacity="0.08" transform="rotate(85.9 -13.5 148.8)" />
  <ellipse cx="209.3" cy="215.3" rx="23.0" ry="18.0" fill="#D6F4FF" opacity="0.04" transform="rotate(52.6 209.3 215.3)" />
  <ellipse cx="64.8" cy="62.1" rx="42.7" ry="57.3" fill="#BEEBFF" opacity="0.04" transform="rotate(63.5 64.8 62.1)" />
  <ellipse cx="261.3" cy="188.1" rx="49.4" ry="33.7" fill="#D6F4FF" opacity="0.08" transform="rotate(38.7 261.3 188.1)" />
  <ellipse cx="22.4" cy="232.9" rx="37.3" ry="44.6" fill="#BEEBFF" opacity="0.10" transform="rotate(84.5 22.4 232.9)" />
  <ellipse cx="162.0" cy="169.7" rx="32.6" ry="33.3" fill="#BEEBFF" opacity="0.06" transform="rotate(143.7 162.0 169.7)" />
  <ellipse cx="192.3" cy="249.9" rx="21.8" ry="28.2" fill="#BEEBFF" opacity="0.04" transform="rotate(89.2 192.3 249.9)" />
  <ellipse cx="24.8" cy="225.9" rx="9.0" ry="10.5" fill="#FFFFFF" opacity="0.10" transform="rotate(14.7 24.8 225.9)" />
  <ellipse cx="198.5" cy="158.0" rx="6.0" ry="7.8" fill="#EAFBFF" opacity="0.12" transform="rotate(86.2 198.5 158.0)" />
  <ellipse cx="21.7" cy="21.1" rx="5.3" ry="6.0" fill="#FFFFFF" opacity="0.09" transform="rotate(152.2 21.7 21.1)" />
  <ellipse cx="239.6" cy="-9.4" rx="7.8" ry="10.0" fill="#EAFBFF" opacity="0.07" transform="rotate(28.2 239.6 -9.4)" />
  <ellipse cx="201.3" cy="60.2" rx="9.7" ry="7.9" fill="#EAFBFF" opacity="0.09" transform="rotate(16.9 201.3 60.2)" />
  <ellipse cx="194.7" cy="57.7" rx="8.8" ry="6.8" fill="#EAFBFF" opacity="0.09" transform="rotate(51.7 194.7 57.7)" />
  <ellipse cx="198.9" cy="155.6" rx="6.8" ry="4.3" fill="#EAFBFF" opacity="0.10" transform="rotate(67.6 198.9 155.6)" />
  <ellipse cx="177.8" cy="263.6" rx="6.9" ry="4.6" fill="#EAFBFF" opacity="0.07" transform="rotate(58.1 177.8 263.6)" />
  <ellipse cx="24.3" cy="249.3" rx="7.8" ry="8.4" fill="#FFFFFF" opacity="0.06" transform="rotate(78.3 24.3 249.3)" />
  <ellipse cx="-3.6" cy="126.8" rx="10.0" ry="6.2" fill="#FFFFFF" opacity="0.11" transform="rotate(123.2 -3.6 126.8)" />
  <ellipse cx="37.1" cy="22.5" rx="9.2" ry="9.7" fill="#FFFFFF" opacity="0.07" transform="rotate(127.9 37.1 22.5)" />
  <ellipse cx="75.1" cy="-17.2" rx="7.2" ry="9.4" fill="#EAFBFF" opacity="0.09" transform="rotate(105.5 75.1 -17.2)" />
  <circle cx="23.5" cy="93.2" r="1.2" fill="#CFEFFF" opacity="0.40" />
  <circle cx="223.2" cy="246.9" r="1.3" fill="#EAFBFF" opacity="0.27" />
  <circle cx="204.0" cy="185.2" r="0.4" fill="#EAFBFF" opacity="0.35" />
  <circle cx="156.8" cy="162.7" r="0.6" fill="#CFEFFF" opacity="0.47" />
  <circle cx="200.9" cy="22.2" r="1.0" fill="#D9F6FF" opacity="0.30" />
  <circle cx="61.9" cy="137.6" r="0.7" fill="#CFEFFF" opacity="0.35" />
  <circle cx="184.9" cy="37.3" r="0.5" fill="#EAFBFF" opacity="0.22" />
  <circle cx="34.7" cy="227.1" r="0.7" fill="#CFEFFF" opacity="0.32" />
  <circle cx="27.1" cy="111.4" r="0.8" fill="#CFEFFF" opacity="0.43" />
  <circle cx="18.1" cy="106.8" r="0.6" fill="#CFEFFF" opacity="0.38" />
  <circle cx="226.7" cy="176.3" r="1.2" fill="#CFEFFF" opacity="0.38" />
  <circle cx="243.7" cy="90.8" r="0.6" fill="#CFEFFF" opacity="0.33" />
  <circle cx="151.9" cy="161.4" r="1.0" fill="#D9F6FF" opacity="0.47" />
  <circle cx="111.5" cy="164.9" r="1.2" fill="#EAFBFF" opacity="0.36" />
  <circle cx="96.2" cy="238.3" r="1.2" fill="#D9F6FF" opacity="0.33" />
  <circle cx="1.4" cy="7.9" r="0.9" fill="#EAFBFF" opacity="0.21" />
  <circle cx="42.1" cy="87.3" r="0.5" fill="#CFEFFF" opacity="0.21" />
  <circle cx="21.6" cy="56.7" r="1.2" fill="#D9F6FF" opacity="0.18" />
  <circle cx="55.7" cy="85.3" r="1.2" fill="#CFEFFF" opacity="0.20" />
  <circle cx="170.7" cy="32.4" r="0.7" fill="#D9F6FF" opacity="0.20" />
  <circle cx="253.2" cy="243.9" r="1.1" fill="#CFEFFF" opacity="0.26" />
  <circle cx="72.2" cy="129.3" r="1.0" fill="#CFEFFF" opacity="0.33" />
  <circle cx="88.3" cy="213.1" r="0.7" fill="#D9F6FF" opacity="0.39" />
  <circle cx="81.7" cy="151.4" r="0.9" fill="#CFEFFF" opacity="0.42" />
  <circle cx="37.3" cy="222.8" r="0.4" fill="#EAFBFF" opacity="0.28" />
  <circle cx="203.7" cy="57.5" r="0.7" fill="#D9F6FF" opacity="0.41" />
  <circle cx="251.7" cy="164.6" r="0.9" fill="#D9F6FF" opacity="0.46" />
  <circle cx="56.7" cy="112.8" r="0.4" fill="#D9F6FF" opacity="0.19" />
  <circle cx="140.8" cy="118.9" r="1.4" fill="#EAFBFF" opacity="0.29" />
  <circle cx="213.1" cy="119.4" r="1.2" fill="#CFEFFF" opacity="0.46" />
  <circle cx="30.3" cy="167.7" r="0.7" fill="#CFEFFF" opacity="0.28" />
  <circle cx="218.5" cy="39.3" r="1.0" fill="#CFEFFF" opacity="0.29" />
  <circle cx="101.1" cy="76.3" r="1.3" fill="#EAFBFF" opacity="0.24" />
  <circle cx="140.5" cy="132.4" r="0.4" fill="#D9F6FF" opacity="0.35" />
  <circle cx="103.7" cy="148.8" r="0.7" fill="#CFEFFF" opacity="0.44" />
  <circle cx="32.3" cy="204.0" r="0.7" fill="#CFEFFF" opacity="0.21" />
  <circle cx="57.4" cy="15.2" r="0.3" fill="#D9F6FF" opacity="0.40" />
  <circle cx="36.8" cy="138.3" r="1.3" fill="#CFEFFF" opacity="0.44" />
  <circle cx="176.7" cy="39.1" r="0.6" fill="#CFEFFF" opacity="0.23" />
  <circle cx="142.0" cy="210.2" r="1.3" fill="#D9F6FF" opacity="0.26" />
  <circle cx="112.4" cy="13.4" r="0.5" fill="#EAFBFF" opacity="0.19" />
  <circle cx="195.4" cy="17.2" r="1.1" fill="#CFEFFF" opacity="0.33" />
  <circle cx="148.0" cy="128.3" r="1.1" fill="#CFEFFF" opacity="0.32" />
  <circle cx="140.7" cy="210.3" r="1.3" fill="#CFEFFF" opacity="0.48" />
  <circle cx="194.9" cy="77.5" r="0.4" fill="#CFEFFF" opacity="0.32" />
  <circle cx="42.3" cy="188.8" r="1.5" fill="#CFEFFF" opacity="0.38" />
  <circle cx="63.2" cy="25.4" r="0.9" fill="#D9F6FF" opacity="0.24" />
  <circle cx="208.6" cy="165.3" r="1.2" fill="#D9F6FF" opacity="0.32" />
  <circle cx="231.1" cy="185.0" r="1.3" fill="#CFEFFF" opacity="0.29" />
  <circle cx="53.8" cy="136.2" r="0.8" fill="#CFEFFF" opacity="0.36" />
  <circle cx="200.3" cy="102.3" r="1.2" fill="#D9F6FF" opacity="0.23" />
  <circle cx="133.6" cy="96.8" r="0.7" fill="#EAFBFF" opacity="0.37" />
  <circle cx="189.7" cy="114.0" r="0.9" fill="#D9F6FF" opacity="0.43" />
  <circle cx="96.9" cy="145.5" r="1.4" fill="#D9F6FF" opacity="0.40" />
  <circle cx="235.2" cy="203.2" r="0.4" fill="#EAFBFF" opacity="0.26" />
  <circle cx="161.4" cy="156.3" r="1.1" fill="#CFEFFF" opacity="0.35" />
  <circle cx="140.7" cy="63.9" r="1.1" fill="#EAFBFF" opacity="0.27" />
  <circle cx="138.4" cy="40.4" r="0.7" fill="#CFEFFF" opacity="0.18" />
  <circle cx="17.7" cy="58.8" r="0.4" fill="#EAFBFF" opacity="0.47" />
  <circle cx="36.2" cy="107.0" r="1.3" fill="#EAFBFF" opacity="0.39" />
  <circle cx="222.3" cy="59.0" r="1.0" fill="#EAFBFF" opacity="0.43" />
  <circle cx="3.6" cy="184.5" r="0.8" fill="#EAFBFF" opacity="0.26" />
  <circle cx="222.9" cy="61.6" r="0.9" fill="#CFEFFF" opacity="0.29" />
  <circle cx="36.9" cy="40.2" r="0.5" fill="#EAFBFF" opacity="0.37" />
  <circle cx="253.5" cy="200.0" r="1.4" fill="#CFEFFF" opacity="0.22" />
  <circle cx="39.8" cy="224.0" r="0.9" fill="#EAFBFF" opacity="0.22" />
  <circle cx="102.4" cy="4.3" r="1.0" fill="#EAFBFF" opacity="0.40" />
  <circle cx="208.1" cy="74.8" r="1.0" fill="#EAFBFF" opacity="0.30" />
  <circle cx="187.6" cy="239.7" r="0.4" fill="#EAFBFF" opacity="0.46" />
  <circle cx="176.4" cy="17.1" r="1.3" fill="#CFEFFF" opacity="0.34" />
  <circle cx="32.4" cy="238.3" r="1.1" fill="#CFEFFF" opacity="0.22" />
  <circle cx="114.6" cy="194.7" r="1.1" fill="#CFEFFF" opacity="0.48" />
  <circle cx="75.5" cy="66.7" r="0.7" fill="#CFEFFF" opacity="0.42" />
  <circle cx="141.8" cy="237.5" r="0.4" fill="#D9F6FF" opacity="0.25" />
  <circle cx="51.6" cy="0.2" r="1.0" fill="#EAFBFF" opacity="0.37" />
  <circle cx="120.4" cy="39.2" r="1.2" fill="#CFEFFF" opacity="0.35" />
  <circle cx="25.0" cy="181.0" r="1.3" fill="#EAFBFF" opacity="0.35" />
  <circle cx="26.5" cy="39.4" r="1.4" fill="#EAFBFF" opacity="0.19" />
  <circle cx="101.6" cy="119.5" r="0.6" fill="#EAFBFF" opacity="0.47" />
  <circle cx="210.8" cy="18.4" r="1.4" fill="#CFEFFF" opacity="0.42" />
  <circle cx="180.7" cy="132.3" r="0.3" fill="#CFEFFF" opacity="0.36" />
  <circle cx="118.2" cy="157.2" r="0.5" fill="#D9F6FF" opacity="0.47" />
  <circle cx="149.9" cy="222.7" r="1.2" fill="#D9F6FF" opacity="0.26" />
  <circle cx="224.4" cy="121.2" r="0.8" fill="#D9F6FF" opacity="0.47" />
  <circle cx="220.7" cy="5.2" r="0.9" fill="#EAFBFF" opacity="0.46" />
  <circle cx="254.0" cy="83.0" r="0.4" fill="#EAFBFF" opacity="0.29" />
  <circle cx="235.7" cy="248.2" r="1.2" fill="#EAFBFF" opacity="0.47" />
  <circle cx="94.6" cy="206.2" r="1.0" fill="#EAFBFF" opacity="0.33" />
  <circle cx="116.4" cy="80.6" r="0.6" fill="#CFEFFF" opacity="0.19" />
  <circle cx="108.6" cy="159.5" r="1.5" fill="#EAFBFF" opacity="0.39" />
  <circle cx="226.7" cy="131.6" r="1.1" fill="#CFEFFF" opacity="0.37" />
  <circle cx="75.4" cy="39.8" r="0.8" fill="#D9F6FF" opacity="0.24" />
</svg>