<?xml version="1.0" encoding="UTF-8"?>
<svg xmlns="http://www.w3.org/2000/svg" viewBox="0 0 256 256" shape-rendering="geometricPrecision">
  <defs>
    <linearGradient id="bg-snow-powder" x1="0%" y1="0%" x2="100%" y2="100%">
      <stop offset="0%" stop-color="#EEF6FF" />
      <stop offset="52%" stop-color="#CFDFF1" />
      <stop offset="100%" stop-color="#FFFFFF" />
    </linearGradient>
  </defs>
  <rect width="256" height="256" fill="url(#bg-snow-powder)" />
  <line x1="-12.0" y1="222.5" x2="268.0" y2="221.0" stroke="#D0E0F4" stroke-width="0.99" opacity="0.19" stroke-linecap="round" />
  <line x1="-12.0" y1="243.7" x2="268.0" y2="242.5" stroke="#E1EEF9" stroke-width="0.68" opacity="0.23" stroke-linecap="round" />
  <line x1="-12.0" y1="234.0" x2="268.0" y2="233.9" stroke="#F8FBFF" stroke-width="0.57" opacity="0.25" stroke-linecap="round" />
  <line x1="-12.0" y1="46.1" x2="268.0" y2="39.8" stroke="#E1EEF9" stroke-width="0.84" opacity="0.15" stroke-linecap="round" />
  <line x1="-12.0" y1="143.8" x2="268.0" y2="150.2" stroke="#D0E0F4" stroke-width="1.07" opacity="0.17" stroke-linecap="round" />
  <line x1="-12.0" y1="247.0" x2="268.0" y2="246.5" stroke="#E1EEF9" stroke-width="0.75" opacity="0.25" stroke-linecap="round" />
  <line x1="-12.0" y1="124.0" x2="268.0" y2="122.2" stroke="#F8FBFF" stroke-width="1.10" opacity="0.22" stroke-linecap="round" />
  <line x1="-12.0" y1="202.8" x2="268.0" y2="196.1" stroke="#F8FBFF" stroke-width="1.20" opacity="0.15" stroke-linecap="round" />
  <line x1="-12.0" y1="255.5" x2="268.0" y2="250.9" stroke="#E1EEF9" stroke-width="1.36" opacity="0.22" stroke-linecap="round" />
  <line x1="-12.0" y1="46.0" x2="268.0" y2="50.8" stroke="#F8FBFF" stroke-width="1.19" opacity="0.22" stroke-linecap="round" />
  <line x1="-12.0" y1="164.7" x2="268.0" y2="159.0" stroke="#E1EEF9" stroke-width="0.99" opacity="0.23" stroke-linecap="round" />
  <line x1="-12.0" y1="235.0" x2="268.0" y2="234.9" stroke="#D0E0F4" stroke-width="0.96" opacity="0.16" stroke-linecap="round" />
  <line x1="-12.0" y1="139.8" x2="268.0" y2="140.7" stroke="#D0E0F4" stroke-width="1.30" opacity="0.13" stroke-linecap="round" />
  <line x1="-12.0" y1="47.3" x2="268.0" y2="53.8" stroke="#E1EEF9" stroke-width="1.33" opacity="0.24" stroke-linecap="round" />
  <line x1="-12.0" y1="96.4" x2="268.0" y2="101.5" stroke="#F8FBFF" stroke-width="0.76" opacity="0.19" stroke-linecap="round" />
  <line x1="-12.0" y1="63.0" x2="268.0" y2="67.5" stroke="#D0E0F4" stroke-width="0.83" opacity="0.30" stroke-linecap="round" />
  <line x1="-12.0" y1="208.7" x2="268.0" y2="208.5" stroke="#E1EEF9" stroke-width="0.56" opacity="0.23" stroke-linecap="round" />
  <line x1="-12.0" y1="124.6" x2="268.0" y2="118.1" stroke="#E1EEF9" stroke-width="0.78" opacity="0.24" stroke-linecap="round" />
  <line x1="-12.0" y1="-5.7" x2="268.0" y2="-7.5" stroke="#D0E0F4" stroke-width="1.17" opacity="0.18" stroke-linecap="round" />
  <line x1="-12.0" y1="245.6" x2="268.0" y2="250.5" stroke="#F8FBFF" stroke-width="1.04" opacity="0.16" stroke-linecap="round" />
  <line x1="-12.0" y1="135.0" x2="268.0" y2="128.6" stroke="#F8FBFF" stroke-width="1.04" opacity="0.27" stroke-linecap="round" />
  <line x1="-12.0" y1="33.7" x2="268.0" y2="28.0" stroke="#D0E0F4" stroke-width="1.19" opacity="0.22" stroke-linecap="round" />
  <line x1="-12.0" y1="41.8" x2="268.0" y2="44.1" stroke="#D0E0F4" stroke-width="1.31" opacity="0.21" stroke-linecap="round" />
  <line x1="-12.0" y1="207.4" x2="268.0" y2="203.5" stroke="#F8FBFF" stroke-width="1.13" opacity="0.23" stroke-linecap="round" />
  <line x1="-12.0" y1="66.5" x2="268.0" y2="66.6" stroke="#E1EEF9" stroke-width="1.32" opacity="0.21" stroke-linecap="round" />
  <line x1="-12.0" y1="215.4" x2="268.0" y2="210.3" stroke="#D0E0F4" stroke-width="0.61" opacity="0.23" stroke-linecap="round" />
  <line x1="-12.0" y1="167.2" x2="268.0" y2="169.2" stroke="#D0E0F4" stroke-width="1.04" opacity="0.15" stroke-linecap="round" />
  <line x1="-12.0" y1="137.0" x2="268.0" y2="143.9" stroke="#D0E0F4" stroke-width="1.25" opacity="0.20" stroke-linecap="round" />
  <line x1="-12.0" y1="226.0" x2="268.0" y2="231.3" stroke="#E1EEF9" stroke-width="0.71" opacity="0.30" stroke-linecap="round" />
  <line x1="-12.0" y1="52.1" x2="268.0" y2="51.3" stroke="#D0E0F4" stroke-width="0.68" opacity="0.17" stroke-linecap="round" />
  <line x1="-12.0" y1="133.5" x2="268.0" y2="136.0" stroke="#F8FBFF" stroke-width="0.98" opacity="0.16" stroke-linecap="round" />
  <line x1="-12.0" y1="216.6" x2="268.0" y2="211.7" stroke="#F8FBFF" stroke-width="1.24" opacity="0.25" stroke-linecap="round" />
  <line x1="-12.0" y1="68.3" x2="268.0" y2="74.7" stroke="#F8FBFF" stroke-width="0.77" opacity="0.18" stroke-linecap="round" />
  <line x1="-12.0" y1="58.6" x2="268.0" y2="63.4" stroke="#E1EEF9" stroke-width="0.91" opacity="0.28" stroke-linecap="round" />
  <line x1="-12.0" y1="151.5" x2="268.0" y2="147.0" stroke="#D0E0F4" stroke-width="1.01" opacity="0.30" stroke-linecap="round" />
  <line x1="-12.0" y1="243.6" x2="268.0" y2="242.9" stroke="#E1EEF9" stroke-width="1.09" opacity="0.14" stroke-linecap="round" />
  <line x1="-12.0" y1="240.2" x2="268.0" y2="235.2" stroke="#E1EEF9" stroke-width="0.77" opacity="0.22" stroke-linecap="round" />
  <line x1="-12.0" y1="72.3" x2="268.0" y2="72.7" stroke="#F8FBFF" stroke-width="1.13" opacity="0.20" stroke-linecap="round" />
  <line x1="-12.0" y1="149.6" x2="268.0" y2="145.8" stroke="#F8FBFF" stroke-width="1.40" opacity="0.24" stroke-linecap="round" />
  <line x1="-12.0" y1="213.0" x2="268.0" y2="219.6" stroke="#E1EEF9" stroke-width="0.90" opacity="0.28" stroke-linecap="round" />
  <line x1="-12.0" y1="113.3" x2="268.0" y2="120.0" stroke="#F8FBFF" stroke-width="0.68" opacity="0.14" stroke-linecap="round" />
  <line x1="-12.0" y1="43.0" x2="268.0" y2="36.7" stroke="#F8FBFF" stroke-width="0.66" opacity="0.19" stroke-linecap="round" />
  <line x1="-12.0" y1="240.9" x2="268.0" y2="236.7" stroke="#D0E0F4" stroke-width="1.21" opacity="0.24" stroke-linecap="round" />
  <line x1="-12.0" y1="163.6" x2="268.0" y2="163.2" stroke="#E1EEF9" stroke-width="1.22" opacity="0.18" stroke-linecap="round" />
  <line x1="-12.0" y1="229.6" x2="268.0" y2="228.5" stroke="#D0E0F4" stroke-width="0.98" opacity="0.29" stroke-linecap="round" />
  <line x1="-12.0" y1="184.4" x2="268.0" y2="182.8" stroke="#D0E0F4" stroke-width="0.73" opacity="0.18" stroke-linecap="round" />
  <line x1="-12.0" y1="79.8" x2="268.0" y2="73.7" stroke="#E1EEF9" stroke-width="0.67" opacity="0.30" stroke-linecap="round" />
  <line x1="-12.0" y1="91.6" x2="268.0" y2="98.4" stroke="#F8FBFF" stroke-width="0.85" opacity="0.18" stroke-linecap="round" />
  <line x1="-12.0" y1="15.4" x2="268.0" y2="9.7" stroke="#D0E0F4" stroke-width="0.62" opacity="0.22" stroke-linecap="round" />
  <line x1="-12.0" y1="216.2" x2="268.0" y2="221.1" stroke="#E1EEF9" stroke-width="0.72" opacity="0.19" stroke-linecap="round" />
  <line x1="-12.0" y1="239.3" x2="268.0" y2="235.3" stroke="#E1EEF9" stroke-width="0.62" opacity="0.19" stroke-linecap="round" />
  <line x1="-12.0" y1="143.5" x2="268.0" y2="141.2" stroke="#E1EEF9" stroke-width="1.33" opacity="0.21" stroke-linecap="round" />
  <line x1="-12.0" y1="157.3" x2="268.0" y2="162.4" stroke="#E1EEF9" stroke-width="1.01" opacity="0.18" stroke-linecap="round" />
  <line x1="-12.0" y1="139.9" x2="268.0" y2="144.0" stroke="#E1EEF9" stroke-width="0.88" opacity="0.27" stroke-linecap="round" />
  <line x1="-12.0" y1="68.6" x2="268.0" y2="68.2" stroke="#E1EEF9" stroke-width="1.21" opacity="0.19" stroke-linecap="round" />
  <line x1="-12.0" y1="169.6" x2="268.0" y2="172.5" stroke="#D0E0F4" stroke-width="0.59" opacity="0.28" stroke-linecap="round" />
  <line x1="-12.0" y1="125.6" x2="268.0" y2="121.4" stroke="#E1EEF9" stroke-width="1.11" opacity="0.22" stroke-linecap="round" />
  <line x1="-12.0" y1="141.2" x2="268.0" y2="137.8" stroke="#D0E0F4" stroke-width="1.02" opacity="0.18" stroke-linecap="round" />
  <line x1="-12.0" y1="155.3" x2="268.0" y2="154.7" stroke="#E1EEF9" stroke-width="1.24" opacity="0.20" stroke-linecap="round" />
  <line x1="-12.0" y1="172.5" x2="268.0" y2="171.3" stroke="#E1EEF9" stroke-width="1.12" opacity="0.18" stroke-linecap="round" />
  <line x1="-12.0" y1="168.9" x2="268.0" y2="171.7" stroke="#D0E0F4" stroke-width="0.76" opacity="0.12" stroke-linecap="round" />
  <line x1="-12.0" y1="148.3" x2="268.0" y2="149.4" stroke="#E1EEF9" stroke-width="0.84" opacity="0.16" stroke-linecap="round" />
  <line x1="-12.0" y1="169.0" x2="268.0" y2="175.3" stroke="#D0E0F4" stroke-width="1.09" opacity="0.24" stroke-linecap="round" />
  <line x1="-12.0" y1="160.3" x2="268.0" y2="161.4" stroke="#D0E0F4" stroke-width="1.18" opacity="0.22" stroke-linecap="round" />
  <line x1="-12.0" y1="162.5" x2="268.0" y2="161.7" stroke="#F8FBFF" stroke-width="1.16" opacity="0.14" stroke-linecap="round" />
  <line x1="-12.0" y1="87.2" x2="268.0" y2="84.5" stroke="#D0E0F4" stroke-width="0.88" opacity="0.13" stroke-linecap="round" />
  <line x1="-12.0" y1="29.0" x2="268.0" y2="31.0" stroke="#F8FBFF" stroke-width="1.00" opacity="0.28" stroke-linecap="round" />
  <line x1="-12.0" y1="125.8" x2="268.0" y2="132.5" stroke="#E1EEF9" stroke-width="1.07" opacity="0.23" stroke-linecap="round" />
  <line x1="-12.0" y1="222.8" x2="268.0" y2="221.3" stroke="#D0E0F4" stroke-width="1.26" opacity="0.19" stroke-linecap="round" />
  <line x1="-12.0" y1="185.6" x2="268.0" y2="191.8" stroke="#F8FBFF" stroke-width="1.11" opacity="0.18" stroke-linecap="round" />
  <line x1="-12.0" y1="172.7" x2="268.0" y2="168.4" stroke="#D0E0F4" stroke-width="1.11" opacity="0.25" stroke-linecap="round" />
  <line x1="-12.0" y1="-4.1" x2="268.0" y2="-10.4" stroke="#E1EEF9" stroke-width="1.15" opacity="0.19" stroke-linecap="round" />
  <ellipse cx="169.5" cy="-17.6" rx="8.3" ry="8.4" fill="#F4FAFF" opacity="0.06" transform="rotate(58.4 169.5 -17.6)" />
  <ellipse cx="137.2" cy="171.5" rx="16.6" ry="21.2" fill="#E6EFF9" opacity="0.06" transform="rotate(80.9 137.2 171.5)" />
  <ellipse cx="252.0" cy="18.3" rx="13.6" ry="9.5" fill="#F4FAFF" opacity="0.05" transform="rotate(155.1 252.0 18.3)" />
  <ellipse cx="261.7" cy="41.3" rx="9.8" ry="11.3" fill="#D9E8F7" opacity="0.08" transform="rotate(43.2 261.7 41.3)" />
  <ellipse cx="269.2" cy="80.6" rx="10.2" ry="7.3" fill="#F4FAFF" opacity="0.04" transform="rotate(115.9 269.2 80.6)" />
  <ellipse cx="58.3" cy="211.0" rx="23.8" ry="23.9" fill="#D9E8F7" opacity="0.09" transform="rotate(88.5 58.3 211.0)" />
  <ellipse cx="49.3" cy="-3.3" rx="12.2" ry="14.5" fill="#D9E8F7" opacity="0.08" transform="rotate(83.3 49.3 -3.3)" />
  <ellipse cx="201.8" cy="-3.4" rx="18.1" ry="23.2" fill="#F4FAFF" opacity="0.05" transform="rotate(14.5 201.8 -3.4)" />
  <ellipse cx="75.2" cy="63.4" rx="17.2" ry="16.1" fill="#D9E8F7" opacity="0.04" transform="rotate(118.0 75.2 63.4)" />
  <ellipse cx="47.9" cy="111.0" rx="22.3" ry="29.3" fill="#E6EFF9" opacity="0.10" transform="rotate(98.1 47.9 111.0)" />
  <ellipse cx="227.5" cy="-6.6" rx="20.4" ry="23.5" fill="#F4FAFF" opacity="0.06" transform="rotate(29.3 227.5 -6.6)" />
  <ellipse cx="189.5" cy="225.1" rx="21.4" ry="17.7" fill="#D9E8F7" opacity="0.09" transform="rotate(106.3 189.5 225.1)" />
  <ellipse cx="161.6" cy="249.5" rx="10.3" ry="10.5" fill="#E6EFF9" opacity="0.07" transform="rotate(29.8 161.6 249.5)" />
  <ellipse cx="236.5" cy="218.2" rx="17.9" ry="22.8" fill="#E6EFF9" opacity="0.09" transform="rotate(83.9 236.5 218.2)" />
  <ellipse cx="186.2" cy="102.2" rx="10.9" ry="6.1" fill="#F4FAFF" opacity="0.08" transform="rotate(147.3 186.2 102.2)" />
  <ellipse cx="20.9" cy="36.9" rx="20.3" ry="23.8" fill="#D9E8F7" opacity="0.04" transform="rotate(0.3 20.9 36.9)" />
  <ellipse cx="6.9" cy="157.5" rx="11.2" ry="7.9" fill="#F4FAFF" opacity="0.08" transform="rotate(111.5 6.9 157.5)" />
  <ellipse cx="265.6" cy="246.6" rx="8.2" ry="5.0" fill="#D9E8F7" opacity="0.09" transform="rotate(89.6 265.6 246.6)" />
  <ellipse cx="12.7" cy="131.6" rx="8.1" ry="7.4" fill="#E6EFF9" opacity="0.06" transform="rotate(135.9 12.7 131.6)" />
  <ellipse cx="83.9" cy="246.8" rx="20.5" ry="23.4" fill="#D9E8F7" opacity="0.05" transform="rotate(137.0 83.9 246.8)" />
  <ellipse cx="212.7" cy="93.4" rx="10.2" ry="12.8" fill="#E6EFF9" opacity="0.06" transform="rotate(90.0 212.7 93.4)" />
  <ellipse cx="10.0" cy="100.9" rx="8.7" ry="11.2" fill="#E6EFF9" opacity="0.04" transform="rotate(81.9 10.0 100.9)" />
  <ellipse cx="259.6" cy="-17.5" rx="14.2" ry="17.8" fill="#E6EFF9" opacity="0.09" transform="rotate(148.4 259.6 -17.5)" />
  <ellipse cx="197.2" cy="246.2" rx="19.8" ry="26.4" fill="#F4FAFF" opacity="0.06" transform="rotate(129.6 197.2 246.2)" />
  <ellipse cx="-9.9" cy="213.2" rx="12.7" ry="13.1" fill="#D9E8F7" opacity="0.08" transform="rotate(111.5 -9.9 213.2)" />
  <ellipse cx="85.5" cy="136.9" rx="19.8" ry="19.3" fill="#F4FAFF" opacity="0.10" transform="rotate(142.5 85.5 136.9)" />
  <ellipse cx="115.6" cy="146.6" rx="15.0" ry="13.4" fill="#D9E8F7" opacity="0.09" transform="rotate(27.2 115.6 146.6)" />
  <ellipse cx="130.7" cy="94.0" rx="16.7" ry="13.0" fill="#F4FAFF" opacity="0.07" transform="rotate(38.4 130.7 94.0)" />
  <ellipse cx="273.9" cy="111.4" rx="23.6" ry="25.3" fill="#D9E8F7" opacity="0.04" transform="rotate(48.1 273.9 111.4)" />
  <ellipse cx="140.2" cy="240.3" rx="11.0" ry="14.2" fill="#F4FAFF" opacity="0.07" transform="rotate(78.2 140.2 240.3)" />
  <ellipse cx="216.5" cy="135.0" rx="15.9" ry="14.6" fill="#E6EFF9" opacity="0.08" transform="rotate(70.1 216.5 135.0)" />
  <ellipse cx="222.1" cy="3.0" rx="12.9" ry="11.3" fill="#D9E8F7" opacity="0.06" transform="rotate(92.5 222.1 3.0)" />
  <ellipse cx="228.1" cy="27.5" rx="11.0" ry="11.5" fill="#DCEAF8" opacity="0.09" transform="rotate(132.1 228.1 27.5)" />
  <ellipse cx="77.9" cy="155.1" rx="6.2" ry="6.9" fill="#DCEAF8" opacity="0.04" transform="rotate(106.6 77.9 155.1)" />
  <ellipse cx="267.7" cy="73.0" rx="10.5" ry="8.7" fill="#DCEAF8" opacity="0.09" transform="rotate(95.0 267.7 73.0)" />
  <ellipse cx="86.5" cy="-1.3" rx="6.8" ry="3.8" fill="#DCEAF8" opacity="0.06" transform="rotate(24.4 86.5 -1.3)" />
  <ellipse cx="112.0" cy="251.6" rx="11.6" ry="7.6" fill="#DCEAF8" opacity="0.06" transform="rotate(173.8 112.0 251.6)" />
  <ellipse cx="0.2" cy="156.3" rx="6.8" ry="4.9" fill="#FFFFFF" opacity="0.05" transform="rotate(76.4 0.2 156.3)" />
  <ellipse cx="210.0" cy="37.1" rx="9.6" ry="5.6" fill="#FFFFFF" opacity="0.03" transform="rotate(81.6 210.0 37.1)" />
  <ellipse cx="2.2" cy="214.5" rx="6.5" ry="5.2" fill="#EEF7FF" opacity="0.07" transform="rotate(62.6 2.2 214.5)" />
  <ellipse cx="81.5" cy="-5.8" rx="9.9" ry="11.8" fill="#FFFFFF" opacity="0.06" transform="rotate(110.9 81.5 -5.8)" />
  <ellipse cx="25.0" cy="268.2" rx="7.0" ry="8.5" fill="#EEF7FF" opacity="0.09" transform="rotate(171.7 25.0 268.2)" />
  <ellipse cx="150.9" cy="158.1" rx="7.9" ry="9.2" fill="#FFFFFF" opacity="0.05" transform="rotate(93.4 150.9 158.1)" />
  <ellipse cx="39.8" cy="49.9" rx="9.7" ry="8.1" fill="#EEF7FF" opacity="0.07" transform="rotate(60.1 39.8 49.9)" />
  <ellipse cx="53.7" cy="225.4" rx="4.2" ry="3.3" fill="#DCEAF8" opacity="0.08" transform="rotate(2.4 53.7 225.4)" />
  <ellipse cx="146.2" cy="156.2" rx="9.7" ry="12.0" fill="#EEF7FF" opacity="0.06" transform="rotate(153.9 146.2 156.2)" />
  <ellipse cx="178.2" cy="50.4" rx="8.0" ry="4.5" fill="#EEF7FF" opacity="0.04" transform="rotate(152.2 178.2 50.4)" />
  <ellipse cx="-2.2" cy="229.3" rx="5.8" ry="5.6" fill="#FFFFFF" opacity="0.07" transform="rotate(80.0 -2.2 229.3)" />
  <ellipse cx="210.5" cy="260.0" rx="9.3" ry="11.8" fill="#DCEAF8" opacity="0.06" transform="rotate(152.9 210.5 260.0)" />
  <ellipse cx="44.7" cy="151.4" rx="8.0" ry="4.5" fill="#DCEAF8" opacity="0.08" transform="rotate(173.8 44.7 151.4)" />
  <circle cx="150.5" cy="200.5" r="1.3" fill="#FFFFFF" opacity="0.33" />
  <circle cx="213.1" cy="39.0" r="0.8" fill="#F4FAFF" opacity="0.32" />
  <circle cx="169.1" cy="85.3" r="0.8" fill="#DCE9F8" opacity="0.41" />
  <circle cx="253.8" cy="170.2" r="0.8" fill="#FFFFFF" opacity="0.39" />
  <circle cx="91.1" cy="128.0" r="1.4" fill="#F4FAFF" opacity="0.33" />
  <circle cx="12.7" cy="37.6" r="1.3" fill="#F4FAFF" opacity="0.40" />
  <circle cx="79.5" cy="68.8" r="1.2" fill="#FFFFFF" opacity="0.33" />
  <circle cx="185.8" cy="188.9" r="0.5" fill="#DCE9F8" opacity="0.26" />
  <circle cx="116.0" cy="95.5" r="0.5" fill="#F4FAFF" opacity="0.34" />
  <circle cx="152.4" cy="176.2" r="0.7" fill="#F4FAFF" opacity="0.19" />
  <circle cx="126.0" cy="148.8" r="1.3" fill="#F4FAFF" opacity="0.25" />
  <circle cx="229.3" cy="107.4" r="0.6" fill="#F4FAFF" opacity="0.18" />
  <circle cx="254.0" cy="45.8" r="0.6" fill="#F4FAFF" opacity="0.36" />
  <circle cx="164.5" cy="74.5" r="0.7" fill="#DCE9F8" opacity="0.22" />
  <circle cx="230.8" cy="13.4" r="1.2" fill="#FFFFFF" opacity="0.18" />
  <circle cx="27.3" cy="113.9" r="0.7" fill="#DCE9F8" opacity="0.28" />
  <circle cx="8.7" cy="183.9" r="1.3" fill="#F4FAFF" opacity="0.32" />
  <circle cx="197.2" cy="165.9" r="0.7" fill="#FFFFFF" opacity="0.22" />
  <circle cx="18.5" cy="9.8" r="0.6" fill="#DCE9F8" opacity="0.28" />
  <circle cx="95.9" cy="127.1" r="0.7" fill="#FFFFFF" opacity="0.22" />
  <circle cx="209.0" cy="57.8" r="0.8" fill="#FFFFFF" opacity="0.32" />
  <circle cx="43.4" cy="95.5" r="0.4" fill="#FFFFFF" opacity="0.27" />
  <circle cx="74.8" cy="118.2" r="0.3" fill="#DCE9F8" opacity="0.20" />
  <circle cx="102.2" cy="110.6" r="1.2" fill="#F4FAFF" opacity="0.25" />
  <circle cx="10.6" cy="75.4" r="0.5" fill="#FFFFFF" opacity="0.32" />
  <circle cx="121.7" cy="122.5" r="0.8" fill="#FFFFFF" opacity="0.18" />
  <circle cx="139.4" cy="201.1" r="1.3" fill="#FFFFFF" opacity="0.24" />
  <circle cx="218.7" cy="62.5" r="0.5" fill="#DCE9F8" opacity="0.32" />
  <circle cx="164.2" cy="113.8" r="1.1" fill="#F4FAFF" opacity="0.18" />
  <circle cx="186.5" cy="212.9" r="0.5" fill="#FFFFFF" opacity="0.41" />
  <circle cx="160.0" cy="240.0" r="0.6" fill="#F4FAFF" opacity="0.22" />
  <circle cx="24.1" cy="239.6" r="0.3" fill="#DCE9F8" opacity="0.18" />
  <circle cx="41.7" cy="238.9" r="1.4" fill="#F4FAFF" opacity="0.22" />
  <circle cx="37.5" cy="137.7" r="0.7" fill="#F4FAFF" opacity="0.39" />
  <circle cx="32.8" cy="223.7" r="0.3" fill="#F4FAFF" opacity="0.36" />
  <circle cx="103.2" cy="46.5" r="1.4" fill="#DCE9F8" opacity="0.18" />
  <circle cx="125.9" cy="185.0" r="0.7" fill="#FFFFFF" opacity="0.23" />
  <circle cx="72.1" cy="186.5" r="0.8" fill="#DCE9F8" opacity="0.33" />
  <circle cx="194.5" cy="181.3" r="0.7" fill="#DCE9F8" opacity="0.20" />
  <circle cx="196.5" cy="119.5" r="1.2" fill="#DCE9F8" opacity="0.21" />
  <circle cx="114.9" cy="40.0" r="0.3" fill="#FFFFFF" opacity="0.42" />
  <circle cx="237.7" cy="18.5" r="0.4" fill="#F4FAFF" opacity="0.17" />
  <circle cx="84.3" cy="75.2" r="1.2" fill="#DCE9F8" opacity="0.33" />
  <circle cx="85.3" cy="254.6" r="0.6" fill="#DCE9F8" opacity="0.40" />
  <circle cx="11.6" cy="106.6" r="0.7" fill="#F4FAFF" opacity="0.18" />
  <circle cx="172.2" cy="187.9" r="0.5" fill="#DCE9F8" opacity="0.19" />
  <circle cx="218.7" cy="212.9" r="0.8" fill="#DCE9F8" opacity="0.16" />
  <circle cx="21.9" cy="53.6" r="1.3" fill="#DCE9F8" opacity="0.40" />
  <circle cx="193.8" cy="22.0" r="1.3" fill="#FFFFFF" opacity="0.38" />
  <circle cx="51.7" cy="58.3" r="1.1" fill="#FFFFFF" opacity="0.22" />
  <circle cx="8.1" cy="125.1" r="0.3" fill="#DCE9F8" opacity="0.28" />
  <circle cx="5.5" cy="175.8" r="0.9" fill="#FFFFFF" opacity="0.36" />
  <circle cx="183.2" cy="148.3" r="1.3" fill="#FFFFFF" opacity="0.23" />
  <circle cx="204.9" cy="104.3" r="0.9" fill="#FFFFFF" opacity="0.34" />
  <circle cx="108.7" cy="33.5" r="0.5" fill="#FFFFFF" opacity="0.21" />
  <circle cx="84.6" cy="182.9" r="0.9" fill="#F4FAFF" opacity="0.29" />
  <circle cx="30.8" cy="121.6" r="0.4" fill="#F4FAFF" opacity="0.19" />
  <circle cx="189.0" cy="58.6" r="0.5" fill="#DCE9F8" opacity="0.35" />
  <circle cx="191.3" cy="211.8" r="1.0" fill="#FFFFFF" opacity="0.28" />
  <circle cx="217.8" cy="152.7" r="0.8" fill="#FFFFFF" opacity="0.33" />
  <circle cx="174.1" cy="73.7" r="0.5" fill="#FFFFFF" opacity="0.23" />
  <circle cx="245.8" cy="100.1" r="0.6" fill="#F4FAFF" opacity="0.27" />
  <circle cx="228.2" cy="148.7" r="0.6" fill="#FFFFFF" opacity="0.29" />
  <circle cx="229.6" cy="31.0" r="1.4" fill="#F4FAFF" opacity="0.42" />
  <circle cx="9.9" cy="20.5" r="0.3" fill="#F4FAFF" opacity="0.29" />
  <circle cx="138.0" cy="227.8" r="1.1" fill="#FFFFFF" opacity="0.18" />
  <circle cx="177.9" cy="222.2" r="0.9" fill="#FFFFFF" opacity="0.23" />
  <circle cx="181.8" cy="166.8" r="1.2" fill="#DCE9F8" opacity="0.25" />
  <circle cx="158.7" cy="90.7" r="0.9" fill="#FFFFFF" opacity="0.28" />
  <circle cx="221.8" cy="179.1" r="0.7" fill="#FFFFFF" opacity="0.41" />
  <circle cx="219.3" cy="97.9" r="0.8" fill="#DCE9F8" opacity="0.25" />
  <circle cx="94.5" cy="132.7" r="0.4" fill="#DCE9F8" opacity="0.37" />
  <circle cx="219.8" cy="15.9" r="0.9" fill="#F4FAFF" opacity="0.28" />
  <circle cx="19.0" cy="175.5" r="0.7" fill="#FFFFFF" opacity="0.27" />
  <circle cx="150.2" cy="156.1" r="0.6" fill="#FFFFFF" opacity="0.34" />
  <circle cx="6.8" cy="52.1" r="0.4" fill="#FFFFFF" opacity="0.36" />
  <circle cx="23.7" cy="49.6" r="0.8" fill="#FFFFFF" opacity="0.38" />
  <circle cx="126.7" cy="214.9" r="1.4" fill="#DCE9F8" opacity="0.40" />
  <circle cx="23.0" cy="89.6" r="0.7" fill="#DCE9F8" opacity="0.38" />
  <circle cx="182.5" cy="142.7" r="0.5" fill="#DCE9F8" opacity="0.35" />
  <circle cx="201.6" cy="71.6" r="0.4" fill="#FFFFFF" opacity="0.40" />
  <circle cx="207.1" cy="200.5" r="0.6" fill="#FFFFFF" opacity="0.35" />
  <circle cx="69.0" cy="96.7" r="1.3" fill="#FFFFFF" opacity="0.21" />
  <circle cx="146.4" cy="135.3" r="0.8" fill="#FFFFFF" opacity="0.34" />
  <circle cx="116.9" cy="9.2" r="0.6" fill="#F4FAFF" opacity="0.32" />
  <circle cx="42.2" cy="198.8" r="0.6" fill="#F4FAFF" opacity="0.18" />
  <circle cx="93.6" cy="67.3" r="1.3" fill="#DCE9F8" opacity="0.26" />
  <circle cx="227.9" cy="156.0" r="0.9" fill="#DCE9F8" opacity="0.31" />
  <circle cx="9.2" cy="6.8" r="1.3" fill="#FFFFFF" opacity="0.30" />
  <circle cx="171.8" cy="85.8" r="0.4" fill="#F4FAFF" opacity="0.40" />
  <circle cx="195.1" cy="147.7" r="0.8" fill="#F4FAFF" opacity="0.21" />
  <circle cx="29.8" cy="37.0" r="0.8" fill="#DCE9F8" opacity="0.17" />
  <circle cx="113.7" cy="223.1" r="0.5" fill="#DCE9F8" opacity="0.41" />
  <circle cx="239.2" cy="63.4" r="0.9" fill="#F4FAFF" opacity="0.18" />
  <circle cx="200.5" cy="205.3" r="0.5" fill="#DCE9F8" opacity="0.25" />
  <circle cx="251.6" cy="155.3" r="0.9" fill="#DCE9F8" opacity="0.41" />
  <path d="M 75.0 59.9 q 0.8 -2.9 2.0 -13.2" stroke="#D8E7F6" stroke-width="0.42" opacity="0.13" fill="none" stroke-linecap="round" stroke-linejoin="round" />
  <path d="M 179.8 240.9 q -0.3 -1.5 -0.7 -6.8" stroke="#C4D9EE" stroke-width="0.39" opacity="0.14" fill="none" stroke-linecap="round" stroke-linejoin="round" />
  <path d="M 218.2 183.8 q -0.2 -2.9 -0.5 -13.3" stroke="#C4D9EE" stroke-width="0.66" opacity="0.21" fill="none" stroke-linecap="round" stroke-linejoin="round" />
  <path d="M 17.0 132.1 q -1.2 -2.7 -3.0 -12.2" stroke="#C4D9EE" stroke-width="0.75" opacity="0.18" fill="none" stroke-linecap="round" stroke-linejoin="round" />
  <path d="M 231.1 159.9 q 0.3 -2.7 0.7 -12.1" stroke="#F7FBFF" stroke-width="0.37" opacity="0.11" fill="none" stroke-linecap="round" stroke-linejoin="round" />
  <path d="M 120.4 132.3 q -1.0 -3.2 -2.4 -14.4" stroke="#D8E7F6" stroke-width="0.51" opacity="0.14" fill="none" stroke-linecap="round" stroke-linejoin="round" />
  <path d="M 197.4 181.8 q -0.1 -3.2 -0.3 -14.7" stroke="#C4D9EE" stroke-width="0.38" opacity="0.12" fill="none" stroke-linecap="round" stroke-linejoin="round" />
  <path d="M 226.6 228.9 q -1.4 -2.6 -3.4 -11.9" stroke="#F7FBFF" stroke-width="0.35" opacity="0.09" fill="none" stroke-linecap="round" stroke-linejoin="round" />
  <path d="M 31.5 60.6 q 0.6 -1.8 1.6 -8.4" stroke="#C4D9EE" stroke-width="0.73" opacity="0.14" fill="none" stroke-linecap="round" stroke-linejoin="round" />
  <path d="M 63.8 169.3 q -0.3 -1.7 -0.8 -7.8" stroke="#D8E7F6" stroke-width="0.45" opacity="0.16" fill="none" stroke-linecap="round" stroke-linejoin="round" />
  <path d="M 48.4 147.2 q -1.3 -3.4 -3.3 -15.6" stroke="#F7FBFF" stroke-width="0.54" opacity="0.13" fill="none" stroke-linecap="round" stroke-linejoin="round" />
  <path d="M 255.3 4.0 q 0.8 -1.6 2.0 -7.1" stroke="#D8E7F6" stroke-width="0.73" opacity="0.22" fill="none" stroke-linecap="round" stroke-linejoin="round" />
  <path d="M 241.1 146.8 q 0.1 -3.3 0.3 -15.1" stroke="#F7FBFF" stroke-width="0.70" opacity="0.19" fill="none" stroke-linecap="round" stroke-linejoin="round" />
  <path d="M 167.0 87.6 q -0.9 -1.9 -2.1 -8.8" stroke="#F7FBFF" stroke-width="0.46" opacity="0.20" fill="none" stroke-linecap="round" stroke-linejoin="round" />
  <path d="M 214.7 50.0 q -0.8 -2.6 -1.9 -11.8" stroke="#D8E7F6" stroke-width="0.44" opacity="0.18" fill="none" stroke-linecap="round" stroke-linejoin="round" />
  <path d="M 37.9 49.7 q -0.6 -3.4 -1.5 -15.2" stroke="#C4D9EE" stroke-width="0.72" opacity="0.15" fill="none" stroke-linecap="round" stroke-linejoin="round" />
  <path d="M 146.1 60.1 q -1.0 -1.5 -2.5 -6.6" stroke="#D8E7F6" stroke-width="0.48" opacity="0.13" fill="none" stroke-linecap="round" stroke-linejoin="round" />
  <path d="M 176.0 239.4 q -0.0 -2.8 -0.1 -12.7" stroke="#F7FBFF" stroke-width="0.53" opacity="0.14" fill="none" stroke-linecap="round" stroke-linejoin="round" />
  <path d="M 46.4 52.4 q -1.2 -2.3 -3.0 -10.6" stroke="#D8E7F6" stroke-width="0.43" opacity="0.20" fill="none" stroke-linecap="round" stroke-linejoin="round" />
  <path d="M 3.1 247.9 q 0.5 -2.8 1.3 -12.6" stroke="#C4D9EE" stroke-width="0.47" opacity="0.11" fill="none" stroke-linecap="round" stroke-linejoin="round" />
  <path d="M 95.9 158.4 q -1.3 -1.7 -3.3 -7.9" stroke="#C4D9EE" stroke-width="0.80" opacity="0.11" fill="none" stroke-linecap="round" stroke-linejoin="round" />
  <path d="M 140.9 234.3 q 0.9 -2.8 2.3 -12.9" stroke="#C4D9EE" stroke-width="0.51" opacity="0.19" fill="none" stroke-linecap="round" stroke-linejoin="round" />
  <path d="M 222.5 180.3 q 0.3 -2.9 0.8 -13.4" stroke="#D8E7F6" stroke-width="0.68" opacity="0.17" fill="none" stroke-linecap="round" stroke-linejoin="round" />
  <path d="M 2.1 39.5 q 0.3 -3.0 0.7 -13.6" stroke="#D8E7F6" stroke-width="0.48" opacity="0.15" fill="none" stroke-linecap="round" stroke-linejoin="round" />
  <path d="M 220.8 203.4 q -1.4 -2.7 -3.4 -12.4" stroke="#D8E7F6" stroke-width="0.61" opacity="0.15" fill="none" stroke-linecap="round" stroke-linejoin="round" />
  <path d="M 59.7 247.9 q 0.2 -3.4 0.5 -15.4" stroke="#D8E7F6" stroke-width="0.54" opacity="0.12" fill="none" stroke-linecap="round" stroke-linejoin="round" />
  <path d="M 152.9 192.5 q -0.3 -1.9 -0.7 -8.4" stroke="#C4D9EE" stroke-width="0.50" opacity="0.14" fill="none" stroke-linecap="round" stroke-linejoin="round" />
  <path d="M 193.5 187.7 q 0.6 -1.4 1.6 -6.4" stroke="#F7FBFF" stroke-width="0.66" opacity="0.20" fill="none" stroke-linecap="round" stroke-linejoin="round" />
  <path d="M 71.0 16.8 q -0.1 -3.1 -0.3 -14.3" stroke="#F7FBFF" stroke-width="0.73" opacity="0.22" fill="none" stroke-linecap="round" stroke-linejoin="round" />
  <path d="M 237.7 128.5 q 1.3 -3.0 3.2 -13.6" stroke="#D8E7F6" stroke-width="0.43" opacity="0.15" fill="none" stroke-linecap="round" stroke-linejoin="round" />
  <path d="M 54.3 117.2 q 0.1 -1.9 0.3 -8.6" stroke="#F7FBFF" stroke-width="0.79" opacity="0.11" fill="none" stroke-linecap="round" stroke-linejoin="round" />
  <path d="M 161.7 185.2 q -0.9 -1.8 -2.3 -8.4" stroke="#F7FBFF" stroke-width="0.61" opacity="0.13" fill="none" stroke-linecap="round" stroke-linejoin="round" />
  <path d="M 194.1 19.4 q 0.8 -2.8 1.9 -12.5" stroke="#D8E7F6" stroke-width="0.71" opacity="0.14" fill="none" stroke-linecap="round" stroke-linejoin="round" />
  <path d="M 222.6 41.5 q -1.4 -2.6 -3.4 -11.8" stroke="#D8E7F6" stroke-width="0.42" opacity="0.11" fill="none" stroke-linecap="round" stroke-linejoin="round" />
  <path d="M 59.0 211.4 q 0.6 -2.5 1.4 -11.4" stroke="#D8E7F6" stroke-width="0.53" opacity="0.08" fill="none" stroke-linecap="round" stroke-linejoin="round" />
  <path d="M 122.3 48.1 q -0.8 -1.9 -2.0 -8.8" stroke="#F7FBFF" stroke-width="0.49" opacity="0.11" fill="none" stroke-linecap="round" stroke-linejoin="round" />
  <path d="M 20.6 71.3 q -1.3 -2.6 -3.1 -11.6" stroke="#C4D9EE" stroke-width="0.62" opacity="0.15" fill="none" stroke-linecap="round" stroke-linejoin="round" />
  <path d="M 207.5 168.6 q -0.2 -2.5 -0.6 -11.4" stroke="#C4D9EE" stroke-width="0.57" opacity="0.14" fill="none" stroke-linecap="round" stroke-linejoin="round" />
  <path d="M 54.3 70.1 q 1.0 -1.8 2.5 -8.4" stroke="#D8E7F6" stroke-width="0.65" opacity="0.21" fill="none" stroke-linecap="round" stroke-linejoin="round" />
  <path d="M 44.3 138.4 q 1.0 -2.4 2.5 -11.0" stroke="#D8E7F6" stroke-width="0.52" opacity="0.13" fill="none" stroke-linecap="round" stroke-linejoin="round" />
  <path d="M 109.4 134.4 q 0.4 -2.3 1.0 -10.3" stroke="#D8E7F6" stroke-width="0.77" opacity="0.12" fill="none" stroke-linecap="round" stroke-linejoin="round" />
  <path d="M 107.5 238.6 q 0.1 -2.5 0.4 -11.3" stroke="#F7FBFF" stroke-width="0.67" opacity="0.10" fill="none" stroke-linecap="round" stroke-linejoin="round" />
  <path d="M 60.6 229.9 q -0.1 -3.2 -0.3 -14.4" stroke="#C4D9EE" stroke-width="0.56" opacity="0.17" fill="none" stroke-linecap="round" stroke-linejoin="round" />
  <path d="M 249.4 113.5 q 1.2 -1.5 3.0 -6.8" stroke="#C4D9EE" stroke-width="0.67" opacity="0.17" fill="none" stroke-linecap="round" stroke-linejoin="round" />
  <path d="M 226.3 130.9 q 0.9 -3.0 2.4 -13.6" stroke="#D8E7F6" stroke-width="0.61" opacity="0.09" fill="none" stroke-linecap="round" stroke-linejoin="round" />
  <path d="M 201.5 237.0 q -1.3 -2.9 -3.3 -13.3" stroke="#C4D9EE" stroke-width="0.55" opacity="0.20" fill="none" stroke-linecap="round" stroke-linejoin="round" />
  <path d="M 189.8 47.9 q -0.5 -3.1 -1.2 -14.3" stroke="#F7FBFF" stroke-width="0.52" opacity="0.09" fill="none" stroke-linecap="round" stroke-linejoin="round" />
  <path d="M 42.2 184.3 q -0.5 -1.9 -1.4 -8.6" stroke="#F7FBFF" stroke-width="0.51" opacity="0.20" fill="none" stroke-linecap="round" stroke-linejoin="round" />
</svg>