<?xml version="1.0" encoding="UTF-8"?>
<svg xmlns="http://www.w3.org/2000/svg" viewBox="0 0 256 256" shape-rendering="geometricPrecision">
  <defs>
    <linearGradient id="bg-snow-wind" x1="0%" y1="0%" x2="100%" y2="100%">
      <stop offset="0%" stop-color="#EEF6FF" />
      <stop offset="52%" stop-color="#D8E7F8" />
      <stop offset="100%" stop-color="#EDF5FF" />
    </linearGradient>
  </defs>
  <rect width="256" height="256" fill="url(#bg-snow-wind)" />
  <line x1="-12.0" y1="1.1" x2="268.0" y2="-0.3" stroke="#F8FBFF" stroke-width="1.10" opacity="0.12" stroke-linecap="round" />
  <line x1="-12.0" y1="124.0" x2="268.0" y2="130.5" stroke="#E1EEF9" stroke-width="0.59" opacity="0.14" stroke-linecap="round" />
  <line x1="-12.0" y1="262.8" x2="268.0" y2="258.4" stroke="#F8FBFF" stroke-width="0.71" opacity="0.14" stroke-linecap="round" />
  <line x1="-12.0" y1="36.6" x2="268.0" y2="32.5" stroke="#D0E0F4" stroke-width="0.80" opacity="0.19" stroke-linecap="round" />
  <line x1="-12.0" y1="107.1" x2="268.0" y2="111.2" stroke="#D0E0F4" stroke-width="0.72" opacity="0.15" stroke-linecap="round" />
  <line x1="-12.0" y1="197.2" x2="268.0" y2="196.4" stroke="#F8FBFF" stroke-width="0.77" opacity="0.13" stroke-linecap="round" />
  <line x1="-12.0" y1="225.0" x2="268.0" y2="218.0" stroke="#E1EEF9" stroke-width="0.76" opacity="0.27" stroke-linecap="round" />
  <line x1="-12.0" y1="78.9" x2="268.0" y2="72.4" stroke="#E1EEF9" stroke-width="1.39" opacity="0.13" stroke-linecap="round" />
  <line x1="-12.0" y1="101.0" x2="268.0" y2="98.5" stroke="#E1EEF9" stroke-width="1.16" opacity="0.15" stroke-linecap="round" />
  <line x1="-12.0" y1="46.3" x2="268.0" y2="52.0" stroke="#F8FBFF" stroke-width="0.56" opacity="0.19" stroke-linecap="round" />
  <line x1="-12.0" y1="0.3" x2="268.0" y2="-5.3" stroke="#F8FBFF" stroke-width="0.63" opacity="0.17" stroke-linecap="round" />
  <line x1="-12.0" y1="247.5" x2="268.0" y2="246.7" stroke="#D0E0F4" stroke-width="1.10" opacity="0.18" stroke-linecap="round" />
  <line x1="-12.0" y1="182.5" x2="268.0" y2="186.2" stroke="#E1EEF9" stroke-width="1.15" opacity="0.12" stroke-linecap="round" />
  <line x1="-12.0" y1="223.8" x2="268.0" y2="218.2" stroke="#F8FBFF" stroke-width="0.83" opacity="0.26" stroke-linecap="round" />
  <line x1="-12.0" y1="224.7" x2="268.0" y2="219.6" stroke="#D0E0F4" stroke-width="0.74" opacity="0.26" stroke-linecap="round" />
  <line x1="-12.0" y1="98.3" x2="268.0" y2="100.1" stroke="#D0E0F4" stroke-width="1.11" opacity="0.26" stroke-linecap="round" />
  <line x1="-12.0" y1="170.9" x2="268.0" y2="166.5" stroke="#F8FBFF" stroke-width="1.36" opacity="0.24" stroke-linecap="round" />
  <line x1="-12.0" y1="49.9" x2="268.0" y2="52.7" stroke="#F8FBFF" stroke-width="0.87" opacity="0.30" stroke-linecap="round" />
  <line x1="-12.0" y1="200.4" x2="268.0" y2="197.6" stroke="#D0E0F4" stroke-width="1.39" opacity="0.14" stroke-linecap="round" />
  <line x1="-12.0" y1="78.6" x2="268.0" y2="75.2" stroke="#E1EEF9" stroke-width="0.82" opacity="0.16" stroke-linecap="round" />
  <line x1="-12.0" y1="178.8" x2="268.0" y2="183.6" stroke="#E1EEF9" stroke-width="1.36" opacity="0.26" stroke-linecap="round" />
  <line x1="-12.0" y1="85.2" x2="268.0" y2="91.7" stroke="#E1EEF9" stroke-width="0.75" opacity="0.26" stroke-linecap="round" />
  <line x1="-12.0" y1="209.0" x2="268.0" y2="209.9" stroke="#F8FBFF" stroke-width="1.09" opacity="0.16" stroke-linecap="round" />
  <line x1="-12.0" y1="177.8" x2="268.0" y2="173.5" stroke="#D0E0F4" stroke-width="1.03" opacity="0.17" stroke-linecap="round" />
  <line x1="-12.0" y1="190.1" x2="268.0" y2="196.5" stroke="#D0E0F4" stroke-width="1.07" opacity="0.22" stroke-linecap="round" />
  <line x1="-12.0" y1="211.2" x2="268.0" y2="218.0" stroke="#E1EEF9" stroke-width="0.56" opacity="0.15" stroke-linecap="round" />
  <line x1="-12.0" y1="187.1" x2="268.0" y2="182.4" stroke="#E1EEF9" stroke-width="1.06" opacity="0.21" stroke-linecap="round" />
  <line x1="-12.0" y1="99.2" x2="268.0" y2="104.7" stroke="#F8FBFF" stroke-width="0.72" opacity="0.14" stroke-linecap="round" />
  <line x1="-12.0" y1="173.5" x2="268.0" y2="170.8" stroke="#D0E0F4" stroke-width="0.72" opacity="0.16" stroke-linecap="round" />
  <line x1="-12.0" y1="-5.7" x2="268.0" y2="-5.4" stroke="#E1EEF9" stroke-width="0.79" opacity="0.22" stroke-linecap="round" />
  <line x1="-12.0" y1="-2.7" x2="268.0" y2="0.8" stroke="#D0E0F4" stroke-width="1.07" opacity="0.17" stroke-linecap="round" />
  <line x1="-12.0" y1="80.9" x2="268.0" y2="82.7" stroke="#D0E0F4" stroke-width="0.58" opacity="0.27" stroke-linecap="round" />
  <line x1="-12.0" y1="16.7" x2="268.0" y2="15.1" stroke="#D0E0F4" stroke-width="1.02" opacity="0.27" stroke-linecap="round" />
  <line x1="-12.0" y1="21.6" x2="268.0" y2="27.1" stroke="#D0E0F4" stroke-width="0.80" opacity="0.14" stroke-linecap="round" />
  <line x1="-12.0" y1="87.8" x2="268.0" y2="90.5" stroke="#E1EEF9" stroke-width="0.60" opacity="0.16" stroke-linecap="round" />
  <line x1="-12.0" y1="152.6" x2="268.0" y2="156.0" stroke="#E1EEF9" stroke-width="1.14" opacity="0.15" stroke-linecap="round" />
  <line x1="-12.0" y1="178.8" x2="268.0" y2="176.6" stroke="#F8FBFF" stroke-width="0.65" opacity="0.20" stroke-linecap="round" />
  <line x1="-12.0" y1="113.9" x2="268.0" y2="110.1" stroke="#D0E0F4" stroke-width="1.23" opacity="0.21" stroke-linecap="round" />
  <line x1="-12.0" y1="52.1" x2="268.0" y2="50.9" stroke="#F8FBFF" stroke-width="0.61" opacity="0.19" stroke-linecap="round" />
  <line x1="-12.0" y1="106.1" x2="268.0" y2="106.2" stroke="#E1EEF9" stroke-width="0.83" opacity="0.22" stroke-linecap="round" />
  <line x1="-12.0" y1="53.7" x2="268.0" y2="56.5" stroke="#E1EEF9" stroke-width="0.83" opacity="0.29" stroke-linecap="round" />
  <line x1="-12.0" y1="-6.5" x2="268.0" y2="-1.6" stroke="#D0E0F4" stroke-width="1.13" opacity="0.26" stroke-linecap="round" />
  <line x1="-12.0" y1="-8.0" x2="268.0" y2="-4.7" stroke="#D0E0F4" stroke-width="0.59" opacity="0.21" stroke-linecap="round" />
  <line x1="-12.0" y1="88.8" x2="268.0" y2="85.3" stroke="#F8FBFF" stroke-width="0.90" opacity="0.26" stroke-linecap="round" />
  <line x1="-12.0" y1="4.6" x2="268.0" y2="2.9" stroke="#E1EEF9" stroke-width="1.19" opacity="0.16" stroke-linecap="round" />
  <line x1="-12.0" y1="244.0" x2="268.0" y2="240.3" stroke="#E1EEF9" stroke-width="0.85" opacity="0.22" stroke-linecap="round" />
  <line x1="-12.0" y1="4.4" x2="268.0" y2="4.3" stroke="#F8FBFF" stroke-width="1.21" opacity="0.18" stroke-linecap="round" />
  <line x1="-12.0" y1="243.8" x2="268.0" y2="240.3" stroke="#F8FBFF" stroke-width="0.56" opacity="0.28" stroke-linecap="round" />
  <line x1="-12.0" y1="72.2" x2="268.0" y2="65.4" stroke="#E1EEF9" stroke-width="1.01" opacity="0.25" stroke-linecap="round" />
  <line x1="-12.0" y1="123.6" x2="268.0" y2="122.6" stroke="#D0E0F4" stroke-width="0.90" opacity="0.14" stroke-linecap="round" />
  <line x1="-12.0" y1="81.9" x2="268.0" y2="86.5" stroke="#E1EEF9" stroke-width="1.40" opacity="0.14" stroke-linecap="round" />
  <line x1="-12.0" y1="164.9" x2="268.0" y2="159.9" stroke="#D0E0F4" stroke-width="0.57" opacity="0.13" stroke-linecap="round" />
  <line x1="-12.0" y1="129.6" x2="268.0" y2="135.3" stroke="#D0E0F4" stroke-width="1.29" opacity="0.28" stroke-linecap="round" />
  <line x1="-12.0" y1="228.5" x2="268.0" y2="227.3" stroke="#F8FBFF" stroke-width="1.03" opacity="0.28" stroke-linecap="round" />
  <line x1="-12.0" y1="9.5" x2="268.0" y2="6.2" stroke="#D0E0F4" stroke-width="0.70" opacity="0.25" stroke-linecap="round" />
  <line x1="-12.0" y1="46.5" x2="268.0" y2="39.7" stroke="#D0E0F4" stroke-width="0.87" opacity="0.14" stroke-linecap="round" />
  <line x1="-12.0" y1="25.3" x2="268.0" y2="20.4" stroke="#F8FBFF" stroke-width="1.25" opacity="0.27" stroke-linecap="round" />
  <line x1="-12.0" y1="127.3" x2="268.0" y2="123.7" stroke="#F8FBFF" stroke-width="0.70" opacity="0.26" stroke-linecap="round" />
  <line x1="-12.0" y1="58.2" x2="268.0" y2="62.0" stroke="#E1EEF9" stroke-width="1.16" opacity="0.15" stroke-linecap="round" />
  <line x1="-12.0" y1="257.4" x2="268.0" y2="254.5" stroke="#D0E0F4" stroke-width="0.84" opacity="0.24" stroke-linecap="round" />
  <line x1="-12.0" y1="20.9" x2="268.0" y2="22.2" stroke="#F8FBFF" stroke-width="1.14" opacity="0.27" stroke-linecap="round" />
  <line x1="-12.0" y1="49.3" x2="268.0" y2="45.2" stroke="#E1EEF9" stroke-width="1.31" opacity="0.12" stroke-linecap="round" />
  <line x1="-12.0" y1="152.8" x2="268.0" y2="149.5" stroke="#E1EEF9" stroke-width="0.68" opacity="0.14" stroke-linecap="round" />
  <line x1="-12.0" y1="175.2" x2="268.0" y2="176.3" stroke="#D0E0F4" stroke-width="0.57" opacity="0.12" stroke-linecap="round" />
  <line x1="-12.0" y1="79.8" x2="268.0" y2="86.6" stroke="#D0E0F4" stroke-width="1.24" opacity="0.23" stroke-linecap="round" />
  <line x1="-12.0" y1="107.7" x2="268.0" y2="106.3" stroke="#D0E0F4" stroke-width="0.63" opacity="0.14" stroke-linecap="round" />
  <line x1="-12.0" y1="47.4" x2="268.0" y2="49.0" stroke="#F8FBFF" stroke-width="1.05" opacity="0.13" stroke-linecap="round" />
  <line x1="-12.0" y1="90.1" x2="268.0" y2="91.8" stroke="#F8FBFF" stroke-width="1.30" opacity="0.26" stroke-linecap="round" />
  <line x1="-12.0" y1="247.5" x2="268.0" y2="241.3" stroke="#D0E0F4" stroke-width="0.71" opacity="0.28" stroke-linecap="round" />
  <line x1="-12.0" y1="99.6" x2="268.0" y2="103.1" stroke="#D0E0F4" stroke-width="1.23" opacity="0.21" stroke-linecap="round" />
  <line x1="-12.0" y1="229.1" x2="268.0" y2="222.9" stroke="#D0E0F4" stroke-width="0.85" opacity="0.27" stroke-linecap="round" />
  <line x1="-12.0" y1="239.7" x2="268.0" y2="236.2" stroke="#E1EEF9" stroke-width="1.30" opacity="0.30" stroke-linecap="round" />
  <ellipse cx="22.6" cy="45.9" rx="12.2" ry="7.0" fill="#E6EFF9" opacity="0.05" transform="rotate(19.9 22.6 45.9)" />
  <ellipse cx="179.8" cy="162.8" rx="10.1" ry="9.8" fill="#F4FAFF" opacity="0.09" transform="rotate(173.5 179.8 162.8)" />
  <ellipse cx="125.1" cy="85.6" rx="15.6" ry="13.6" fill="#E6EFF9" opacity="0.08" transform="rotate(93.1 125.1 85.6)" />
  <ellipse cx="34.0" cy="189.5" rx="8.5" ry="10.9" fill="#F4FAFF" opacity="0.08" transform="rotate(130.2 34.0 189.5)" />
  <ellipse cx="205.8" cy="244.1" rx="13.6" ry="18.3" fill="#F4FAFF" opacity="0.04" transform="rotate(32.2 205.8 244.1)" />
  <ellipse cx="90.5" cy="51.1" rx="22.9" ry="30.8" fill="#E6EFF9" opacity="0.09" transform="rotate(11.9 90.5 51.1)" />
  <ellipse cx="241.6" cy="241.1" rx="8.1" ry="5.7" fill="#E6EFF9" opacity="0.07" transform="rotate(101.8 241.6 241.1)" />
  <ellipse cx="62.9" cy="142.6" rx="17.4" ry="10.3" fill="#E6EFF9" opacity="0.05" transform="rotate(175.8 62.9 142.6)" />
  <ellipse cx="223.7" cy="213.9" rx="19.7" ry="13.7" fill="#D9E8F7" opacity="0.08" transform="rotate(15.6 223.7 213.9)" />
  <ellipse cx="47.6" cy="73.4" rx="23.2" ry="20.6" fill="#E6EFF9" opacity="0.09" transform="rotate(93.6 47.6 73.4)" />
  <ellipse cx="80.0" cy="225.0" rx="16.3" ry="21.0" fill="#F4FAFF" opacity="0.06" transform="rotate(124.6 80.0 225.0)" />
  <ellipse cx="111.9" cy="52.4" rx="10.7" ry="14.2" fill="#F4FAFF" opacity="0.06" transform="rotate(60.9 111.9 52.4)" />
  <ellipse cx="185.7" cy="210.5" rx="18.9" ry="24.0" fill="#D9E8F7" opacity="0.05" transform="rotate(26.5 185.7 210.5)" />
  <ellipse cx="223.9" cy="182.8" rx="22.2" ry="22.5" fill="#D9E8F7" opacity="0.07" transform="rotate(30.5 223.9 182.8)" />
  <ellipse cx="146.7" cy="18.5" rx="12.8" ry="11.1" fill="#F4FAFF" opacity="0.06" transform="rotate(46.1 146.7 18.5)" />
  <ellipse cx="186.3" cy="7.3" rx="18.4" ry="13.0" fill="#D9E8F7" opacity="0.08" transform="rotate(107.3 186.3 7.3)" />
  <ellipse cx="256.0" cy="-12.3" rx="16.4" ry="20.1" fill="#D9E8F7" opacity="0.08" transform="rotate(152.0 256.0 -12.3)" />
  <ellipse cx="178.0" cy="52.4" rx="23.1" ry="16.7" fill="#E6EFF9" opacity="0.05" transform="rotate(178.6 178.0 52.4)" />
  <ellipse cx="31.9" cy="37.1" rx="9.4" ry="11.4" fill="#D9E8F7" opacity="0.05" transform="rotate(32.9 31.9 37.1)" />
  <ellipse cx="24.8" cy="104.2" rx="10.9" ry="12.2" fill="#F4FAFF" opacity="0.08" transform="rotate(99.6 24.8 104.2)" />
  <ellipse cx="216.5" cy="102.0" rx="17.1" ry="10.3" fill="#F4FAFF" opacity="0.06" transform="rotate(126.3 216.5 102.0)" />
  <ellipse cx="186.8" cy="44.0" rx="23.7" ry="29.2" fill="#E6EFF9" opacity="0.05" transform="rotate(3.8 186.8 44.0)" />
  <ellipse cx="119.3" cy="202.6" rx="11.0" ry="10.1" fill="#D9E8F7" opacity="0.04" transform="rotate(117.6 119.3 202.6)" />
  <ellipse cx="124.3" cy="171.4" rx="9.8" ry="9.4" fill="#E6EFF9" opacity="0.08" transform="rotate(79.3 124.3 171.4)" />
  <ellipse cx="118.7" cy="17.5" rx="9.0" ry="5.3" fill="#D9E8F7" opacity="0.07" transform="rotate(95.9 118.7 17.5)" />
  <ellipse cx="25.1" cy="208.2" rx="21.8" ry="16.5" fill="#D9E8F7" opacity="0.08" transform="rotate(93.0 25.1 208.2)" />
  <ellipse cx="132.0" cy="-9.2" rx="14.3" ry="18.0" fill="#F4FAFF" opacity="0.08" transform="rotate(135.6 132.0 -9.2)" />
  <ellipse cx="173.7" cy="262.4" rx="15.2" ry="19.6" fill="#D9E8F7" opacity="0.05" transform="rotate(161.3 173.7 262.4)" />
  <ellipse cx="241.6" cy="70.4" rx="8.6" ry="9.8" fill="#D9E8F7" opacity="0.08" transform="rotate(130.7 241.6 70.4)" />
  <ellipse cx="175.8" cy="76.1" rx="12.5" ry="12.7" fill="#D9E8F7" opacity="0.08" transform="rotate(121.3 175.8 76.1)" />
  <ellipse cx="168.9" cy="9.0" rx="8.4" ry="7.3" fill="#E6EFF9" opacity="0.10" transform="rotate(114.5 168.9 9.0)" />
  <ellipse cx="114.7" cy="55.5" rx="17.7" ry="15.6" fill="#E6EFF9" opacity="0.08" transform="rotate(112.1 114.7 55.5)" />
  <ellipse cx="54.8" cy="158.2" rx="10.9" ry="12.6" fill="#DCEAF8" opacity="0.03" transform="rotate(106.2 54.8 158.2)" />
  <ellipse cx="255.5" cy="201.1" rx="4.1" ry="5.5" fill="#FFFFFF" opacity="0.04" transform="rotate(64.1 255.5 201.1)" />
  <ellipse cx="221.9" cy="150.9" rx="5.9" ry="6.6" fill="#EEF7FF" opacity="0.10" transform="rotate(10.5 221.9 150.9)" />
  <ellipse cx="170.8" cy="212.0" rx="7.9" ry="6.5" fill="#DCEAF8" opacity="0.06" transform="rotate(20.0 170.8 212.0)" />
  <ellipse cx="59.9" cy="-7.2" rx="7.0" ry="4.8" fill="#EEF7FF" opacity="0.09" transform="rotate(146.1 59.9 -7.2)" />
  <ellipse cx="233.4" cy="210.4" rx="10.3" ry="6.9" fill="#EEF7FF" opacity="0.07" transform="rotate(5.3 233.4 210.4)" />
  <ellipse cx="68.2" cy="266.7" rx="7.8" ry="5.2" fill="#DCEAF8" opacity="0.07" transform="rotate(60.2 68.2 266.7)" />
  <ellipse cx="53.5" cy="149.5" rx="4.3" ry="3.6" fill="#EEF7FF" opacity="0.09" transform="rotate(115.1 53.5 149.5)" />
  <ellipse cx="40.3" cy="208.0" rx="9.1" ry="10.1" fill="#EEF7FF" opacity="0.05" transform="rotate(153.6 40.3 208.0)" />
  <ellipse cx="4.0" cy="65.7" rx="5.1" ry="4.4" fill="#DCEAF8" opacity="0.07" transform="rotate(18.7 4.0 65.7)" />
  <ellipse cx="193.3" cy="233.4" rx="9.2" ry="11.9" fill="#DCEAF8" opacity="0.08" transform="rotate(34.0 193.3 233.4)" />
  <ellipse cx="227.6" cy="236.3" rx="4.1" ry="3.0" fill="#DCEAF8" opacity="0.04" transform="rotate(134.8 227.6 236.3)" />
  <ellipse cx="221.4" cy="267.8" rx="4.4" ry="3.5" fill="#DCEAF8" opacity="0.09" transform="rotate(146.1 221.4 267.8)" />
  <ellipse cx="12.5" cy="126.9" rx="4.7" ry="5.6" fill="#FFFFFF" opacity="0.07" transform="rotate(107.0 12.5 126.9)" />
  <ellipse cx="-17.5" cy="261.0" rx="8.3" ry="5.9" fill="#FFFFFF" opacity="0.05" transform="rotate(179.2 -17.5 261.0)" />
  <ellipse cx="249.4" cy="60.4" rx="9.2" ry="10.3" fill="#DCEAF8" opacity="0.06" transform="rotate(39.2 249.4 60.4)" />
  <ellipse cx="110.8" cy="183.3" rx="9.1" ry="8.4" fill="#EEF7FF" opacity="0.03" transform="rotate(138.4 110.8 183.3)" />
  <ellipse cx="209.6" cy="115.3" rx="9.7" ry="12.2" fill="#DCEAF8" opacity="0.05" transform="rotate(178.2 209.6 115.3)" />
  <circle cx="249.5" cy="34.9" r="1.2" fill="#FFFFFF" opacity="0.22" />
  <circle cx="104.5" cy="78.0" r="0.9" fill="#F4FAFF" opacity="0.24" />
  <circle cx="5.3" cy="59.4" r="1.4" fill="#DCE9F8" opacity="0.33" />
  <circle cx="108.9" cy="244.3" r="0.7" fill="#DCE9F8" opacity="0.39" />
  <circle cx="100.1" cy="197.5" r="0.6" fill="#F4FAFF" opacity="0.40" />
  <circle cx="82.1" cy="254.8" r="1.2" fill="#F4FAFF" opacity="0.22" />
  <circle cx="148.7" cy="224.0" r="1.2" fill="#F4FAFF" opacity="0.38" />
  <circle cx="209.6" cy="20.2" r="0.7" fill="#F4FAFF" opacity="0.32" />
  <circle cx="241.5" cy="196.8" r="0.6" fill="#FFFFFF" opacity="0.33" />
  <circle cx="190.6" cy="193.2" r="0.4" fill="#DCE9F8" opacity="0.30" />
  <circle cx="6.0" cy="77.5" r="0.7" fill="#F4FAFF" opacity="0.36" />
  <circle cx="28.2" cy="17.1" r="1.2" fill="#FFFFFF" opacity="0.41" />
  <circle cx="94.5" cy="117.1" r="1.2" fill="#FFFFFF" opacity="0.36" />
  <circle cx="191.2" cy="5.2" r="1.1" fill="#FFFFFF" opacity="0.34" />
  <circle cx="25.8" cy="167.4" r="0.4" fill="#DCE9F8" opacity="0.38" />
  <circle cx="17.5" cy="228.8" r="0.8" fill="#F4FAFF" opacity="0.33" />
  <circle cx="205.6" cy="250.2" r="0.7" fill="#DCE9F8" opacity="0.31" />
  <circle cx="171.3" cy="241.6" r="0.4" fill="#DCE9F8" opacity="0.25" />
  <circle cx="44.7" cy="75.5" r="0.8" fill="#DCE9F8" opacity="0.17" />
  <circle cx="127.9" cy="71.6" r="0.3" fill="#DCE9F8" opacity="0.41" />
  <circle cx="206.9" cy="101.7" r="0.3" fill="#F4FAFF" opacity="0.41" />
  <circle cx="102.5" cy="236.0" r="0.6" fill="#F4FAFF" opacity="0.30" />
  <circle cx="102.4" cy="209.6" r="0.4" fill="#FFFFFF" opacity="0.25" />
  <circle cx="32.5" cy="75.7" r="0.4" fill="#FFFFFF" opacity="0.35" />
  <circle cx="227.6" cy="246.8" r="0.7" fill="#DCE9F8" opacity="0.19" />
  <circle cx="198.6" cy="161.6" r="1.0" fill="#F4FAFF" opacity="0.17" />
  <circle cx="240.8" cy="195.6" r="1.2" fill="#DCE9F8" opacity="0.41" />
  <circle cx="12.2" cy="254.4" r="0.5" fill="#F4FAFF" opacity="0.34" />
  <circle cx="189.5" cy="14.2" r="0.7" fill="#FFFFFF" opacity="0.38" />
  <circle cx="114.8" cy="117.7" r="1.4" fill="#FFFFFF" opacity="0.40" />
  <circle cx="29.0" cy="208.4" r="1.4" fill="#F4FAFF" opacity="0.29" />
  <circle cx="95.8" cy="177.4" r="1.3" fill="#FFFFFF" opacity="0.20" />
  <circle cx="126.0" cy="51.6" r="0.3" fill="#FFFFFF" opacity="0.36" />
  <circle cx="230.3" cy="93.4" r="1.1" fill="#DCE9F8" opacity="0.23" />
  <circle cx="95.9" cy="157.5" r="0.7" fill="#DCE9F8" opacity="0.17" />
  <circle cx="79.8" cy="247.4" r="1.3" fill="#DCE9F8" opacity="0.38" />
  <circle cx="24.8" cy="11.0" r="0.4" fill="#FFFFFF" opacity="0.20" />
  <circle cx="65.6" cy="169.7" r="1.1" fill="#DCE9F8" opacity="0.37" />
  <circle cx="134.1" cy="59.6" r="1.3" fill="#FFFFFF" opacity="0.18" />
  <circle cx="67.9" cy="26.9" r="0.6" fill="#FFFFFF" opacity="0.39" />
  <circle cx="232.6" cy="68.6" r="0.8" fill="#F4FAFF" opacity="0.35" />
  <circle cx="42.9" cy="195.3" r="0.5" fill="#DCE9F8" opacity="0.28" />
  <circle cx="206.5" cy="72.1" r="0.6" fill="#FFFFFF" opacity="0.26" />
  <circle cx="143.7" cy="11.1" r="0.9" fill="#FFFFFF" opacity="0.22" />
  <circle cx="50.9" cy="67.0" r="1.2" fill="#DCE9F8" opacity="0.40" />
  <circle cx="48.6" cy="109.8" r="1.3" fill="#DCE9F8" opacity="0.36" />
  <circle cx="158.3" cy="207.8" r="1.2" fill="#FFFFFF" opacity="0.27" />
  <circle cx="121.0" cy="99.9" r="0.9" fill="#F4FAFF" opacity="0.28" />
  <circle cx="196.9" cy="142.1" r="1.3" fill="#F4FAFF" opacity="0.33" />
  <circle cx="238.3" cy="228.0" r="0.6" fill="#F4FAFF" opacity="0.17" />
  <circle cx="69.4" cy="76.2" r="1.0" fill="#FFFFFF" opacity="0.28" />
  <circle cx="181.6" cy="87.5" r="1.0" fill="#F4FAFF" opacity="0.22" />
  <circle cx="132.8" cy="236.7" r="0.7" fill="#F4FAFF" opacity="0.42" />
  <circle cx="6.0" cy="98.2" r="0.5" fill="#F4FAFF" opacity="0.16" />
  <circle cx="184.9" cy="69.2" r="0.5" fill="#FFFFFF" opacity="0.21" />
  <circle cx="87.4" cy="236.3" r="0.7" fill="#F4FAFF" opacity="0.19" />
  <circle cx="152.1" cy="244.9" r="0.7" fill="#F4FAFF" opacity="0.29" />
  <circle cx="246.4" cy="114.4" r="0.8" fill="#F4FAFF" opacity="0.39" />
  <circle cx="62.2" cy="245.3" r="1.1" fill="#F4FAFF" opacity="0.36" />
  <circle cx="74.0" cy="199.0" r="1.4" fill="#FFFFFF" opacity="0.39" />
  <circle cx="48.1" cy="209.5" r="1.3" fill="#F4FAFF" opacity="0.33" />
  <circle cx="69.8" cy="221.5" r="1.4" fill="#F4FAFF" opacity="0.31" />
  <circle cx="177.7" cy="73.8" r="1.2" fill="#FFFFFF" opacity="0.25" />
  <circle cx="175.9" cy="190.3" r="1.2" fill="#F4FAFF" opacity="0.22" />
  <circle cx="12.1" cy="113.6" r="1.3" fill="#F4FAFF" opacity="0.25" />
  <circle cx="198.7" cy="56.5" r="1.2" fill="#F4FAFF" opacity="0.35" />
  <circle cx="152.8" cy="228.7" r="0.3" fill="#FFFFFF" opacity="0.24" />
  <circle cx="223.2" cy="59.4" r="1.4" fill="#F4FAFF" opacity="0.16" />
  <circle cx="47.4" cy="59.5" r="1.0" fill="#F4FAFF" opacity="0.17" />
  <circle cx="209.5" cy="131.1" r="1.2" fill="#FFFFFF" opacity="0.28" />
  <circle cx="237.1" cy="59.3" r="0.6" fill="#FFFFFF" opacity="0.21" />
  <circle cx="2.4" cy="223.2" r="1.3" fill="#FFFFFF" opacity="0.32" />
  <circle cx="37.0" cy="172.1" r="1.3" fill="#FFFFFF" opacity="0.35" />
  <circle cx="74.2" cy="84.8" r="1.2" fill="#F4FAFF" opacity="0.18" />
  <circle cx="117.3" cy="213.7" r="0.5" fill="#DCE9F8" opacity="0.20" />
  <circle cx="207.1" cy="64.7" r="0.5" fill="#F4FAFF" opacity="0.24" />
  <circle cx="204.7" cy="62.5" r="1.0" fill="#DCE9F8" opacity="0.28" />
  <circle cx="182.8" cy="14.8" r="1.4" fill="#F4FAFF" opacity="0.20" />
  <circle cx="194.8" cy="121.0" r="1.2" fill="#DCE9F8" opacity="0.29" />
  <circle cx="61.2" cy="229.0" r="0.4" fill="#F4FAFF" opacity="0.20" />
  <circle cx="49.6" cy="118.2" r="0.9" fill="#F4FAFF" opacity="0.24" />
  <circle cx="120.9" cy="140.2" r="0.4" fill="#F4FAFF" opacity="0.32" />
  <circle cx="160.7" cy="14.2" r="1.2" fill="#F4FAFF" opacity="0.29" />
  <circle cx="57.9" cy="237.1" r="1.1" fill="#FFFFFF" opacity="0.21" />
  <circle cx="50.8" cy="46.8" r="0.6" fill="#DCE9F8" opacity="0.32" />
  <circle cx="215.3" cy="192.8" r="0.9" fill="#F4FAFF" opacity="0.29" />
  <circle cx="20.5" cy="86.3" r="1.3" fill="#FFFFFF" opacity="0.34" />
  <circle cx="193.2" cy="224.7" r="0.9" fill="#F4FAFF" opacity="0.28" />
  <circle cx="84.9" cy="53.8" r="0.8" fill="#FFFFFF" opacity="0.29" />
  <circle cx="47.7" cy="89.7" r="0.7" fill="#DCE9F8" opacity="0.30" />
  <circle cx="244.2" cy="197.2" r="0.8" fill="#DCE9F8" opacity="0.25" />
  <circle cx="229.6" cy="178.2" r="0.5" fill="#FFFFFF" opacity="0.26" />
  <circle cx="36.0" cy="79.1" r="1.1" fill="#F4FAFF" opacity="0.33" />
  <circle cx="55.8" cy="149.0" r="1.0" fill="#DCE9F8" opacity="0.25" />
  <circle cx="208.1" cy="94.1" r="0.7" fill="#DCE9F8" opacity="0.31" />
  <circle cx="200.7" cy="186.1" r="1.1" fill="#FFFFFF" opacity="0.17" />
  <path d="M 204.3 151.1 q 0.5 -3.4 1.2 -15.4" stroke="#C4D9EE" stroke-width="0.47" opacity="0.21" fill="none" stroke-linecap="round" stroke-linejoin="round" />
  <path d="M 26.7 121.3 q 1.3 -1.7 3.3 -7.6" stroke="#F7FBFF" stroke-width="0.53" opacity="0.16" fill="none" stroke-linecap="round" stroke-linejoin="round" />
  <path d="M 162.5 223.1 q -0.9 -2.9 -2.3 -13.3" stroke="#F7FBFF" stroke-width="0.44" opacity="0.21" fill="none" stroke-linecap="round" stroke-linejoin="round" />
  <path d="M 147.8 101.1 q -1.1 -1.5 -2.8 -6.8" stroke="#F7FBFF" stroke-width="0.60" opacity="0.14" fill="none" stroke-linecap="round" stroke-linejoin="round" />
  <path d="M 80.0 132.7 q 0.0 -1.5 0.0 -6.8" stroke="#F7FBFF" stroke-width="0.57" opacity="0.12" fill="none" stroke-linecap="round" stroke-linejoin="round" />
  <path d="M 145.4 93.6 q -0.5 -3.0 -1.1 -13.8" stroke="#D8E7F6" stroke-width="0.47" opacity="0.11" fill="none" stroke-linecap="round" stroke-linejoin="round" />
  <path d="M 136.3 225.5 q 0.4 -2.9 0.9 -13.0" stroke="#D8E7F6" stroke-width="0.41" opacity="0.10" fill="none" stroke-linecap="round" stroke-linejoin="round" />
  <path d="M 16.1 169.5 q 0.6 -2.0 1.5 -9.1" stroke="#D8E7F6" stroke-width="0.76" opacity="0.20" fill="none" stroke-linecap="round" stroke-linejoin="round" />
  <path d="M 16.1 102.5 q 1.1 -2.6 2.7 -11.7" stroke="#F7FBFF" stroke-width="0.75" opacity="0.15" fill="none" stroke-linecap="round" stroke-linejoin="round" />
  <path d="M 209.8 29.5 q -0.8 -1.5 -2.0 -6.9" stroke="#F7FBFF" stroke-width="0.66" opacity="0.17" fill="none" stroke-linecap="round" stroke-linejoin="round" />
  <path d="M 241.9 164.3 q -0.1 -3.5 -0.2 -15.8" stroke="#C4D9EE" stroke-width="0.36" opacity="0.12" fill="none" stroke-linecap="round" stroke-linejoin="round" />
  <path d="M 56.8 60.1 q 0.9 -1.7 2.3 -7.7" stroke="#C4D9EE" stroke-width="0.73" opacity="0.13" fill="none" stroke-linecap="round" stroke-linejoin="round" />
  <path d="M 41.9 214.1 q 0.3 -1.8 0.8 -8.3" stroke="#F7FBFF" stroke-width="0.74" opacity="0.10" fill="none" stroke-linecap="round" stroke-linejoin="round" />
  <path d="M 100.6 255.7 q 0.1 -2.5 0.3 -11.3" stroke="#D8E7F6" stroke-width="0.74" opacity="0.14" fill="none" stroke-linecap="round" stroke-linejoin="round" />
  <path d="M 179.3 88.5 q 1.3 -1.6 3.3 -7.3" stroke="#D8E7F6" stroke-width="0.50" opacity="0.20" fill="none" stroke-linecap="round" stroke-linejoin="round" />
  <path d="M 8.4 20.1 q 0.3 -2.6 0.7 -11.9" stroke="#D8E7F6" stroke-width="0.38" opacity="0.14" fill="none" stroke-linecap="round" stroke-linejoin="round" />
  <path d="M 38.4 88.1 q -1.3 -2.0 -3.4 -9.2" stroke="#F7FBFF" stroke-width="0.48" opacity="0.14" fill="none" stroke-linecap="round" stroke-linejoin="round" />
  <path d="M 1.8 43.8 q 0.0 -3.3 0.0 -15.1" stroke="#D8E7F6" stroke-width="0.57" opacity="0.10" fill="none" stroke-linecap="round" stroke-linejoin="round" />
  <path d="M 212.9 120.0 q 1.0 -3.0 2.6 -13.8" stroke="#D8E7F6" stroke-width="0.49" opacity="0.16" fill="none" stroke-linecap="round" stroke-linejoin="round" />
  <path d="M 19.3 60.3 q 0.3 -1.8 0.7 -8.0" stroke="#D8E7F6" stroke-width="0.80" opacity="0.08" fill="none" stroke-linecap="round" stroke-linejoin="round" />
  <path d="M 127.9 235.4 q 0.3 -3.5 0.8 -15.8" stroke="#C4D9EE" stroke-width="0.53" opacity="0.12" fill="none" stroke-linecap="round" stroke-linejoin="round" />
  <path d="M 136.1 239.0 q -1.0 -1.7 -2.6 -7.6" stroke="#F7FBFF" stroke-width="0.51" opacity="0.19" fill="none" stroke-linecap="round" stroke-linejoin="round" />
  <path d="M 144.3 182.9 q -0.3 -2.9 -0.7 -13.1" stroke="#C4D9EE" stroke-width="0.53" opacity="0.10" fill="none" stroke-linecap="round" stroke-linejoin="round" />
  <path d="M 167.7 16.2 q -0.4 -1.4 -1.0 -6.5" stroke="#D8E7F6" stroke-width="0.63" opacity="0.08" fill="none" stroke-linecap="round" stroke-linejoin="round" />
  <path d="M 184.7 83.0 q 1.3 -2.4 3.1 -10.7" stroke="#D8E7F6" stroke-width="0.41" opacity="0.12" fill="none" stroke-linecap="round" stroke-linejoin="round" />
  <path d="M 101.4 124.6 q 1.0 -2.9 2.6 -13.1" stroke="#C4D9EE" stroke-width="0.66" opacity="0.16" fill="none" stroke-linecap="round" stroke-linejoin="round" />
  <path d="M 222.3 123.2 q -0.6 -2.5 -1.6 -11.4" stroke="#F7FBFF" stroke-width="0.61" opacity="0.18" fill="none" stroke-linecap="round" stroke-linejoin="round" />
  <path d="M 127.9 83.9 q -0.8 -1.3 -2.1 -6.0" stroke="#F7FBFF" stroke-width="0.59" opacity="0.21" fill="none" stroke-linecap="round" stroke-linejoin="round" />
  <path d="M 99.7 96.0 q 1.1 -2.0 2.6 -9.2" stroke="#F7FBFF" stroke-width="0.60" opacity="0.21" fill="none" stroke-linecap="round" stroke-linejoin="round" />
  <path d="M 130.0 45.5 q 1.1 -1.6 2.7 -7.2" stroke="#C4D9EE" stroke-width="0.71" opacity="0.11" fill="none" stroke-linecap="round" stroke-linejoin="round" />
  <path d="M 163.0 77.5 q 0.0 -3.3 0.1 -15.2" stroke="#F7FBFF" stroke-width="0.40" opacity="0.12" fill="none" stroke-linecap="round" stroke-linejoin="round" />
  <path d="M 107.7 23.2 q -0.7 -2.1 -1.7 -9.4" stroke="#C4D9EE" stroke-width="0.51" opacity="0.18" fill="none" stroke-linecap="round" stroke-linejoin="round" />
  <path d="M 0.3 125.3 q -1.0 -2.1 -2.5 -9.7" stroke="#C4D9EE" stroke-width="0.42" opacity="0.08" fill="none" stroke-linecap="round" stroke-linejoin="round" />
  <path d="M 252.7 154.7 q 0.9 -2.5 2.3 -11.5" stroke="#C4D9EE" stroke-width="0.39" opacity="0.15" fill="none" stroke-linecap="round" stroke-linejoin="round" />
  <path d="M 204.0 233.9 q -0.2 -2.5 -0.5 -11.6" stroke="#D8E7F6" stroke-width="0.78" opacity="0.10" fill="none" stroke-linecap="round" stroke-linejoin="round" />
  <path d="M 236.1 179.8 q -0.4 -2.7 -1.0 -12.4" stroke="#F7FBFF" stroke-width="0.45" opacity="0.12" fill="none" stroke-linecap="round" stroke-linejoin="round" />
  <path d="M 153.0 87.6 q 0.8 -2.3 2.0 -10.3" stroke="#D8E7F6" stroke-width="0.43" opacity="0.15" fill="none" stroke-linecap="round" stroke-linejoin="round" />
  <path d="M 129.1 15.7 q -1.3 -3.2 -3.1 -14.7" stroke="#D8E7F6" stroke-width="0.71" opacity="0.17" fill="none" stroke-linecap="round" stroke-linejoin="round" />
  <path d="M 108.1 131.2 q 0.8 -2.2 2.1 -10.2" stroke="#D8E7F6" stroke-width="0.52" opacity="0.13" fill="none" stroke-linecap="round" stroke-linejoin="round" />
  <path d="M 177.2 137.5 q -0.9 -1.7 -2.2 -7.9" stroke="#F7FBFF" stroke-width="0.54" opacity="0.15" fill="none" stroke-linecap="round" stroke-linejoin="round" />
  <path d="M 63.4 251.7 q 0.8 -2.4 2.1 -11.0" stroke="#C4D9EE" stroke-width="0.66" opacity="0.10" fill="none" stroke-linecap="round" stroke-linejoin="round" />
  <path d="M 0.2 176.5 q 0.9 -2.0 2.4 -8.9" stroke="#D8E7F6" stroke-width="0.53" opacity="0.13" fill="none" stroke-linecap="round" stroke-linejoin="round" />
  <path d="M 184.7 15.7 q -0.6 -1.4 -1.4 -6.3" stroke="#C4D9EE" stroke-width="0.61" opacity="0.18" fill="none" stroke-linecap="round" stroke-linejoin="round" />
  <path d="M 194.4 248.0 q 1.0 -2.8 2.5 -12.6" stroke="#F7FBFF" stroke-width="0.47" opacity="0.18" fill="none" stroke-linecap="round" stroke-linejoin="round" />
  <path d="M 235.6 4.5 q 0.7 -3.4 1.8 -15.3" stroke="#F7FBFF" stroke-width="0.80" opacity="0.12" fill="none" stroke-linecap="round" stroke-linejoin="round" />
  <path d="M 7.6 51.7 q 0.4 -3.0 1.0 -13.8" stroke="#F7FBFF" stroke-width="0.66" opacity="0.09" fill="none" stroke-linecap="round" stroke-linejoin="round" />
  <path d="M 175.6 168.8 q -0.0 -2.9 -0.0 -13.1" stroke="#F7FBFF" stroke-width="0.61" opacity="0.08" fill="none" stroke-linecap="round" stroke-linejoin="round" />
  <path d="M 76.4 32.5 q -0.5 -1.9 -1.2 -8.6" stroke="#C4D9EE" stroke-width="0.64" opacity="0.19" fill="none" stroke-linecap="round" stroke-linejoin="round" />
</svg>