<?xml version="1.0" encoding="UTF-8"?>
<svg xmlns="http://www.w3.org/2000/svg" viewBox="0 0 256 256" shape-rendering="geometricPrecision">
  <defs>
    <linearGradient id="bg-sand-beach" x1="0%" y1="0%" x2="100%" y2="100%">
      <stop offset="0%" stop-color="#EDDDB1" />
      <stop offset="52%" stop-color="#C7AD72" />
      <stop offset="100%" stop-color="#F0E1BD" />
    </linearGradient>
  </defs>
  <rect width="256" height="256" fill="url(#bg-sand-beach)" />
  <line x1="-12.0" y1="222.5" x2="268.0" y2="228.3" stroke="#E6D5A8" stroke-width="1.48" opacity="0.26" stroke-linecap="round" />
  <line x1="-12.0" y1="113.3" x2="268.0" y2="121.3" stroke="#D7C08C" stroke-width="1.56" opacity="0.24" stroke-linecap="round" />
  <line x1="-12.0" y1="74.8" x2="268.0" y2="75.6" stroke="#E6D5A8" stroke-width="1.32" opacity="0.16" stroke-linecap="round" />
  <line x1="-12.0" y1="7.4" x2="268.0" y2="2.6" stroke="#C6AE74" stroke-width="1.76" opacity="0.33" stroke-linecap="round" />
  <line x1="-12.0" y1="156.0" x2="268.0" y2="153.0" stroke="#E6D5A8" stroke-width="0.71" opacity="0.20" stroke-linecap="round" />
  <line x1="-12.0" y1="31.7" x2="268.0" y2="33.5" stroke="#C6AE74" stroke-width="1.06" opacity="0.29" stroke-linecap="round" />
  <line x1="-12.0" y1="70.7" x2="268.0" y2="71.3" stroke="#E6D5A8" stroke-width="1.76" opacity="0.29" stroke-linecap="round" />
  <line x1="-12.0" y1="16.9" x2="268.0" y2="21.9" stroke="#C6AE74" stroke-width="1.78" opacity="0.31" stroke-linecap="round" />
  <line x1="-12.0" y1="106.8" x2="268.0" y2="111.5" stroke="#E6D5A8" stroke-width="0.79" opacity="0.20" stroke-linecap="round" />
  <line x1="-12.0" y1="263.1" x2="268.0" y2="270.2" stroke="#E6D5A8" stroke-width="1.27" opacity="0.19" stroke-linecap="round" />
  <line x1="-12.0" y1="192.7" x2="268.0" y2="185.6" stroke="#C6AE74" stroke-width="0.84" opacity="0.31" stroke-linecap="round" />
  <line x1="-12.0" y1="223.9" x2="268.0" y2="226.3" stroke="#E6D5A8" stroke-width="1.36" opacity="0.33" stroke-linecap="round" />
  <line x1="-12.0" y1="69.1" x2="268.0" y2="69.8" stroke="#E6D5A8" stroke-width="1.79" opacity="0.29" stroke-linecap="round" />
  <line x1="-12.0" y1="36.4" x2="268.0" y2="44.2" stroke="#E6D5A8" stroke-width="0.69" opacity="0.28" stroke-linecap="round" />
  <line x1="-12.0" y1="154.1" x2="268.0" y2="161.5" stroke="#D7C08C" stroke-width="1.02" opacity="0.34" stroke-linecap="round" />
  <line x1="-12.0" y1="249.9" x2="268.0" y2="254.3" stroke="#E6D5A8" stroke-width="1.02" opacity="0.34" stroke-linecap="round" />
  <line x1="-12.0" y1="158.5" x2="268.0" y2="151.4" stroke="#C6AE74" stroke-width="1.04" opacity="0.15" stroke-linecap="round" />
  <line x1="-12.0" y1="192.0" x2="268.0" y2="196.0" stroke="#D7C08C" stroke-width="1.07" opacity="0.27" stroke-linecap="round" />
  <line x1="-12.0" y1="142.8" x2="268.0" y2="135.4" stroke="#D7C08C" stroke-width="1.01" opacity="0.23" stroke-linecap="round" />
  <line x1="-12.0" y1="172.0" x2="268.0" y2="164.7" stroke="#D7C08C" stroke-width="1.34" opacity="0.27" stroke-linecap="round" />
  <line x1="-12.0" y1="253.0" x2="268.0" y2="254.0" stroke="#D7C08C" stroke-width="0.93" opacity="0.33" stroke-linecap="round" />
  <line x1="-12.0" y1="20.9" x2="268.0" y2="21.0" stroke="#D7C08C" stroke-width="1.70" opacity="0.25" stroke-linecap="round" />
  <line x1="-12.0" y1="79.2" x2="268.0" y2="80.5" stroke="#D7C08C" stroke-width="1.67" opacity="0.18" stroke-linecap="round" />
  <line x1="-12.0" y1="225.0" x2="268.0" y2="225.9" stroke="#E6D5A8" stroke-width="1.20" opacity="0.32" stroke-linecap="round" />
  <line x1="-12.0" y1="172.0" x2="268.0" y2="170.7" stroke="#E6D5A8" stroke-width="1.43" opacity="0.23" stroke-linecap="round" />
  <line x1="-12.0" y1="220.6" x2="268.0" y2="218.1" stroke="#D7C08C" stroke-width="0.76" opacity="0.30" stroke-linecap="round" />
  <line x1="-12.0" y1="120.2" x2="268.0" y2="123.2" stroke="#E6D5A8" stroke-width="1.07" opacity="0.21" stroke-linecap="round" />
  <line x1="-12.0" y1="154.1" x2="268.0" y2="156.6" stroke="#E6D5A8" stroke-width="1.09" opacity="0.17" stroke-linecap="round" />
  <line x1="-12.0" y1="57.4" x2="268.0" y2="65.0" stroke="#E6D5A8" stroke-width="1.31" opacity="0.31" stroke-linecap="round" />
  <line x1="-12.0" y1="69.5" x2="268.0" y2="70.4" stroke="#C6AE74" stroke-width="1.44" opacity="0.26" stroke-linecap="round" />
  <line x1="-12.0" y1="78.6" x2="268.0" y2="70.8" stroke="#C6AE74" stroke-width="1.22" opacity="0.20" stroke-linecap="round" />
  <line x1="-12.0" y1="199.2" x2="268.0" y2="198.4" stroke="#D7C08C" stroke-width="1.11" opacity="0.18" stroke-linecap="round" />
  <line x1="-12.0" y1="178.6" x2="268.0" y2="175.5" stroke="#E6D5A8" stroke-width="1.57" opacity="0.22" stroke-linecap="round" />
  <line x1="-12.0" y1="-7.2" x2="268.0" y2="-9.5" stroke="#E6D5A8" stroke-width="1.58" opacity="0.23" stroke-linecap="round" />
  <line x1="-12.0" y1="137.6" x2="268.0" y2="130.9" stroke="#C6AE74" stroke-width="1.51" opacity="0.18" stroke-linecap="round" />
  <line x1="-12.0" y1="137.0" x2="268.0" y2="138.1" stroke="#D7C08C" stroke-width="0.83" opacity="0.34" stroke-linecap="round" />
  <line x1="-12.0" y1="160.0" x2="268.0" y2="154.8" stroke="#D7C08C" stroke-width="1.25" opacity="0.23" stroke-linecap="round" />
  <line x1="-12.0" y1="242.9" x2="268.0" y2="244.8" stroke="#D7C08C" stroke-width="1.42" opacity="0.25" stroke-linecap="round" />
  <line x1="-12.0" y1="52.8" x2="268.0" y2="59.2" stroke="#D7C08C" stroke-width="1.28" opacity="0.21" stroke-linecap="round" />
  <line x1="-12.0" y1="239.8" x2="268.0" y2="239.2" stroke="#C6AE74" stroke-width="1.35" opacity="0.31" stroke-linecap="round" />
  <line x1="-12.0" y1="194.7" x2="268.0" y2="188.4" stroke="#E6D5A8" stroke-width="1.59" opacity="0.14" stroke-linecap="round" />
  <line x1="-12.0" y1="173.5" x2="268.0" y2="175.6" stroke="#D7C08C" stroke-width="1.00" opacity="0.22" stroke-linecap="round" />
  <line x1="-12.0" y1="213.3" x2="268.0" y2="213.9" stroke="#E6D5A8" stroke-width="0.70" opacity="0.30" stroke-linecap="round" />
  <line x1="-12.0" y1="236.9" x2="268.0" y2="232.9" stroke="#E6D5A8" stroke-width="1.31" opacity="0.26" stroke-linecap="round" />
  <line x1="-12.0" y1="45.4" x2="268.0" y2="38.5" stroke="#E6D5A8" stroke-width="0.66" opacity="0.33" stroke-linecap="round" />
  <line x1="-12.0" y1="247.0" x2="268.0" y2="247.7" stroke="#E6D5A8" stroke-width="0.68" opacity="0.28" stroke-linecap="round" />
  <line x1="-12.0" y1="29.9" x2="268.0" y2="33.8" stroke="#D7C08C" stroke-width="1.65" opacity="0.25" stroke-linecap="round" />
  <line x1="-12.0" y1="240.3" x2="268.0" y2="236.5" stroke="#C6AE74" stroke-width="1.08" opacity="0.20" stroke-linecap="round" />
  <line x1="-12.0" y1="69.1" x2="268.0" y2="75.7" stroke="#C6AE74" stroke-width="1.11" opacity="0.25" stroke-linecap="round" />
  <line x1="-12.0" y1="75.1" x2="268.0" y2="72.2" stroke="#E6D5A8" stroke-width="1.19" opacity="0.12" stroke-linecap="round" />
  <line x1="-12.0" y1="-5.7" x2="268.0" y2="-7.5" stroke="#C6AE74" stroke-width="0.90" opacity="0.18" stroke-linecap="round" />
  <line x1="-12.0" y1="-5.4" x2="268.0" y2="-11.9" stroke="#D7C08C" stroke-width="1.64" opacity="0.22" stroke-linecap="round" />
  <line x1="-12.0" y1="35.0" x2="268.0" y2="42.5" stroke="#E6D5A8" stroke-width="0.61" opacity="0.28" stroke-linecap="round" />
  <line x1="-12.0" y1="24.4" x2="268.0" y2="26.2" stroke="#D7C08C" stroke-width="1.07" opacity="0.28" stroke-linecap="round" />
  <line x1="-12.0" y1="19.4" x2="268.0" y2="22.9" stroke="#E6D5A8" stroke-width="1.11" opacity="0.17" stroke-linecap="round" />
  <line x1="-12.0" y1="222.8" x2="268.0" y2="229.3" stroke="#C6AE74" stroke-width="1.61" opacity="0.17" stroke-linecap="round" />
  <line x1="-12.0" y1="136.9" x2="268.0" y2="141.7" stroke="#D7C08C" stroke-width="1.23" opacity="0.23" stroke-linecap="round" />
  <line x1="-12.0" y1="130.8" x2="268.0" y2="136.1" stroke="#D7C08C" stroke-width="1.02" opacity="0.34" stroke-linecap="round" />
  <line x1="-12.0" y1="197.8" x2="268.0" y2="191.8" stroke="#E6D5A8" stroke-width="1.51" opacity="0.17" stroke-linecap="round" />
  <line x1="-12.0" y1="41.1" x2="268.0" y2="33.5" stroke="#D7C08C" stroke-width="1.78" opacity="0.22" stroke-linecap="round" />
  <line x1="-12.0" y1="262.8" x2="268.0" y2="257.8" stroke="#C6AE74" stroke-width="1.41" opacity="0.25" stroke-linecap="round" />
  <line x1="-12.0" y1="256.5" x2="268.0" y2="258.4" stroke="#C6AE74" stroke-width="0.89" opacity="0.33" stroke-linecap="round" />
  <line x1="-12.0" y1="135.1" x2="268.0" y2="130.2" stroke="#C6AE74" stroke-width="0.67" opacity="0.30" stroke-linecap="round" />
  <line x1="-12.0" y1="203.4" x2="268.0" y2="200.2" stroke="#E6D5A8" stroke-width="1.57" opacity="0.19" stroke-linecap="round" />
  <line x1="-12.0" y1="23.6" x2="268.0" y2="22.8" stroke="#D7C08C" stroke-width="1.37" opacity="0.21" stroke-linecap="round" />
  <line x1="-12.0" y1="22.3" x2="268.0" y2="21.6" stroke="#E6D5A8" stroke-width="0.84" opacity="0.28" stroke-linecap="round" />
  <line x1="-12.0" y1="207.7" x2="268.0" y2="201.7" stroke="#C6AE74" stroke-width="0.88" opacity="0.29" stroke-linecap="round" />
  <line x1="-12.0" y1="84.6" x2="268.0" y2="87.3" stroke="#E6D5A8" stroke-width="1.36" opacity="0.31" stroke-linecap="round" />
  <line x1="-12.0" y1="145.5" x2="268.0" y2="150.5" stroke="#C6AE74" stroke-width="1.42" opacity="0.16" stroke-linecap="round" />
  <line x1="-12.0" y1="246.7" x2="268.0" y2="239.1" stroke="#E6D5A8" stroke-width="1.22" opacity="0.31" stroke-linecap="round" />
  <line x1="-12.0" y1="41.0" x2="268.0" y2="33.1" stroke="#D7C08C" stroke-width="1.39" opacity="0.34" stroke-linecap="round" />
  <line x1="-12.0" y1="128.8" x2="268.0" y2="131.2" stroke="#C6AE74" stroke-width="1.32" opacity="0.26" stroke-linecap="round" />
  <line x1="-12.0" y1="104.4" x2="268.0" y2="101.7" stroke="#C6AE74" stroke-width="1.03" opacity="0.22" stroke-linecap="round" />
  <line x1="-12.0" y1="102.8" x2="268.0" y2="103.0" stroke="#C6AE74" stroke-width="0.77" opacity="0.17" stroke-linecap="round" />
  <line x1="-12.0" y1="22.7" x2="268.0" y2="17.1" stroke="#D7C08C" stroke-width="1.42" opacity="0.19" stroke-linecap="round" />
  <line x1="-12.0" y1="130.0" x2="268.0" y2="132.0" stroke="#E6D5A8" stroke-width="1.39" opacity="0.25" stroke-linecap="round" />
  <line x1="-12.0" y1="9.6" x2="268.0" y2="1.7" stroke="#D7C08C" stroke-width="1.74" opacity="0.34" stroke-linecap="round" />
  <line x1="-12.0" y1="59.6" x2="268.0" y2="55.9" stroke="#D7C08C" stroke-width="0.64" opacity="0.14" stroke-linecap="round" />
  <line x1="-12.0" y1="157.2" x2="268.0" y2="158.5" stroke="#D7C08C" stroke-width="0.91" opacity="0.20" stroke-linecap="round" />
  <line x1="-12.0" y1="126.1" x2="268.0" y2="123.2" stroke="#E6D5A8" stroke-width="0.63" opacity="0.23" stroke-linecap="round" />
  <line x1="-12.0" y1="221.1" x2="268.0" y2="218.8" stroke="#D7C08C" stroke-width="0.68" opacity="0.34" stroke-linecap="round" />
  <line x1="-12.0" y1="48.6" x2="268.0" y2="48.4" stroke="#D7C08C" stroke-width="0.81" opacity="0.33" stroke-linecap="round" />
  <line x1="-12.0" y1="64.7" x2="268.0" y2="70.9" stroke="#D7C08C" stroke-width="1.46" opacity="0.30" stroke-linecap="round" />
  <line x1="-12.0" y1="219.3" x2="268.0" y2="223.0" stroke="#C6AE74" stroke-width="1.78" opacity="0.15" stroke-linecap="round" />
  <line x1="-12.0" y1="222.2" x2="268.0" y2="225.2" stroke="#C6AE74" stroke-width="0.66" opacity="0.19" stroke-linecap="round" />
  <line x1="-12.0" y1="165.5" x2="268.0" y2="158.8" stroke="#D7C08C" stroke-width="1.46" opacity="0.28" stroke-linecap="round" />
  <line x1="-12.0" y1="241.0" x2="268.0" y2="248.4" stroke="#E6D5A8" stroke-width="1.25" opacity="0.26" stroke-linecap="round" />
  <line x1="-12.0" y1="39.9" x2="268.0" y2="39.6" stroke="#E6D5A8" stroke-width="1.11" opacity="0.18" stroke-linecap="round" />
  <ellipse cx="209.4" cy="217.7" rx="23.9" ry="28.1" fill="#BFA46B" opacity="0.10" transform="rotate(61.4 209.4 217.7)" />
  <ellipse cx="124.3" cy="116.8" rx="24.8" ry="33.1" fill="#D9C38D" opacity="0.09" transform="rotate(176.7 124.3 116.8)" />
  <ellipse cx="264.5" cy="196.1" rx="12.2" ry="14.5" fill="#BFA46B" opacity="0.05" transform="rotate(7.0 264.5 196.1)" />
  <ellipse cx="188.3" cy="83.5" rx="14.7" ry="10.5" fill="#BFA46B" opacity="0.06" transform="rotate(10.1 188.3 83.5)" />
  <ellipse cx="242.0" cy="220.0" rx="11.8" ry="10.8" fill="#BFA46B" opacity="0.10" transform="rotate(50.4 242.0 220.0)" />
  <ellipse cx="136.8" cy="208.6" rx="12.0" ry="16.1" fill="#D9C38D" opacity="0.05" transform="rotate(8.0 136.8 208.6)" />
  <ellipse cx="232.3" cy="111.0" rx="23.2" ry="15.1" fill="#E8D7A8" opacity="0.09" transform="rotate(48.8 232.3 111.0)" />
  <ellipse cx="172.1" cy="50.4" rx="17.0" ry="13.9" fill="#D9C38D" opacity="0.07" transform="rotate(0.2 172.1 50.4)" />
  <ellipse cx="9.0" cy="185.7" rx="22.7" ry="25.8" fill="#BFA46B" opacity="0.07" transform="rotate(150.0 9.0 185.7)" />
  <ellipse cx="194.1" cy="96.8" rx="16.4" ry="12.5" fill="#BFA46B" opacity="0.05" transform="rotate(88.8 194.1 96.8)" />
  <ellipse cx="46.1" cy="169.6" rx="22.4" ry="25.5" fill="#D9C38D" opacity="0.08" transform="rotate(90.4 46.1 169.6)" />
  <ellipse cx="116.4" cy="214.8" rx="14.0" ry="13.5" fill="#BFA46B" opacity="0.10" transform="rotate(47.2 116.4 214.8)" />
  <ellipse cx="-18.8" cy="191.7" rx="16.9" ry="10.1" fill="#D9C38D" opacity="0.09" transform="rotate(108.0 -18.8 191.7)" />
  <ellipse cx="12.3" cy="47.4" rx="17.5" ry="13.6" fill="#BFA46B" opacity="0.11" transform="rotate(132.2 12.3 47.4)" />
  <ellipse cx="134.8" cy="271.2" rx="26.0" ry="34.2" fill="#D9C38D" opacity="0.11" transform="rotate(29.0 134.8 271.2)" />
  <ellipse cx="56.7" cy="103.2" rx="23.8" ry="25.5" fill="#D9C38D" opacity="0.11" transform="rotate(153.8 56.7 103.2)" />
  <ellipse cx="165.1" cy="-9.9" rx="13.4" ry="8.2" fill="#E8D7A8" opacity="0.08" transform="rotate(93.5 165.1 -9.9)" />
  <ellipse cx="247.5" cy="245.0" rx="15.4" ry="18.7" fill="#E8D7A8" opacity="0.09" transform="rotate(85.0 247.5 245.0)" />
  <ellipse cx="-3.8" cy="107.7" rx="14.3" ry="12.1" fill="#D9C38D" opacity="0.09" transform="rotate(137.3 -3.8 107.7)" />
  <ellipse cx="260.4" cy="113.5" rx="15.3" ry="13.6" fill="#D9C38D" opacity="0.05" transform="rotate(93.1 260.4 113.5)" />
  <ellipse cx="261.1" cy="163.7" rx="18.8" ry="15.5" fill="#D9C38D" opacity="0.11" transform="rotate(161.9 261.1 163.7)" />
  <ellipse cx="143.9" cy="102.6" rx="13.3" ry="15.1" fill="#D9C38D" opacity="0.11" transform="rotate(134.5 143.9 102.6)" />
  <ellipse cx="71.4" cy="-3.3" rx="19.5" ry="14.8" fill="#D9C38D" opacity="0.08" transform="rotate(48.9 71.4 -3.3)" />
  <ellipse cx="0.5" cy="70.8" rx="14.9" ry="17.6" fill="#D9C38D" opacity="0.09" transform="rotate(54.1 0.5 70.8)" />
  <ellipse cx="122.4" cy="190.3" rx="12.9" ry="15.3" fill="#BFA46B" opacity="0.10" transform="rotate(97.8 122.4 190.3)" />
  <ellipse cx="129.5" cy="168.6" rx="21.7" ry="23.8" fill="#E8D7A8" opacity="0.04" transform="rotate(155.5 129.5 168.6)" />
  <ellipse cx="238.2" cy="33.6" rx="10.0" ry="7.5" fill="#D9C38D" opacity="0.07" transform="rotate(166.7 238.2 33.6)" />
  <ellipse cx="4.0" cy="102.3" rx="17.3" ry="11.7" fill="#D9C38D" opacity="0.11" transform="rotate(162.1 4.0 102.3)" />
  <circle cx="156.5" cy="236.9" r="0.4" fill="#E3CA97" opacity="0.18" />
  <circle cx="235.0" cy="115.1" r="1.2" fill="#F4E3B6" opacity="0.12" />
  <circle cx="20.3" cy="165.1" r="1.3" fill="#E3CA97" opacity="0.17" />
  <circle cx="34.4" cy="247.0" r="1.1" fill="#FFF3D4" opacity="0.26" />
  <circle cx="125.5" cy="239.1" r="0.4" fill="#FFF3D4" opacity="0.33" />
  <circle cx="187.4" cy="96.5" r="0.5" fill="#FFF3D4" opacity="0.36" />
  <circle cx="190.7" cy="233.6" r="1.1" fill="#E3CA97" opacity="0.16" />
  <circle cx="144.9" cy="100.8" r="1.2" fill="#FFF3D4" opacity="0.25" />
  <circle cx="209.6" cy="190.9" r="0.5" fill="#F4E3B6" opacity="0.18" />
  <circle cx="234.2" cy="173.6" r="1.8" fill="#E3CA97" opacity="0.37" />
  <circle cx="48.6" cy="237.9" r="0.5" fill="#F4E3B6" opacity="0.28" />
  <circle cx="24.6" cy="21.8" r="1.5" fill="#FFF3D4" opacity="0.20" />
  <circle cx="153.7" cy="226.5" r="0.4" fill="#E3CA97" opacity="0.30" />
  <circle cx="49.2" cy="17.2" r="0.8" fill="#E3CA97" opacity="0.18" />
  <circle cx="205.3" cy="40.7" r="1.5" fill="#E3CA97" opacity="0.16" />
  <circle cx="150.4" cy="143.8" r="1.6" fill="#F4E3B6" opacity="0.18" />
  <circle cx="177.8" cy="29.9" r="1.7" fill="#E3CA97" opacity="0.35" />
  <circle cx="109.1" cy="142.4" r="1.1" fill="#FFF3D4" opacity="0.20" />
  <circle cx="159.0" cy="175.7" r="0.7" fill="#F4E3B6" opacity="0.21" />
  <circle cx="100.9" cy="10.1" r="0.5" fill="#E3CA97" opacity="0.23" />
  <circle cx="242.3" cy="249.0" r="0.7" fill="#E3CA97" opacity="0.14" />
  <circle cx="62.3" cy="43.2" r="0.6" fill="#E3CA97" opacity="0.35" />
  <circle cx="111.4" cy="7.8" r="1.2" fill="#FFF3D4" opacity="0.21" />
  <circle cx="34.0" cy="25.6" r="1.5" fill="#F4E3B6" opacity="0.27" />
  <circle cx="197.7" cy="212.4" r="1.6" fill="#F4E3B6" opacity="0.27" />
  <circle cx="205.5" cy="228.3" r="1.8" fill="#E3CA97" opacity="0.30" />
  <circle cx="171.3" cy="122.5" r="1.3" fill="#F4E3B6" opacity="0.18" />
  <circle cx="224.1" cy="96.9" r="1.4" fill="#E3CA97" opacity="0.27" />
  <circle cx="204.8" cy="97.4" r="1.2" fill="#F4E3B6" opacity="0.33" />
  <circle cx="14.3" cy="160.4" r="1.8" fill="#E3CA97" opacity="0.38" />
  <circle cx="160.6" cy="80.0" r="1.0" fill="#FFF3D4" opacity="0.13" />
  <circle cx="53.8" cy="39.7" r="1.4" fill="#F4E3B6" opacity="0.26" />
  <circle cx="145.8" cy="109.6" r="1.7" fill="#E3CA97" opacity="0.25" />
  <circle cx="237.9" cy="213.1" r="0.5" fill="#E3CA97" opacity="0.34" />
  <circle cx="98.3" cy="159.4" r="0.7" fill="#E3CA97" opacity="0.13" />
  <circle cx="221.0" cy="151.0" r="0.6" fill="#E3CA97" opacity="0.29" />
  <circle cx="254.4" cy="105.3" r="1.7" fill="#FFF3D4" opacity="0.15" />
  <circle cx="141.8" cy="213.1" r="1.3" fill="#F4E3B6" opacity="0.27" />
  <circle cx="198.5" cy="134.5" r="1.6" fill="#F4E3B6" opacity="0.16" />
  <circle cx="211.4" cy="140.9" r="0.9" fill="#FFF3D4" opacity="0.25" />
  <circle cx="224.7" cy="121.0" r="1.4" fill="#E3CA97" opacity="0.14" />
  <circle cx="248.8" cy="121.3" r="1.7" fill="#E3CA97" opacity="0.28" />
  <circle cx="157.5" cy="107.4" r="1.6" fill="#F4E3B6" opacity="0.16" />
  <circle cx="68.4" cy="69.5" r="0.4" fill="#E3CA97" opacity="0.26" />
  <circle cx="152.9" cy="199.3" r="1.7" fill="#F4E3B6" opacity="0.16" />
  <circle cx="37.3" cy="222.4" r="1.5" fill="#F4E3B6" opacity="0.34" />
  <circle cx="94.8" cy="179.5" r="0.6" fill="#F4E3B6" opacity="0.33" />
  <circle cx="180.4" cy="244.4" r="0.5" fill="#FFF3D4" opacity="0.18" />
  <circle cx="214.7" cy="75.3" r="1.0" fill="#F4E3B6" opacity="0.14" />
  <circle cx="156.3" cy="230.2" r="1.0" fill="#F4E3B6" opacity="0.19" />
  <circle cx="200.8" cy="255.3" r="1.2" fill="#E3CA97" opacity="0.20" />
  <circle cx="58.8" cy="17.7" r="1.2" fill="#FFF3D4" opacity="0.34" />
  <circle cx="180.7" cy="251.6" r="0.9" fill="#F4E3B6" opacity="0.22" />
  <circle cx="148.3" cy="17.0" r="0.5" fill="#E3CA97" opacity="0.21" />
  <circle cx="198.5" cy="237.1" r="1.7" fill="#FFF3D4" opacity="0.16" />
  <circle cx="111.7" cy="226.0" r="1.7" fill="#FFF3D4" opacity="0.32" />
  <circle cx="36.3" cy="102.1" r="1.4" fill="#FFF3D4" opacity="0.28" />
  <circle cx="89.9" cy="26.0" r="1.7" fill="#E3CA97" opacity="0.36" />
  <circle cx="80.2" cy="7.4" r="1.7" fill="#F4E3B6" opacity="0.20" />
  <circle cx="245.3" cy="63.0" r="0.7" fill="#FFF3D4" opacity="0.18" />
  <circle cx="237.8" cy="208.8" r="0.5" fill="#F4E3B6" opacity="0.21" />
  <circle cx="244.3" cy="153.9" r="0.9" fill="#E3CA97" opacity="0.34" />
  <circle cx="159.1" cy="41.1" r="1.4" fill="#FFF3D4" opacity="0.18" />
  <circle cx="35.1" cy="240.4" r="0.9" fill="#E3CA97" opacity="0.18" />
  <circle cx="255.8" cy="15.2" r="0.6" fill="#F4E3B6" opacity="0.16" />
  <circle cx="156.1" cy="194.6" r="1.5" fill="#E3CA97" opacity="0.13" />
  <circle cx="57.7" cy="108.1" r="1.4" fill="#E3CA97" opacity="0.22" />
  <circle cx="237.1" cy="119.2" r="1.2" fill="#FFF3D4" opacity="0.20" />
  <circle cx="124.3" cy="255.5" r="1.2" fill="#E3CA97" opacity="0.24" />
  <circle cx="214.5" cy="135.6" r="1.2" fill="#FFF3D4" opacity="0.12" />
  <circle cx="145.7" cy="52.4" r="0.5" fill="#F4E3B6" opacity="0.22" />
  <circle cx="123.7" cy="74.8" r="1.2" fill="#FFF3D4" opacity="0.15" />
  <circle cx="217.7" cy="155.5" r="1.6" fill="#F4E3B6" opacity="0.25" />
  <circle cx="33.2" cy="171.0" r="1.5" fill="#FFF3D4" opacity="0.32" />
  <circle cx="140.5" cy="111.7" r="0.8" fill="#FFF3D4" opacity="0.23" />
  <circle cx="145.9" cy="49.2" r="0.5" fill="#F4E3B6" opacity="0.22" />
  <circle cx="101.0" cy="15.8" r="0.8" fill="#FFF3D4" opacity="0.19" />
  <circle cx="77.1" cy="171.2" r="0.7" fill="#E3CA97" opacity="0.35" />
  <circle cx="16.1" cy="14.9" r="0.5" fill="#F4E3B6" opacity="0.36" />
  <circle cx="174.8" cy="50.9" r="0.8" fill="#F4E3B6" opacity="0.37" />
  <circle cx="99.8" cy="153.1" r="1.1" fill="#E3CA97" opacity="0.37" />
  <circle cx="191.6" cy="110.1" r="1.6" fill="#FFF3D4" opacity="0.32" />
  <ellipse cx="118.0" cy="14.1" rx="7.1" ry="5.6" fill="#CDB57E" opacity="0.06" transform="rotate(23.7 118.0 14.1)" />
  <ellipse cx="17.8" cy="152.5" rx="5.5" ry="4.4" fill="#CDB57E" opacity="0.04" transform="rotate(9.0 17.8 152.5)" />
  <ellipse cx="27.5" cy="64.2" rx="5.7" ry="3.3" fill="#CDB57E" opacity="0.06" transform="rotate(49.1 27.5 64.2)" />
  <ellipse cx="179.8" cy="62.1" rx="4.4" ry="5.1" fill="#BFA468" opacity="0.09" transform="rotate(131.8 179.8 62.1)" />
  <ellipse cx="217.8" cy="138.3" rx="6.2" ry="6.3" fill="#CDB57E" opacity="0.07" transform="rotate(48.4 217.8 138.3)" />
  <ellipse cx="119.9" cy="121.7" rx="7.2" ry="9.2" fill="#CDB57E" opacity="0.09" transform="rotate(92.4 119.9 121.7)" />
  <ellipse cx="-6.6" cy="-5.6" rx="6.3" ry="8.0" fill="#CDB57E" opacity="0.07" transform="rotate(152.9 -6.6 -5.6)" />
  <ellipse cx="146.9" cy="71.8" rx="6.0" ry="6.8" fill="#BFA468" opacity="0.06" transform="rotate(15.8 146.9 71.8)" />
  <ellipse cx="226.6" cy="91.3" rx="4.2" ry="2.9" fill="#CDB57E" opacity="0.04" transform="rotate(177.2 226.6 91.3)" />
  <ellipse cx="10.5" cy="208.9" rx="4.4" ry="2.8" fill="#CDB57E" opacity="0.10" transform="rotate(154.9 10.5 208.9)" />
</svg>